<svg width="211" height="88" viewBox="0 0 211 88" fill="none" xmlns="http://www.w3.org/2000/svg">
<g clip-path="url(#clip0_289_8)">
<path d="M49.2105 37.62L58.5005 28.46L39.9905 9.94L21.4805 28.46L58.3205 65.42C52.2105 71.58 46.1005 77.74 39.9905 83.9C33.8305 77.74 27.6605 71.58 21.5005 65.42C24.5405 62.41 27.5705 59.39 30.6105 56.38" stroke="#CD212A" stroke-width="4.62" stroke-miterlimit="10"/>
<path d="M63.0605 32.96L76.8005 46.9L63.0605 60.84" stroke="#CD212A" stroke-width="4.62" stroke-miterlimit="10"/>
<path d="M16.9802 60.7C12.4002 56.11 7.82023 51.51 3.24023 46.92C7.82023 42.22 12.4002 37.52 16.9802 32.82" stroke="#CD212A" stroke-width="4.62" stroke-miterlimit="10"/>
<path d="M89.0498 62.79C89.5298 62.13 90.1198 61.61 90.8198 61.24C91.5198 60.87 92.2798 60.69 93.0998 60.69C94.0998 60.69 94.9098 60.96 95.5298 61.49C96.1498 62.02 96.4998 62.76 96.5798 63.68H94.3198C94.2198 63.33 94.0298 63.06 93.7498 62.88C93.4698 62.7 93.1398 62.61 92.7398 62.61C92.1098 62.61 91.5598 62.83 91.0998 63.27C90.6398 63.71 90.3398 64.3 90.2098 65.04C90.1698 65.27 90.1498 65.47 90.1498 65.64C90.1498 66.21 90.3098 66.66 90.6198 66.99C90.9298 67.32 91.3598 67.49 91.8998 67.49C92.2898 67.49 92.6598 67.4 92.9998 67.21C93.3398 67.02 93.6298 66.75 93.8598 66.41H96.1198C95.7198 67.34 95.1198 68.07 94.3098 68.6C93.4998 69.13 92.5998 69.4 91.5998 69.4C90.8798 69.4 90.2498 69.26 89.7198 68.97C89.1898 68.68 88.7698 68.28 88.4798 67.76C88.1898 67.24 88.0498 66.63 88.0498 65.94C88.0498 65.63 88.0798 65.33 88.1298 65.04C88.2698 64.19 88.5798 63.44 89.0598 62.78L89.0498 62.79Z" fill="#1B1B1B"/>
<path d="M98.9898 68.98C98.4498 68.68 98.0298 68.26 97.7398 67.71C97.4398 67.17 97.2998 66.54 97.2998 65.83C97.2998 64.83 97.5098 63.94 97.9398 63.15C98.3598 62.37 98.9498 61.75 99.7098 61.32C100.47 60.88 101.32 60.66 102.28 60.66C103 60.66 103.63 60.81 104.18 61.1C104.72 61.4 105.14 61.82 105.44 62.36C105.74 62.9 105.88 63.52 105.88 64.22C105.88 65.22 105.67 66.12 105.24 66.91C104.81 67.7 104.22 68.32 103.46 68.76C102.7 69.2 101.84 69.42 100.87 69.42C100.16 69.42 99.5298 69.27 98.9898 68.97V68.98ZM102.57 67.09C102.97 66.81 103.28 66.44 103.5 65.97C103.72 65.5 103.83 65 103.83 64.45C103.83 63.87 103.67 63.41 103.35 63.07C103.03 62.74 102.58 62.57 102.01 62.57C101.48 62.57 101.02 62.71 100.61 62.98C100.2 63.25 99.8898 63.62 99.6698 64.08C99.4498 64.54 99.3398 65.05 99.3398 65.6C99.3398 66.18 99.4998 66.65 99.8198 66.98C100.14 67.32 100.59 67.49 101.18 67.49C101.71 67.49 102.17 67.35 102.57 67.08V67.09ZM104.01 59.02L100.89 60.25L101.14 58.81L104.28 57.4L104 59.02H104.01Z" fill="#1B1B1B"/>
<path d="M112.94 61.21C113.5 61.49 113.94 61.88 114.24 62.39C114.54 62.9 114.69 63.49 114.69 64.18C114.69 64.42 114.66 64.71 114.61 65.07C114.47 65.91 114.16 66.65 113.68 67.3C113.2 67.95 112.6 68.45 111.87 68.81C111.14 69.17 110.33 69.35 109.45 69.35H106.29L107.78 60.79H110.94C111.72 60.79 112.39 60.93 112.95 61.21H112.94ZM111.55 66.91C112.06 66.47 112.38 65.86 112.51 65.07C112.55 64.83 112.57 64.62 112.57 64.46C112.57 63.86 112.39 63.39 112.03 63.06C111.67 62.73 111.16 62.57 110.49 62.57H109.51L108.65 67.57H109.62C110.4 67.57 111.04 67.35 111.55 66.91Z" fill="#1B1B1B"/>
<path d="M118.55 60.79L117.06 69.35H115.01L116.5 60.79H118.55Z" fill="#1B1B1B"/>
<path d="M119.889 62.79C120.369 62.13 120.959 61.61 121.669 61.24C122.379 60.87 123.149 60.69 123.989 60.69C124.999 60.69 125.809 60.94 126.419 61.43C127.029 61.93 127.369 62.61 127.419 63.49H125.159C125.059 63.21 124.869 62.99 124.609 62.84C124.349 62.69 124.029 62.61 123.659 62.61C122.999 62.61 122.429 62.83 121.949 63.27C121.469 63.71 121.169 64.3 121.039 65.04C120.999 65.28 120.979 65.5 120.979 65.67C120.979 66.27 121.149 66.73 121.499 67.06C121.849 67.39 122.329 67.55 122.959 67.55C123.469 67.55 123.919 67.42 124.319 67.15C124.709 66.89 125.029 66.51 125.269 66.02H122.679L122.929 64.5H127.389L127.049 66.44C126.809 66.96 126.469 67.44 126.019 67.89C125.579 68.34 125.049 68.7 124.439 68.97C123.829 69.25 123.179 69.38 122.469 69.38C121.759 69.38 121.099 69.24 120.559 68.95C120.009 68.66 119.589 68.26 119.299 67.74C119.009 67.22 118.859 66.61 118.859 65.92C118.859 65.68 118.889 65.39 118.939 65.03C119.079 64.18 119.389 63.43 119.869 62.77L119.889 62.79Z" fill="#1B1B1B"/>
<path d="M129.83 68.98C129.29 68.68 128.87 68.26 128.58 67.71C128.28 67.17 128.14 66.54 128.14 65.83C128.14 64.83 128.35 63.94 128.78 63.15C129.2 62.37 129.79 61.75 130.55 61.32C131.31 60.88 132.16 60.66 133.12 60.66C133.84 60.66 134.47 60.81 135.02 61.1C135.56 61.4 135.98 61.82 136.28 62.36C136.58 62.9 136.72 63.52 136.72 64.22C136.72 65.22 136.51 66.12 136.08 66.91C135.65 67.7 135.06 68.32 134.3 68.76C133.54 69.2 132.68 69.42 131.71 69.42C131 69.42 130.37 69.27 129.83 68.97V68.98ZM133.41 67.09C133.81 66.81 134.12 66.44 134.34 65.97C134.56 65.5 134.67 65 134.67 64.45C134.67 63.87 134.51 63.41 134.19 63.07C133.87 62.74 133.42 62.57 132.85 62.57C132.32 62.57 131.86 62.71 131.45 62.98C131.04 63.25 130.73 63.62 130.51 64.08C130.29 64.54 130.18 65.05 130.18 65.6C130.18 66.18 130.34 66.65 130.66 66.98C130.98 67.32 131.43 67.49 132.02 67.49C132.55 67.49 133.01 67.35 133.41 67.08V67.09Z" fill="#1B1B1B"/>
<path d="M138.25 68.8301C137.68 68.4301 137.39 67.8601 137.39 67.1201C137.39 67.0501 137.39 66.9401 137.41 66.7901H139.55C139.53 67.1001 139.6 67.3401 139.77 67.5201C139.94 67.7 140.19 67.7901 140.54 67.7901C140.85 67.7901 141.1 67.7201 141.28 67.5801C141.46 67.4401 141.55 67.2501 141.55 66.9901C141.55 66.7301 141.44 66.5201 141.21 66.3601C140.98 66.2001 140.63 66.0101 140.15 65.8101C139.69 65.6201 139.31 65.4301 139.02 65.2601C138.73 65.0901 138.47 64.8501 138.26 64.5501C138.04 64.2501 137.94 63.8701 137.94 63.4201C137.94 62.8601 138.07 62.3701 138.35 61.9601C138.63 61.5501 139.02 61.2301 139.51 61.0101C140.01 60.7901 140.57 60.6801 141.21 60.6801C141.79 60.6801 142.3 60.7701 142.75 60.9501C143.2 61.1301 143.55 61.4001 143.79 61.7401C144.04 62.0901 144.16 62.4901 144.16 62.9701C144.16 63.0901 144.16 63.1801 144.15 63.2401H141.97C141.97 63.2401 141.98 63.1601 141.98 63.0901C141.98 62.8601 141.9 62.6801 141.75 62.5401C141.59 62.4001 141.38 62.3301 141.11 62.3301C140.82 62.3301 140.59 62.4001 140.41 62.5401C140.23 62.6801 140.14 62.8801 140.14 63.1201C140.14 63.3601 140.25 63.5701 140.48 63.7401C140.71 63.9101 141.05 64.1001 141.52 64.3201C141.99 64.5401 142.38 64.7401 142.68 64.9301C142.98 65.1201 143.24 65.3701 143.45 65.6801C143.67 65.9901 143.77 66.3801 143.77 66.8301C143.77 67.3301 143.64 67.7901 143.37 68.1801C143.11 68.5801 142.73 68.8901 142.23 69.1101C141.73 69.3301 141.15 69.4501 140.49 69.4501C139.58 69.4501 138.84 69.2501 138.26 68.8501L138.25 68.8301Z" fill="#1B1B1B"/>
<path d="M155.8 66.81C155.42 67.58 154.88 68.19 154.19 68.63L155.59 70.81H153.11L152.31 69.36C152.01 69.41 151.7 69.43 151.37 69.43C150.66 69.43 150.03 69.28 149.49 68.98C148.95 68.68 148.53 68.26 148.24 67.71C147.94 67.17 147.8 66.54 147.8 65.83C147.8 64.83 148.01 63.94 148.44 63.15C148.86 62.37 149.45 61.75 150.21 61.32C150.97 60.88 151.82 60.66 152.78 60.66C153.5 60.66 154.13 60.81 154.68 61.1C155.22 61.4 155.64 61.82 155.94 62.36C156.24 62.9 156.38 63.52 156.38 64.22C156.38 65.17 156.19 66.03 155.8 66.8V66.81ZM150.33 67C150.65 67.34 151.1 67.51 151.69 67.51C152.22 67.51 152.68 67.37 153.08 67.1C153.48 66.82 153.79 66.45 154.01 65.98C154.23 65.51 154.34 65.01 154.34 64.46C154.34 63.88 154.18 63.42 153.86 63.08C153.54 62.75 153.09 62.58 152.52 62.58C151.99 62.58 151.53 62.72 151.12 62.99C150.71 63.26 150.4 63.63 150.18 64.09C149.96 64.55 149.85 65.06 149.85 65.61C149.85 66.19 150.01 66.66 150.33 66.99V67Z" fill="#1B1B1B"/>
<path d="M160.32 60.79L159.43 65.9C159.4 66.11 159.38 66.26 159.38 66.34C159.38 66.71 159.48 67 159.69 67.2C159.9 67.4 160.21 67.5 160.61 67.5C161.09 67.5 161.48 67.36 161.79 67.09C162.09 66.81 162.29 66.42 162.38 65.91L163.27 60.8H165.32L164.43 65.91C164.29 66.68 164.02 67.33 163.62 67.87C163.22 68.4 162.72 68.8 162.14 69.06C161.56 69.32 160.93 69.45 160.25 69.45C159.37 69.45 158.66 69.22 158.12 68.76C157.58 68.3 157.31 67.63 157.31 66.75C157.31 66.49 157.33 66.21 157.38 65.92L158.26 60.81H160.31L160.32 60.79Z" fill="#1B1B1B"/>
<path d="M168.53 62.44L168.23 64.22H170.98L170.7 65.79H167.95L167.61 67.7H170.72L170.43 69.35H165.27L166.76 60.79H171.92L171.63 62.44H168.52H168.53Z" fill="#1B1B1B"/>
<path d="M89.0498 79.05C89.5298 78.39 90.1198 77.87 90.8198 77.5C91.5198 77.13 92.2798 76.95 93.0998 76.95C94.0998 76.95 94.9098 77.22 95.5298 77.75C96.1498 78.28 96.4998 79.02 96.5798 79.94H94.3198C94.2198 79.59 94.0298 79.32 93.7498 79.14C93.4698 78.96 93.1398 78.87 92.7398 78.87C92.1098 78.87 91.5598 79.09 91.0998 79.53C90.6398 79.97 90.3398 80.56 90.2098 81.3C90.1698 81.53 90.1498 81.73 90.1498 81.9C90.1498 82.47 90.3098 82.92 90.6198 83.25C90.9298 83.58 91.3598 83.75 91.8998 83.75C92.2898 83.75 92.6598 83.66 92.9998 83.47C93.3398 83.28 93.6298 83.01 93.8598 82.67H96.1198C95.7198 83.6 95.1198 84.33 94.3098 84.86C93.4998 85.39 92.5998 85.66 91.5998 85.66C90.8798 85.66 90.2498 85.52 89.7198 85.23C89.1898 84.94 88.7698 84.54 88.4798 84.02C88.1898 83.5 88.0498 82.89 88.0498 82.2C88.0498 81.89 88.0798 81.59 88.1298 81.3C88.2698 80.45 88.5798 79.7 89.0598 79.04L89.0498 79.05Z" fill="#1B1B1B"/>
<path d="M98.9898 85.24C98.4498 84.94 98.0298 84.52 97.7398 83.97C97.4398 83.43 97.2998 82.8 97.2998 82.09C97.2998 81.09 97.5098 80.2 97.9398 79.41C98.3598 78.63 98.9498 78.01 99.7098 77.58C100.47 77.14 101.32 76.92 102.28 76.92C103 76.92 103.63 77.07 104.18 77.36C104.72 77.66 105.14 78.08 105.44 78.62C105.74 79.16 105.88 79.78 105.88 80.48C105.88 81.48 105.67 82.38 105.24 83.17C104.81 83.96 104.22 84.58 103.46 85.02C102.7 85.46 101.84 85.68 100.87 85.68C100.16 85.68 99.5298 85.53 98.9898 85.23V85.24ZM102.57 83.35C102.97 83.07 103.28 82.7 103.5 82.23C103.72 81.76 103.83 81.26 103.83 80.71C103.83 80.13 103.67 79.67 103.35 79.33C103.03 79 102.58 78.83 102.01 78.83C101.48 78.83 101.02 78.97 100.61 79.24C100.2 79.51 99.8898 79.88 99.6698 80.34C99.4498 80.8 99.3398 81.31 99.3398 81.86C99.3398 82.44 99.4998 82.91 99.8198 83.24C100.14 83.58 100.59 83.75 101.18 83.75C101.71 83.75 102.17 83.61 102.57 83.34V83.35Z" fill="#1B1B1B"/>
<path d="M113.83 85.6H111.78L109.27 80.32L108.35 85.6H106.3L107.79 77.04H109.84L112.35 82.34L113.27 77.04H115.32L113.83 85.6Z" fill="#1B1B1B"/>
<path d="M118.56 78.69L118.26 80.47H121.01L120.73 82.04H117.98L117.64 83.95H120.75L120.46 85.6H115.3L116.79 77.04H121.95L121.66 78.69H118.55H118.56Z" fill="#1B1B1B"/>
<path d="M123.14 79.05C123.62 78.39 124.21 77.87 124.91 77.5C125.61 77.13 126.37 76.95 127.19 76.95C128.19 76.95 129 77.22 129.62 77.75C130.24 78.28 130.59 79.02 130.67 79.94H128.41C128.31 79.59 128.12 79.32 127.84 79.14C127.56 78.96 127.23 78.87 126.83 78.87C126.2 78.87 125.65 79.09 125.19 79.53C124.73 79.97 124.43 80.56 124.3 81.3C124.26 81.53 124.24 81.73 124.24 81.9C124.24 82.47 124.4 82.92 124.71 83.25C125.02 83.58 125.45 83.75 125.99 83.75C126.38 83.75 126.75 83.66 127.09 83.47C127.43 83.28 127.72 83.01 127.95 82.67H130.21C129.81 83.6 129.21 84.33 128.4 84.86C127.59 85.39 126.69 85.66 125.69 85.66C124.97 85.66 124.34 85.52 123.81 85.23C123.28 84.94 122.86 84.54 122.57 84.02C122.28 83.5 122.14 82.89 122.14 82.2C122.14 81.89 122.17 81.59 122.22 81.3C122.36 80.45 122.67 79.7 123.15 79.04L123.14 79.05Z" fill="#1B1B1B"/>
<path d="M138.5 77.04L138.22 78.69H135.98L134.78 85.6H132.73L133.93 78.69H131.7L131.99 77.04H138.51H138.5Z" fill="#1B1B1B"/>
<path d="M143.55 84.09H140.41L139.64 85.6H137.49L142.03 77.04H144.41L145.97 85.6H143.8L143.56 84.09H143.55ZM143.31 82.51L142.82 79.34L141.21 82.51H143.31Z" fill="#1B1B1B"/>
<path d="M154.42 85.6H152.37L149.86 80.32L148.94 85.6H146.89L148.38 77.04H150.43L152.94 82.34L153.86 77.04H155.91L154.42 85.6Z" fill="#1B1B1B"/>
<path d="M167.39 77.04L163.49 82.77L162.99 85.6H160.94L161.44 82.77L159.51 77.04H161.84L162.85 80.61L165.09 77.04H167.39Z" fill="#1B1B1B"/>
<path d="M170.84 79.05C171.32 78.39 171.91 77.87 172.61 77.5C173.31 77.13 174.07 76.95 174.89 76.95C175.89 76.95 176.7 77.22 177.32 77.75C177.94 78.28 178.29 79.02 178.37 79.94H176.11C176.01 79.59 175.82 79.32 175.54 79.14C175.26 78.96 174.93 78.87 174.53 78.87C173.9 78.87 173.35 79.09 172.89 79.53C172.43 79.97 172.13 80.56 172 81.3C171.96 81.53 171.94 81.73 171.94 81.9C171.94 82.47 172.1 82.92 172.41 83.25C172.72 83.58 173.15 83.75 173.69 83.75C174.08 83.75 174.45 83.66 174.79 83.47C175.13 83.28 175.42 83.01 175.65 82.67H177.91C177.51 83.6 176.91 84.33 176.1 84.86C175.29 85.39 174.39 85.66 173.39 85.66C172.67 85.66 172.04 85.52 171.51 85.23C170.98 84.94 170.56 84.54 170.27 84.02C169.98 83.5 169.84 82.89 169.84 82.2C169.84 81.89 169.87 81.59 169.92 81.3C170.06 80.45 170.37 79.7 170.85 79.04L170.84 79.05Z" fill="#1B1B1B"/>
<path d="M185.569 77.65C186.029 78.05 186.249 78.57 186.249 79.22C186.249 79.41 186.229 79.58 186.199 79.74C186.099 80.31 185.859 80.82 185.469 81.26C185.079 81.71 184.549 82.02 183.899 82.21L185.259 85.6H182.939L181.749 82.37H181.259L180.699 85.6H178.649L180.139 77.04H183.579C184.449 77.04 185.119 77.24 185.569 77.64V77.65ZM184.129 79.57C184.129 79.31 184.049 79.11 183.879 78.97C183.719 78.83 183.469 78.76 183.149 78.76H181.879L181.509 80.91H182.779C183.159 80.91 183.449 80.82 183.669 80.63C183.889 80.44 184.029 80.18 184.099 79.84C184.119 79.71 184.119 79.62 184.119 79.58L184.129 79.57Z" fill="#1B1B1B"/>
<path d="M189.72 78.69L189.42 80.47H192.17L191.89 82.04H189.14L188.8 83.95H191.91L191.62 85.6H186.46L187.95 77.04H193.11L192.82 78.69H189.71H189.72Z" fill="#1B1B1B"/>
<path d="M198.47 84.09H195.33L194.56 85.6H192.41L196.95 77.04H199.33L200.89 85.6H198.72L198.48 84.09H198.47ZM198.23 82.51L197.74 79.34L196.13 82.51H198.23Z" fill="#1B1B1B"/>
<path d="M209.34 85.6H207.29L204.78 80.32L203.86 85.6H201.81L203.3 77.04H205.35L207.86 82.34L208.78 77.04H210.83L209.34 85.6Z" fill="#1B1B1B"/>
<path d="M119.05 6.57003L113.96 15.36C111 13.09 108.3 11.96 105.87 11.96C104.28 11.96 103.02 12.32 102.1 13.04C101.18 13.76 100.72 14.74 100.72 15.97C100.72 17.07 101.11 17.99 101.9 18.73C102.69 19.47 104.24 20.38 106.55 21.46C109.72 22.94 112.06 24.44 113.59 25.94C115.7 27.98 116.76 30.79 116.76 34.36C116.76 38.81 115.14 42.55 111.91 45.58C108.7 48.61 104.46 50.13 99.2097 50.13C96.4497 50.13 93.9397 49.76 91.6797 49.03C89.4197 48.3 86.7597 46.98 83.6797 45.07L88.8997 36.24C90.9897 37.66 92.7397 38.64 94.1597 39.19C95.5797 39.74 97.0797 40.02 98.6697 40.02C100.56 40.02 102.06 39.57 103.18 38.67C104.26 37.79 104.8 36.69 104.8 35.37C104.8 34.36 104.44 33.5 103.72 32.79C103 32.08 101.57 31.19 99.4397 30.11C96.0497 28.43 93.5997 26.86 92.0997 25.43C89.8797 23.32 88.7597 20.43 88.7597 16.77C88.7597 12.12 90.7097 8.38003 94.6197 5.55003C97.6697 3.37003 101.36 2.28003 105.67 2.28003C110.23 2.28003 114.69 3.71003 119.05 6.56003V6.57003Z" fill="#041E42"/>
<path d="M137.08 18.4L133.27 49.23H121.92L125.73 18.4H137.08ZM133.07 0C134.82 0 136.33 0.61 137.58 1.82C138.95 3.15 139.64 4.78 139.64 6.74C139.64 8.7 138.99 10.23 137.68 11.56C136.38 12.89 134.8 13.55 132.96 13.55C130.92 13.55 129.24 12.81 127.94 11.33C126.75 9.98 126.15 8.44 126.15 6.71C126.15 4.87 126.79 3.32 128.07 2.06C129.49 0.69 131.15 0 133.06 0L133.07 0Z" fill="#041E42"/>
<path d="M157.019 27.12L154.289 49.22H142.939L145.669 27.12H140.779L141.859 18.39H146.749L147.959 8.52002H159.309L158.099 18.39H164.159L163.079 27.12H157.019Z" fill="#041E42"/>
<path d="M184.55 17.49C189.65 17.49 193.75 18.7 196.85 21.13C200.58 24.07 202.44 28.19 202.44 33.49C202.44 37.74 201 41.44 198.13 44.61C194.76 48.29 190.11 50.14 184.18 50.14C178.65 50.14 174.21 48.62 170.84 45.59C167.47 42.54 165.79 38.64 165.79 33.9C165.79 28.82 167.71 24.77 171.55 21.74C175.12 18.91 179.46 17.49 184.55 17.49ZM184.75 26.45C182.55 26.45 180.73 27.33 179.29 29.08C178.01 30.61 177.37 32.49 177.37 34.74C177.37 36.4 177.76 37.76 178.55 38.82C179.72 40.39 181.4 41.18 183.6 41.18C186 41.18 187.89 40.19 189.26 38.22C190.32 36.72 190.84 34.97 190.84 33C190.84 30.71 190.2 29.01 188.92 27.91C187.8 26.94 186.4 26.46 184.74 26.46L184.75 26.45Z" fill="#041E42"/>
</g>
<defs>
<clipPath id="clip0_289_8">
<rect width="210.83" height="87.17" fill="white"/>
</clipPath>
</defs>
</svg>
