<svg width="223" height="109" viewBox="0 0 223 109" fill="none" xmlns="http://www.w3.org/2000/svg">
<g clip-path="url(#clip0_289_43)">
<path d="M45.7699 58.12L52.7099 47.08L30.4499 33.29L16.6699 55.56L60.9899 83.1C56.4499 90.49 51.9199 97.89 47.3799 105.28C39.9699 100.7 32.5599 96.11 25.1499 91.52C27.4099 87.89 29.6799 84.26 31.9399 80.64" stroke="#CD212A" stroke-width="4.62" stroke-miterlimit="10"/>
<path d="M58.1807 50.41L74.7507 60.84L64.5707 77.55" stroke="#CD212A" stroke-width="4.62" stroke-miterlimit="10"/>
<path d="M19.6804 87.97C14.1704 84.55 8.66039 81.12 3.15039 77.7C6.53039 72.08 9.91039 66.45 13.2904 60.83" stroke="#CD212A" stroke-width="4.62" stroke-miterlimit="10"/>
<path d="M106.58 9.19003L104.34 19.17C101.52 17.73 98.9196 17.29 96.5296 17.85C94.9996 18.21 93.9096 18.94 93.2596 20.02C92.7196 20.95 92.5696 21.88 92.7896 22.84C92.9896 23.68 93.4796 24.32 94.2696 24.75C95.0296 25.14 95.7596 25.4 96.4696 25.53C97.1796 25.66 98.8496 25.82 101.48 26C105.16 26.28 108.05 27.15 110.14 28.62C112.37 30.22 113.88 32.69 114.66 36.02C115.86 41.11 115.33 45.3 113.09 48.59C110.68 52.08 106.98 54.41 102 55.58C96.8796 56.79 91.6496 56.24 86.3296 53.95L88.7996 43.57C92.7496 45.81 96.2996 46.57 99.4496 45.83C101.37 45.38 102.64 44.52 103.27 43.25C103.77 42.24 103.9 41.24 103.66 40.25C103.38 39.06 102.7 38.22 101.63 37.73C100.56 37.24 98.6496 36.9 95.9096 36.69C91.6196 36.4 88.6896 35.83 87.1396 34.98C84.4596 33.58 82.6596 30.91 81.7296 26.97C80.6496 22.36 81.2096 18.32 83.4396 14.85C85.4496 11.68 88.4596 9.63003 92.4596 8.69003C96.9896 7.62003 101.69 7.79003 106.57 9.17003L106.58 9.19003Z" fill="#041E42"/>
<path d="M118.45 0.160002C120.02 -0.209998 121.5 0.0600024 122.87 0.970002C124.25 1.88 125.13 3.16 125.52 4.8C125.91 6.47 125.69 8.01 124.87 9.44C124.04 10.87 122.85 11.76 121.3 12.13C119.71 12.5 118.23 12.23 116.88 11.32C115.5 10.39 114.61 9.08 114.21 7.39C113.83 5.79 114.06 4.27 114.9 2.84C115.74 1.41 116.92 0.510002 118.45 0.150002V0.160002ZM127.6 16.54L134.69 46.67L124.65 49.03L117.56 18.9L127.6 16.54Z" fill="#041E42"/>
<path d="M147.78 21.15L152.78 42.42L142.74 44.78L137.74 23.51L134.43 24.29L132.35 15.43L135.66 14.65L133.53 5.58998L143.57 3.22998L145.7 12.29L151.43 10.94L153.51 19.8L147.78 21.15Z" fill="#041E42"/>
<path d="M171.369 5.08002C176.999 3.75002 181.829 4.54002 185.849 7.43002C189.169 9.80002 191.309 13.07 192.289 17.22C193.439 22.11 192.669 26.52 189.969 30.44C187.559 33.95 183.849 36.3 178.829 37.48C175.649 38.23 172.489 38.2 169.379 37.41C166.469 36.66 163.949 35.06 161.819 32.61C159.999 30.55 158.739 28.01 158.029 25C156.939 20.35 157.729 16.04 160.419 12.07C161.769 10.11 163.619 8.47002 165.989 7.16002C167.749 6.20002 169.539 5.50002 171.379 5.07002L171.369 5.08002ZM173.529 14.27C171.729 14.69 170.369 15.72 169.439 17.36C168.489 19.02 168.239 20.77 168.669 22.61C169.129 24.58 170.159 26.1 171.739 27.16C173.299 28.21 174.989 28.52 176.809 28.09C178.629 27.66 179.949 26.64 180.899 25C181.849 23.34 182.089 21.56 181.649 19.65C181.189 17.7 180.169 16.22 178.599 15.19C176.999 14.15 175.309 13.84 173.529 14.26V14.27Z" fill="#041E42"/>
<path d="M95.3602 90.32C95.5702 89.55 95.9702 88.9 96.5502 88.37C97.1302 87.83 97.8402 87.47 98.6902 87.27C99.7302 87.03 100.68 87.09 101.55 87.47C102.42 87.85 103.09 88.48 103.56 89.37L101.22 89.92C100.96 89.59 100.65 89.37 100.28 89.26C99.9102 89.14 99.5302 89.13 99.1202 89.23C98.4602 89.38 97.9802 89.74 97.6902 90.29C97.3902 90.84 97.3302 91.5 97.5102 92.27C97.6902 93.04 98.0402 93.6 98.5502 93.96C99.0602 94.32 99.6502 94.43 100.31 94.27C100.72 94.17 101.06 93.99 101.33 93.73C101.6 93.46 101.79 93.13 101.88 92.72L104.22 92.17C104.19 93.18 103.87 94.04 103.26 94.76C102.65 95.48 101.82 95.96 100.78 96.21C99.9302 96.41 99.1302 96.4 98.3702 96.18C97.6102 95.96 96.9702 95.56 96.4302 94.97C95.9002 94.38 95.5302 93.66 95.3302 92.79C95.1302 91.92 95.1302 91.11 95.3502 90.34L95.3602 90.32Z" fill="#1B1B1B"/>
<path d="M108.01 93.9C107.23 93.68 106.56 93.27 106 92.68C105.44 92.09 105.05 91.36 104.85 90.51C104.65 89.65 104.67 88.84 104.91 88.06C105.15 87.28 105.57 86.62 106.17 86.08C106.77 85.54 107.48 85.17 108.3 84.97C109.12 84.77 109.92 84.79 110.7 85.01C111.48 85.23 112.14 85.64 112.7 86.23C113.26 86.82 113.63 87.54 113.84 88.4C114.05 89.26 114.02 90.07 113.79 90.85C113.55 91.63 113.14 92.29 112.55 92.83C111.96 93.37 111.25 93.74 110.43 93.94C109.61 94.14 108.81 94.12 108.03 93.9H108.01ZM111.46 90.9C111.77 90.34 111.84 89.67 111.66 88.91C111.48 88.15 111.12 87.57 110.59 87.21C110.06 86.85 109.45 86.75 108.75 86.91C108.05 87.07 107.53 87.44 107.22 87.99C106.91 88.55 106.84 89.21 107.03 90C107.22 90.79 107.57 91.34 108.1 91.7C108.63 92.06 109.25 92.16 109.95 91.99C110.65 91.82 111.15 91.46 111.46 90.9Z" fill="#1B1B1B"/>
<path d="M123.88 90.68L121.75 91.18L116.91 86.62L118.18 92.02L116.05 92.52L113.99 83.76L116.12 83.26L120.96 87.85L119.68 82.42L121.81 81.92L123.87 90.68H123.88Z" fill="#1B1B1B"/>
<path d="M125.9 82.77L126.32 84.54L129.18 83.87L129.57 85.52L126.71 86.19L127.16 88.11L130.39 87.35L130.79 89.06L125.43 90.32L123.37 81.56L128.73 80.3L129.13 82.01L125.9 82.77Z" fill="#1B1B1B"/>
<path d="M130.801 81.98C131.011 81.21 131.411 80.56 131.991 80.03C132.571 79.49 133.281 79.13 134.131 78.93C135.171 78.69 136.121 78.75 136.991 79.13C137.861 79.51 138.531 80.14 139.001 81.03L136.661 81.58C136.401 81.25 136.091 81.03 135.721 80.92C135.351 80.8 134.971 80.79 134.561 80.89C133.901 81.04 133.421 81.4 133.131 81.95C132.831 82.5 132.771 83.16 132.951 83.93C133.131 84.7 133.481 85.26 133.991 85.62C134.501 85.98 135.091 86.09 135.751 85.93C136.161 85.83 136.501 85.65 136.771 85.39C137.041 85.12 137.231 84.79 137.321 84.38L139.661 83.83C139.631 84.84 139.311 85.7 138.701 86.42C138.091 87.14 137.261 87.62 136.221 87.87C135.371 88.07 134.571 88.06 133.811 87.84C133.051 87.62 132.411 87.22 131.871 86.63C131.341 86.04 130.971 85.32 130.771 84.45C130.571 83.58 130.571 82.77 130.791 82L130.801 81.98Z" fill="#1B1B1B"/>
<path d="M145.92 76.26L146.32 77.97L144 78.52L145.66 85.57L143.53 86.07L141.87 79.02L139.55 79.57L139.15 77.86L145.92 76.27V76.26Z" fill="#1B1B1B"/>
<path d="M154.14 81.93L150.87 82.7L150.71 84.37L148.48 84.9L149.59 75.4L152.06 74.82L157.29 82.83L155.03 83.36L154.14 81.94V81.93ZM153.2 80.41L151.36 77.46L151.04 80.92L153.2 80.41Z" fill="#1B1B1B"/>
<path d="M166.08 80.76L163.95 81.26L159.11 76.7L160.38 82.1L158.25 82.6L156.19 73.84L158.32 73.34L163.16 77.93L161.88 72.5L164.01 72L166.07 80.76H166.08Z" fill="#1B1B1B"/>
<path d="M175.72 69.25L174.07 75.83L174.75 78.72L172.62 79.22L171.94 76.33L167.53 71.18L169.95 70.61L172.51 73.88L173.33 69.82L175.72 69.26V69.25Z" fill="#1B1B1B"/>
<path d="M179.91 70.43C180.12 69.66 180.52 69.01 181.1 68.48C181.68 67.94 182.39 67.58 183.24 67.38C184.28 67.14 185.23 67.2 186.1 67.58C186.97 67.96 187.64 68.59 188.11 69.48L185.77 70.03C185.51 69.7 185.2 69.48 184.83 69.37C184.46 69.25 184.08 69.24 183.67 69.34C183.01 69.49 182.53 69.85 182.24 70.4C181.94 70.95 181.88 71.61 182.06 72.38C182.24 73.15 182.59 73.71 183.1 74.07C183.61 74.43 184.2 74.54 184.86 74.38C185.27 74.28 185.61 74.1 185.88 73.84C186.15 73.57 186.34 73.24 186.43 72.83L188.77 72.28C188.74 73.29 188.42 74.15 187.81 74.87C187.2 75.59 186.37 76.07 185.33 76.32C184.48 76.52 183.68 76.51 182.92 76.29C182.16 76.07 181.52 75.67 180.98 75.08C180.45 74.49 180.08 73.77 179.88 72.9C179.68 72.03 179.68 71.22 179.9 70.45L179.91 70.43Z" fill="#1B1B1B"/>
<path d="M195.26 73.9L192.66 71.02L192.15 71.14L192.93 74.45L190.8 74.95L188.74 66.19L192.32 65.35C193.01 65.19 193.63 65.17 194.17 65.3C194.71 65.43 195.15 65.67 195.49 66.04C195.83 66.4 196.06 66.84 196.18 67.36C196.32 67.94 196.28 68.5 196.05 69.04C195.83 69.57 195.42 70.01 194.83 70.35L197.67 73.34L195.26 73.91V73.9ZM191.79 69.63L193.11 69.32C193.5 69.23 193.77 69.06 193.92 68.83C194.07 68.59 194.1 68.3 194.02 67.95C193.94 67.6 193.78 67.38 193.54 67.23C193.3 67.08 192.98 67.06 192.59 67.15L191.27 67.46L191.78 69.63H191.79Z" fill="#1B1B1B"/>
<path d="M199.4 65.48L199.82 67.25L202.68 66.58L203.07 68.23L200.21 68.9L200.66 70.82L203.89 70.06L204.29 71.77L198.93 73.03L196.87 64.27L202.23 63.01L202.63 64.72L199.4 65.48Z" fill="#1B1B1B"/>
<path d="M210.761 68.62L207.491 69.39L207.331 71.06L205.101 71.59L206.211 62.09L208.681 61.51L213.911 69.52L211.651 70.05L210.761 68.63V68.62ZM209.821 67.1L207.981 64.15L207.661 67.61L209.821 67.1Z" fill="#1B1B1B"/>
<path d="M222.701 67.44L220.571 67.94L215.731 63.38L217.001 68.78L214.871 69.28L212.811 60.52L214.941 60.02L219.781 64.61L218.501 59.18L220.631 58.68L222.691 67.44H222.701Z" fill="#1B1B1B"/>
<path d="M91.8905 75.34C92.1005 74.57 92.5005 73.92 93.0805 73.39C93.6605 72.86 94.3805 72.49 95.2205 72.29C96.2605 72.05 97.2105 72.11 98.0805 72.49C98.9505 72.86 99.6205 73.5 100.09 74.39L97.7405 74.94C97.4805 74.61 97.1705 74.39 96.8005 74.28C96.4305 74.17 96.0505 74.15 95.6405 74.25C94.9805 74.4 94.5005 74.76 94.2105 75.31C93.9105 75.86 93.8505 76.52 94.0305 77.29C94.2105 78.06 94.5605 78.62 95.0705 78.98C95.5805 79.34 96.1705 79.45 96.8305 79.29C97.2405 79.19 97.5805 79.01 97.8505 78.75C98.1305 78.48 98.3105 78.15 98.4005 77.74L100.75 77.19C100.72 78.2 100.4 79.06 99.7905 79.78C99.1805 80.5 98.3505 80.98 97.3105 81.23C96.4605 81.43 95.6605 81.42 94.9005 81.2C94.1405 80.98 93.5005 80.58 92.9605 79.99C92.4305 79.4 92.0605 78.68 91.8605 77.81C91.6605 76.94 91.6605 76.13 91.8805 75.36L91.8905 75.34Z" fill="#1B1B1B"/>
<path d="M104.541 78.92C103.761 78.7 103.091 78.29 102.531 77.7C101.971 77.11 101.581 76.38 101.381 75.53C101.181 74.68 101.201 73.86 101.441 73.08C101.681 72.3 102.101 71.64 102.701 71.1C103.301 70.56 104.011 70.19 104.831 69.99C105.651 69.79 106.451 69.81 107.231 70.03C108.011 70.25 108.671 70.66 109.231 71.25C109.791 71.84 110.161 72.56 110.371 73.42C110.581 74.28 110.551 75.09 110.321 75.87C110.081 76.65 109.671 77.31 109.081 77.85C108.491 78.39 107.781 78.76 106.961 78.96C106.141 79.16 105.341 79.14 104.561 78.92H104.541ZM107.991 75.92C108.301 75.36 108.371 74.69 108.191 73.93C108.011 73.17 107.651 72.59 107.121 72.23C106.591 71.87 105.981 71.77 105.281 71.93C104.581 72.09 104.061 72.46 103.751 73.01C103.441 73.57 103.371 74.23 103.561 75.02C103.751 75.81 104.101 76.36 104.631 76.72C105.161 77.08 105.781 77.18 106.481 77.01C107.181 76.84 107.681 76.48 107.991 75.92ZM105.891 68.02L103.181 69.99L102.831 68.52L105.501 66.37L105.891 68.03V68.02Z" fill="#1B1B1B"/>
<path d="M116.35 68C117.13 68.2 117.78 68.59 118.31 69.16C118.84 69.73 119.21 70.45 119.42 71.32C119.63 72.19 119.61 72.98 119.39 73.74C119.17 74.49 118.75 75.14 118.15 75.67C117.54 76.2 116.78 76.57 115.87 76.79L112.59 77.56L110.53 68.8L113.81 68.03C114.73 67.81 115.58 67.81 116.36 68.01L116.35 68ZM117.02 73.86C117.37 73.31 117.44 72.64 117.25 71.83C117.06 71.02 116.69 70.45 116.13 70.11C115.57 69.77 114.89 69.69 114.09 69.88L113.08 70.12L114.28 75.21L115.29 74.97C116.1 74.78 116.67 74.41 117.02 73.87V73.86Z" fill="#1B1B1B"/>
<path d="M121.721 66.16L123.781 74.92L121.651 75.42L119.591 66.66L121.721 66.16Z" fill="#1B1B1B"/>
<path d="M129.73 67.19C129.5 66.94 129.22 66.77 128.89 66.68C128.56 66.6 128.19 66.6 127.79 66.69C127.1 66.85 126.6 67.21 126.29 67.76C125.98 68.31 125.91 68.97 126.09 69.72C126.28 70.53 126.65 71.11 127.19 71.46C127.73 71.81 128.39 71.9 129.15 71.72C129.67 71.6 130.09 71.36 130.38 71.01C130.67 70.66 130.85 70.21 130.9 69.68L128.19 70.32L127.82 68.75L132.46 67.66L132.93 69.64C132.9 70.21 132.75 70.77 132.47 71.31C132.2 71.86 131.81 72.34 131.29 72.76C130.77 73.18 130.15 73.48 129.42 73.65C128.55 73.85 127.74 73.85 126.97 73.63C126.2 73.41 125.55 73.01 125.02 72.42C124.48 71.84 124.11 71.11 123.91 70.25C123.71 69.39 123.71 68.57 123.93 67.8C124.15 67.03 124.55 66.38 125.13 65.85C125.71 65.31 126.44 64.94 127.3 64.74C128.35 64.49 129.29 64.54 130.13 64.88C130.97 65.22 131.61 65.81 132.05 66.65L129.69 67.2L129.73 67.19Z" fill="#1B1B1B"/>
<path d="M136.6 71.38C135.82 71.16 135.15 70.75 134.59 70.16C134.03 69.57 133.64 68.84 133.44 67.99C133.24 67.14 133.26 66.32 133.5 65.54C133.74 64.76 134.16 64.1 134.76 63.56C135.36 63.02 136.07 62.65 136.89 62.45C137.71 62.25 138.51 62.27 139.29 62.49C140.07 62.71 140.73 63.12 141.29 63.71C141.85 64.3 142.22 65.02 142.43 65.88C142.64 66.74 142.61 67.55 142.38 68.33C142.14 69.11 141.73 69.77 141.14 70.31C140.55 70.85 139.84 71.22 139.02 71.42C138.2 71.62 137.4 71.6 136.62 71.38H136.6ZM140.05 68.38C140.36 67.82 140.43 67.15 140.25 66.39C140.07 65.63 139.71 65.05 139.18 64.69C138.65 64.33 138.04 64.23 137.34 64.39C136.64 64.55 136.12 64.92 135.81 65.47C135.5 66.03 135.43 66.69 135.62 67.48C135.81 68.27 136.16 68.82 136.69 69.18C137.22 69.54 137.84 69.64 138.54 69.47C139.24 69.31 139.74 68.94 140.05 68.38Z" fill="#1B1B1B"/>
<path d="M146.03 69.44C145.47 69.35 145 69.14 144.6 68.8C144.2 68.46 143.92 68.01 143.77 67.44L146.04 66.91C146.15 67.23 146.32 67.45 146.55 67.57C146.78 67.7 147.05 67.72 147.36 67.65C147.67 67.58 147.91 67.44 148.06 67.26C148.21 67.08 148.25 66.85 148.19 66.59C148.14 66.37 148.02 66.21 147.85 66.1C147.67 65.99 147.46 65.92 147.23 65.88C147 65.84 146.67 65.81 146.25 65.78C145.64 65.74 145.14 65.67 144.74 65.58C144.34 65.49 143.97 65.3 143.64 65.02C143.3 64.74 143.07 64.33 142.94 63.78C142.75 62.97 142.89 62.26 143.37 61.66C143.85 61.06 144.57 60.65 145.52 60.42C146.47 60.19 147.32 60.24 148.01 60.56C148.71 60.88 149.18 61.45 149.41 62.26L147.1 62.8C147.02 62.52 146.86 62.32 146.63 62.21C146.4 62.09 146.14 62.07 145.84 62.14C145.58 62.2 145.39 62.32 145.26 62.49C145.13 62.66 145.1 62.88 145.16 63.14C145.23 63.42 145.41 63.61 145.71 63.71C146.01 63.81 146.47 63.88 147.08 63.93C147.69 63.99 148.19 64.06 148.59 64.15C148.99 64.24 149.35 64.42 149.69 64.7C150.03 64.97 150.26 65.37 150.38 65.89C150.5 66.41 150.48 66.87 150.32 67.34C150.16 67.81 149.87 68.22 149.45 68.57C149.03 68.92 148.48 69.18 147.83 69.33C147.18 69.48 146.59 69.51 146.03 69.42V69.44Z" fill="#1B1B1B"/>
<path d="M161.54 67.61L160.06 66.36C159.74 66.5 159.43 66.61 159.11 66.69C158.29 66.88 157.49 66.87 156.71 66.65C155.93 66.43 155.26 66.02 154.7 65.43C154.14 64.84 153.75 64.11 153.55 63.26C153.35 62.41 153.37 61.59 153.61 60.81C153.85 60.03 154.27 59.37 154.87 58.83C155.47 58.29 156.18 57.92 157 57.72C157.82 57.52 158.62 57.54 159.4 57.76C160.18 57.98 160.84 58.39 161.4 58.98C161.96 59.57 162.33 60.29 162.54 61.15C162.72 61.9 162.73 62.62 162.57 63.31C162.41 64 162.11 64.61 161.67 65.15L164.13 67.01L161.55 67.62L161.54 67.61ZM156.8 64.45C157.33 64.81 157.95 64.91 158.65 64.74C159.35 64.57 159.85 64.21 160.16 63.65C160.47 63.09 160.54 62.42 160.36 61.66C160.18 60.89 159.82 60.32 159.29 59.96C158.76 59.6 158.15 59.5 157.45 59.66C156.75 59.82 156.23 60.19 155.92 60.74C155.61 61.3 155.54 61.97 155.73 62.75C155.92 63.53 156.27 64.09 156.8 64.45Z" fill="#1B1B1B"/>
<path d="M164.821 56.02L166.051 61.26C166.171 61.78 166.401 62.16 166.721 62.38C167.041 62.6 167.461 62.65 167.951 62.54C168.441 62.43 168.801 62.19 169.001 61.85C169.201 61.5 169.241 61.07 169.111 60.55L167.881 55.31L170.011 54.81L171.241 60.04C171.421 60.82 171.411 61.52 171.211 62.14C171.001 62.76 170.651 63.27 170.161 63.68C169.671 64.09 169.071 64.37 168.381 64.53C167.691 64.69 167.041 64.7 166.431 64.56C165.821 64.42 165.301 64.11 164.851 63.64C164.411 63.17 164.091 62.54 163.911 61.76L162.681 56.53L164.811 56.03L164.821 56.02Z" fill="#1B1B1B"/>
<path d="M174.051 55.65L174.471 57.42L177.331 56.75L177.721 58.4L174.861 59.07L175.311 60.99L178.54 60.23L178.941 61.94L173.581 63.2L171.521 54.44L176.881 53.18L177.281 54.89L174.051 55.65Z" fill="#1B1B1B"/>
</g>
<defs>
<clipPath id="clip0_289_43">
<rect width="222.7" height="108.47" fill="white"/>
</clipPath>
</defs>
</svg>
