<svg width="247" height="66" viewBox="0 0 247 66" fill="none" xmlns="http://www.w3.org/2000/svg">
<g clip-path="url(#clip0_289_79)">
<path d="M55.5396 29.18L65.9896 22.46L45.1496 8.87L24.3096 22.46L65.7696 49.57C58.8896 54.09 52.0196 58.61 45.1396 63.13C38.1996 58.61 31.2696 54.09 24.3296 49.57C27.7496 47.36 31.1596 45.15 34.5796 42.94" stroke="#CD212A" stroke-width="4.2" stroke-miterlimit="10"/>
<path d="M71.1299 25.76L86.5899 35.99L71.1299 46.21" stroke="#CD212A" stroke-width="4.2" stroke-miterlimit="10"/>
<path d="M19.2696 46.11C14.1196 42.74 8.95957 39.37 3.80957 36C8.95957 32.55 14.1196 29.1 19.2696 25.66" stroke="#CD212A" stroke-width="4.2" stroke-miterlimit="10"/>
<path d="M134.77 4.45002L129.74 11.2C127.03 9.70002 124.29 8.95002 121.53 8.95002C119.76 8.95002 118.38 9.28002 117.39 9.95002C116.56 10.52 116.15 11.17 116.15 11.88C116.15 12.52 116.53 13.05 117.28 13.49C118.01 13.9 118.75 14.21 119.49 14.42C120.23 14.63 122.02 15.02 124.85 15.59C128.82 16.41 131.75 17.51 133.67 18.92C135.7 20.44 136.71 22.45 136.71 24.96C136.71 28.79 135.06 31.7 131.75 33.67C128.21 35.76 123.56 36.8 117.8 36.8C112.04 36.8 106.29 35.54 101.05 33.01L106.43 26.01C110.18 28.28 113.88 29.41 117.51 29.41C119.73 29.41 121.35 29.01 122.36 28.21C123.16 27.57 123.56 26.88 123.56 26.13C123.56 25.23 123.03 24.52 121.98 23.99C120.93 23.46 118.93 22.89 115.98 22.29C111.35 21.36 108.3 20.46 106.81 19.6C104.24 18.15 102.95 15.94 102.95 12.97C102.95 9.50002 104.61 6.71002 107.94 4.60002C110.96 2.68002 114.79 1.71002 119.41 1.71002C124.65 1.71002 129.76 2.62002 134.74 4.43002L134.77 4.45002Z" fill="#041E42"/>
<path d="M150.1 0C151.92 0 153.46 0.44 154.74 1.32C156.01 2.2 156.65 3.26 156.65 4.5C156.65 5.74 156.01 6.82 154.74 7.7C153.47 8.58 151.93 9.02 150.14 9.02C148.35 9.02 146.75 8.58 145.5 7.7C144.23 6.8 143.59 5.72 143.59 4.45C143.59 3.24 144.23 2.2 145.52 1.32C146.81 0.44 148.33 0 150.11 0L150.1 0ZM155.91 13.24V35.94H144.3V13.24H155.91Z" fill="#041E42"/>
<path d="M176.829 19.91V35.93H165.219V19.91H161.399V13.23H165.219V6.40002H176.829V13.23H183.449V19.91H176.829Z" fill="#041E42"/>
<path d="M206.82 12.4C213.33 12.4 218.42 13.77 222.08 16.51C225.1 18.76 226.61 21.45 226.61 24.58C226.61 28.27 224.63 31.28 220.66 33.63C217.12 35.73 212.45 36.79 206.64 36.79C202.96 36.79 199.51 36.24 196.3 35.15C193.3 34.12 190.95 32.56 189.25 30.45C187.79 28.67 187.06 26.65 187.06 24.38C187.06 20.87 189.04 17.93 193.01 15.55C194.99 14.38 197.45 13.52 200.37 12.98C202.54 12.59 204.69 12.39 206.81 12.39L206.82 12.4ZM206.82 19.32C204.74 19.32 202.98 19.83 201.54 20.84C200.08 21.87 199.35 23.07 199.35 24.46C199.35 25.94 200.08 27.2 201.54 28.23C202.98 29.24 204.75 29.75 206.85 29.75C208.95 29.75 210.66 29.24 212.12 28.23C213.58 27.2 214.32 25.97 214.32 24.54C214.32 23.11 213.59 21.84 212.12 20.85C210.63 19.84 208.86 19.33 206.81 19.33L206.82 19.32Z" fill="#041E42"/>
<path d="M101.58 60.5C102.01 59.99 102.62 59.59 103.39 59.31C104.16 59.02 105.04 58.88 106.02 58.88C107.22 58.88 108.25 59.09 109.11 59.5C109.97 59.91 110.54 60.48 110.83 61.19H108.12C107.92 60.91 107.63 60.7 107.26 60.56C106.89 60.42 106.47 60.34 106 60.34C105.24 60.34 104.62 60.51 104.15 60.86C103.68 61.2 103.44 61.67 103.44 62.24C103.44 62.81 103.68 63.28 104.15 63.62C104.62 63.96 105.24 64.14 106 64.14C106.47 64.14 106.89 64.07 107.26 63.92C107.63 63.78 107.92 63.57 108.12 63.29H110.83C110.54 64 109.97 64.57 109.11 64.98C108.25 65.39 107.23 65.6 106.02 65.6C105.04 65.6 104.16 65.46 103.39 65.17C102.62 64.88 102.01 64.49 101.58 63.98C101.15 63.47 100.93 62.89 100.93 62.24C100.93 61.59 101.15 61.01 101.58 60.5Z" fill="#1B1B1B"/>
<path d="M114.51 65.18C113.72 64.89 113.09 64.49 112.62 63.97C112.15 63.45 111.92 62.87 111.92 62.23C111.92 61.59 112.15 61.01 112.62 60.49C113.09 59.98 113.72 59.58 114.51 59.29C115.3 59 116.18 58.86 117.13 58.86C118.08 58.86 118.95 59 119.75 59.29C120.54 59.58 121.17 59.98 121.62 60.49C122.07 61 122.31 61.58 122.31 62.23C122.31 62.88 122.08 63.46 121.62 63.97C121.16 64.49 120.53 64.89 119.75 65.18C118.96 65.47 118.09 65.61 117.14 65.61C116.19 65.61 115.32 65.47 114.52 65.18H114.51ZM119.07 63.62C119.56 63.27 119.8 62.81 119.8 62.23C119.8 61.65 119.56 61.18 119.07 60.83C118.58 60.48 117.94 60.31 117.13 60.31C116.32 60.31 115.66 60.48 115.18 60.83C114.69 61.17 114.45 61.64 114.45 62.23C114.45 62.82 114.69 63.28 115.18 63.63C115.67 63.98 116.32 64.15 117.13 64.15C117.94 64.15 118.58 63.97 119.07 63.62Z" fill="#1B1B1B"/>
<path d="M132.73 65.55H130.26L126.14 61.48V65.55H123.67V58.95H126.14L130.26 63.04V58.95H132.73V65.55Z" fill="#1B1B1B"/>
<path d="M136.98 60.24V61.57H140.28V62.81H136.98V64.26H140.72V65.55H134.52V58.95H140.72V60.24H136.98Z" fill="#1B1B1B"/>
<path d="M142.549 60.5C142.979 59.99 143.589 59.59 144.359 59.31C145.129 59.02 146.009 58.88 146.989 58.88C148.189 58.88 149.219 59.09 150.079 59.5C150.939 59.91 151.509 60.48 151.799 61.19H149.089C148.889 60.91 148.599 60.7 148.229 60.56C147.859 60.42 147.439 60.34 146.969 60.34C146.209 60.34 145.589 60.51 145.119 60.86C144.649 61.2 144.409 61.67 144.409 62.24C144.409 62.81 144.649 63.28 145.119 63.62C145.589 63.96 146.209 64.14 146.969 64.14C147.439 64.14 147.859 64.07 148.229 63.92C148.599 63.78 148.889 63.57 149.089 63.29H151.799C151.509 64 150.939 64.57 150.079 64.98C149.219 65.39 148.199 65.6 146.989 65.6C146.009 65.6 145.129 65.46 144.359 65.17C143.589 64.88 142.979 64.49 142.549 63.98C142.119 63.47 141.899 62.89 141.899 62.24C141.899 61.59 142.119 61.01 142.549 60.5Z" fill="#1B1B1B"/>
<path d="M160.59 58.95V60.24H157.91V65.55H155.44V60.24H152.76V58.95H160.59Z" fill="#1B1B1B"/>
<path d="M168.13 64.39H164.35L163.74 65.56H161.16L164.82 58.96H167.68L171.34 65.56H168.73L168.12 64.39H168.13ZM167.5 63.15L166.25 60.73L165.01 63.15H167.51H167.5Z" fill="#1B1B1B"/>
<path d="M181.52 65.55H179.05L174.93 61.48V65.55H172.46V58.95H174.93L179.05 63.04V58.95H181.52V65.55Z" fill="#1B1B1B"/>
<path d="M195.049 58.95L191.539 63.37V65.55H189.069V63.37L185.569 58.95H188.369L190.329 61.71L192.279 58.95H195.049Z" fill="#1B1B1B"/>
<path d="M199.33 60.5C199.76 59.99 200.37 59.59 201.14 59.31C201.91 59.02 202.79 58.88 203.77 58.88C204.97 58.88 206 59.09 206.86 59.5C207.72 59.91 208.29 60.48 208.58 61.19H205.87C205.67 60.91 205.38 60.7 205.01 60.56C204.64 60.42 204.22 60.34 203.75 60.34C202.99 60.34 202.37 60.51 201.9 60.86C201.43 61.2 201.19 61.67 201.19 62.24C201.19 62.81 201.43 63.28 201.9 63.62C202.37 63.96 202.99 64.14 203.75 64.14C204.22 64.14 204.64 64.07 205.01 63.92C205.38 63.78 205.67 63.57 205.87 63.29H208.58C208.29 64 207.72 64.57 206.86 64.98C206 65.39 204.98 65.6 203.77 65.6C202.79 65.6 201.91 65.46 201.14 65.17C200.37 64.88 199.76 64.49 199.33 63.98C198.9 63.47 198.68 62.89 198.68 62.24C198.68 61.59 198.9 61.01 199.33 60.5Z" fill="#1B1B1B"/>
<path d="M215.25 65.55L213.14 63.06H212.55V65.55H210.08V58.95H214.22C215.02 58.95 215.7 59.04 216.26 59.22C216.82 59.4 217.24 59.65 217.52 59.97C217.8 60.29 217.94 60.64 217.94 61.03C217.94 61.47 217.75 61.86 217.37 62.21C216.99 62.55 216.43 62.8 215.69 62.94L218.03 65.55H215.25ZM212.55 61.92H214.08C214.53 61.92 214.87 61.85 215.1 61.7C215.33 61.56 215.44 61.35 215.44 61.09C215.44 60.83 215.33 60.64 215.1 60.5C214.87 60.36 214.54 60.28 214.08 60.28H212.55V61.92Z" fill="#1B1B1B"/>
<path d="M221.96 60.24V61.57H225.26V62.81H221.96V64.26H225.7V65.55H219.5V58.95H225.7V60.24H221.96Z" fill="#1B1B1B"/>
<path d="M233.6 64.39H229.82L229.21 65.56H226.63L230.29 58.96H233.15L236.81 65.56H234.2L233.59 64.39H233.6ZM232.97 63.15L231.72 60.73L230.48 63.15H232.98H232.97Z" fill="#1B1B1B"/>
<path d="M246.98 65.55H244.51L240.39 61.48V65.55H237.92V58.95H240.39L244.51 63.04V58.95H246.98V65.55Z" fill="#1B1B1B"/>
<path d="M101.64 49.22C102.07 48.71 102.68 48.31 103.45 48.03C104.22 47.75 105.1 47.6 106.08 47.6C107.28 47.6 108.31 47.81 109.17 48.22C110.03 48.63 110.6 49.2 110.89 49.91H108.18C107.98 49.63 107.69 49.42 107.32 49.28C106.95 49.14 106.53 49.06 106.06 49.06C105.3 49.06 104.68 49.23 104.21 49.58C103.74 49.92 103.5 50.39 103.5 50.96C103.5 51.53 103.74 52 104.21 52.34C104.68 52.68 105.3 52.86 106.06 52.86C106.53 52.86 106.95 52.79 107.32 52.64C107.69 52.5 107.98 52.29 108.18 52.01H110.89C110.6 52.72 110.03 53.29 109.17 53.7C108.31 54.11 107.29 54.32 106.08 54.32C105.1 54.32 104.22 54.18 103.45 53.89C102.68 53.6 102.07 53.21 101.64 52.7C101.21 52.19 100.99 51.61 100.99 50.96C100.99 50.31 101.21 49.73 101.64 49.22Z" fill="#1B1B1B"/>
<path d="M114.57 53.9C113.78 53.61 113.15 53.21 112.68 52.69C112.21 52.17 111.98 51.59 111.98 50.95C111.98 50.31 112.21 49.73 112.68 49.21C113.15 48.7 113.78 48.3 114.57 48.01C115.36 47.72 116.24 47.58 117.19 47.58C118.14 47.58 119.02 47.72 119.81 48.01C120.6 48.3 121.23 48.7 121.68 49.21C122.14 49.72 122.37 50.3 122.37 50.95C122.37 51.6 122.14 52.18 121.68 52.69C121.22 53.21 120.59 53.61 119.81 53.9C119.02 54.19 118.15 54.33 117.2 54.33C116.25 54.33 115.38 54.19 114.58 53.9H114.57ZM119.13 52.34C119.62 51.99 119.86 51.53 119.86 50.95C119.86 50.37 119.62 49.9 119.13 49.55C118.65 49.2 118 49.03 117.19 49.03C116.38 49.03 115.72 49.2 115.24 49.55C114.75 49.89 114.51 50.36 114.51 50.95C114.51 51.54 114.75 52 115.24 52.35C115.73 52.7 116.38 52.87 117.19 52.87C118 52.87 118.64 52.69 119.13 52.34ZM118.86 46.34L115.38 47.29V46.18L118.86 45.09V46.34Z" fill="#1B1B1B"/>
<path d="M130.32 48.09C131.12 48.37 131.74 48.75 132.17 49.25C132.61 49.75 132.83 50.32 132.83 50.97C132.83 51.62 132.61 52.19 132.17 52.69C131.73 53.19 131.11 53.58 130.31 53.86C129.51 54.14 128.58 54.27 127.52 54.27H123.73V47.67H127.52C128.59 47.67 129.52 47.81 130.32 48.08V48.09ZM129.54 52.39C130.06 52.06 130.32 51.59 130.32 50.98C130.32 50.37 130.06 49.9 129.54 49.56C129.02 49.22 128.29 49.05 127.36 49.05H126.19V52.89H127.36C128.29 52.89 129.02 52.72 129.54 52.39Z" fill="#1B1B1B"/>
<path d="M136.68 47.67V54.27H134.21V47.67H136.68Z" fill="#1B1B1B"/>
<path d="M145.19 49.76C145.01 49.54 144.74 49.37 144.4 49.26C144.06 49.14 143.66 49.09 143.2 49.09C142.4 49.09 141.76 49.26 141.28 49.6C140.8 49.94 140.56 50.4 140.56 50.97C140.56 51.58 140.81 52.05 141.32 52.39C141.82 52.73 142.52 52.9 143.4 52.9C144.01 52.9 144.52 52.8 144.94 52.6C145.36 52.4 145.66 52.11 145.86 51.74H142.73V50.56H148.1V52.05C147.92 52.45 147.61 52.82 147.17 53.17C146.73 53.51 146.18 53.79 145.5 54.01C144.83 54.22 144.07 54.33 143.22 54.33C142.22 54.33 141.33 54.19 140.54 53.9C139.76 53.61 139.15 53.22 138.71 52.71C138.27 52.2 138.05 51.62 138.05 50.97C138.05 50.32 138.27 49.74 138.71 49.23C139.15 48.72 139.76 48.32 140.53 48.04C141.31 47.75 142.2 47.61 143.2 47.61C144.41 47.61 145.43 47.8 146.26 48.18C147.09 48.56 147.64 49.09 147.91 49.77H145.18L145.19 49.76Z" fill="#1B1B1B"/>
<path d="M151.63 53.9C150.84 53.61 150.21 53.21 149.74 52.69C149.27 52.17 149.04 51.59 149.04 50.95C149.04 50.31 149.27 49.73 149.74 49.21C150.21 48.7 150.84 48.3 151.63 48.01C152.42 47.72 153.3 47.58 154.25 47.58C155.2 47.58 156.08 47.72 156.87 48.01C157.66 48.3 158.29 48.7 158.74 49.21C159.2 49.72 159.43 50.3 159.43 50.95C159.43 51.6 159.2 52.18 158.74 52.69C158.28 53.21 157.65 53.61 156.87 53.9C156.08 54.19 155.21 54.33 154.26 54.33C153.31 54.33 152.44 54.19 151.64 53.9H151.63ZM156.19 52.34C156.68 51.99 156.92 51.53 156.92 50.95C156.92 50.37 156.68 49.9 156.19 49.55C155.71 49.2 155.06 49.03 154.25 49.03C153.44 49.03 152.78 49.2 152.3 49.55C151.81 49.89 151.57 50.36 151.57 50.95C151.57 51.54 151.81 52 152.3 52.35C152.79 52.7 153.44 52.87 154.25 52.87C155.06 52.87 155.7 52.69 156.19 52.34Z" fill="#1B1B1B"/>
<path d="M162.47 54.1C161.88 53.94 161.41 53.71 161.06 53.4C160.71 53.09 160.52 52.72 160.5 52.29H163.13C163.17 52.53 163.3 52.72 163.52 52.85C163.74 52.98 164.03 53.04 164.39 53.04C164.75 53.04 165.04 52.99 165.26 52.88C165.48 52.77 165.58 52.62 165.58 52.42C165.58 52.26 165.5 52.12 165.33 52.02C165.16 51.91 164.95 51.83 164.71 51.76C164.46 51.69 164.12 51.61 163.66 51.52C163.01 51.39 162.47 51.26 162.06 51.13C161.65 51 161.29 50.8 160.99 50.55C160.69 50.29 160.54 49.96 160.54 49.54C160.54 48.93 160.88 48.45 161.56 48.1C162.24 47.75 163.13 47.58 164.23 47.58C165.33 47.58 166.24 47.75 166.93 48.1C167.61 48.45 167.98 48.93 168.03 49.55H165.36C165.34 49.34 165.22 49.17 165 49.05C164.78 48.93 164.5 48.87 164.15 48.87C163.85 48.87 163.61 48.92 163.43 49.02C163.25 49.12 163.16 49.27 163.16 49.47C163.16 49.68 163.31 49.85 163.62 49.97C163.93 50.09 164.41 50.22 165.06 50.36C165.71 50.5 166.24 50.64 166.65 50.77C167.06 50.9 167.41 51.09 167.71 51.34C168.01 51.59 168.16 51.91 168.16 52.31C168.16 52.71 168.01 53.03 167.72 53.33C167.43 53.63 167 53.88 166.44 54.06C165.88 54.24 165.22 54.33 164.46 54.33C163.7 54.33 163.06 54.25 162.47 54.1Z" fill="#1B1B1B"/>
<path d="M179.93 55.4L178.63 54.26C178.25 54.31 177.87 54.34 177.51 54.34C176.56 54.34 175.69 54.2 174.89 53.91C174.1 53.62 173.47 53.22 173 52.7C172.53 52.18 172.3 51.6 172.3 50.96C172.3 50.32 172.53 49.74 173 49.22C173.47 48.7 174.1 48.31 174.89 48.02C175.68 47.73 176.56 47.59 177.51 47.59C178.46 47.59 179.33 47.73 180.13 48.02C180.92 48.31 181.55 48.71 182.01 49.22C182.47 49.73 182.7 50.31 182.7 50.96C182.7 51.52 182.52 52.04 182.17 52.51C181.82 52.98 181.33 53.36 180.71 53.67L182.93 55.41H179.94L179.93 55.4ZM175.55 52.35C176.03 52.7 176.69 52.87 177.5 52.87C178.31 52.87 178.95 52.69 179.44 52.34C179.93 51.99 180.17 51.53 180.17 50.95C180.17 50.37 179.93 49.9 179.44 49.55C178.95 49.2 178.31 49.03 177.5 49.03C176.69 49.03 176.03 49.2 175.55 49.55C175.06 49.89 174.82 50.36 174.82 50.95C174.82 51.54 175.06 52 175.55 52.35Z" fill="#1B1B1B"/>
<path d="M186.51 47.67V51.62C186.51 52.01 186.66 52.32 186.96 52.53C187.26 52.74 187.7 52.85 188.27 52.85C188.84 52.85 189.29 52.74 189.6 52.53C189.91 52.32 190.06 52.01 190.06 51.62V47.67H192.53V51.61C192.53 52.2 192.34 52.7 191.95 53.1C191.57 53.51 191.05 53.81 190.4 54.02C189.75 54.23 189.03 54.33 188.23 54.33C187.43 54.33 186.72 54.23 186.09 54.02C185.46 53.81 184.96 53.51 184.6 53.1C184.23 52.69 184.05 52.19 184.05 51.6V47.66H186.52L186.51 47.67Z" fill="#1B1B1B"/>
<path d="M196.72 48.96V50.29H200.02V51.53H196.72V52.98H200.46V54.27H194.26V47.67H200.46V48.96H196.72Z" fill="#1B1B1B"/>
</g>
<defs>
<clipPath id="clip0_289_79">
<rect width="246.98" height="65.64" fill="white"/>
</clipPath>
</defs>
</svg>
