<svg width="220" height="90" viewBox="0 0 220 90" fill="none" xmlns="http://www.w3.org/2000/svg">
<g clip-path="url(#clip0_289_115)">
<path d="M49.2105 39.78L58.5005 30.62L39.9905 12.1L21.4805 30.62L58.3205 67.58C52.2105 73.74 46.1005 79.9 39.9905 86.06C33.8305 79.9 27.6605 73.74 21.5005 67.58C24.5405 64.57 27.5705 61.55 30.6105 58.54" stroke="#7AC943" stroke-width="4.62" stroke-miterlimit="10"/>
<path d="M63.0605 35.12L76.8005 49.06L63.0605 63" stroke="#7AC943" stroke-width="4.62" stroke-miterlimit="10"/>
<path d="M16.9802 62.86C12.4002 58.27 7.82023 53.67 3.24023 49.08C7.82023 44.38 12.4002 39.68 16.9802 34.98" stroke="#7AC943" stroke-width="4.62" stroke-miterlimit="10"/>
<path d="M119.61 6.06999L115.14 15.27C112.73 13.22 110.3 12.2 107.84 12.2C106.27 12.2 105.04 12.66 104.16 13.57C103.43 14.35 103.06 15.23 103.06 16.2C103.06 17.07 103.4 17.8 104.07 18.4C104.72 18.96 105.38 19.38 106.04 19.67C106.7 19.96 108.29 20.49 110.81 21.27C114.33 22.38 116.94 23.89 118.64 25.81C120.44 27.88 121.35 30.62 121.35 34.05C121.35 39.28 119.88 43.23 116.95 45.92C113.8 48.77 109.67 50.19 104.56 50.19C99.4497 50.19 94.3397 48.47 89.6797 45.02L94.4597 35.48C97.7897 38.57 101.08 40.12 104.31 40.12C106.28 40.12 107.72 39.58 108.62 38.49C109.33 37.62 109.69 36.68 109.69 35.66C109.69 34.44 109.22 33.46 108.29 32.74C107.36 32.02 105.58 31.24 102.96 30.42C98.8497 29.15 96.1297 27.93 94.8097 26.75C92.5197 24.77 91.3797 21.76 91.3797 17.71C91.3797 12.97 92.8597 9.16999 95.8197 6.29999C98.4997 3.67999 101.9 2.35999 106.01 2.35999C110.67 2.35999 115.21 3.58999 119.63 6.05999L119.61 6.06999Z" fill="#FF00FF"/>
<path d="M133.229 0C134.839 0 136.219 0.6 137.349 1.8C138.479 3 139.049 4.45 139.049 6.14C139.049 7.83 138.479 9.31 137.349 10.51C136.219 11.71 134.849 12.31 133.259 12.31C131.669 12.31 130.249 11.71 129.139 10.51C128.009 9.29 127.439 7.81 127.439 6.07C127.439 4.42 128.009 3 129.149 1.8C130.289 0.6 131.649 0 133.219 0L133.229 0ZM138.389 18.04V48.99H128.069V18.04H138.389Z" fill="#FF00FF"/>
<path d="M156.98 27.15V49H146.66V27.15H143.26V18.05H146.66V8.75H156.98V18.05H162.86V27.15H156.98Z" fill="#FF00FF"/>
<path d="M183.619 16.91C189.409 16.91 193.929 18.78 197.179 22.51C199.859 25.58 201.209 29.25 201.209 33.52C201.209 38.54 199.449 42.66 195.929 45.86C192.779 48.73 188.629 50.16 183.469 50.16C180.199 50.16 177.139 49.41 174.279 47.93C171.619 46.53 169.529 44.39 168.019 41.53C166.719 39.11 166.069 36.35 166.069 33.26C166.069 28.48 167.829 24.47 171.349 21.22C173.109 19.62 175.289 18.45 177.889 17.72C179.819 17.19 181.729 16.92 183.619 16.92V16.91ZM183.619 26.35C181.769 26.35 180.209 27.04 178.929 28.42C177.629 29.82 176.979 31.47 176.979 33.36C176.979 35.38 177.629 37.1 178.929 38.5C180.209 39.88 181.779 40.57 183.649 40.57C185.519 40.57 187.039 39.88 188.339 38.5C189.639 37.1 190.289 35.42 190.289 33.46C190.289 31.5 189.639 29.78 188.339 28.42C187.019 27.04 185.449 26.35 183.619 26.35Z" fill="#FF00FF"/>
<path d="M90.1103 82.48C90.4903 81.78 91.0303 81.24 91.7203 80.85C92.4103 80.46 93.1903 80.27 94.0603 80.27C95.1303 80.27 96.0403 80.55 96.8003 81.12C97.5603 81.69 98.0703 82.45 98.3203 83.43H95.9103C95.7303 83.05 95.4803 82.77 95.1503 82.57C94.8203 82.37 94.4503 82.28 94.0303 82.28C93.3603 82.28 92.8103 82.52 92.3903 82.98C91.9703 83.45 91.7603 84.08 91.7603 84.86C91.7603 85.64 91.9703 86.27 92.3903 86.74C92.8103 87.21 93.3503 87.44 94.0303 87.44C94.4503 87.44 94.8203 87.34 95.1503 87.15C95.4803 86.95 95.7303 86.67 95.9103 86.29H98.3203C98.0603 87.26 97.5603 88.03 96.8003 88.59C96.0403 89.15 95.1303 89.43 94.0603 89.43C93.1903 89.43 92.4103 89.24 91.7203 88.85C91.0303 88.46 90.5003 87.92 90.1103 87.23C89.7303 86.54 89.5303 85.75 89.5303 84.86C89.5303 83.97 89.7203 83.18 90.1103 82.48Z" fill="#00FFFF"/>
<path d="M101.6 88.86C100.9 88.47 100.34 87.92 99.9198 87.21C99.4998 86.5 99.2998 85.71 99.2998 84.83C99.2998 83.95 99.5098 83.16 99.9198 82.46C100.33 81.76 100.89 81.21 101.6 80.82C102.31 80.43 103.08 80.23 103.93 80.23C104.78 80.23 105.55 80.43 106.26 80.82C106.96 81.21 107.52 81.76 107.93 82.46C108.34 83.16 108.54 83.95 108.54 84.83C108.54 85.71 108.33 86.5 107.92 87.21C107.51 87.91 106.95 88.46 106.25 88.86C105.55 89.25 104.78 89.45 103.93 89.45C103.08 89.45 102.31 89.25 101.6 88.86ZM105.65 86.73C106.08 86.25 106.3 85.62 106.3 84.83C106.3 84.04 106.08 83.4 105.65 82.93C105.22 82.46 104.64 82.22 103.93 82.22C103.22 82.22 102.63 82.46 102.19 82.92C101.76 83.39 101.54 84.03 101.54 84.83C101.54 85.63 101.76 86.26 102.19 86.73C102.62 87.2 103.2 87.44 103.93 87.44C104.66 87.44 105.22 87.2 105.65 86.72V86.73Z" fill="#00FFFF"/>
<path d="M117.79 89.36H115.6L111.94 83.81V89.36H109.75V80.36H111.94L115.6 85.93V80.36H117.79V89.36Z" fill="#00FFFF"/>
<path d="M121.57 82.12V83.94H124.5V85.63H121.57V87.6H124.89V89.36H119.38V80.36H124.89V82.12H121.57Z" fill="#00FFFF"/>
<path d="M126.52 82.48C126.9 81.78 127.44 81.24 128.13 80.85C128.82 80.46 129.6 80.27 130.47 80.27C131.54 80.27 132.45 80.55 133.21 81.12C133.97 81.69 134.48 82.45 134.73 83.43H132.32C132.14 83.05 131.89 82.77 131.56 82.57C131.23 82.37 130.86 82.28 130.44 82.28C129.77 82.28 129.22 82.52 128.8 82.98C128.38 83.45 128.17 84.08 128.17 84.86C128.17 85.64 128.38 86.27 128.8 86.74C129.22 87.21 129.76 87.44 130.44 87.44C130.86 87.44 131.23 87.34 131.56 87.15C131.89 86.95 132.14 86.67 132.32 86.29H134.73C134.47 87.26 133.97 88.03 133.21 88.59C132.45 89.15 131.54 89.43 130.47 89.43C129.6 89.43 128.82 89.24 128.13 88.85C127.44 88.46 126.91 87.92 126.52 87.23C126.14 86.54 125.94 85.75 125.94 84.86C125.94 83.97 126.13 83.18 126.52 82.48Z" fill="#00FFFF"/>
<path d="M142.551 80.37V82.13H140.171V89.37H137.981V82.13H135.601V80.37H142.561H142.551Z" fill="#00FFFF"/>
<path d="M149.251 87.77H145.891L145.351 89.36H143.061L146.311 80.36H148.851L152.101 89.36H149.781L149.241 87.77H149.251ZM148.691 86.08L147.581 82.79L146.481 86.08H148.701H148.691Z" fill="#00FFFF"/>
<path d="M161.141 89.36H158.951L155.291 83.81V89.36H153.101V80.36H155.291L158.951 85.93V80.36H161.141V89.36Z" fill="#00FFFF"/>
<path d="M173.16 80.37L170.05 86.39V89.36H167.86V86.39L164.75 80.37H167.24L168.98 84.14L170.71 80.37H173.17H173.16Z" fill="#00FFFF"/>
<path d="M176.971 82.48C177.351 81.78 177.891 81.24 178.581 80.85C179.271 80.46 180.051 80.27 180.921 80.27C181.991 80.27 182.901 80.55 183.661 81.12C184.421 81.69 184.931 82.45 185.181 83.43H182.771C182.591 83.05 182.341 82.77 182.011 82.57C181.681 82.37 181.311 82.28 180.891 82.28C180.221 82.28 179.671 82.52 179.251 82.98C178.831 83.45 178.621 84.08 178.621 84.86C178.621 85.64 178.831 86.27 179.251 86.74C179.671 87.21 180.211 87.44 180.891 87.44C181.311 87.44 181.681 87.34 182.011 87.15C182.341 86.95 182.591 86.67 182.771 86.29H185.181C184.921 87.26 184.421 88.03 183.661 88.59C182.901 89.15 181.991 89.43 180.921 89.43C180.051 89.43 179.271 89.24 178.581 88.85C177.891 88.46 177.361 87.92 176.971 87.23C176.591 86.54 176.391 85.75 176.391 84.86C176.391 83.97 176.581 83.18 176.971 82.48Z" fill="#00FFFF"/>
<path d="M191.111 89.36L189.241 85.96H188.711V89.36H186.521V80.36H190.201C190.911 80.36 191.51 80.48 192.01 80.73C192.51 80.98 192.881 81.32 193.131 81.75C193.381 82.18 193.501 82.66 193.501 83.19C193.501 83.79 193.331 84.32 192.991 84.79C192.651 85.26 192.151 85.59 191.501 85.79L193.581 89.35H191.111V89.36ZM188.711 84.41H190.071C190.471 84.41 190.771 84.31 190.971 84.12C191.171 83.92 191.271 83.65 191.271 83.29C191.271 82.93 191.171 82.68 190.971 82.48C190.771 82.28 190.471 82.19 190.071 82.19H188.711V84.42V84.41Z" fill="#00FFFF"/>
<path d="M197.07 82.12V83.94H200V85.63H197.07V87.6H200.39V89.36H194.88V80.36H200.39V82.12H197.07Z" fill="#00FFFF"/>
<path d="M207.411 87.77H204.051L203.511 89.36H201.221L204.471 80.36H207.011L210.261 89.36H207.941L207.401 87.77H207.411ZM206.851 86.08L205.741 82.79L204.641 86.08H206.861H206.851Z" fill="#00FFFF"/>
<path d="M219.301 89.36H217.111L213.451 83.81V89.36H211.261V80.36H213.451L217.111 85.93V80.36H219.301V89.36Z" fill="#00FFFF"/>
<path d="M90.1698 67.1C90.5498 66.4 91.0898 65.86 91.7798 65.47C92.4698 65.08 93.2499 64.89 94.1199 64.89C95.1899 64.89 96.0998 65.17 96.8598 65.74C97.6198 66.3 98.1298 67.07 98.3798 68.05H95.9698C95.7898 67.67 95.5398 67.39 95.2098 67.19C94.8798 66.99 94.5098 66.9 94.0898 66.9C93.4198 66.9 92.8698 67.14 92.4498 67.6C92.0298 68.07 91.8198 68.7 91.8198 69.48C91.8198 70.26 92.0298 70.89 92.4498 71.36C92.8698 71.83 93.4098 72.06 94.0898 72.06C94.5098 72.06 94.8798 71.96 95.2098 71.77C95.5398 71.57 95.7898 71.29 95.9698 70.91H98.3798C98.1198 71.88 97.6098 72.65 96.8598 73.21C96.0998 73.77 95.1899 74.05 94.1199 74.05C93.2499 74.05 92.4698 73.86 91.7798 73.47C91.0898 73.08 90.5598 72.54 90.1698 71.85C89.7898 71.16 89.5898 70.37 89.5898 69.48C89.5898 68.59 89.7798 67.8 90.1698 67.1Z" fill="#1B1B1B"/>
<path d="M101.65 73.49C100.94 73.1 100.39 72.55 99.9696 71.84C99.5596 71.14 99.3496 70.34 99.3496 69.46C99.3496 68.58 99.5596 67.79 99.9696 67.09C100.38 66.39 100.94 65.84 101.65 65.45C102.36 65.06 103.13 64.86 103.98 64.86C104.83 64.86 105.6 65.06 106.31 65.45C107.02 65.84 107.57 66.39 107.98 67.09C108.39 67.79 108.59 68.58 108.59 69.46C108.59 70.34 108.38 71.13 107.97 71.84C107.56 72.54 107.01 73.09 106.3 73.49C105.6 73.88 104.83 74.08 103.98 74.08C103.13 74.08 102.36 73.88 101.65 73.49ZM105.7 71.36C106.13 70.88 106.35 70.25 106.35 69.46C106.35 68.67 106.13 68.03 105.7 67.56C105.27 67.09 104.69 66.85 103.98 66.85C103.27 66.85 102.68 67.09 102.24 67.55C101.81 68.02 101.59 68.66 101.59 69.46C101.59 70.26 101.81 70.89 102.24 71.36C102.67 71.83 103.25 72.07 103.98 72.07C104.71 72.07 105.27 71.83 105.7 71.35V71.36ZM105.46 63.18L102.37 64.47V62.96L105.46 61.47V63.17V63.18Z" fill="#1B1B1B"/>
<path d="M115.65 65.56C116.36 65.94 116.91 66.46 117.3 67.14C117.69 67.82 117.88 68.6 117.88 69.49C117.88 70.38 117.69 71.15 117.3 71.84C116.91 72.52 116.36 73.05 115.65 73.43C114.94 73.81 114.11 73.99 113.17 73.99H109.8V64.99H113.17C114.12 64.99 114.95 65.18 115.66 65.55L115.65 65.56ZM114.96 71.42C115.42 70.97 115.65 70.33 115.65 69.5C115.65 68.67 115.42 68.03 114.96 67.57C114.5 67.11 113.85 66.88 113.03 66.88H111.99V72.11H113.03C113.86 72.11 114.5 71.88 114.96 71.43V71.42Z" fill="#1B1B1B"/>
<path d="M121.299 64.99V73.99H119.109V64.99H121.299Z" fill="#1B1B1B"/>
<path d="M128.86 67.84C128.7 67.54 128.46 67.31 128.16 67.15C127.86 66.99 127.5 66.91 127.09 66.91C126.38 66.91 125.81 67.14 125.39 67.61C124.96 68.08 124.75 68.7 124.75 69.47C124.75 70.3 124.97 70.95 125.42 71.41C125.87 71.88 126.49 72.11 127.27 72.11C127.81 72.11 128.26 71.97 128.63 71.7C129 71.43 129.27 71.03 129.44 70.52H126.66V68.91H131.43V70.95C131.27 71.5 130.99 72 130.6 72.47C130.21 72.94 129.72 73.32 129.12 73.61C128.52 73.9 127.85 74.05 127.1 74.05C126.21 74.05 125.42 73.86 124.72 73.47C124.02 73.08 123.48 72.54 123.09 71.85C122.7 71.16 122.51 70.37 122.51 69.48C122.51 68.59 122.7 67.8 123.09 67.1C123.48 66.4 124.02 65.86 124.71 65.47C125.4 65.08 126.19 64.89 127.08 64.89C128.16 64.89 129.06 65.15 129.8 65.67C130.54 66.19 131.03 66.91 131.27 67.84H128.85H128.86Z" fill="#1B1B1B"/>
<path d="M134.59 73.49C133.88 73.1 133.33 72.55 132.91 71.84C132.5 71.14 132.29 70.34 132.29 69.46C132.29 68.58 132.5 67.79 132.91 67.09C133.32 66.39 133.88 65.84 134.59 65.45C135.3 65.06 136.07 64.86 136.92 64.86C137.77 64.86 138.54 65.06 139.25 65.45C139.96 65.84 140.51 66.39 140.92 67.09C141.33 67.79 141.53 68.58 141.53 69.46C141.53 70.34 141.32 71.13 140.91 71.84C140.5 72.54 139.95 73.09 139.24 73.49C138.54 73.88 137.77 74.08 136.92 74.08C136.07 74.08 135.3 73.88 134.59 73.49ZM138.64 71.36C139.07 70.88 139.29 70.25 139.29 69.46C139.29 68.67 139.07 68.03 138.64 67.56C138.21 67.09 137.63 66.85 136.92 66.85C136.21 66.85 135.62 67.09 135.18 67.55C134.75 68.02 134.53 68.66 134.53 69.46C134.53 70.26 134.75 70.89 135.18 71.36C135.61 71.83 136.19 72.07 136.92 72.07C137.65 72.07 138.21 71.83 138.64 71.35V71.36Z" fill="#1B1B1B"/>
<path d="M144.219 73.76C143.699 73.55 143.279 73.23 142.969 72.81C142.659 72.39 142.489 71.89 142.479 71.3H144.809C144.839 71.63 144.96 71.89 145.16 72.06C145.36 72.24 145.609 72.32 145.929 72.32C146.249 72.32 146.509 72.25 146.699 72.1C146.889 71.95 146.979 71.74 146.979 71.48C146.979 71.26 146.909 71.07 146.759 70.93C146.609 70.78 146.43 70.67 146.21 70.57C145.99 70.48 145.679 70.37 145.279 70.25C144.699 70.07 144.219 69.89 143.859 69.71C143.489 69.53 143.18 69.27 142.91 68.92C142.65 68.57 142.509 68.11 142.509 67.55C142.509 66.71 142.809 66.06 143.419 65.58C144.029 65.11 144.819 64.87 145.789 64.87C146.759 64.87 147.579 65.11 148.189 65.58C148.799 66.05 149.12 66.71 149.16 67.56H146.789C146.769 67.27 146.669 67.04 146.469 66.87C146.269 66.7 146.02 66.62 145.71 66.62C145.45 66.62 145.23 66.69 145.07 66.83C144.91 66.97 144.829 67.17 144.829 67.44C144.829 67.73 144.97 67.96 145.24 68.12C145.51 68.28 145.94 68.46 146.52 68.65C147.1 68.85 147.569 69.03 147.939 69.21C148.309 69.39 148.62 69.65 148.88 69.99C149.14 70.33 149.279 70.77 149.279 71.31C149.279 71.85 149.149 72.29 148.889 72.71C148.629 73.13 148.249 73.46 147.759 73.71C147.269 73.96 146.679 74.08 145.999 74.08C145.319 74.08 144.749 73.97 144.229 73.76H144.219Z" fill="#1B1B1B"/>
<path d="M159.73 75.52L158.58 73.97C158.24 74.04 157.91 74.07 157.58 74.07C156.73 74.07 155.96 73.87 155.25 73.48C154.54 73.09 153.99 72.54 153.57 71.83C153.15 71.12 152.95 70.33 152.95 69.45C152.95 68.57 153.16 67.78 153.57 67.08C153.98 66.38 154.54 65.83 155.25 65.44C155.95 65.05 156.73 64.85 157.58 64.85C158.43 64.85 159.2 65.05 159.91 65.44C160.62 65.83 161.17 66.38 161.58 67.08C161.99 67.78 162.19 68.57 162.19 69.45C162.19 70.22 162.03 70.92 161.72 71.56C161.41 72.2 160.97 72.72 160.42 73.14L162.39 75.51H159.74L159.73 75.52ZM155.84 71.36C156.27 71.83 156.85 72.07 157.58 72.07C158.31 72.07 158.87 71.83 159.3 71.35C159.73 70.87 159.95 70.24 159.95 69.45C159.95 68.66 159.73 68.02 159.3 67.55C158.87 67.08 158.29 66.84 157.58 66.84C156.87 66.84 156.28 67.08 155.84 67.54C155.41 68.01 155.19 68.65 155.19 69.45C155.19 70.25 155.41 70.88 155.84 71.35V71.36Z" fill="#1B1B1B"/>
<path d="M165.58 64.99V70.37C165.58 70.91 165.71 71.32 165.98 71.61C166.25 71.9 166.63 72.05 167.15 72.05C167.67 72.05 168.06 71.9 168.33 71.61C168.6 71.32 168.74 70.91 168.74 70.37V64.99H170.93V70.36C170.93 71.16 170.76 71.84 170.42 72.4C170.08 72.96 169.62 73.37 169.04 73.66C168.46 73.95 167.82 74.08 167.11 74.08C166.4 74.08 165.77 73.94 165.21 73.66C164.65 73.38 164.21 72.96 163.88 72.4C163.56 71.84 163.39 71.16 163.39 70.36V64.99H165.58Z" fill="#1B1B1B"/>
<path d="M174.65 66.75V68.57H177.58V70.26H174.65V72.23H177.97V73.99H172.46V64.99H177.97V66.75H174.65Z" fill="#1B1B1B"/>
</g>
<defs>
<clipPath id="clip0_289_115">
<rect width="219.3" height="89.45" fill="white"/>
</clipPath>
</defs>
</svg>
