<svg width="248" height="102" viewBox="0 0 248 102" fill="none" xmlns="http://www.w3.org/2000/svg">
<g clip-path="url(#clip0_289_151)">
<path d="M247.15 0H0V101.11H247.15V0Z" fill="#662D91"/>
<path d="M61.5103 43.89L70.8003 34.73L52.2903 16.21L33.7803 34.73L70.6203 71.69C64.5103 77.85 58.4003 84.01 52.2903 90.17C46.1303 84.01 39.9603 77.85 33.8003 71.69C36.8403 68.68 39.8703 65.66 42.9103 62.65" stroke="#CD212A" stroke-width="4.62" stroke-miterlimit="10"/>
<path d="M75.3604 39.22L89.1003 53.17L75.3604 67.11" stroke="#CD212A" stroke-width="4.62" stroke-miterlimit="10"/>
<path d="M29.28 66.97C24.7 62.38 20.12 57.78 15.54 53.19C20.12 48.49 24.7 43.79 29.28 39.09" stroke="#CD212A" stroke-width="4.62" stroke-miterlimit="10"/>
<path d="M131.91 10.18L127.44 19.38C125.03 17.33 122.6 16.31 120.14 16.31C118.57 16.31 117.34 16.77 116.46 17.68C115.73 18.46 115.36 19.34 115.36 20.31C115.36 21.18 115.7 21.91 116.37 22.51C117.02 23.07 117.68 23.49 118.34 23.78C119 24.07 120.59 24.6 123.11 25.38C126.63 26.49 129.24 28 130.94 29.92C132.74 31.99 133.65 34.73 133.65 38.16C133.65 43.39 132.18 47.34 129.25 50.03C126.1 52.88 121.97 54.3 116.86 54.3C111.75 54.3 106.64 52.58 101.98 49.13L106.76 39.59C110.09 42.68 113.38 44.23 116.61 44.23C118.58 44.23 120.02 43.69 120.92 42.6C121.63 41.73 121.99 40.79 121.99 39.77C121.99 38.55 121.52 37.57 120.59 36.85C119.66 36.13 117.88 35.35 115.26 34.53C111.15 33.26 108.43 32.04 107.11 30.86C104.82 28.88 103.68 25.87 103.68 21.82C103.68 17.08 105.16 13.28 108.12 10.41C110.8 7.78997 114.2 6.46997 118.31 6.46997C122.97 6.46997 127.51 7.69997 131.93 10.17L131.91 10.18Z" fill="#041E42"/>
<path d="M145.53 4.10999C147.14 4.10999 148.52 4.70999 149.65 5.90999C150.78 7.10999 151.35 8.55999 151.35 10.25C151.35 11.94 150.78 13.42 149.65 14.62C148.52 15.82 147.15 16.42 145.56 16.42C143.97 16.42 142.55 15.82 141.44 14.62C140.31 13.4 139.74 11.92 139.74 10.18C139.74 8.52999 140.31 7.10999 141.45 5.90999C142.59 4.70999 143.95 4.10999 145.52 4.10999H145.53ZM150.69 22.15V53.1H140.37V22.15H150.69Z" fill="#041E42"/>
<path d="M169.281 31.25V53.1H158.961V31.25H155.561V22.15H158.961V12.85H169.281V22.15H175.161V31.25H169.281Z" fill="#041E42"/>
<path d="M195.92 21.01C201.71 21.01 206.23 22.88 209.48 26.61C212.16 29.68 213.51 33.35 213.51 37.62C213.51 42.64 211.75 46.76 208.23 49.96C205.08 52.83 200.93 54.26 195.77 54.26C192.5 54.26 189.44 53.51 186.58 52.03C183.92 50.63 181.83 48.49 180.32 45.63C179.02 43.21 178.37 40.45 178.37 37.36C178.37 32.58 180.13 28.57 183.65 25.32C185.41 23.72 187.59 22.55 190.19 21.82C192.12 21.29 194.03 21.02 195.92 21.02V21.01ZM195.92 30.45C194.07 30.45 192.51 31.14 191.23 32.52C189.93 33.92 189.28 35.57 189.28 37.46C189.28 39.48 189.93 41.2 191.23 42.6C192.51 43.98 194.08 44.67 195.95 44.67C197.82 44.67 199.34 43.98 200.64 42.6C201.94 41.2 202.59 39.52 202.59 37.56C202.59 35.6 201.94 33.88 200.64 32.52C199.32 31.14 197.75 30.45 195.92 30.45Z" fill="#041E42"/>
<path d="M102.41 86.58C102.79 85.88 103.33 85.34 104.02 84.95C104.71 84.56 105.49 84.37 106.36 84.37C107.43 84.37 108.34 84.65 109.1 85.22C109.86 85.79 110.37 86.55 110.62 87.53H108.21C108.03 87.15 107.78 86.87 107.45 86.67C107.12 86.47 106.75 86.38 106.33 86.38C105.66 86.38 105.11 86.62 104.69 87.08C104.27 87.55 104.06 88.18 104.06 88.96C104.06 89.74 104.27 90.37 104.69 90.84C105.11 91.31 105.65 91.54 106.33 91.54C106.75 91.54 107.12 91.44 107.45 91.25C107.78 91.05 108.03 90.77 108.21 90.39H110.62C110.36 91.36 109.86 92.13 109.1 92.69C108.34 93.25 107.43 93.53 106.36 93.53C105.49 93.53 104.71 93.34 104.02 92.95C103.33 92.56 102.8 92.02 102.41 91.33C102.03 90.64 101.83 89.85 101.83 88.96C101.83 88.07 102.02 87.28 102.41 86.58Z" fill="#1B1B1B"/>
<path d="M113.9 92.97C113.2 92.58 112.64 92.03 112.22 91.32C111.8 90.61 111.6 89.82 111.6 88.94C111.6 88.06 111.81 87.27 112.22 86.57C112.63 85.87 113.19 85.32 113.9 84.93C114.61 84.54 115.38 84.34 116.23 84.34C117.08 84.34 117.85 84.54 118.56 84.93C119.26 85.32 119.82 85.87 120.23 86.57C120.64 87.27 120.84 88.06 120.84 88.94C120.84 89.82 120.63 90.61 120.22 91.32C119.81 92.02 119.25 92.57 118.55 92.97C117.85 93.36 117.08 93.56 116.23 93.56C115.38 93.56 114.61 93.36 113.9 92.97ZM117.95 90.84C118.38 90.36 118.6 89.73 118.6 88.94C118.6 88.15 118.38 87.51 117.95 87.04C117.52 86.57 116.94 86.33 116.23 86.33C115.52 86.33 114.93 86.57 114.49 87.03C114.06 87.5 113.84 88.14 113.84 88.94C113.84 89.74 114.06 90.37 114.49 90.84C114.92 91.31 115.5 91.55 116.23 91.55C116.96 91.55 117.52 91.31 117.95 90.83V90.84Z" fill="#1B1B1B"/>
<path d="M130.09 93.47H127.9L124.24 87.92V93.47H122.05V84.47H124.24L127.9 90.04V84.47H130.09V93.47Z" fill="#1B1B1B"/>
<path d="M133.87 86.23V88.05H136.8V89.74H133.87V91.71H137.19V93.47H131.68V84.47H137.19V86.23H133.87Z" fill="#1B1B1B"/>
<path d="M138.82 86.58C139.2 85.88 139.74 85.34 140.43 84.95C141.12 84.56 141.9 84.37 142.77 84.37C143.84 84.37 144.75 84.65 145.51 85.22C146.27 85.79 146.78 86.55 147.03 87.53H144.62C144.44 87.15 144.19 86.87 143.86 86.67C143.53 86.47 143.16 86.38 142.74 86.38C142.07 86.38 141.52 86.62 141.1 87.08C140.68 87.55 140.47 88.18 140.47 88.96C140.47 89.74 140.68 90.37 141.1 90.84C141.52 91.31 142.06 91.54 142.74 91.54C143.16 91.54 143.53 91.44 143.86 91.25C144.19 91.05 144.44 90.77 144.62 90.39H147.03C146.77 91.36 146.27 92.13 145.51 92.69C144.75 93.25 143.84 93.53 142.77 93.53C141.9 93.53 141.12 93.34 140.43 92.95C139.74 92.56 139.21 92.02 138.82 91.33C138.44 90.64 138.24 89.85 138.24 88.96C138.24 88.07 138.43 87.28 138.82 86.58Z" fill="#1B1B1B"/>
<path d="M154.85 84.47V86.23H152.47V93.47H150.28V86.23H147.9V84.47H154.86H154.85Z" fill="#1B1B1B"/>
<path d="M161.55 91.88H158.19L157.65 93.47H155.36L158.61 84.47H161.15L164.4 93.47H162.08L161.54 91.88H161.55ZM160.99 90.19L159.88 86.9L158.78 90.19H161H160.99Z" fill="#1B1B1B"/>
<path d="M173.44 93.47H171.25L167.59 87.92V93.47H165.4V84.47H167.59L171.25 90.04V84.47H173.44V93.47Z" fill="#1B1B1B"/>
<path d="M185.46 84.47L182.35 90.49V93.46H180.16V90.49L177.05 84.47H179.54L181.28 88.24L183.01 84.47H185.47H185.46Z" fill="#1B1B1B"/>
<path d="M189.27 86.58C189.65 85.88 190.19 85.34 190.88 84.95C191.57 84.56 192.35 84.37 193.22 84.37C194.29 84.37 195.2 84.65 195.96 85.22C196.72 85.79 197.23 86.55 197.48 87.53H195.07C194.89 87.15 194.64 86.87 194.31 86.67C193.98 86.47 193.61 86.38 193.19 86.38C192.52 86.38 191.97 86.62 191.55 87.08C191.13 87.55 190.92 88.18 190.92 88.96C190.92 89.74 191.13 90.37 191.55 90.84C191.97 91.31 192.51 91.54 193.19 91.54C193.61 91.54 193.98 91.44 194.31 91.25C194.64 91.05 194.89 90.77 195.07 90.39H197.48C197.22 91.36 196.72 92.13 195.96 92.69C195.2 93.25 194.29 93.53 193.22 93.53C192.35 93.53 191.57 93.34 190.88 92.95C190.19 92.56 189.66 92.02 189.27 91.33C188.89 90.64 188.69 89.85 188.69 88.96C188.69 88.07 188.88 87.28 189.27 86.58Z" fill="#1B1B1B"/>
<path d="M203.41 93.47L201.54 90.07H201.01V93.47H198.82V84.47H202.5C203.21 84.47 203.81 84.59 204.31 84.84C204.81 85.09 205.18 85.43 205.43 85.86C205.68 86.29 205.8 86.77 205.8 87.3C205.8 87.9 205.63 88.43 205.29 88.9C204.95 89.37 204.45 89.7 203.8 89.9L205.88 93.46H203.41V93.47ZM201.01 88.52H202.37C202.77 88.52 203.07 88.42 203.27 88.23C203.47 88.03 203.57 87.76 203.57 87.4C203.57 87.04 203.47 86.79 203.27 86.59C203.07 86.39 202.77 86.3 202.37 86.3H201.01V88.53V88.52Z" fill="#1B1B1B"/>
<path d="M209.37 86.23V88.05H212.3V89.74H209.37V91.71H212.69V93.47H207.18V84.47H212.69V86.23H209.37Z" fill="#1B1B1B"/>
<path d="M219.711 91.88H216.351L215.811 93.47H213.521L216.771 84.47H219.311L222.561 93.47H220.241L219.701 91.88H219.711ZM219.15 90.19L218.04 86.9L216.941 90.19H219.161H219.15Z" fill="#1B1B1B"/>
<path d="M231.601 93.47H229.411L225.751 87.92V93.47H223.561V84.47H225.751L229.411 90.04V84.47H231.601V93.47Z" fill="#1B1B1B"/>
<path d="M102.47 71.2C102.85 70.5 103.39 69.96 104.08 69.57C104.77 69.18 105.55 68.99 106.42 68.99C107.49 68.99 108.4 69.27 109.16 69.84C109.92 70.4 110.43 71.17 110.68 72.15H108.27C108.09 71.77 107.84 71.49 107.51 71.29C107.18 71.09 106.81 71 106.39 71C105.72 71 105.17 71.24 104.75 71.7C104.33 72.17 104.12 72.8 104.12 73.58C104.12 74.36 104.33 74.99 104.75 75.46C105.17 75.93 105.71 76.16 106.39 76.16C106.81 76.16 107.18 76.06 107.51 75.87C107.84 75.67 108.09 75.39 108.27 75.01H110.68C110.42 75.98 109.91 76.75 109.16 77.31C108.4 77.87 107.49 78.15 106.42 78.15C105.55 78.15 104.77 77.96 104.08 77.57C103.39 77.18 102.86 76.64 102.47 75.95C102.09 75.26 101.89 74.47 101.89 73.58C101.89 72.69 102.08 71.9 102.47 71.2Z" fill="#1B1B1B"/>
<path d="M113.949 77.5899C113.239 77.1999 112.689 76.6499 112.269 75.9399C111.859 75.2399 111.649 74.4399 111.649 73.5599C111.649 72.6799 111.859 71.8899 112.269 71.1899C112.679 70.4899 113.239 69.9399 113.949 69.5499C114.659 69.1599 115.429 68.9599 116.279 68.9599C117.129 68.9599 117.899 69.1599 118.609 69.5499C119.319 69.9399 119.869 70.4899 120.279 71.1899C120.689 71.8899 120.889 72.6799 120.889 73.5599C120.889 74.4399 120.679 75.2299 120.269 75.9399C119.859 76.6399 119.309 77.1899 118.599 77.5899C117.899 77.9799 117.129 78.1799 116.279 78.1799C115.429 78.1799 114.659 77.9799 113.949 77.5899ZM117.999 75.4599C118.429 74.9799 118.649 74.3499 118.649 73.5599C118.649 72.7699 118.429 72.13 117.999 71.66C117.569 71.19 116.989 70.9499 116.279 70.9499C115.569 70.9499 114.979 71.1899 114.539 71.6499C114.109 72.1199 113.889 72.7599 113.889 73.5599C113.889 74.3599 114.109 74.9899 114.539 75.4599C114.969 75.9299 115.549 76.1699 116.279 76.1699C117.009 76.1699 117.569 75.9299 117.999 75.4499V75.4599ZM117.759 67.2799L114.669 68.5699V67.0599L117.759 65.5699V67.2699V67.2799Z" fill="#1B1B1B"/>
<path d="M127.95 69.66C128.66 70.04 129.21 70.56 129.6 71.24C129.99 71.92 130.18 72.7 130.18 73.59C130.18 74.48 129.99 75.25 129.6 75.94C129.21 76.62 128.66 77.15 127.95 77.53C127.24 77.91 126.41 78.09 125.47 78.09H122.1V69.09H125.47C126.42 69.09 127.25 69.28 127.96 69.65L127.95 69.66ZM127.26 75.52C127.72 75.07 127.95 74.43 127.95 73.6C127.95 72.77 127.72 72.13 127.26 71.67C126.8 71.21 126.15 70.98 125.33 70.98H124.29V76.21H125.33C126.16 76.21 126.8 75.98 127.26 75.53V75.52Z" fill="#1B1B1B"/>
<path d="M133.599 69.1V78.1H131.409V69.1H133.599Z" fill="#1B1B1B"/>
<path d="M141.16 71.94C141 71.64 140.76 71.41 140.46 71.25C140.16 71.09 139.8 71.01 139.39 71.01C138.68 71.01 138.11 71.24 137.69 71.71C137.26 72.18 137.05 72.8 137.05 73.57C137.05 74.4 137.27 75.05 137.72 75.51C138.17 75.98 138.79 76.21 139.57 76.21C140.11 76.21 140.56 76.07 140.93 75.8C141.3 75.53 141.57 75.13 141.74 74.62H138.96V73.01H143.73V75.05C143.57 75.6 143.29 76.1 142.9 76.57C142.51 77.04 142.02 77.42 141.42 77.71C140.82 78 140.15 78.15 139.4 78.15C138.51 78.15 137.72 77.96 137.02 77.57C136.32 77.18 135.78 76.64 135.39 75.95C135 75.26 134.81 74.47 134.81 73.58C134.81 72.69 135 71.9 135.39 71.2C135.78 70.5 136.32 69.96 137.01 69.57C137.7 69.18 138.49 68.99 139.38 68.99C140.46 68.99 141.36 69.25 142.1 69.77C142.84 70.29 143.33 71.01 143.57 71.94H141.15H141.16Z" fill="#1B1B1B"/>
<path d="M146.89 77.59C146.18 77.2 145.63 76.65 145.21 75.94C144.8 75.24 144.59 74.44 144.59 73.56C144.59 72.68 144.8 71.89 145.21 71.19C145.62 70.49 146.18 69.94 146.89 69.55C147.6 69.16 148.37 68.96 149.22 68.96C150.07 68.96 150.84 69.16 151.55 69.55C152.26 69.94 152.81 70.49 153.22 71.19C153.63 71.89 153.83 72.68 153.83 73.56C153.83 74.44 153.62 75.23 153.21 75.94C152.8 76.64 152.25 77.19 151.54 77.59C150.84 77.98 150.07 78.18 149.22 78.18C148.37 78.18 147.6 77.98 146.89 77.59ZM150.94 75.46C151.37 74.98 151.59 74.35 151.59 73.56C151.59 72.77 151.37 72.13 150.94 71.66C150.51 71.19 149.93 70.95 149.22 70.95C148.51 70.95 147.92 71.19 147.48 71.65C147.05 72.12 146.83 72.76 146.83 73.56C146.83 74.36 147.05 74.99 147.48 75.46C147.91 75.93 148.49 76.17 149.22 76.17C149.95 76.17 150.51 75.93 150.94 75.45V75.46Z" fill="#1B1B1B"/>
<path d="M156.519 77.86C155.999 77.65 155.579 77.33 155.269 76.91C154.959 76.49 154.789 75.99 154.779 75.4H157.109C157.139 75.73 157.259 75.99 157.459 76.16C157.659 76.34 157.909 76.42 158.229 76.42C158.549 76.42 158.809 76.35 158.999 76.2C159.189 76.05 159.279 75.84 159.279 75.58C159.279 75.36 159.209 75.17 159.059 75.03C158.909 74.88 158.729 74.77 158.509 74.67C158.289 74.58 157.979 74.47 157.579 74.35C156.999 74.17 156.519 73.99 156.159 73.81C155.789 73.63 155.479 73.37 155.209 73.02C154.949 72.67 154.809 72.21 154.809 71.65C154.809 70.81 155.109 70.16 155.719 69.68C156.329 69.21 157.119 68.97 158.089 68.97C159.059 68.97 159.879 69.21 160.489 69.68C161.099 70.15 161.419 70.81 161.459 71.66H159.089C159.069 71.37 158.969 71.14 158.769 70.97C158.569 70.8 158.319 70.72 158.009 70.72C157.749 70.72 157.529 70.79 157.369 70.93C157.209 71.07 157.129 71.27 157.129 71.54C157.129 71.83 157.269 72.06 157.539 72.22C157.809 72.38 158.239 72.56 158.819 72.75C159.399 72.95 159.869 73.13 160.239 73.31C160.609 73.49 160.919 73.75 161.179 74.09C161.439 74.43 161.579 74.87 161.579 75.41C161.579 75.95 161.449 76.39 161.189 76.81C160.929 77.23 160.549 77.56 160.059 77.81C159.569 78.06 158.979 78.18 158.299 78.18C157.619 78.18 157.049 78.07 156.529 77.86H156.519Z" fill="#1B1B1B"/>
<path d="M172.03 79.63L170.88 78.08C170.54 78.15 170.21 78.18 169.88 78.18C169.03 78.18 168.26 77.98 167.55 77.59C166.84 77.2 166.29 76.65 165.87 75.94C165.45 75.23 165.25 74.44 165.25 73.56C165.25 72.68 165.46 71.89 165.87 71.19C166.28 70.49 166.84 69.94 167.55 69.55C168.25 69.16 169.03 68.96 169.88 68.96C170.73 68.96 171.5 69.16 172.21 69.55C172.92 69.94 173.47 70.49 173.88 71.19C174.29 71.89 174.49 72.68 174.49 73.56C174.49 74.33 174.33 75.03 174.02 75.67C173.71 76.31 173.27 76.83 172.72 77.25L174.69 79.62H172.04L172.03 79.63ZM168.14 75.47C168.57 75.94 169.15 76.18 169.88 76.18C170.61 76.18 171.17 75.94 171.6 75.46C172.03 74.98 172.25 74.35 172.25 73.56C172.25 72.77 172.03 72.13 171.6 71.66C171.17 71.19 170.59 70.95 169.88 70.95C169.17 70.95 168.58 71.19 168.14 71.65C167.71 72.12 167.49 72.76 167.49 73.56C167.49 74.36 167.71 74.99 168.14 75.46V75.47Z" fill="#1B1B1B"/>
<path d="M177.879 69.1V74.48C177.879 75.02 178.009 75.43 178.279 75.72C178.549 76.01 178.929 76.16 179.449 76.16C179.969 76.16 180.359 76.01 180.629 75.72C180.899 75.43 181.039 75.02 181.039 74.48V69.1H183.229V74.47C183.229 75.27 183.059 75.95 182.719 76.51C182.379 77.07 181.919 77.48 181.339 77.77C180.759 78.06 180.119 78.19 179.409 78.19C178.699 78.19 178.069 78.05 177.509 77.77C176.949 77.49 176.509 77.07 176.179 76.51C175.859 75.95 175.689 75.27 175.689 74.47V69.1H177.879Z" fill="#1B1B1B"/>
<path d="M186.95 70.85V72.67H189.88V74.36H186.95V76.33H190.27V78.09H184.76V69.09H190.27V70.85H186.95Z" fill="#1B1B1B"/>
</g>
<defs>
<clipPath id="clip0_289_151">
<rect width="247.15" height="101.11" fill="white"/>
</clipPath>
</defs>
</svg>
