<svg width="199" height="90" viewBox="0 0 199 90" fill="none" xmlns="http://www.w3.org/2000/svg">
<g clip-path="url(#clip0_289_189)">
<path d="M168.01 39.6199L177.3 30.4599L158.79 11.9399L140.28 30.4599L177.12 67.4199C171.01 73.5799 164.9 79.7399 158.79 85.8999C152.63 79.7399 146.46 73.5799 140.3 67.4199C143.34 64.4099 146.37 61.3899 149.41 58.3799" stroke="#CD212A" stroke-width="4.62" stroke-miterlimit="10"/>
<path d="M181.86 34.96L195.59 48.9L181.86 62.84" stroke="#CD212A" stroke-width="4.62" stroke-miterlimit="10"/>
<path d="M135.78 62.6999C131.2 58.1099 126.62 53.5099 122.04 48.9199C126.62 44.2199 131.2 39.5199 135.78 34.8199" stroke="#CD212A" stroke-width="4.62" stroke-miterlimit="10"/>
<path d="M30.0696 6.06999L25.5996 15.27C23.1896 13.22 20.7596 12.2 18.2996 12.2C16.7296 12.2 15.4996 12.66 14.6196 13.57C13.8896 14.35 13.5196 15.23 13.5196 16.2C13.5196 17.07 13.8596 17.8 14.5296 18.4C15.1796 18.96 15.8396 19.38 16.4996 19.67C17.1596 19.96 18.7496 20.49 21.2696 21.27C24.7896 22.38 27.3996 23.89 29.0996 25.81C30.8996 27.88 31.8096 30.62 31.8096 34.05C31.8096 39.28 30.3396 43.23 27.4096 45.92C24.2596 48.77 20.1296 50.19 15.0196 50.19C9.90965 50.19 4.79965 48.47 0.139648 45.02L4.91965 35.48C8.24965 38.57 11.5396 40.12 14.7696 40.12C16.7396 40.12 18.1796 39.58 19.0796 38.49C19.7896 37.62 20.1496 36.68 20.1496 35.66C20.1496 34.44 19.6796 33.46 18.7496 32.74C17.8196 32.02 16.0396 31.24 13.4196 30.42C9.30965 29.15 6.58965 27.93 5.26965 26.75C2.97965 24.77 1.83965 21.76 1.83965 17.71C1.83965 12.97 3.31965 9.16999 6.27965 6.29999C8.95965 3.67999 12.3596 2.35999 16.4696 2.35999C21.1296 2.35999 25.6696 3.58999 30.0896 6.05999L30.0696 6.06999Z" fill="#041E42"/>
<path d="M43.6894 0C45.2994 0 46.6794 0.6 47.8094 1.8C48.9394 3 49.5094 4.45 49.5094 6.14C49.5094 7.83 48.9394 9.31 47.8094 10.51C46.6794 11.71 45.3094 12.31 43.7194 12.31C42.1294 12.31 40.7094 11.71 39.5994 10.51C38.4694 9.29 37.8994 7.81 37.8994 6.07C37.8994 4.42 38.4694 3 39.6094 1.8C40.7494 0.6 42.1094 0 43.6794 0L43.6894 0ZM48.8494 18.04V48.99H38.5294V18.04H48.8494Z" fill="#041E42"/>
<path d="M67.4397 27.15V49H57.1197V27.15H53.7197V18.05H57.1197V8.75H67.4397V18.05H73.3197V27.15H67.4397Z" fill="#041E42"/>
<path d="M94.0793 16.91C99.8693 16.91 104.389 18.78 107.639 22.51C110.319 25.58 111.669 29.25 111.669 33.52C111.669 38.54 109.909 42.66 106.389 45.86C103.239 48.73 99.0893 50.16 93.9293 50.16C90.6593 50.16 87.5993 49.41 84.7393 47.93C82.0793 46.53 79.9893 44.39 78.4793 41.53C77.1793 39.11 76.5293 36.35 76.5293 33.26C76.5293 28.48 78.2893 24.47 81.8093 21.22C83.5693 19.62 85.7493 18.45 88.3493 17.72C90.2793 17.19 92.1893 16.92 94.0793 16.92V16.91ZM94.0793 26.35C92.2293 26.35 90.6693 27.04 89.3893 28.42C88.0893 29.82 87.4393 31.47 87.4393 33.36C87.4393 35.38 88.0893 37.1 89.3893 38.5C90.6693 39.88 92.2393 40.57 94.1093 40.57C95.9793 40.57 97.4993 39.88 98.7993 38.5C100.099 37.1 100.749 35.42 100.749 33.46C100.749 31.5 100.099 29.78 98.7993 28.42C97.4793 27.04 95.9093 26.35 94.0793 26.35Z" fill="#041E42"/>
<path d="M0.58 82.48C0.96 81.78 1.5 81.24 2.19 80.85C2.88 80.46 3.66 80.27 4.53 80.27C5.6 80.27 6.51 80.55 7.27 81.12C8.03 81.69 8.54 82.45 8.79 83.43H6.38C6.2 83.05 5.95 82.77 5.62 82.57C5.29 82.37 4.92 82.28 4.5 82.28C3.83 82.28 3.28 82.52 2.86 82.98C2.44 83.45 2.23 84.08 2.23 84.86C2.23 85.64 2.44 86.27 2.86 86.74C3.28 87.21 3.82 87.44 4.5 87.44C4.92 87.44 5.29 87.34 5.62 87.15C5.95 86.95 6.2 86.67 6.38 86.29H8.79C8.53 87.26 8.03 88.03 7.27 88.59C6.51 89.15 5.6 89.43 4.53 89.43C3.66 89.43 2.88 89.24 2.19 88.85C1.5 88.46 0.97 87.92 0.58 87.23C0.2 86.54 0 85.75 0 84.86C0 83.97 0.19 83.18 0.58 82.48Z" fill="#1B1B1B"/>
<path d="M12.0598 88.86C11.3598 88.47 10.7998 87.92 10.3798 87.21C9.95977 86.5 9.75977 85.71 9.75977 84.83C9.75977 83.95 9.96977 83.16 10.3798 82.46C10.7898 81.76 11.3498 81.21 12.0598 80.82C12.7698 80.43 13.5398 80.23 14.3898 80.23C15.2398 80.23 16.0098 80.43 16.7198 80.82C17.4198 81.21 17.9798 81.76 18.3898 82.46C18.7998 83.16 18.9998 83.95 18.9998 84.83C18.9998 85.71 18.7898 86.5 18.3798 87.21C17.9698 87.91 17.4098 88.46 16.7098 88.86C16.0098 89.25 15.2398 89.45 14.3898 89.45C13.5398 89.45 12.7698 89.25 12.0598 88.86ZM16.1098 86.73C16.5398 86.25 16.7598 85.62 16.7598 84.83C16.7598 84.04 16.5398 83.4 16.1098 82.93C15.6798 82.46 15.0998 82.22 14.3898 82.22C13.6798 82.22 13.0898 82.46 12.6498 82.92C12.2198 83.39 11.9998 84.03 11.9998 84.83C11.9998 85.63 12.2198 86.26 12.6498 86.73C13.0798 87.2 13.6598 87.44 14.3898 87.44C15.1198 87.44 15.6798 87.2 16.1098 86.72V86.73Z" fill="#1B1B1B"/>
<path d="M28.25 89.36H26.06L22.4 83.81V89.36H20.21V80.36H22.4L26.06 85.93V80.36H28.25V89.36Z" fill="#1B1B1B"/>
<path d="M32.0396 82.12V83.94H34.9696V85.63H32.0396V87.6H35.3596V89.36H29.8496V80.36H35.3596V82.12H32.0396Z" fill="#1B1B1B"/>
<path d="M36.9804 82.48C37.3604 81.78 37.9004 81.24 38.5904 80.85C39.2804 80.46 40.0604 80.27 40.9304 80.27C42.0004 80.27 42.9104 80.55 43.6704 81.12C44.4304 81.69 44.9404 82.45 45.1904 83.43H42.7804C42.6004 83.05 42.3504 82.77 42.0204 82.57C41.6904 82.37 41.3204 82.28 40.9004 82.28C40.2304 82.28 39.6804 82.52 39.2604 82.98C38.8404 83.45 38.6304 84.08 38.6304 84.86C38.6304 85.64 38.8404 86.27 39.2604 86.74C39.6804 87.21 40.2204 87.44 40.9004 87.44C41.3204 87.44 41.6904 87.34 42.0204 87.15C42.3504 86.95 42.6004 86.67 42.7804 86.29H45.1904C44.9304 87.26 44.4304 88.03 43.6704 88.59C42.9104 89.15 42.0004 89.43 40.9304 89.43C40.0604 89.43 39.2804 89.24 38.5904 88.85C37.9004 88.46 37.3704 87.92 36.9804 87.23C36.6004 86.54 36.4004 85.75 36.4004 84.86C36.4004 83.97 36.5904 83.18 36.9804 82.48Z" fill="#1B1B1B"/>
<path d="M53.0096 80.37V82.13H50.6296V89.37H48.4396V82.13H46.0596V80.37H53.0196H53.0096Z" fill="#1B1B1B"/>
<path d="M59.7095 87.77H56.3495L55.8095 89.36H53.5195L56.7695 80.36H59.3095L62.5595 89.36H60.2395L59.6995 87.77H59.7095ZM59.1495 86.08L58.0395 82.79L56.9395 86.08H59.1595H59.1495Z" fill="#1B1B1B"/>
<path d="M71.5996 89.36H69.4096L65.7496 83.81V89.36H63.5596V80.36H65.7496L69.4096 85.93V80.36H71.5996V89.36Z" fill="#1B1B1B"/>
<path d="M83.62 80.37L80.51 86.39V89.36H78.32V86.39L75.21 80.37H77.7L79.44 84.14L81.17 80.37H83.63H83.62Z" fill="#1B1B1B"/>
<path d="M87.4296 82.48C87.8096 81.78 88.3496 81.24 89.0396 80.85C89.7296 80.46 90.5096 80.27 91.3796 80.27C92.4496 80.27 93.3596 80.55 94.1196 81.12C94.8796 81.69 95.3896 82.45 95.6396 83.43H93.2296C93.0496 83.05 92.7996 82.77 92.4696 82.57C92.1396 82.37 91.7696 82.28 91.3496 82.28C90.6796 82.28 90.1296 82.52 89.7096 82.98C89.2896 83.45 89.0796 84.08 89.0796 84.86C89.0796 85.64 89.2896 86.27 89.7096 86.74C90.1296 87.21 90.6696 87.44 91.3496 87.44C91.7696 87.44 92.1396 87.34 92.4696 87.15C92.7996 86.95 93.0496 86.67 93.2296 86.29H95.6396C95.3796 87.26 94.8796 88.03 94.1196 88.59C93.3596 89.15 92.4496 89.43 91.3796 89.43C90.5096 89.43 89.7296 89.24 89.0396 88.85C88.3496 88.46 87.8196 87.92 87.4296 87.23C87.0496 86.54 86.8496 85.75 86.8496 84.86C86.8496 83.97 87.0396 83.18 87.4296 82.48Z" fill="#1B1B1B"/>
<path d="M101.58 89.36L99.7102 85.96H99.1802V89.36H96.9902V80.36H100.67C101.38 80.36 101.98 80.48 102.48 80.73C102.98 80.98 103.35 81.32 103.6 81.75C103.85 82.18 103.97 82.66 103.97 83.19C103.97 83.79 103.8 84.32 103.46 84.79C103.12 85.26 102.62 85.59 101.97 85.79L104.05 89.35H101.58V89.36ZM99.1802 84.41H100.54C100.94 84.41 101.24 84.31 101.44 84.12C101.64 83.92 101.74 83.65 101.74 83.29C101.74 82.93 101.64 82.68 101.44 82.48C101.24 82.28 100.94 82.19 100.54 82.19H99.1802V84.42V84.41Z" fill="#1B1B1B"/>
<path d="M107.53 82.12V83.94H110.46V85.63H107.53V87.6H110.85V89.36H105.34V80.36H110.85V82.12H107.53Z" fill="#1B1B1B"/>
<path d="M117.87 87.77H114.51L113.97 89.36H111.68L114.93 80.36H117.47L120.72 89.36H118.4L117.86 87.77H117.87ZM117.31 86.08L116.2 82.79L115.1 86.08H117.32H117.31Z" fill="#1B1B1B"/>
<path d="M129.77 89.36H127.58L123.92 83.81V89.36H121.73V80.36H123.92L127.58 85.93V80.36H129.77V89.36Z" fill="#1B1B1B"/>
<path d="M0.629805 67.1C1.0098 66.4 1.5498 65.86 2.2398 65.47C2.9298 65.08 3.7098 64.89 4.5798 64.89C5.6498 64.89 6.5598 65.17 7.3198 65.74C8.0798 66.3 8.5898 67.07 8.8398 68.05H6.4298C6.2498 67.67 5.9998 67.39 5.6698 67.19C5.3398 66.99 4.9698 66.9 4.5498 66.9C3.8798 66.9 3.3298 67.14 2.9098 67.6C2.4898 68.07 2.2798 68.7 2.2798 69.48C2.2798 70.26 2.4898 70.89 2.9098 71.36C3.3298 71.83 3.8698 72.06 4.5498 72.06C4.9698 72.06 5.3398 71.96 5.6698 71.77C5.9998 71.57 6.2498 71.29 6.4298 70.91H8.8398C8.5798 71.88 8.06981 72.65 7.3198 73.21C6.5598 73.77 5.6498 74.05 4.5798 74.05C3.7098 74.05 2.9298 73.86 2.2398 73.47C1.5498 73.08 1.0198 72.54 0.629805 71.85C0.249805 71.16 0.0498047 70.37 0.0498047 69.48C0.0498047 68.59 0.239805 67.8 0.629805 67.1Z" fill="#1B1B1B"/>
<path d="M12.1193 73.49C11.4093 73.1 10.8593 72.55 10.4393 71.84C10.0293 71.14 9.81934 70.34 9.81934 69.46C9.81934 68.58 10.0293 67.79 10.4393 67.09C10.8493 66.39 11.4093 65.84 12.1193 65.45C12.8293 65.06 13.5993 64.86 14.4493 64.86C15.2993 64.86 16.0693 65.06 16.7793 65.45C17.4893 65.84 18.0393 66.39 18.4493 67.09C18.8593 67.79 19.0593 68.58 19.0593 69.46C19.0593 70.34 18.8493 71.13 18.4393 71.84C18.0293 72.54 17.4793 73.09 16.7693 73.49C16.0693 73.88 15.2993 74.08 14.4493 74.08C13.5993 74.08 12.8293 73.88 12.1193 73.49ZM16.1693 71.36C16.5993 70.88 16.8193 70.25 16.8193 69.46C16.8193 68.67 16.5993 68.03 16.1693 67.56C15.7393 67.09 15.1593 66.85 14.4493 66.85C13.7393 66.85 13.1493 67.09 12.7093 67.55C12.2793 68.02 12.0593 68.66 12.0593 69.46C12.0593 70.26 12.2793 70.89 12.7093 71.36C13.1393 71.83 13.7193 72.07 14.4493 72.07C15.1793 72.07 15.7393 71.83 16.1693 71.35V71.36ZM15.9293 63.18L12.8393 64.47V62.96L15.9293 61.47V63.17V63.18Z" fill="#1B1B1B"/>
<path d="M26.1195 65.56C26.8295 65.94 27.3795 66.46 27.7695 67.14C28.1595 67.82 28.3495 68.6 28.3495 69.49C28.3495 70.38 28.1595 71.15 27.7695 71.84C27.3795 72.52 26.8295 73.05 26.1195 73.43C25.4095 73.81 24.5795 73.99 23.6395 73.99H20.2695V64.99H23.6395C24.5895 64.99 25.4195 65.18 26.1295 65.55L26.1195 65.56ZM25.4295 71.42C25.8895 70.97 26.1195 70.33 26.1195 69.5C26.1195 68.67 25.8895 68.03 25.4295 67.57C24.9695 67.11 24.3195 66.88 23.4995 66.88H22.4595V72.11H23.4995C24.3295 72.11 24.9695 71.88 25.4295 71.43V71.42Z" fill="#1B1B1B"/>
<path d="M31.7701 64.99V73.99H29.5801V64.99H31.7701Z" fill="#1B1B1B"/>
<path d="M39.3295 67.84C39.1695 67.54 38.9295 67.31 38.6295 67.15C38.3295 66.99 37.9695 66.91 37.5595 66.91C36.8495 66.91 36.2795 67.14 35.8595 67.61C35.4295 68.08 35.2195 68.7 35.2195 69.47C35.2195 70.3 35.4395 70.95 35.8895 71.41C36.3395 71.88 36.9595 72.11 37.7395 72.11C38.2795 72.11 38.7295 71.97 39.0995 71.7C39.4695 71.43 39.7395 71.03 39.9095 70.52H37.1295V68.91H41.8995V70.95C41.7395 71.5 41.4595 72 41.0695 72.47C40.6795 72.94 40.1895 73.32 39.5895 73.61C38.9895 73.9 38.3195 74.05 37.5695 74.05C36.6795 74.05 35.8895 73.86 35.1895 73.47C34.4895 73.08 33.9495 72.54 33.5595 71.85C33.1695 71.16 32.9795 70.37 32.9795 69.48C32.9795 68.59 33.1695 67.8 33.5595 67.1C33.9495 66.4 34.4895 65.86 35.1795 65.47C35.8695 65.08 36.6595 64.89 37.5495 64.89C38.6295 64.89 39.5295 65.15 40.2695 65.67C41.0095 66.19 41.4995 66.91 41.7395 67.84H39.3195H39.3295Z" fill="#1B1B1B"/>
<path d="M45.05 73.49C44.34 73.1 43.79 72.55 43.37 71.84C42.96 71.14 42.75 70.34 42.75 69.46C42.75 68.58 42.96 67.79 43.37 67.09C43.78 66.39 44.34 65.84 45.05 65.45C45.76 65.06 46.53 64.86 47.38 64.86C48.23 64.86 49 65.06 49.71 65.45C50.42 65.84 50.97 66.39 51.38 67.09C51.79 67.79 51.99 68.58 51.99 69.46C51.99 70.34 51.78 71.13 51.37 71.84C50.96 72.54 50.41 73.09 49.7 73.49C49 73.88 48.23 74.08 47.38 74.08C46.53 74.08 45.76 73.88 45.05 73.49ZM49.1 71.36C49.53 70.88 49.75 70.25 49.75 69.46C49.75 68.67 49.53 68.03 49.1 67.56C48.67 67.09 48.09 66.85 47.38 66.85C46.67 66.85 46.08 67.09 45.64 67.55C45.21 68.02 44.99 68.66 44.99 69.46C44.99 70.26 45.21 70.89 45.64 71.36C46.07 71.83 46.65 72.07 47.38 72.07C48.11 72.07 48.67 71.83 49.1 71.35V71.36Z" fill="#1B1B1B"/>
<path d="M54.6795 73.76C54.1595 73.55 53.7395 73.23 53.4295 72.81C53.1195 72.39 52.9495 71.89 52.9395 71.3H55.2695C55.2995 71.63 55.4195 71.89 55.6195 72.06C55.8195 72.24 56.0695 72.32 56.3895 72.32C56.7095 72.32 56.9695 72.25 57.1595 72.1C57.3495 71.95 57.4395 71.74 57.4395 71.48C57.4395 71.26 57.3695 71.07 57.2195 70.93C57.0695 70.78 56.8895 70.67 56.6695 70.57C56.4495 70.48 56.1395 70.37 55.7395 70.25C55.1595 70.07 54.6795 69.89 54.3195 69.71C53.9495 69.53 53.6395 69.27 53.3695 68.92C53.1095 68.57 52.9695 68.11 52.9695 67.55C52.9695 66.71 53.2695 66.06 53.8795 65.58C54.4895 65.11 55.2795 64.87 56.2495 64.87C57.2195 64.87 58.0395 65.11 58.6495 65.58C59.2595 66.05 59.5795 66.71 59.6195 67.56H57.2495C57.2295 67.27 57.1295 67.04 56.9295 66.87C56.7295 66.7 56.4795 66.62 56.1695 66.62C55.9095 66.62 55.6895 66.69 55.5295 66.83C55.3695 66.97 55.2895 67.17 55.2895 67.44C55.2895 67.73 55.4295 67.96 55.6995 68.12C55.9695 68.28 56.3995 68.46 56.9795 68.65C57.5595 68.85 58.0295 69.03 58.3995 69.21C58.7695 69.39 59.0795 69.65 59.3395 69.99C59.5995 70.33 59.7395 70.77 59.7395 71.31C59.7395 71.85 59.6095 72.29 59.3495 72.71C59.0895 73.13 58.7095 73.46 58.2195 73.71C57.7295 73.96 57.1395 74.08 56.4595 74.08C55.7795 74.08 55.2095 73.97 54.6895 73.76H54.6795Z" fill="#1B1B1B"/>
<path d="M70.1999 75.52L69.0499 73.97C68.7099 74.04 68.3799 74.07 68.0499 74.07C67.1999 74.07 66.4299 73.87 65.7199 73.48C65.0099 73.09 64.4599 72.54 64.0399 71.83C63.6199 71.12 63.4199 70.33 63.4199 69.45C63.4199 68.57 63.6299 67.78 64.0399 67.08C64.4499 66.38 65.0099 65.83 65.7199 65.44C66.4199 65.05 67.1999 64.85 68.0499 64.85C68.8999 64.85 69.6699 65.05 70.3799 65.44C71.0899 65.83 71.6399 66.38 72.0499 67.08C72.4599 67.78 72.6599 68.57 72.6599 69.45C72.6599 70.22 72.4999 70.92 72.1899 71.56C71.8799 72.2 71.4399 72.72 70.8899 73.14L72.8599 75.51H70.2099L70.1999 75.52ZM66.3099 71.36C66.7399 71.83 67.3199 72.07 68.0499 72.07C68.7799 72.07 69.3399 71.83 69.7699 71.35C70.1999 70.87 70.4199 70.24 70.4199 69.45C70.4199 68.66 70.1999 68.02 69.7699 67.55C69.3399 67.08 68.7599 66.84 68.0499 66.84C67.3399 66.84 66.7499 67.08 66.3099 67.54C65.8799 68.01 65.6599 68.65 65.6599 69.45C65.6599 70.25 65.8799 70.88 66.3099 71.35V71.36Z" fill="#1B1B1B"/>
<path d="M76.0396 64.99V70.37C76.0396 70.91 76.1696 71.32 76.4396 71.61C76.7096 71.9 77.0896 72.05 77.6096 72.05C78.1296 72.05 78.5196 71.9 78.7896 71.61C79.0596 71.32 79.1996 70.91 79.1996 70.37V64.99H81.3896V70.36C81.3896 71.16 81.2196 71.84 80.8796 72.4C80.5396 72.96 80.0796 73.37 79.4996 73.66C78.9196 73.95 78.2796 74.08 77.5696 74.08C76.8596 74.08 76.2296 73.94 75.6696 73.66C75.1096 73.38 74.6696 72.96 74.3396 72.4C74.0196 71.84 73.8496 71.16 73.8496 70.36V64.99H76.0396Z" fill="#1B1B1B"/>
<path d="M85.1099 66.75V68.57H88.0399V70.26H85.1099V72.23H88.4299V73.99H82.9199V64.99H88.4299V66.75H85.1099Z" fill="#1B1B1B"/>
</g>
<defs>
<clipPath id="clip0_289_189">
<rect width="198.84" height="89.45" fill="white"/>
</clipPath>
</defs>
</svg>
