<svg width="197" height="90" viewBox="0 0 197 90" fill="none" xmlns="http://www.w3.org/2000/svg">
<g clip-path="url(#clip0_289_225)">
<path d="M24.5997 42.68L29.2397 38.1L19.9797 28.84L10.7197 38.1L29.1397 56.58C26.0897 59.66 23.0297 62.74 19.9797 65.82C16.8997 62.74 13.8197 59.66 10.7397 56.58C12.2597 55.07 13.7797 53.57 15.2897 52.06" stroke="#CD212A" stroke-width="2.31" stroke-miterlimit="10"/>
<path d="M31.5303 40.35L38.4003 47.32L31.5303 54.29" stroke="#CD212A" stroke-width="2.31" stroke-miterlimit="10"/>
<path d="M8.49012 54.2199C6.20012 51.9199 3.91012 49.6299 1.62012 47.3299C3.91012 44.9799 6.20012 42.6299 8.49012 40.2799" stroke="#CD212A" stroke-width="2.31" stroke-miterlimit="10"/>
<path d="M96.5501 6.06999L92.0801 15.27C89.6701 13.22 87.2401 12.2 84.7801 12.2C83.2101 12.2 81.9801 12.66 81.1001 13.57C80.3701 14.35 80.0001 15.23 80.0001 16.2C80.0001 17.07 80.3401 17.8 81.0101 18.4C81.6601 18.96 82.3201 19.38 82.9801 19.67C83.6401 19.96 85.2301 20.49 87.7501 21.27C91.2701 22.38 93.8801 23.89 95.5801 25.81C97.3801 27.88 98.2901 30.62 98.2901 34.05C98.2901 39.28 96.8201 43.23 93.8901 45.92C90.7401 48.77 86.6101 50.19 81.5001 50.19C76.3901 50.19 71.2801 48.47 66.6201 45.02L71.4001 35.48C74.7301 38.57 78.0201 40.12 81.2501 40.12C83.2201 40.12 84.6601 39.58 85.5601 38.49C86.2701 37.62 86.6301 36.68 86.6301 35.66C86.6301 34.44 86.1601 33.46 85.2301 32.74C84.3001 32.02 82.5201 31.24 79.9001 30.42C75.7901 29.15 73.0701 27.93 71.7501 26.75C69.4601 24.77 68.3201 21.76 68.3201 17.71C68.3201 12.97 69.8001 9.16999 72.7601 6.29999C75.4401 3.67999 78.8401 2.35999 82.9501 2.35999C87.6101 2.35999 92.1501 3.58999 96.5701 6.05999L96.5501 6.06999Z" fill="#041E42"/>
<path d="M110.17 0C111.78 0 113.16 0.6 114.29 1.8C115.42 3 115.99 4.45 115.99 6.14C115.99 7.83 115.42 9.31 114.29 10.51C113.16 11.71 111.79 12.31 110.2 12.31C108.61 12.31 107.19 11.71 106.08 10.51C104.95 9.29 104.38 7.81 104.38 6.07C104.38 4.42 104.95 3 106.09 1.8C107.23 0.6 108.59 0 110.16 0L110.17 0ZM115.33 18.04V48.99H105.01V18.04H115.33Z" fill="#041E42"/>
<path d="M133.92 27.15V49H123.6V27.15H120.2V18.05H123.6V8.75H133.92V18.05H139.8V27.15H133.92Z" fill="#041E42"/>
<path d="M160.571 16.91C166.361 16.91 170.881 18.78 174.131 22.51C176.811 25.58 178.161 29.25 178.161 33.52C178.161 38.54 176.401 42.66 172.881 45.86C169.731 48.73 165.581 50.16 160.421 50.16C157.151 50.16 154.09 49.41 151.23 47.93C148.57 46.53 146.481 44.39 144.971 41.53C143.671 39.11 143.021 36.35 143.021 33.26C143.021 28.48 144.781 24.47 148.301 21.22C150.061 19.62 152.24 18.45 154.84 17.72C156.771 17.19 158.681 16.92 160.571 16.92V16.91ZM160.571 26.35C158.721 26.35 157.161 27.04 155.881 28.42C154.581 29.82 153.93 31.47 153.93 33.36C153.93 35.38 154.581 37.1 155.881 38.5C157.161 39.88 158.731 40.57 160.601 40.57C162.471 40.57 163.99 39.88 165.29 38.5C166.59 37.1 167.241 35.42 167.241 33.46C167.241 31.5 166.59 29.78 165.29 28.42C163.97 27.04 162.401 26.35 160.571 26.35Z" fill="#041E42"/>
<path d="M67.0605 82.48C67.4405 81.78 67.9805 81.24 68.6705 80.85C69.3605 80.46 70.1405 80.27 71.0105 80.27C72.0805 80.27 72.9905 80.55 73.7505 81.12C74.5105 81.69 75.0205 82.45 75.2705 83.43H72.8605C72.6805 83.05 72.4305 82.77 72.1005 82.57C71.7705 82.37 71.4005 82.28 70.9805 82.28C70.3105 82.28 69.7605 82.52 69.3405 82.98C68.9205 83.45 68.7105 84.08 68.7105 84.86C68.7105 85.64 68.9205 86.27 69.3405 86.74C69.7605 87.21 70.3005 87.44 70.9805 87.44C71.4005 87.44 71.7705 87.34 72.1005 87.15C72.4305 86.95 72.6805 86.67 72.8605 86.29H75.2705C75.0105 87.26 74.5105 88.03 73.7505 88.59C72.9905 89.15 72.0805 89.43 71.0105 89.43C70.1405 89.43 69.3605 89.24 68.6705 88.85C67.9805 88.46 67.4505 87.92 67.0605 87.23C66.6805 86.54 66.4805 85.75 66.4805 84.86C66.4805 83.97 66.6705 83.18 67.0605 82.48Z" fill="#1B1B1B"/>
<path d="M78.5402 88.86C77.8402 88.47 77.2802 87.92 76.8602 87.21C76.4402 86.5 76.2402 85.71 76.2402 84.83C76.2402 83.95 76.4502 83.16 76.8602 82.46C77.2702 81.76 77.8302 81.21 78.5402 80.82C79.2502 80.43 80.0202 80.23 80.8702 80.23C81.7202 80.23 82.4902 80.43 83.2002 80.82C83.9002 81.21 84.4602 81.76 84.8702 82.46C85.2802 83.16 85.4802 83.95 85.4802 84.83C85.4802 85.71 85.2702 86.5 84.8602 87.21C84.4502 87.91 83.8902 88.46 83.1902 88.86C82.4902 89.25 81.7202 89.45 80.8702 89.45C80.0202 89.45 79.2502 89.25 78.5402 88.86ZM82.5902 86.73C83.0202 86.25 83.2402 85.62 83.2402 84.83C83.2402 84.04 83.0202 83.4 82.5902 82.93C82.1602 82.46 81.5802 82.22 80.8702 82.22C80.1602 82.22 79.5702 82.46 79.1302 82.92C78.7002 83.39 78.4802 84.03 78.4802 84.83C78.4802 85.63 78.7002 86.26 79.1302 86.73C79.5602 87.2 80.1402 87.44 80.8702 87.44C81.6002 87.44 82.1602 87.2 82.5902 86.72V86.73Z" fill="#1B1B1B"/>
<path d="M94.7402 89.36H92.5502L88.8902 83.81V89.36H86.7002V80.36H88.8902L92.5502 85.93V80.36H94.7402V89.36Z" fill="#1B1B1B"/>
<path d="M98.5201 82.12V83.94H101.45V85.63H98.5201V87.6H101.84V89.36H96.3301V80.36H101.84V82.12H98.5201Z" fill="#1B1B1B"/>
<path d="M103.461 82.48C103.841 81.78 104.381 81.24 105.071 80.85C105.761 80.46 106.541 80.27 107.411 80.27C108.481 80.27 109.391 80.55 110.151 81.12C110.911 81.69 111.421 82.45 111.671 83.43H109.261C109.081 83.05 108.831 82.77 108.501 82.57C108.171 82.37 107.801 82.28 107.381 82.28C106.711 82.28 106.161 82.52 105.741 82.98C105.321 83.45 105.111 84.08 105.111 84.86C105.111 85.64 105.321 86.27 105.741 86.74C106.161 87.21 106.701 87.44 107.381 87.44C107.801 87.44 108.171 87.34 108.501 87.15C108.831 86.95 109.081 86.67 109.261 86.29H111.671C111.411 87.26 110.911 88.03 110.151 88.59C109.391 89.15 108.481 89.43 107.411 89.43C106.541 89.43 105.761 89.24 105.071 88.85C104.381 88.46 103.851 87.92 103.461 87.23C103.081 86.54 102.881 85.75 102.881 84.86C102.881 83.97 103.071 83.18 103.461 82.48Z" fill="#1B1B1B"/>
<path d="M119.49 80.37V82.13H117.11V89.37H114.92V82.13H112.54V80.37H119.5H119.49Z" fill="#1B1B1B"/>
<path d="M126.19 87.77H122.83L122.29 89.36H120L123.25 80.36H125.79L129.04 89.36H126.72L126.18 87.77H126.19ZM125.63 86.08L124.52 82.79L123.42 86.08H125.64H125.63Z" fill="#1B1B1B"/>
<path d="M138.08 89.36H135.89L132.23 83.81V89.36H130.04V80.36H132.23L135.89 85.93V80.36H138.08V89.36Z" fill="#1B1B1B"/>
<path d="M150.1 80.37L146.99 86.39V89.36H144.8V86.39L141.69 80.37H144.18L145.92 84.14L147.65 80.37H150.11H150.1Z" fill="#1B1B1B"/>
<path d="M153.91 82.48C154.29 81.78 154.83 81.24 155.52 80.85C156.21 80.46 156.99 80.27 157.86 80.27C158.93 80.27 159.84 80.55 160.6 81.12C161.36 81.69 161.87 82.45 162.12 83.43H159.71C159.53 83.05 159.28 82.77 158.95 82.57C158.62 82.37 158.25 82.28 157.83 82.28C157.16 82.28 156.61 82.52 156.19 82.98C155.77 83.45 155.56 84.08 155.56 84.86C155.56 85.64 155.77 86.27 156.19 86.74C156.61 87.21 157.15 87.44 157.83 87.44C158.25 87.44 158.62 87.34 158.95 87.15C159.28 86.95 159.53 86.67 159.71 86.29H162.12C161.86 87.26 161.36 88.03 160.6 88.59C159.84 89.15 158.93 89.43 157.86 89.43C156.99 89.43 156.21 89.24 155.52 88.85C154.83 88.46 154.3 87.92 153.91 87.23C153.53 86.54 153.33 85.75 153.33 84.86C153.33 83.97 153.52 83.18 153.91 82.48Z" fill="#1B1B1B"/>
<path d="M168.061 89.36L166.191 85.96H165.661V89.36H163.471V80.36H167.151C167.861 80.36 168.461 80.48 168.961 80.73C169.461 80.98 169.831 81.32 170.081 81.75C170.331 82.18 170.451 82.66 170.451 83.19C170.451 83.79 170.281 84.32 169.941 84.79C169.601 85.26 169.101 85.59 168.451 85.79L170.531 89.35H168.061V89.36ZM165.661 84.41H167.021C167.421 84.41 167.721 84.31 167.921 84.12C168.121 83.92 168.221 83.65 168.221 83.29C168.221 82.93 168.121 82.68 167.921 82.48C167.721 82.28 167.421 82.19 167.021 82.19H165.661V84.42V84.41Z" fill="#1B1B1B"/>
<path d="M174.01 82.12V83.94H176.94V85.63H174.01V87.6H177.33V89.36H171.82V80.36H177.33V82.12H174.01Z" fill="#1B1B1B"/>
<path d="M184.361 87.77H181.001L180.461 89.36H178.171L181.421 80.36H183.961L187.211 89.36H184.891L184.351 87.77H184.361ZM183.801 86.08L182.691 82.79L181.591 86.08H183.811H183.801Z" fill="#1B1B1B"/>
<path d="M196.251 89.36H194.061L190.401 83.81V89.36H188.211V80.36H190.401L194.061 85.93V80.36H196.251V89.36Z" fill="#1B1B1B"/>
<path d="M67.1103 67.1C67.4903 66.4 68.0303 65.86 68.7203 65.47C69.4103 65.08 70.1903 64.89 71.0603 64.89C72.1303 64.89 73.0403 65.17 73.8003 65.74C74.5603 66.3 75.0703 67.07 75.3203 68.05H72.9103C72.7303 67.67 72.4803 67.39 72.1503 67.19C71.8203 66.99 71.4503 66.9 71.0303 66.9C70.3603 66.9 69.8103 67.14 69.3903 67.6C68.9703 68.07 68.7603 68.7 68.7603 69.48C68.7603 70.26 68.9703 70.89 69.3903 71.36C69.8103 71.83 70.3503 72.06 71.0303 72.06C71.4503 72.06 71.8203 71.96 72.1503 71.77C72.4803 71.57 72.7303 71.29 72.9103 70.91H75.3203C75.0603 71.88 74.5503 72.65 73.8003 73.21C73.0403 73.77 72.1303 74.05 71.0603 74.05C70.1903 74.05 69.4103 73.86 68.7203 73.47C68.0303 73.08 67.5003 72.54 67.1103 71.85C66.7303 71.16 66.5303 70.37 66.5303 69.48C66.5303 68.59 66.7203 67.8 67.1103 67.1Z" fill="#1B1B1B"/>
<path d="M78.5998 73.49C77.8898 73.1 77.3398 72.55 76.9198 71.84C76.5098 71.14 76.2998 70.34 76.2998 69.46C76.2998 68.58 76.5098 67.79 76.9198 67.09C77.3298 66.39 77.8898 65.84 78.5998 65.45C79.3098 65.06 80.0798 64.86 80.9298 64.86C81.7798 64.86 82.5498 65.06 83.2598 65.45C83.9698 65.84 84.5198 66.39 84.9298 67.09C85.3398 67.79 85.5398 68.58 85.5398 69.46C85.5398 70.34 85.3298 71.13 84.9198 71.84C84.5098 72.54 83.9598 73.09 83.2498 73.49C82.5498 73.88 81.7798 74.08 80.9298 74.08C80.0798 74.08 79.3098 73.88 78.5998 73.49ZM82.6498 71.36C83.0798 70.88 83.2998 70.25 83.2998 69.46C83.2998 68.67 83.0798 68.03 82.6498 67.56C82.2198 67.09 81.6398 66.85 80.9298 66.85C80.2198 66.85 79.6298 67.09 79.1898 67.55C78.7598 68.02 78.5398 68.66 78.5398 69.46C78.5398 70.26 78.7598 70.89 79.1898 71.36C79.6198 71.83 80.1998 72.07 80.9298 72.07C81.6598 72.07 82.2198 71.83 82.6498 71.35V71.36ZM82.4098 63.18L79.3198 64.47V62.96L82.4098 61.47V63.17V63.18Z" fill="#1B1B1B"/>
<path d="M92.6 65.56C93.31 65.94 93.86 66.46 94.25 67.14C94.64 67.82 94.83 68.6 94.83 69.49C94.83 70.38 94.64 71.15 94.25 71.84C93.86 72.52 93.31 73.05 92.6 73.43C91.89 73.81 91.06 73.99 90.12 73.99H86.75V64.99H90.12C91.07 64.99 91.9 65.18 92.61 65.55L92.6 65.56ZM91.91 71.42C92.37 70.97 92.6 70.33 92.6 69.5C92.6 68.67 92.37 68.03 91.91 67.57C91.45 67.11 90.8 66.88 89.98 66.88H88.94V72.11H89.98C90.81 72.11 91.45 71.88 91.91 71.43V71.42Z" fill="#1B1B1B"/>
<path d="M98.2505 64.99V73.99H96.0605V64.99H98.2505Z" fill="#1B1B1B"/>
<path d="M105.81 67.84C105.65 67.54 105.41 67.31 105.11 67.15C104.81 66.99 104.45 66.91 104.04 66.91C103.33 66.91 102.76 67.14 102.34 67.61C101.91 68.08 101.7 68.7 101.7 69.47C101.7 70.3 101.92 70.95 102.37 71.41C102.82 71.88 103.44 72.11 104.22 72.11C104.76 72.11 105.21 71.97 105.58 71.7C105.95 71.43 106.22 71.03 106.39 70.52H103.61V68.91H108.38V70.95C108.22 71.5 107.94 72 107.55 72.47C107.16 72.94 106.67 73.32 106.07 73.61C105.47 73.9 104.8 74.05 104.05 74.05C103.16 74.05 102.37 73.86 101.67 73.47C100.97 73.08 100.43 72.54 100.04 71.85C99.65 71.16 99.46 70.37 99.46 69.48C99.46 68.59 99.65 67.8 100.04 67.1C100.43 66.4 100.97 65.86 101.66 65.47C102.35 65.08 103.14 64.89 104.03 64.89C105.11 64.89 106.01 65.15 106.75 65.67C107.49 66.19 107.98 66.91 108.22 67.84H105.8H105.81Z" fill="#1B1B1B"/>
<path d="M111.53 73.49C110.82 73.1 110.27 72.55 109.85 71.84C109.44 71.14 109.23 70.34 109.23 69.46C109.23 68.58 109.44 67.79 109.85 67.09C110.26 66.39 110.82 65.84 111.53 65.45C112.24 65.06 113.01 64.86 113.86 64.86C114.71 64.86 115.48 65.06 116.19 65.45C116.9 65.84 117.45 66.39 117.86 67.09C118.27 67.79 118.47 68.58 118.47 69.46C118.47 70.34 118.26 71.13 117.85 71.84C117.44 72.54 116.89 73.09 116.18 73.49C115.48 73.88 114.71 74.08 113.86 74.08C113.01 74.08 112.24 73.88 111.53 73.49ZM115.58 71.36C116.01 70.88 116.23 70.25 116.23 69.46C116.23 68.67 116.01 68.03 115.58 67.56C115.15 67.09 114.57 66.85 113.86 66.85C113.15 66.85 112.56 67.09 112.12 67.55C111.69 68.02 111.47 68.66 111.47 69.46C111.47 70.26 111.69 70.89 112.12 71.36C112.55 71.83 113.13 72.07 113.86 72.07C114.59 72.07 115.15 71.83 115.58 71.35V71.36Z" fill="#1B1B1B"/>
<path d="M121.16 73.76C120.64 73.55 120.22 73.23 119.91 72.81C119.6 72.39 119.43 71.89 119.42 71.3H121.75C121.78 71.63 121.9 71.89 122.1 72.06C122.3 72.24 122.55 72.32 122.87 72.32C123.19 72.32 123.45 72.25 123.64 72.1C123.83 71.95 123.92 71.74 123.92 71.48C123.92 71.26 123.85 71.07 123.7 70.93C123.55 70.78 123.37 70.67 123.15 70.57C122.93 70.48 122.62 70.37 122.22 70.25C121.64 70.07 121.16 69.89 120.8 69.71C120.43 69.53 120.12 69.27 119.85 68.92C119.59 68.57 119.45 68.11 119.45 67.55C119.45 66.71 119.75 66.06 120.36 65.58C120.97 65.11 121.76 64.87 122.73 64.87C123.7 64.87 124.52 65.11 125.13 65.58C125.74 66.05 126.06 66.71 126.1 67.56H123.73C123.71 67.27 123.61 67.04 123.41 66.87C123.21 66.7 122.96 66.62 122.65 66.62C122.39 66.62 122.17 66.69 122.01 66.83C121.85 66.97 121.77 67.17 121.77 67.44C121.77 67.73 121.91 67.96 122.18 68.12C122.45 68.28 122.88 68.46 123.46 68.65C124.04 68.85 124.51 69.03 124.88 69.21C125.25 69.39 125.56 69.65 125.82 69.99C126.08 70.33 126.22 70.77 126.22 71.31C126.22 71.85 126.09 72.29 125.83 72.71C125.57 73.13 125.19 73.46 124.7 73.71C124.21 73.96 123.62 74.08 122.94 74.08C122.26 74.08 121.69 73.97 121.17 73.76H121.16Z" fill="#1B1B1B"/>
<path d="M136.68 75.52L135.53 73.97C135.19 74.04 134.86 74.07 134.53 74.07C133.68 74.07 132.91 73.87 132.2 73.48C131.49 73.09 130.94 72.54 130.52 71.83C130.1 71.12 129.9 70.33 129.9 69.45C129.9 68.57 130.11 67.78 130.52 67.08C130.93 66.38 131.49 65.83 132.2 65.44C132.9 65.05 133.68 64.85 134.53 64.85C135.38 64.85 136.15 65.05 136.86 65.44C137.57 65.83 138.12 66.38 138.53 67.08C138.94 67.78 139.14 68.57 139.14 69.45C139.14 70.22 138.98 70.92 138.67 71.56C138.36 72.2 137.92 72.72 137.37 73.14L139.34 75.51H136.69L136.68 75.52ZM132.79 71.36C133.22 71.83 133.8 72.07 134.53 72.07C135.26 72.07 135.82 71.83 136.25 71.35C136.68 70.87 136.9 70.24 136.9 69.45C136.9 68.66 136.68 68.02 136.25 67.55C135.82 67.08 135.24 66.84 134.53 66.84C133.82 66.84 133.23 67.08 132.79 67.54C132.36 68.01 132.14 68.65 132.14 69.45C132.14 70.25 132.36 70.88 132.79 71.35V71.36Z" fill="#1B1B1B"/>
<path d="M142.52 64.99V70.37C142.52 70.91 142.65 71.32 142.92 71.61C143.19 71.9 143.57 72.05 144.09 72.05C144.61 72.05 145 71.9 145.27 71.61C145.54 71.32 145.68 70.91 145.68 70.37V64.99H147.87V70.36C147.87 71.16 147.7 71.84 147.36 72.4C147.02 72.96 146.56 73.37 145.98 73.66C145.4 73.95 144.76 74.08 144.05 74.08C143.34 74.08 142.71 73.94 142.15 73.66C141.59 73.38 141.15 72.96 140.82 72.4C140.5 71.84 140.33 71.16 140.33 70.36V64.99H142.52Z" fill="#1B1B1B"/>
<path d="M151.59 66.75V68.57H154.52V70.26H151.59V72.23H154.91V73.99H149.4V64.99H154.91V66.75H151.59Z" fill="#1B1B1B"/>
</g>
<defs>
<clipPath id="clip0_289_225">
<rect width="196.25" height="89.45" fill="white"/>
</clipPath>
</defs>
</svg>
