<svg width="220" height="88" viewBox="0 0 220 88" fill="none" xmlns="http://www.w3.org/2000/svg">
<g clip-path="url(#clip0_289_261)">
<path d="M49.2105 37.42C52.3105 34.37 55.4005 31.31 58.5005 28.26L39.9905 9.73999L21.4805 28.26L58.3205 65.22C52.2105 71.38 46.1005 77.54 39.9905 83.7" stroke="#CD212A" stroke-width="4.62" stroke-miterlimit="10"/>
<path d="M63.0605 32.75L76.8005 46.7L63.0605 60.63" stroke="#CD212A" stroke-width="4.62" stroke-miterlimit="10"/>
<path d="M16.9802 60.49C12.4002 55.9 7.82023 51.3 3.24023 46.71C7.82023 42.01 12.4002 37.31 16.9802 32.61" stroke="#CD212A" stroke-width="4.62" stroke-miterlimit="10"/>
<path d="M119.61 3.69999L115.14 12.9C112.73 10.85 110.3 9.82999 107.84 9.82999C106.27 9.82999 105.04 10.29 104.16 11.2C103.43 11.98 103.06 12.86 103.06 13.83C103.06 14.7 103.4 15.43 104.07 16.03C104.72 16.59 105.38 17.01 106.04 17.3C106.7 17.59 108.29 18.12 110.81 18.9C114.33 20.01 116.94 21.52 118.64 23.44C120.44 25.51 121.35 28.25 121.35 31.68C121.35 36.91 119.88 40.86 116.95 43.55C113.8 46.4 109.67 47.82 104.56 47.82C99.4497 47.82 94.3397 46.1 89.6797 42.65L94.4597 33.11C97.7897 36.2 101.08 37.75 104.31 37.75C106.28 37.75 107.72 37.21 108.62 36.12C109.33 35.25 109.69 34.31 109.69 33.29C109.69 32.07 109.22 31.09 108.29 30.37C107.36 29.65 105.58 28.87 102.96 28.05C98.8497 26.78 96.1297 25.56 94.8097 24.38C92.5197 22.4 91.3797 19.39 91.3797 15.34C91.3797 10.6 92.8597 6.79999 95.8197 3.92999C98.4997 1.30999 101.9 -0.0100098 106.01 -0.0100098C110.67 -0.0100098 115.21 1.21999 119.63 3.68999L119.61 3.69999Z" fill="#041E42"/>
<path d="M138.389 15.6799V46.6299H128.069V15.6799H138.389Z" fill="#041E42"/>
<path d="M156.98 24.78V46.63H146.66V24.78H143.26V15.68H146.66V6.37H156.98V15.67H162.86V24.77H156.98V24.78Z" fill="#041E42"/>
<path d="M183.619 14.54C189.409 14.54 193.929 16.41 197.179 20.14C199.859 23.21 201.209 26.88 201.209 31.15C201.209 36.17 199.449 40.29 195.929 43.49C192.779 46.36 188.629 47.79 183.469 47.79C180.199 47.79 177.139 47.04 174.279 45.56C171.619 44.16 169.529 42.02 168.019 39.16C166.719 36.74 166.069 33.98 166.069 30.89C166.069 26.11 167.829 22.1 171.349 18.85C173.109 17.25 175.289 16.08 177.889 15.35C179.819 14.82 181.729 14.55 183.619 14.55V14.54ZM183.619 23.98C181.769 23.98 180.209 24.67 178.929 26.05C177.629 27.45 176.979 29.1 176.979 30.99C176.979 33.01 177.629 34.73 178.929 36.13C180.209 37.51 181.779 38.2 183.649 38.2C185.519 38.2 187.039 37.51 188.339 36.13C189.639 34.73 190.289 33.05 190.289 31.09C190.289 29.13 189.639 27.41 188.339 26.05C187.019 24.67 185.449 23.98 183.619 23.98Z" fill="#041E42"/>
<path d="M90.1103 80.11C90.4903 79.41 91.0303 78.87 91.7203 78.48C92.4103 78.09 93.1903 77.9 94.0603 77.9C95.1303 77.9 96.0403 78.18 96.8003 78.75C97.5603 79.32 98.0703 80.08 98.3203 81.06H95.9103C95.7303 80.68 95.4803 80.4 95.1503 80.2C94.8203 80 94.4503 79.91 94.0303 79.91C93.3603 79.91 92.8103 80.15 92.3903 80.61C91.9703 81.08 91.7603 81.71 91.7603 82.49C91.7603 83.27 91.9703 83.9 92.3903 84.37C92.8103 84.84 93.3503 85.07 94.0303 85.07C94.4503 85.07 94.8203 84.97 95.1503 84.78C95.4803 84.58 95.7303 84.3 95.9103 83.92H98.3203C98.0603 84.89 97.5603 85.66 96.8003 86.22C96.0403 86.78 95.1303 87.06 94.0603 87.06C93.1903 87.06 92.4103 86.87 91.7203 86.48C91.0303 86.09 90.5003 85.55 90.1103 84.86C89.7303 84.17 89.5303 83.38 89.5303 82.49C89.5303 81.6 89.7203 80.81 90.1103 80.11Z" fill="#1B1B1B"/>
<path d="M101.6 86.5C100.9 86.11 100.34 85.56 99.9198 84.85C99.4998 84.14 99.2998 83.35 99.2998 82.47C99.2998 81.59 99.5098 80.8 99.9198 80.1C100.33 79.4 100.89 78.85 101.6 78.46C102.31 78.07 103.08 77.87 103.93 77.87C104.78 77.87 105.55 78.07 106.26 78.46C106.96 78.85 107.52 79.4 107.93 80.1C108.34 80.8 108.54 81.59 108.54 82.47C108.54 83.35 108.33 84.14 107.92 84.85C107.51 85.55 106.95 86.1 106.25 86.5C105.55 86.89 104.78 87.09 103.93 87.09C103.08 87.09 102.31 86.89 101.6 86.5ZM105.65 84.37C106.08 83.89 106.3 83.26 106.3 82.47C106.3 81.68 106.08 81.04 105.65 80.57C105.22 80.1 104.64 79.86 103.93 79.86C103.22 79.86 102.63 80.1 102.19 80.56C101.76 81.03 101.54 81.67 101.54 82.47C101.54 83.27 101.76 83.9 102.19 84.37C102.62 84.84 103.2 85.08 103.93 85.08C104.66 85.08 105.22 84.84 105.65 84.36V84.37Z" fill="#1B1B1B"/>
<path d="M117.79 87H115.6L111.94 81.45V87H109.75V78H111.94L115.6 83.57V78H117.79V87Z" fill="#1B1B1B"/>
<path d="M121.57 79.76V81.58H124.5V83.27H121.57V85.24H124.89V87H119.38V78H124.89V79.76H121.57Z" fill="#1B1B1B"/>
<path d="M126.52 80.11C126.9 79.41 127.44 78.87 128.13 78.48C128.82 78.09 129.6 77.9 130.47 77.9C131.54 77.9 132.45 78.18 133.21 78.75C133.97 79.31 134.48 80.08 134.73 81.06H132.32C132.14 80.68 131.89 80.4 131.56 80.2C131.23 80 130.86 79.91 130.44 79.91C129.77 79.91 129.22 80.15 128.8 80.61C128.38 81.08 128.17 81.71 128.17 82.49C128.17 83.27 128.38 83.9 128.8 84.37C129.22 84.84 129.76 85.07 130.44 85.07C130.86 85.07 131.23 84.97 131.56 84.78C131.89 84.58 132.14 84.3 132.32 83.92H134.73C134.47 84.89 133.97 85.66 133.21 86.22C132.45 86.78 131.54 87.06 130.47 87.06C129.6 87.06 128.82 86.87 128.13 86.48C127.44 86.09 126.91 85.55 126.52 84.86C126.14 84.17 125.94 83.38 125.94 82.49C125.94 81.6 126.13 80.81 126.52 80.11Z" fill="#1B1B1B"/>
<path d="M142.551 78V79.76H140.171V87H137.981V79.76H135.601V78H142.561H142.551Z" fill="#1B1B1B"/>
<path d="M149.251 85.41H145.891L145.351 87H143.061L146.311 78H148.851L152.101 87H149.781L149.241 85.41H149.251ZM148.691 83.72L147.581 80.43L146.481 83.72H148.701H148.691Z" fill="#1B1B1B"/>
<path d="M161.141 87H158.951L155.291 81.45V87H153.101V78H155.291L158.951 83.57V78H161.141V87Z" fill="#1B1B1B"/>
<path d="M173.16 78L170.05 84.02V86.99H167.86V84.02L164.75 78H167.24L168.98 81.77L170.71 78H173.17H173.16Z" fill="#1B1B1B"/>
<path d="M176.971 80.11C177.351 79.41 177.891 78.87 178.581 78.48C179.271 78.09 180.051 77.9 180.921 77.9C181.991 77.9 182.901 78.18 183.661 78.75C184.421 79.32 184.931 80.08 185.181 81.06H182.771C182.591 80.68 182.341 80.4 182.011 80.2C181.681 80 181.311 79.91 180.891 79.91C180.221 79.91 179.671 80.15 179.251 80.61C178.831 81.08 178.621 81.71 178.621 82.49C178.621 83.27 178.831 83.9 179.251 84.37C179.671 84.84 180.211 85.07 180.891 85.07C181.311 85.07 181.681 84.97 182.011 84.78C182.341 84.58 182.591 84.3 182.771 83.92H185.181C184.921 84.89 184.421 85.66 183.661 86.22C182.901 86.78 181.991 87.06 180.921 87.06C180.051 87.06 179.271 86.87 178.581 86.48C177.891 86.09 177.361 85.55 176.971 84.86C176.591 84.17 176.391 83.38 176.391 82.49C176.391 81.6 176.581 80.81 176.971 80.11Z" fill="#1B1B1B"/>
<path d="M191.111 87L189.241 83.6H188.711V87H186.521V78H190.201C190.911 78 191.51 78.12 192.01 78.37C192.51 78.62 192.881 78.96 193.131 79.39C193.381 79.82 193.501 80.3 193.501 80.83C193.501 81.43 193.331 81.96 192.991 82.43C192.651 82.9 192.151 83.23 191.501 83.43L193.581 86.99H191.111V87ZM188.711 82.05H190.071C190.471 82.05 190.771 81.95 190.971 81.76C191.171 81.56 191.271 81.29 191.271 80.93C191.271 80.57 191.171 80.32 190.971 80.12C190.771 79.92 190.471 79.83 190.071 79.83H188.711V82.06V82.05Z" fill="#1B1B1B"/>
<path d="M197.07 79.76V81.58H200V83.27H197.07V85.24H200.39V87H194.88V78H200.39V79.76H197.07Z" fill="#1B1B1B"/>
<path d="M207.411 85.41H204.051L203.511 87H201.221L204.471 78H207.011L210.261 87H207.941L207.401 85.41H207.411ZM206.851 83.72L205.741 80.43L204.641 83.72H206.861H206.851Z" fill="#1B1B1B"/>
<path d="M219.301 87H217.111L213.451 81.45V87H211.261V78H213.451L217.111 83.57V78H219.301V87Z" fill="#1B1B1B"/>
<path d="M90.1698 64.73C90.5498 64.03 91.0898 63.49 91.7798 63.1C92.4698 62.71 93.2499 62.52 94.1199 62.52C95.1899 62.52 96.0998 62.8 96.8598 63.37C97.6198 63.93 98.1298 64.7 98.3798 65.68H95.9698C95.7898 65.3 95.5398 65.02 95.2098 64.82C94.8798 64.62 94.5098 64.53 94.0898 64.53C93.4198 64.53 92.8698 64.77 92.4498 65.23C92.0298 65.7 91.8198 66.33 91.8198 67.11C91.8198 67.89 92.0298 68.52 92.4498 68.99C92.8698 69.46 93.4098 69.69 94.0898 69.69C94.5098 69.69 94.8798 69.59 95.2098 69.4C95.5398 69.2 95.7898 68.92 95.9698 68.54H98.3798C98.1198 69.51 97.6098 70.28 96.8598 70.84C96.0998 71.4 95.1899 71.68 94.1199 71.68C93.2499 71.68 92.4698 71.49 91.7798 71.1C91.0898 70.71 90.5598 70.17 90.1698 69.48C89.7898 68.79 89.5898 68 89.5898 67.11C89.5898 66.22 89.7798 65.43 90.1698 64.73Z" fill="#1B1B1B"/>
<path d="M101.65 71.12C100.94 70.73 100.39 70.18 99.9696 69.47C99.5596 68.77 99.3496 67.97 99.3496 67.09C99.3496 66.21 99.5596 65.42 99.9696 64.72C100.38 64.02 100.94 63.47 101.65 63.08C102.36 62.69 103.13 62.49 103.98 62.49C104.83 62.49 105.6 62.69 106.31 63.08C107.02 63.47 107.57 64.02 107.98 64.72C108.39 65.42 108.59 66.21 108.59 67.09C108.59 67.97 108.38 68.76 107.97 69.47C107.56 70.17 107.01 70.72 106.3 71.12C105.6 71.51 104.83 71.71 103.98 71.71C103.13 71.71 102.36 71.51 101.65 71.12ZM105.7 68.99C106.13 68.51 106.35 67.88 106.35 67.09C106.35 66.3 106.13 65.66 105.7 65.19C105.27 64.72 104.69 64.48 103.98 64.48C103.27 64.48 102.68 64.72 102.24 65.18C101.81 65.65 101.59 66.29 101.59 67.09C101.59 67.89 101.81 68.52 102.24 68.99C102.67 69.46 103.25 69.7 103.98 69.7C104.71 69.7 105.27 69.46 105.7 68.98V68.99ZM105.46 60.81L102.37 62.1V60.59L105.46 59.1V60.8V60.81Z" fill="#1B1B1B"/>
<path d="M115.65 63.19C116.36 63.57 116.91 64.09 117.3 64.77C117.69 65.45 117.88 66.23 117.88 67.12C117.88 68.01 117.69 68.78 117.3 69.47C116.91 70.15 116.36 70.68 115.65 71.06C114.94 71.44 114.11 71.62 113.17 71.62H109.8V62.62H113.17C114.12 62.62 114.95 62.81 115.66 63.18L115.65 63.19ZM114.96 69.05C115.42 68.6 115.65 67.96 115.65 67.13C115.65 66.3 115.42 65.66 114.96 65.2C114.5 64.74 113.85 64.51 113.03 64.51H111.99V69.74H113.03C113.86 69.74 114.5 69.51 114.96 69.06V69.05Z" fill="#1B1B1B"/>
<path d="M121.299 62.62V71.62H119.109V62.62H121.299Z" fill="#1B1B1B"/>
<path d="M128.86 65.47C128.7 65.17 128.46 64.94 128.16 64.78C127.86 64.62 127.5 64.54 127.09 64.54C126.38 64.54 125.81 64.77 125.39 65.24C124.96 65.71 124.75 66.33 124.75 67.1C124.75 67.93 124.97 68.58 125.42 69.04C125.87 69.51 126.49 69.74 127.27 69.74C127.81 69.74 128.26 69.6 128.63 69.33C129 69.06 129.27 68.66 129.44 68.15H126.66V66.54H131.43V68.58C131.27 69.13 130.99 69.63 130.6 70.1C130.21 70.57 129.72 70.95 129.12 71.24C128.52 71.53 127.85 71.68 127.1 71.68C126.21 71.68 125.42 71.49 124.72 71.1C124.02 70.71 123.48 70.17 123.09 69.48C122.7 68.79 122.51 68 122.51 67.11C122.51 66.22 122.7 65.43 123.09 64.73C123.48 64.03 124.02 63.49 124.71 63.1C125.4 62.71 126.19 62.52 127.08 62.52C128.16 62.52 129.06 62.78 129.8 63.3C130.54 63.82 131.03 64.54 131.27 65.47H128.85H128.86Z" fill="#1B1B1B"/>
<path d="M134.59 71.12C133.88 70.73 133.33 70.18 132.91 69.47C132.5 68.77 132.29 67.97 132.29 67.09C132.29 66.21 132.5 65.42 132.91 64.72C133.32 64.02 133.88 63.47 134.59 63.08C135.3 62.69 136.07 62.49 136.92 62.49C137.77 62.49 138.54 62.69 139.25 63.08C139.96 63.47 140.51 64.02 140.92 64.72C141.33 65.42 141.53 66.21 141.53 67.09C141.53 67.97 141.32 68.76 140.91 69.47C140.5 70.17 139.95 70.72 139.24 71.12C138.54 71.51 137.77 71.71 136.92 71.71C136.07 71.71 135.3 71.51 134.59 71.12ZM138.64 68.99C139.07 68.51 139.29 67.88 139.29 67.09C139.29 66.3 139.07 65.66 138.64 65.19C138.21 64.72 137.63 64.48 136.92 64.48C136.21 64.48 135.62 64.72 135.18 65.18C134.75 65.65 134.53 66.29 134.53 67.09C134.53 67.89 134.75 68.52 135.18 68.99C135.61 69.46 136.19 69.7 136.92 69.7C137.65 69.7 138.21 69.46 138.64 68.98V68.99Z" fill="#1B1B1B"/>
<path d="M144.219 71.39C143.699 71.18 143.279 70.86 142.969 70.44C142.659 70.02 142.489 69.52 142.479 68.93H144.809C144.839 69.26 144.96 69.52 145.16 69.69C145.36 69.87 145.609 69.95 145.929 69.95C146.249 69.95 146.509 69.88 146.699 69.73C146.889 69.58 146.979 69.37 146.979 69.11C146.979 68.89 146.909 68.7 146.759 68.56C146.609 68.41 146.43 68.3 146.21 68.2C145.99 68.11 145.679 68 145.279 67.88C144.699 67.7 144.219 67.52 143.859 67.34C143.489 67.16 143.18 66.9 142.91 66.55C142.65 66.2 142.509 65.74 142.509 65.18C142.509 64.34 142.809 63.69 143.419 63.21C144.029 62.74 144.819 62.5 145.789 62.5C146.759 62.5 147.579 62.74 148.189 63.21C148.799 63.68 149.12 64.34 149.16 65.19H146.789C146.769 64.9 146.669 64.67 146.469 64.5C146.269 64.33 146.02 64.25 145.71 64.25C145.45 64.25 145.23 64.32 145.07 64.46C144.91 64.6 144.829 64.8 144.829 65.07C144.829 65.36 144.97 65.59 145.24 65.75C145.51 65.91 145.94 66.09 146.52 66.28C147.1 66.48 147.569 66.66 147.939 66.84C148.309 67.02 148.62 67.28 148.88 67.62C149.14 67.96 149.279 68.4 149.279 68.94C149.279 69.48 149.149 69.92 148.889 70.34C148.629 70.76 148.249 71.09 147.759 71.34C147.269 71.59 146.679 71.71 145.999 71.71C145.319 71.71 144.749 71.6 144.229 71.39H144.219Z" fill="#1B1B1B"/>
<path d="M159.73 73.16L158.58 71.61C158.24 71.68 157.91 71.71 157.58 71.71C156.73 71.71 155.96 71.51 155.25 71.12C154.54 70.73 153.99 70.18 153.57 69.47C153.15 68.76 152.95 67.97 152.95 67.09C152.95 66.21 153.16 65.42 153.57 64.72C153.98 64.02 154.54 63.47 155.25 63.08C155.95 62.69 156.73 62.49 157.58 62.49C158.43 62.49 159.2 62.69 159.91 63.08C160.62 63.47 161.17 64.02 161.58 64.72C161.99 65.42 162.19 66.21 162.19 67.09C162.19 67.86 162.03 68.56 161.72 69.2C161.41 69.84 160.97 70.36 160.42 70.78L162.39 73.15H159.74L159.73 73.16ZM155.84 69C156.27 69.47 156.85 69.71 157.58 69.71C158.31 69.71 158.87 69.47 159.3 68.99C159.73 68.51 159.95 67.88 159.95 67.09C159.95 66.3 159.73 65.66 159.3 65.19C158.87 64.72 158.29 64.48 157.58 64.48C156.87 64.48 156.28 64.72 155.84 65.18C155.41 65.65 155.19 66.29 155.19 67.09C155.19 67.89 155.41 68.52 155.84 68.99V69Z" fill="#1B1B1B"/>
<path d="M165.58 62.62V68C165.58 68.54 165.71 68.95 165.98 69.24C166.25 69.53 166.63 69.68 167.15 69.68C167.67 69.68 168.06 69.53 168.33 69.24C168.6 68.95 168.74 68.54 168.74 68V62.62H170.93V67.99C170.93 68.79 170.76 69.47 170.42 70.03C170.08 70.59 169.62 71 169.04 71.29C168.46 71.58 167.82 71.71 167.11 71.71C166.4 71.71 165.77 71.57 165.21 71.29C164.65 71.01 164.21 70.59 163.88 70.03C163.56 69.47 163.39 68.79 163.39 67.99V62.62H165.58Z" fill="#1B1B1B"/>
<path d="M174.65 64.38V66.2H177.58V67.89H174.65V69.86H177.97V71.62H172.46V62.62H177.97V64.38H174.65Z" fill="#1B1B1B"/>
</g>
<defs>
<clipPath id="clip0_289_261">
<rect width="219.3" height="87.09" fill="white"/>
</clipPath>
</defs>
</svg>
