<svg width="224" height="83" viewBox="0 0 224 83" fill="none" xmlns="http://www.w3.org/2000/svg">
<g clip-path="url(#clip0_289_297)">
<path d="M49.2107 32.15L58.5007 22.99L39.9807 4.46997L21.4707 22.99L58.3107 59.95C52.2007 66.11 46.0907 72.27 39.9807 78.43C33.8207 72.27 27.6507 66.11 21.4907 59.95C24.5307 56.94 27.5607 53.92 30.6007 50.91" stroke="#CD212A" stroke-width="4.62" stroke-miterlimit="10"/>
<path d="M63.0605 27.49L76.8005 41.43L63.0605 55.37" stroke="#CD212A" stroke-width="4.62" stroke-miterlimit="10"/>
<path d="M16.9802 55.23C12.4002 50.64 7.82023 46.04 3.24023 41.45C7.82023 36.75 12.4002 32.05 16.9802 27.35" stroke="#CD212A" stroke-width="4.62" stroke-miterlimit="10"/>
<path d="M118.66 13.48L112.55 14.61C112.82 13.39 112.95 12.37 112.95 11.56C112.95 6.29003 109.75 3.66003 103.35 3.66003C98.3002 3.66003 95.7802 5.48003 95.7802 9.11003C95.7802 11.83 98.6002 14.17 104.25 16.12C115.14 19.86 120.59 25.39 120.59 32.72C120.59 37.01 119.06 40.46 116.01 43.06C112.96 45.66 108.89 46.96 103.82 46.96C92.6002 46.96 86.9902 42.61 86.9902 33.91C86.9902 33.2 87.0402 32.33 87.1602 31.29L93.5002 29.9C93.0102 31.83 92.7702 33.5 92.7702 34.91C92.7702 40.53 95.9902 43.34 102.43 43.34C107.59 43.34 110.17 41.31 110.17 37.26C110.17 34.25 107.08 31.6 100.91 29.32C91.9902 26.04 87.5302 20.81 87.5302 13.61C87.5302 9.54003 89.0202 6.26003 92.0002 3.77003C94.9602 1.28003 98.8702 0.0300293 103.72 0.0300293C113.68 0.0300293 118.66 4.51003 118.66 13.48Z" fill="#041E42"/>
<path d="M139.55 0.800049V46.12H126.4V0.800049H139.55Z" fill="#041E42"/>
<path d="M179.231 0.800049V5.35005H168.111V46.12H154.161V5.35005H142.971V0.800049H179.231Z" fill="#041E42"/>
<path d="M201.17 0C214.36 0 220.96 7.81 220.96 23.44C220.96 39.07 214.24 46.88 200.81 46.88C187.38 46.88 180.66 38.89 180.66 22.91C180.66 6.93 187.49 0 201.17 0ZM200.8 3.62C198.32 3.62 196.64 4.99 195.77 7.72C194.89 10.45 194.46 15.69 194.46 23.44C194.46 31.19 194.9 36.43 195.77 39.16C196.64 41.89 198.32 43.26 200.8 43.26C203.28 43.26 204.96 41.89 205.83 39.16C206.7 36.43 207.14 31.19 207.14 23.44C207.14 15.69 206.7 10.48 205.83 7.73C204.95 4.99 203.28 3.61 200.8 3.61V3.62Z" fill="#041E42"/>
<path d="M94.9196 63.8501H95.2796V64.7301C95.0496 64.9201 94.7696 65.1101 94.4496 65.3101C94.1296 65.5101 93.7696 65.6801 93.3796 65.8101C92.9896 65.9501 92.5797 66.0201 92.1597 66.0201C91.3097 66.0201 90.5596 65.8501 89.9196 65.5001C89.2796 65.1501 88.7796 64.6501 88.4196 63.9901C88.0596 63.3301 87.8896 62.5201 87.8896 61.5701C87.8896 60.6201 88.0697 59.8601 88.4397 59.1901C88.8097 58.5201 89.3197 58.0001 89.9697 57.6301C90.6197 57.2601 91.3496 57.0801 92.1796 57.0801C92.4796 57.0801 92.8096 57.1001 93.1796 57.1501C93.5496 57.2001 93.9096 57.2601 94.2496 57.3301C94.5896 57.4001 94.8897 57.4601 95.1197 57.5101V59.7601H94.3096L94.1296 58.4901C94.1296 58.4301 94.0896 58.3801 94.0196 58.3401C93.9496 58.3001 93.8996 58.2601 93.8496 58.2401C93.5796 58.1101 93.3096 58.0101 93.0396 57.9501C92.7696 57.8901 92.4697 57.8601 92.1197 57.8601C91.2797 57.8601 90.5996 58.1401 90.0696 58.7101C89.5396 59.2701 89.2796 60.1401 89.2796 61.3001C89.2796 62.5301 89.5496 63.4601 90.0996 64.0901C90.6496 64.7201 91.4397 65.0401 92.4797 65.0401C92.8597 65.0401 93.1997 64.9701 93.5097 64.8201C93.8197 64.6801 94.0896 64.5101 94.3196 64.3201C94.5496 64.1301 94.7397 63.9801 94.8997 63.8501H94.9196Z" fill="black"/>
<path d="M100.83 66.02C99.9297 66.02 99.1697 65.8401 98.5497 65.4801C97.9297 65.1201 97.4496 64.6 97.1296 63.93C96.8096 63.26 96.6396 62.4501 96.6396 61.5201C96.6396 60.64 96.8096 59.87 97.1396 59.19C97.4696 58.52 97.9597 57.9901 98.5797 57.6101C99.1997 57.2301 99.9597 57.0401 100.83 57.0401C101.79 57.0401 102.57 57.23 103.19 57.62C103.81 58.01 104.27 58.54 104.57 59.21C104.87 59.88 105.02 60.65 105.02 61.51C105.02 62.09 104.94 62.6501 104.78 63.18C104.62 63.72 104.37 64.2001 104.03 64.6201C103.69 65.0501 103.26 65.38 102.73 65.63C102.2 65.88 101.57 66 100.83 66V66.02ZM100.93 65.25C101.52 65.25 102.01 65.1 102.41 64.81C102.81 64.52 103.1 64.1001 103.3 63.5801C103.5 63.0501 103.6 62.4401 103.6 61.7401C103.6 60.9401 103.5 60.24 103.29 59.66C103.08 59.08 102.76 58.6301 102.34 58.3101C101.91 58.0001 101.38 57.84 100.72 57.84C100.06 57.84 99.5896 58.0001 99.1996 58.3101C98.8096 58.6201 98.5296 59.04 98.3396 59.57C98.1596 60.1 98.0696 60.6801 98.0696 61.3301C98.0696 62.1301 98.1696 62.82 98.3796 63.41C98.5896 64 98.8997 64.46 99.3297 64.78C99.7497 65.1 100.29 65.27 100.94 65.27L100.93 65.25ZM100.09 56.6501L99.7796 56.3601L101.39 54.7001C101.54 54.5501 101.67 54.45 101.79 54.39C101.91 54.33 102.05 54.3 102.22 54.3C102.41 54.3 102.56 54.3601 102.67 54.4701C102.77 54.5801 102.83 54.7 102.83 54.84C102.83 55 102.78 55.14 102.68 55.26C102.58 55.38 102.39 55.51 102.13 55.64L100.11 56.66L100.09 56.6501Z" fill="black"/>
<path d="M106.499 65.83V65.34L107.459 65.01C107.509 64.99 107.559 64.96 107.599 64.92C107.639 64.88 107.659 64.81 107.659 64.73V58.35C107.659 58.27 107.639 58.21 107.599 58.17C107.559 58.13 107.509 58.1 107.459 58.08L106.499 57.74V57.26H110.519C110.859 57.26 111.229 57.3 111.619 57.38C112.009 57.46 112.399 57.6 112.779 57.79C113.159 57.98 113.499 58.24 113.809 58.57C114.119 58.9 114.369 59.31 114.549 59.81C114.739 60.31 114.829 60.9 114.829 61.59C114.829 62.56 114.639 63.37 114.249 63.99C113.859 64.62 113.339 65.08 112.679 65.38C112.029 65.68 111.299 65.83 110.489 65.83H106.489H106.499ZM108.959 58.05V65.04H110.509C111.509 65.04 112.249 64.75 112.709 64.18C113.169 63.61 113.399 62.8 113.399 61.76C113.399 61 113.269 60.34 112.999 59.78C112.729 59.22 112.349 58.8 111.859 58.5C111.369 58.2 110.799 58.05 110.129 58.05H108.949H108.959Z" fill="black"/>
<path d="M116.3 65.83V65.34L117.32 65.01C117.39 64.99 117.44 64.95 117.47 64.91C117.51 64.87 117.52 64.81 117.52 64.72V58.34C117.52 58.26 117.5 58.2 117.46 58.16C117.42 58.12 117.37 58.09 117.32 58.07L116.3 57.73V57.25H120.04V57.73L119.03 58.07C118.97 58.09 118.92 58.12 118.88 58.16C118.84 58.2 118.82 58.26 118.82 58.34V64.72C118.82 64.8 118.84 64.87 118.88 64.91C118.92 64.95 118.97 64.98 119.03 65L120.04 65.33V65.82H116.3V65.83Z" fill="black"/>
<path d="M127.72 64.8901V62.8201C127.72 62.7401 127.7 62.6901 127.66 62.6501C127.62 62.6101 127.57 62.5801 127.51 62.5701L126.23 62.2201V61.7401H129.95V62.2201L129.2 62.5701C129.2 62.5701 129.11 62.6201 129.06 62.6501C129.01 62.6901 128.98 62.7401 128.98 62.8201V63.8101C128.98 64.2001 128.98 64.5201 128.98 64.7901C128.98 65.0601 129 65.2701 129.01 65.4201C128.57 65.5801 128.05 65.7201 127.46 65.8401C126.87 65.9601 126.27 66.0301 125.68 66.0301C124.92 66.0301 124.22 65.8601 123.59 65.5201C122.95 65.1801 122.45 64.6801 122.07 64.0201C121.69 63.3601 121.5 62.5401 121.5 61.5701C121.5 60.6001 121.69 59.8501 122.06 59.1701C122.43 58.5001 122.95 57.9801 123.6 57.6101C124.25 57.2401 124.99 57.0601 125.81 57.0601C126.33 57.0601 126.79 57.0801 127.17 57.1301C127.55 57.1801 127.89 57.2401 128.17 57.3101C128.45 57.3801 128.71 57.4401 128.93 57.4901V59.7401H128.12L127.95 58.4701C127.95 58.4101 127.91 58.3601 127.85 58.3201C127.79 58.2801 127.73 58.2501 127.68 58.2301C127.39 58.1101 127.08 58.0201 126.76 57.9501C126.44 57.8801 126.11 57.8501 125.77 57.8501C125.2 57.8501 124.71 57.9701 124.28 58.2301C123.85 58.4901 123.52 58.8601 123.28 59.3701C123.04 59.8801 122.92 60.5301 122.92 61.3101C122.92 62.0901 123.04 62.7701 123.29 63.3601C123.54 63.9501 123.89 64.4201 124.36 64.7501C124.83 65.0801 125.39 65.2501 126.06 65.2501C126.33 65.2501 126.57 65.2301 126.78 65.1801C126.99 65.1401 127.18 65.0901 127.34 65.0301C127.5 64.9701 127.62 64.9301 127.71 64.8901H127.72Z" fill="black"/>
<path d="M135.37 66.02C134.47 66.02 133.71 65.84 133.09 65.48C132.47 65.12 131.99 64.6 131.67 63.93C131.35 63.26 131.18 62.45 131.18 61.52C131.18 60.64 131.35 59.87 131.68 59.19C132.01 58.52 132.5 57.99 133.12 57.61C133.74 57.23 134.5 57.04 135.37 57.04C136.33 57.04 137.11 57.23 137.73 57.62C138.35 58.01 138.81 58.54 139.11 59.21C139.41 59.88 139.56 60.65 139.56 61.51C139.56 62.09 139.48 62.65 139.32 63.18C139.16 63.72 138.91 64.2 138.57 64.62C138.23 65.05 137.8 65.38 137.27 65.63C136.74 65.88 136.11 66 135.37 66V66.02ZM135.47 65.25C136.06 65.25 136.55 65.1 136.95 64.81C137.35 64.52 137.64 64.1 137.84 63.58C138.04 63.05 138.14 62.44 138.14 61.74C138.14 60.94 138.04 60.24 137.83 59.66C137.62 59.08 137.3 58.63 136.88 58.31C136.45 58 135.92 57.84 135.26 57.84C134.6 57.84 134.13 58 133.74 58.31C133.35 58.62 133.07 59.04 132.88 59.57C132.7 60.1 132.61 60.68 132.61 61.33C132.61 62.13 132.71 62.82 132.92 63.41C133.13 64 133.44 64.46 133.87 64.78C134.29 65.1 134.83 65.27 135.48 65.27L135.47 65.25Z" fill="black"/>
<path d="M141.1 65.4901V63.1801H141.91L142.09 64.4201C142.09 64.4801 142.13 64.5301 142.19 64.5901C142.25 64.6501 142.31 64.6901 142.35 64.7201C142.48 64.8101 142.63 64.9001 142.8 64.9801C142.96 65.0601 143.14 65.1301 143.34 65.1901C143.54 65.2401 143.75 65.2701 143.97 65.2701C144.62 65.2701 145.13 65.1401 145.5 64.8801C145.87 64.6201 146.05 64.2601 146.05 63.8101C146.05 63.4701 145.95 63.1801 145.74 62.9501C145.53 62.7201 145.25 62.5301 144.89 62.3801C144.54 62.2301 144.19 62.1001 143.85 61.9901C143.51 61.8801 143.18 61.7501 142.86 61.6201C142.37 61.4201 141.99 61.1301 141.7 60.7601C141.41 60.3901 141.28 59.9501 141.28 59.4301C141.28 58.9701 141.41 58.5601 141.68 58.2101C141.94 57.8501 142.3 57.5701 142.75 57.3701C143.2 57.1701 143.7 57.0601 144.25 57.0601C144.59 57.0601 144.91 57.0801 145.21 57.1201C145.51 57.1601 145.8 57.2101 146.07 57.2701C146.34 57.3301 146.6 57.3901 146.85 57.4401V59.6801H146.04L145.87 58.5101C145.87 58.4501 145.83 58.4001 145.76 58.3401C145.7 58.2901 145.64 58.2401 145.59 58.2101C145.51 58.1501 145.41 58.0901 145.29 58.0401C145.17 57.9901 145.04 57.9401 144.88 57.9001C144.72 57.8601 144.54 57.8401 144.34 57.8401C143.75 57.8401 143.29 57.9601 142.97 58.1901C142.65 58.4201 142.49 58.7101 142.49 59.0401C142.49 59.3401 142.58 59.6201 142.75 59.8801C142.92 60.1401 143.25 60.3601 143.74 60.5401C144.07 60.6601 144.39 60.7701 144.7 60.8901C145.01 61.0001 145.35 61.1401 145.72 61.2901C145.99 61.4101 146.25 61.5601 146.5 61.7401C146.75 61.9201 146.95 62.1601 147.11 62.4401C147.27 62.7201 147.35 63.0701 147.35 63.4901C147.35 63.9101 147.23 64.3401 147 64.7201C146.77 65.1101 146.4 65.4201 145.9 65.6601C145.4 65.9001 144.75 66.0201 143.94 66.0201C143.65 66.0201 143.36 65.9901 143.04 65.9401C142.73 65.8801 142.41 65.8201 142.08 65.7301C141.75 65.6501 141.43 65.5601 141.11 65.4801L141.1 65.4901Z" fill="black"/>
<path d="M152.79 61.52C152.79 60.64 152.96 59.87 153.29 59.19C153.62 58.52 154.11 57.99 154.73 57.61C155.35 57.23 156.11 57.04 156.98 57.04C157.94 57.04 158.72 57.23 159.34 57.62C159.96 58.01 160.42 58.54 160.72 59.21C161.02 59.88 161.17 60.65 161.17 61.51C161.17 62.06 161.09 62.61 160.93 63.14C160.77 63.67 160.52 64.16 160.18 64.59C159.84 65.02 159.41 65.37 158.88 65.62C158.35 65.88 157.72 66.01 156.98 66.01C156.08 66.01 155.32 65.83 154.7 65.47C154.08 65.11 153.6 64.59 153.28 63.92C152.96 63.25 152.79 62.44 152.79 61.51V61.52ZM154.21 61.31C154.21 62.11 154.31 62.8 154.52 63.39C154.73 63.98 155.04 64.44 155.47 64.76C155.89 65.08 156.43 65.25 157.08 65.25C157.67 65.25 158.16 65.1 158.56 64.81C158.96 64.52 159.25 64.1 159.45 63.58C159.65 63.05 159.75 62.44 159.75 61.74C159.75 60.94 159.65 60.24 159.44 59.66C159.23 59.08 158.91 58.63 158.49 58.31C158.06 58 157.53 57.84 156.87 57.84C156.21 57.84 155.74 58 155.35 58.31C154.96 58.62 154.68 59.04 154.49 59.57C154.31 60.1 154.22 60.68 154.22 61.33L154.21 61.31ZM161.12 68.79H159.63C159.36 68.79 159.16 68.77 159.02 68.72C158.88 68.67 158.77 68.6 158.69 68.49C158.6 68.38 158.48 68.22 158.34 68.02C158.15 67.75 157.98 67.51 157.83 67.3C157.68 67.09 157.53 66.88 157.38 66.67C157.23 66.46 157.06 66.22 156.87 65.95L158.27 65.77L159.67 67.63C159.67 67.63 159.77 67.75 159.86 67.83C159.95 67.91 160.03 67.97 160.12 67.99L161.13 68.3V68.79H161.12Z" fill="black"/>
<path d="M167.01 66.04C166.27 66.04 165.65 65.92 165.16 65.68C164.66 65.44 164.29 65.12 164.04 64.74C163.79 64.36 163.67 63.95 163.67 63.51V58.34C163.67 58.26 163.65 58.21 163.61 58.17C163.57 58.13 163.51 58.1 163.45 58.08L162.51 57.74V57.26H166.13V57.74L165.18 58.08C165.12 58.1 165.07 58.13 165.03 58.17C164.99 58.21 164.97 58.27 164.97 58.35V62.83C164.97 63.05 165 63.3 165.05 63.56C165.1 63.82 165.21 64.07 165.36 64.31C165.51 64.55 165.73 64.74 166.02 64.89C166.31 65.04 166.68 65.12 167.15 65.12C167.62 65.12 167.99 65.04 168.3 64.89C168.6 64.74 168.84 64.54 169.01 64.31C169.18 64.08 169.3 63.83 169.37 63.57C169.44 63.31 169.48 63.08 169.48 62.87V58.4C169.48 58.32 169.46 58.27 169.42 58.23C169.38 58.2 169.33 58.17 169.27 58.14L168.33 57.76V57.28H171.53V57.76L170.58 58.14C170.52 58.16 170.47 58.19 170.44 58.23C170.4 58.26 170.38 58.32 170.38 58.4V63.28C170.38 63.78 170.27 64.21 170.05 64.56C169.83 64.91 169.55 65.2 169.2 65.43C168.86 65.65 168.49 65.82 168.11 65.92C167.72 66.02 167.37 66.07 167.03 66.07L167.01 66.04Z" fill="black"/>
<path d="M172.89 65.83V65.34L173.85 65.01C173.91 64.99 173.96 64.96 173.99 64.92C174.03 64.88 174.05 64.81 174.05 64.73V58.35C174.05 58.27 174.03 58.21 173.99 58.17C173.95 58.13 173.9 58.1 173.85 58.08L172.89 57.74V57.26H179.66V59.42H178.85L178.67 58.29C178.66 58.21 178.63 58.16 178.58 58.12C178.53 58.08 178.48 58.07 178.41 58.07H175.34V60.98H177.14C177.22 60.98 177.28 60.96 177.32 60.93C177.35 60.9 177.38 60.84 177.4 60.76L177.58 59.84H178.23V62.94H177.58L177.4 62.02C177.38 61.94 177.36 61.89 177.32 61.85C177.28 61.81 177.23 61.79 177.14 61.79H175.34V65.04H178.86C178.91 65.04 178.97 65.02 179.02 64.98C179.07 64.94 179.1 64.88 179.11 64.81L179.29 63.54H180.09V65.84H172.88L172.89 65.83Z" fill="black"/>
<path d="M94.9196 79.8501H95.2796V80.7301C95.0496 80.9201 94.7696 81.1101 94.4496 81.3101C94.1296 81.5101 93.7696 81.6801 93.3796 81.8101C92.9896 81.9501 92.5797 82.0201 92.1597 82.0201C91.3097 82.0201 90.5596 81.8501 89.9196 81.5001C89.2796 81.1501 88.7796 80.6501 88.4196 79.9901C88.0596 79.3301 87.8896 78.5201 87.8896 77.5701C87.8896 76.6201 88.0697 75.8601 88.4397 75.1901C88.8097 74.5201 89.3197 74.0001 89.9697 73.6301C90.6197 73.2601 91.3496 73.0801 92.1796 73.0801C92.4796 73.0801 92.8096 73.1001 93.1796 73.1501C93.5496 73.2001 93.9096 73.2601 94.2496 73.3301C94.5896 73.4001 94.8897 73.4601 95.1197 73.5101V75.7601H94.3096L94.1296 74.4901C94.1296 74.4301 94.0896 74.3801 94.0196 74.3401C93.9496 74.3001 93.8996 74.2601 93.8496 74.2401C93.5796 74.1101 93.3096 74.0101 93.0396 73.9501C92.7696 73.8901 92.4697 73.8601 92.1197 73.8601C91.2797 73.8601 90.5996 74.1401 90.0696 74.7101C89.5396 75.2701 89.2796 76.1401 89.2796 77.3001C89.2796 78.5301 89.5496 79.4601 90.0996 80.0901C90.6496 80.7201 91.4397 81.0401 92.4797 81.0401C92.8597 81.0401 93.1997 80.9701 93.5097 80.8201C93.8197 80.6801 94.0896 80.5101 94.3196 80.3201C94.5496 80.1301 94.7397 79.9801 94.8997 79.8501H94.9196Z" fill="black"/>
<path d="M100.83 82.02C99.9297 82.02 99.1697 81.84 98.5497 81.48C97.9297 81.12 97.4496 80.6 97.1296 79.93C96.8096 79.26 96.6396 78.45 96.6396 77.52C96.6396 76.64 96.8096 75.87 97.1396 75.19C97.4696 74.52 97.9597 73.99 98.5797 73.61C99.1997 73.23 99.9597 73.04 100.83 73.04C101.79 73.04 102.57 73.23 103.19 73.62C103.81 74.01 104.27 74.54 104.57 75.21C104.87 75.88 105.02 76.65 105.02 77.51C105.02 78.09 104.94 78.65 104.78 79.18C104.62 79.72 104.37 80.2 104.03 80.62C103.69 81.05 103.26 81.38 102.73 81.63C102.2 81.88 101.57 82 100.83 82V82.02ZM100.93 81.25C101.52 81.25 102.01 81.1 102.41 80.81C102.81 80.52 103.1 80.1 103.3 79.58C103.5 79.05 103.6 78.44 103.6 77.74C103.6 76.94 103.5 76.24 103.29 75.66C103.08 75.08 102.76 74.63 102.34 74.31C101.91 74 101.38 73.84 100.72 73.84C100.06 73.84 99.5896 74 99.1996 74.31C98.8096 74.62 98.5296 75.04 98.3396 75.57C98.1596 76.1 98.0696 76.68 98.0696 77.33C98.0696 78.13 98.1696 78.82 98.3796 79.41C98.5896 80 98.8997 80.46 99.3297 80.78C99.7497 81.1 100.29 81.27 100.94 81.27L100.93 81.25Z" fill="black"/>
<path d="M106.5 81.83V81.34L107.46 80.96C107.52 80.93 107.57 80.9 107.6 80.87C107.64 80.84 107.66 80.78 107.66 80.69V74.34C107.66 74.26 107.64 74.2 107.6 74.16C107.56 74.12 107.51 74.09 107.46 74.07L106.47 73.73V73.25H109.03L113.19 79.17L113.61 79.92H113.74V74.37C113.74 74.29 113.72 74.24 113.67 74.2C113.62 74.16 113.57 74.14 113.52 74.12L112.57 73.74V73.26H115.78V73.74L114.88 74.1C114.8 74.13 114.73 74.17 114.68 74.2C114.63 74.24 114.6 74.3 114.6 74.37V80.53L114.42 81.89H113.61L109.09 75.48L108.68 74.74H108.56V80.69C108.56 80.77 108.58 80.84 108.63 80.88C108.68 80.92 108.72 80.95 108.77 80.97L109.71 81.35V81.84H106.51L106.5 81.83Z" fill="black"/>
<path d="M117.19 81.83V81.34L118.15 81.01C118.21 80.99 118.26 80.96 118.29 80.92C118.33 80.88 118.35 80.81 118.35 80.73V74.35C118.35 74.27 118.33 74.21 118.29 74.17C118.25 74.13 118.2 74.1 118.15 74.08L117.19 73.74V73.26H123.96V75.42H123.15L122.97 74.29C122.96 74.21 122.93 74.16 122.88 74.12C122.83 74.08 122.78 74.07 122.71 74.07H119.64V76.98H121.44C121.52 76.98 121.58 76.96 121.62 76.93C121.65 76.9 121.68 76.84 121.7 76.76L121.88 75.84H122.53V78.94H121.88L121.7 78.02C121.68 77.94 121.66 77.89 121.62 77.85C121.58 77.81 121.53 77.79 121.44 77.79H119.64V81.04H123.16C123.21 81.04 123.27 81.02 123.32 80.98C123.37 80.94 123.4 80.88 123.41 80.81L123.59 79.54H124.39V81.84H117.18L117.19 81.83Z" fill="black"/>
<path d="M132.95 79.8501H133.31V80.7301C133.08 80.9201 132.8 81.1101 132.48 81.3101C132.16 81.5101 131.8 81.6801 131.41 81.8101C131.02 81.9501 130.61 82.0201 130.19 82.0201C129.34 82.0201 128.59 81.8501 127.95 81.5001C127.31 81.1501 126.81 80.6501 126.45 79.9901C126.09 79.3301 125.92 78.5201 125.92 77.5701C125.92 76.6201 126.1 75.8601 126.47 75.1901C126.84 74.5201 127.35 74.0001 128 73.6301C128.65 73.2601 129.38 73.0801 130.21 73.0801C130.51 73.0801 130.84 73.1001 131.21 73.1501C131.58 73.2001 131.94 73.2601 132.28 73.3301C132.62 73.4001 132.92 73.4601 133.15 73.5101V75.7601H132.34L132.16 74.4901C132.16 74.4301 132.12 74.3801 132.05 74.3401C131.98 74.3001 131.93 74.2601 131.88 74.2401C131.61 74.1101 131.34 74.0101 131.07 73.9501C130.8 73.8901 130.5 73.8601 130.15 73.8601C129.31 73.8601 128.63 74.1401 128.1 74.7101C127.57 75.2701 127.31 76.1401 127.31 77.3001C127.31 78.5301 127.58 79.4601 128.13 80.0901C128.68 80.7201 129.47 81.0401 130.51 81.0401C130.89 81.0401 131.23 80.9701 131.54 80.8201C131.85 80.6801 132.12 80.5101 132.35 80.3201C132.58 80.1301 132.77 79.9801 132.93 79.8501H132.95Z" fill="black"/>
<path d="M136.419 81.83V81.34L137.429 81.01C137.499 80.99 137.549 80.95 137.589 80.91C137.629 80.87 137.639 80.81 137.639 80.72V74.04H135.679C135.619 74.04 135.559 74.06 135.519 74.1C135.469 74.14 135.439 74.19 135.429 74.27L135.249 75.54H134.449V73.26H142.149V75.54H141.339L141.169 74.27C141.159 74.19 141.129 74.13 141.079 74.1C141.029 74.07 140.979 74.05 140.919 74.05H138.949V80.73C138.949 80.81 138.969 80.88 139.019 80.92C139.059 80.96 139.109 80.99 139.169 81.01L140.169 81.34V81.83H136.429H136.419Z" fill="black"/>
<path d="M141.949 81.83V81.34L142.579 81.03C142.719 80.96 142.819 80.86 142.869 80.71L145.289 74.55L145.979 73.12H146.779L149.799 80.73C149.819 80.79 149.859 80.85 149.899 80.91C149.939 80.97 149.999 81.02 150.059 81.04L150.719 81.32V81.81H147.509V81.32L148.499 80.93L146.379 75.53L146.169 74.73H146.039L143.699 80.88L144.709 81.31V81.8H141.949V81.83ZM144.389 78.88L144.709 77.94H147.449L147.769 78.88H144.389Z" fill="black"/>
<path d="M151.58 81.83V81.34L152.54 80.96C152.6 80.93 152.65 80.9 152.68 80.87C152.72 80.84 152.74 80.78 152.74 80.69V74.34C152.74 74.26 152.72 74.2 152.68 74.16C152.64 74.12 152.59 74.09 152.54 74.07L151.55 73.73V73.25H154.11L158.27 79.17L158.69 79.92H158.82V74.37C158.82 74.29 158.8 74.24 158.75 74.2C158.7 74.16 158.65 74.14 158.6 74.12L157.65 73.74V73.26H160.86V73.74L159.96 74.1C159.88 74.13 159.81 74.17 159.76 74.2C159.71 74.24 159.68 74.3 159.68 74.37V80.53L159.5 81.89H158.69L154.17 75.48L153.76 74.74H153.64V80.69C153.64 80.77 153.66 80.84 153.71 80.88C153.76 80.92 153.8 80.95 153.85 80.97L154.79 81.35V81.84H151.59L151.58 81.83Z" fill="black"/>
<path d="M167.95 81.83V81.34L168.95 81.01C169.02 80.99 169.07 80.95 169.11 80.91C169.15 80.87 169.17 80.81 169.17 80.72V78.68L166.72 74.32C166.69 74.26 166.65 74.21 166.6 74.15C166.55 74.09 166.5 74.05 166.44 74.03L165.75 73.74V73.26H168.94V73.74L167.98 74.13L169.67 77.01L169.98 77.74H170.11L172.09 74.18L171.13 73.75V73.27H173.9V73.75L173.23 74.07C173.17 74.1 173.12 74.14 173.07 74.2C173.02 74.26 172.98 74.31 172.95 74.37L170.46 78.68V80.75C170.46 80.83 170.48 80.9 170.52 80.94C170.56 80.98 170.6 81.01 170.67 81.03L171.68 81.36V81.85H167.95V81.83Z" fill="black"/>
<path d="M185.889 79.8501H186.249V80.7301C186.019 80.9201 185.739 81.1101 185.419 81.3101C185.099 81.5101 184.739 81.6801 184.349 81.8101C183.959 81.9501 183.549 82.0201 183.129 82.0201C182.279 82.0201 181.529 81.8501 180.889 81.5001C180.249 81.1501 179.749 80.6501 179.389 79.9901C179.029 79.3301 178.859 78.5201 178.859 77.5701C178.859 76.6201 179.039 75.8601 179.409 75.1901C179.779 74.5201 180.289 74.0001 180.939 73.6301C181.589 73.2601 182.319 73.0801 183.149 73.0801C183.449 73.0801 183.779 73.1001 184.149 73.1501C184.519 73.2001 184.879 73.2601 185.219 73.3301C185.559 73.4001 185.859 73.4601 186.089 73.5101V75.7601H185.279L185.099 74.4901C185.099 74.4301 185.059 74.3801 184.989 74.3401C184.919 74.3001 184.869 74.2601 184.819 74.2401C184.549 74.1101 184.279 74.0101 184.009 73.9501C183.739 73.8901 183.439 73.8601 183.089 73.8601C182.249 73.8601 181.569 74.1401 181.039 74.7101C180.509 75.2701 180.249 76.1401 180.249 77.3001C180.249 78.5301 180.519 79.4601 181.069 80.0901C181.619 80.7201 182.409 81.0401 183.449 81.0401C183.829 81.0401 184.169 80.9701 184.479 80.8201C184.789 80.6801 185.059 80.5101 185.289 80.3201C185.519 80.1301 185.709 79.9801 185.869 79.8501H185.889Z" fill="black"/>
<path d="M187.68 81.83V81.34L188.64 81.01C188.7 80.99 188.75 80.96 188.79 80.92C188.83 80.88 188.84 80.81 188.84 80.73V74.35C188.84 74.27 188.82 74.21 188.78 74.17C188.74 74.13 188.69 74.1 188.64 74.08L187.68 73.74V73.26H191.29C191.95 73.26 192.48 73.32 192.9 73.45C193.31 73.58 193.63 73.75 193.86 73.96C194.08 74.17 194.24 74.41 194.32 74.66C194.4 74.92 194.45 75.18 194.45 75.44C194.45 75.91 194.35 76.31 194.14 76.64C193.93 76.97 193.68 77.24 193.37 77.44C193.06 77.64 192.75 77.77 192.45 77.83L191.39 78.24L190.05 77.96L190.1 77.25C190.1 77.25 190.23 77.27 190.36 77.28C190.5 77.29 190.64 77.3 190.8 77.31C190.96 77.31 191.08 77.32 191.17 77.32C191.6 77.32 191.96 77.24 192.24 77.09C192.52 76.94 192.73 76.74 192.86 76.49C192.99 76.24 193.07 75.97 193.07 75.68C193.07 75.11 192.9 74.69 192.56 74.43C192.22 74.17 191.72 74.04 191.06 74.04H190.15V80.72C190.15 80.8 190.17 80.87 190.21 80.91C190.25 80.95 190.3 80.98 190.37 81L191.32 81.33V81.82H187.69L187.68 81.83ZM196.11 81.83H194.62C194.35 81.83 194.15 81.81 194.02 81.76C193.89 81.71 193.78 81.64 193.69 81.53C193.6 81.42 193.49 81.26 193.34 81.06L191.23 78.14L192.47 77.74L194.68 80.67C194.68 80.67 194.78 80.79 194.86 80.87C194.94 80.95 195.03 81.01 195.12 81.03L196.1 81.34V81.83H196.11Z" fill="black"/>
<path d="M196.88 81.83V81.34L197.84 81.01C197.9 80.99 197.95 80.96 197.98 80.92C198.02 80.88 198.04 80.81 198.04 80.73V74.35C198.04 74.27 198.02 74.21 197.98 74.17C197.94 74.13 197.89 74.1 197.84 74.08L196.88 73.74V73.26H203.65V75.42H202.84L202.66 74.29C202.65 74.21 202.62 74.16 202.57 74.12C202.52 74.08 202.47 74.07 202.4 74.07H199.33V76.98H201.13C201.21 76.98 201.27 76.96 201.31 76.93C201.34 76.9 201.37 76.84 201.39 76.76L201.57 75.84H202.22V78.94H201.57L201.39 78.02C201.37 77.94 201.35 77.89 201.31 77.85C201.27 77.81 201.22 77.79 201.13 77.79H199.33V81.04H202.85C202.9 81.04 202.96 81.02 203.01 80.98C203.06 80.94 203.09 80.88 203.1 80.81L203.28 79.54H204.08V81.84H196.87L196.88 81.83Z" fill="black"/>
<path d="M204.989 81.83V81.34L205.619 81.03C205.759 80.96 205.859 80.86 205.909 80.71L208.329 74.55L209.019 73.12H209.819L212.839 80.73C212.859 80.79 212.899 80.85 212.939 80.91C212.979 80.97 213.039 81.02 213.099 81.04L213.759 81.32V81.81H210.549V81.32L211.539 80.93L209.419 75.53L209.209 74.73H209.079L206.739 80.88L207.749 81.31V81.8H204.989V81.83ZM207.429 78.88L207.749 77.94H210.489L210.809 78.88H207.429Z" fill="black"/>
<path d="M214.63 81.83V81.34L215.59 80.96C215.65 80.93 215.7 80.9 215.73 80.87C215.77 80.84 215.79 80.78 215.79 80.69V74.34C215.79 74.26 215.77 74.2 215.73 74.16C215.69 74.12 215.64 74.09 215.59 74.07L214.6 73.73V73.25H217.16L221.32 79.17L221.74 79.92H221.87V74.37C221.87 74.29 221.85 74.24 221.8 74.2C221.75 74.16 221.7 74.14 221.65 74.12L220.7 73.74V73.26H223.91V73.74L223.01 74.1C222.93 74.13 222.86 74.17 222.81 74.2C222.76 74.24 222.73 74.3 222.73 74.37V80.53L222.55 81.89H221.74L217.22 75.48L216.81 74.74H216.69V80.69C216.69 80.77 216.71 80.84 216.76 80.88C216.81 80.92 216.85 80.95 216.9 80.97L217.84 81.35V81.84H214.64L214.63 81.83Z" fill="black"/>
</g>
<defs>
<clipPath id="clip0_289_297">
<rect width="223.9" height="82.02" fill="white"/>
</clipPath>
</defs>
</svg>
