<svg width="438" height="198" viewBox="0 0 438 198" fill="none" xmlns="http://www.w3.org/2000/svg">
<g clip-path="url(#clip0_310_983)">
<path d="M0 136.2L426.46 136.35" stroke="#333333" stroke-width="0.25" stroke-miterlimit="10"/>
<path d="M175.99 75.14C259.36 75.14 342.73 75.14 426.1 75.14" stroke="#333333" stroke-width="0.25" stroke-miterlimit="10"/>
<path d="M0 0.119995H426.49" stroke="#333333" stroke-width="0.25" stroke-miterlimit="10"/>
<path d="M161.37 189.5L161.99 0.23999" stroke="#333333" stroke-width="0.25" stroke-miterlimit="10"/>
<path d="M175.62 189.51L176.24 0.190002" stroke="#333333" stroke-width="0.25" stroke-miterlimit="10"/>
<path d="M114.91 61.08L128.97 47.21L100.94 19.17L72.9102 47.21L128.68 103.16C119.43 112.49 110.18 121.81 100.94 131.14C91.6102 121.81 82.2801 112.49 72.9501 103.16C77.5501 98.6 82.1402 94.04 86.7402 89.48" stroke="#1B1B1B" stroke-width="7" stroke-miterlimit="10"/>
<path d="M135.88 54.01L156.68 75.13L135.88 96.23" stroke="#1B1B1B" stroke-width="7" stroke-miterlimit="10"/>
<path d="M66.1203 96.01C59.1903 89.05 52.2603 82.1 45.3203 75.15C52.2503 68.03 59.1803 60.92 66.1203 53.8" stroke="#1B1B1B" stroke-width="7" stroke-miterlimit="10"/>
<path d="M222.09 9.73L215.33 23.67C211.68 20.57 208 19.02 204.28 19.02C201.9 19.02 200.04 19.71 198.71 21.09C197.6 22.27 197.04 23.6 197.04 25.08C197.04 26.39 197.55 27.5 198.56 28.41C199.54 29.25 200.54 29.89 201.54 30.33C202.54 30.77 204.95 31.58 208.75 32.75C214.08 34.43 218.04 36.72 220.61 39.62C223.34 42.75 224.71 46.91 224.71 52.09C224.71 60 222.49 65.99 218.04 70.07C213.28 74.38 207.02 76.53 199.28 76.53C191.54 76.53 183.8 73.92 176.75 68.7L183.99 54.26C189.04 58.94 194.01 61.28 198.9 61.28C201.88 61.28 204.06 60.46 205.42 58.81C206.5 57.5 207.04 56.07 207.04 54.52C207.04 52.67 206.33 51.2 204.92 50.1C203.51 49.01 200.82 47.84 196.85 46.59C190.63 44.67 186.52 42.82 184.51 41.04C181.05 38.04 179.32 33.48 179.32 27.36C179.32 20.19 181.56 14.43 186.03 10.09C190.09 6.12 195.24 4.13 201.46 4.13C208.51 4.13 215.38 6 222.08 9.73H222.09Z" stroke="#1B1B1B" stroke-miterlimit="10"/>
<path d="M242.71 0.539978C245.15 0.539978 247.23 1.44998 248.95 3.26998C250.66 5.08998 251.52 7.27998 251.52 9.82998C251.52 12.38 250.66 14.63 248.95 16.45C247.24 18.27 245.17 19.18 242.76 19.18C240.35 19.18 238.2 18.27 236.52 16.45C234.81 14.6 233.95 12.36 233.95 9.72998C233.95 7.23998 234.81 5.07998 236.55 3.26998C238.28 1.44998 240.34 0.539978 242.72 0.539978H242.71ZM250.52 27.86V74.72H234.9V27.86H250.52Z" stroke="#1B1B1B" stroke-miterlimit="10"/>
<path d="M278.67 41.64V74.71H263.05V41.64H257.91V27.86H263.05V13.77H278.67V27.86H287.58V41.64H278.67Z" stroke="#1B1B1B" stroke-miterlimit="10"/>
<path d="M319.01 26.14C327.77 26.14 334.62 28.97 339.54 34.62C343.6 39.27 345.64 44.82 345.64 51.28C345.64 58.89 342.97 65.12 337.64 69.96C332.88 74.3 326.59 76.47 318.78 76.47C313.83 76.47 309.19 75.34 304.87 73.09C300.84 70.97 297.68 67.74 295.39 63.4C293.42 59.73 292.44 55.56 292.44 50.88C292.44 43.64 295.11 37.57 300.44 32.65C303.11 30.23 306.41 28.46 310.35 27.35C313.27 26.54 316.16 26.14 319.02 26.14H319.01ZM319.01 40.43C316.22 40.43 313.85 41.47 311.91 43.56C309.94 45.68 308.96 48.17 308.96 51.03C308.96 54.09 309.94 56.69 311.91 58.81C313.85 60.9 316.23 61.94 319.05 61.94C321.87 61.94 324.18 60.9 326.15 58.81C328.12 56.69 329.1 54.15 329.1 51.19C329.1 48.23 328.12 45.62 326.15 43.57C324.15 41.48 321.77 40.44 319.01 40.44V40.43Z" stroke="#1B1B1B" stroke-miterlimit="10"/>
<path d="M176.841 125.59C177.421 124.54 178.231 123.71 179.271 123.13C180.311 122.54 181.491 122.25 182.811 122.25C184.431 122.25 185.811 122.68 186.961 123.53C188.111 124.38 188.881 125.55 189.271 127.02H185.621C185.351 126.45 184.961 126.02 184.471 125.72C183.971 125.42 183.411 125.27 182.771 125.27C181.751 125.27 180.921 125.63 180.291 126.34C179.661 127.05 179.341 128 179.341 129.19C179.341 130.38 179.661 131.33 180.291 132.04C180.921 132.75 181.751 133.11 182.771 133.11C183.401 133.11 183.971 132.96 184.471 132.66C184.971 132.36 185.351 131.93 185.621 131.36H189.271C188.881 132.83 188.111 133.99 186.961 134.84C185.811 135.69 184.421 136.11 182.811 136.11C181.491 136.11 180.311 135.82 179.271 135.23C178.231 134.64 177.421 133.82 176.841 132.78C176.261 131.73 175.971 130.54 175.971 129.19C175.971 127.84 176.261 126.65 176.841 125.59Z" stroke="#1B1B1B" stroke-miterlimit="10"/>
<path d="M194.231 135.26C193.161 134.67 192.321 133.83 191.691 132.77C191.061 131.7 190.751 130.5 190.751 129.17C190.751 127.84 191.061 126.64 191.691 125.58C192.321 124.52 193.161 123.69 194.231 123.1C195.301 122.51 196.471 122.21 197.751 122.21C199.031 122.21 200.201 122.51 201.271 123.1C202.341 123.69 203.181 124.52 203.791 125.58C204.401 126.64 204.711 127.84 204.711 129.17C204.711 130.5 204.401 131.7 203.781 132.77C203.161 133.84 202.321 134.67 201.261 135.26C200.201 135.86 199.031 136.15 197.751 136.15C196.471 136.15 195.301 135.85 194.231 135.26ZM200.361 132.04C201.011 131.32 201.341 130.36 201.341 129.17C201.341 127.98 201.011 127.01 200.361 126.29C199.711 125.57 198.841 125.21 197.751 125.21C196.661 125.21 195.771 125.57 195.121 126.28C194.471 126.99 194.141 127.95 194.141 129.17C194.141 130.39 194.471 131.33 195.121 132.05C195.771 132.77 196.651 133.13 197.751 133.13C198.851 133.13 199.711 132.77 200.361 132.04Z" stroke="#1B1B1B" stroke-miterlimit="10"/>
<path d="M218.741 136.02H215.421L209.871 127.62V136.02H206.551V122.4H209.871L215.421 130.84V122.4H218.741V136.02Z" stroke="#1B1B1B" stroke-miterlimit="10"/>
<path d="M224.461 125.05V127.8H228.901V130.36H224.461V133.35H229.481V136.01H221.141V122.39H229.481V125.05H224.461Z" stroke="#1B1B1B" stroke-miterlimit="10"/>
<path d="M231.951 125.59C232.531 124.54 233.341 123.71 234.381 123.13C235.421 122.54 236.601 122.25 237.921 122.25C239.541 122.25 240.921 122.68 242.071 123.53C243.221 124.38 243.991 125.55 244.381 127.02H240.731C240.461 126.45 240.071 126.02 239.581 125.72C239.081 125.42 238.521 125.27 237.881 125.27C236.861 125.27 236.031 125.63 235.401 126.34C234.771 127.05 234.451 128 234.451 129.19C234.451 130.38 234.771 131.33 235.401 132.04C236.031 132.75 236.861 133.11 237.881 133.11C238.511 133.11 239.081 132.96 239.581 132.66C240.081 132.36 240.461 131.93 240.731 131.36H244.381C243.991 132.83 243.221 133.99 242.071 134.84C240.921 135.69 239.531 136.11 237.921 136.11C236.601 136.11 235.421 135.82 234.381 135.23C233.341 134.64 232.531 133.82 231.951 132.78C231.371 131.73 231.081 130.54 231.081 129.19C231.081 127.84 231.371 126.65 231.951 125.59Z" stroke="#1B1B1B" stroke-miterlimit="10"/>
<path d="M256.221 122.4V125.06H252.611V136.02H249.291V125.06H245.681V122.4H256.211H256.221Z" stroke="#1B1B1B" stroke-miterlimit="10"/>
<path d="M266.371 133.61H261.291L260.481 136.02H257.011L261.941 122.4H265.781L270.711 136.02H267.201L266.391 133.61H266.371ZM265.521 131.05L263.831 126.06L262.161 131.05H265.521Z" stroke="#1B1B1B" stroke-miterlimit="10"/>
<path d="M284.371 136.02H281.051L275.501 127.62V136.02H272.181V122.4H275.501L281.051 130.84V122.4H284.371V136.02Z" stroke="#1B1B1B" stroke-miterlimit="10"/>
<path d="M302.571 122.4L297.861 131.52V136.02H294.541V131.52L289.831 122.4H293.591L296.231 128.1L298.851 122.4H302.571Z" stroke="#1B1B1B" stroke-miterlimit="10"/>
<path d="M308.331 125.59C308.911 124.54 309.721 123.71 310.761 123.13C311.801 122.54 312.981 122.25 314.301 122.25C315.921 122.25 317.301 122.68 318.451 123.53C319.601 124.38 320.371 125.55 320.761 127.02H317.111C316.841 126.45 316.451 126.02 315.961 125.72C315.461 125.42 314.901 125.27 314.261 125.27C313.241 125.27 312.411 125.63 311.781 126.34C311.151 127.05 310.831 128 310.831 129.19C310.831 130.38 311.151 131.33 311.781 132.04C312.411 132.75 313.241 133.11 314.261 133.11C314.891 133.11 315.461 132.96 315.961 132.66C316.461 132.36 316.841 131.93 317.111 131.36H320.761C320.371 132.83 319.601 133.99 318.451 134.84C317.301 135.69 315.911 136.11 314.301 136.11C312.981 136.11 311.801 135.82 310.761 135.23C309.721 134.64 308.911 133.82 308.331 132.78C307.751 131.73 307.461 130.54 307.461 129.19C307.461 127.84 307.751 126.65 308.331 125.59Z" stroke="#1B1B1B" stroke-miterlimit="10"/>
<path d="M329.751 136.02L326.921 130.88H326.131V136.02H322.811V122.4H328.381C329.451 122.4 330.371 122.59 331.131 122.96C331.891 123.33 332.451 123.85 332.831 124.5C333.211 125.15 333.391 125.88 333.391 126.68C333.391 127.59 333.141 128.39 332.621 129.1C332.111 129.81 331.361 130.32 330.361 130.61L333.501 136H329.761L329.751 136.02ZM326.121 128.53H328.181C328.791 128.53 329.241 128.38 329.551 128.08C329.851 127.78 330.011 127.36 330.011 126.82C330.011 126.28 329.861 125.9 329.551 125.6C329.251 125.3 328.791 125.15 328.181 125.15H326.121V128.53Z" stroke="#1B1B1B" stroke-miterlimit="10"/>
<path d="M338.771 125.05V127.8H343.211V130.36H338.771V133.35H343.791V136.01H335.451V122.39H343.791V125.05H338.771Z" stroke="#1B1B1B" stroke-miterlimit="10"/>
<path d="M354.421 133.61H349.341L348.531 136.02H345.061L349.991 122.4H353.831L358.761 136.02H355.251L354.441 133.61H354.421ZM353.571 131.05L351.881 126.06L350.211 131.05H353.571Z" stroke="#1B1B1B" stroke-miterlimit="10"/>
<path d="M372.42 136.02H369.1L363.55 127.62V136.02H360.23V122.4H363.55L369.1 130.84V122.4H372.42V136.02Z" stroke="#1B1B1B" stroke-miterlimit="10"/>
<path d="M176.921 101.97C177.501 100.92 178.311 100.09 179.351 99.5099C180.391 98.9299 181.571 98.6299 182.891 98.6299C184.511 98.6299 185.891 99.06 187.041 99.91C188.191 100.76 188.961 101.93 189.351 103.4H185.701C185.431 102.83 185.041 102.4 184.551 102.1C184.061 101.8 183.491 101.65 182.851 101.65C181.831 101.65 181.001 102.01 180.371 102.72C179.741 103.43 179.421 104.38 179.421 105.57C179.421 106.76 179.741 107.71 180.371 108.42C181.001 109.13 181.831 109.49 182.851 109.49C183.481 109.49 184.051 109.34 184.551 109.04C185.051 108.74 185.431 108.31 185.701 107.74H189.351C188.961 109.21 188.191 110.38 187.041 111.22C185.891 112.07 184.501 112.49 182.891 112.49C181.571 112.49 180.391 112.2 179.351 111.61C178.311 111.02 177.501 110.2 176.921 109.16C176.341 108.11 176.051 106.92 176.051 105.57C176.051 104.22 176.341 103.03 176.921 101.97Z" stroke="#1B1B1B" stroke-miterlimit="10"/>
<path d="M194.311 111.64C193.241 111.05 192.401 110.21 191.771 109.15C191.141 108.09 190.831 106.88 190.831 105.55C190.831 104.22 191.141 103.02 191.771 101.96C192.401 100.9 193.241 100.07 194.311 99.48C195.381 98.89 196.551 98.59 197.831 98.59C199.111 98.59 200.281 98.89 201.351 99.48C202.421 100.08 203.261 100.9 203.871 101.96C204.481 103.02 204.791 104.22 204.791 105.55C204.791 106.88 204.481 108.08 203.861 109.15C203.241 110.22 202.401 111.05 201.341 111.64C200.281 112.24 199.111 112.53 197.831 112.53C196.551 112.53 195.381 112.23 194.311 111.64ZM200.441 108.42C201.091 107.7 201.421 106.74 201.421 105.55C201.421 104.36 201.091 103.39 200.441 102.67C199.791 101.95 198.921 101.59 197.831 101.59C196.741 101.59 195.851 101.95 195.201 102.66C194.551 103.37 194.221 104.33 194.221 105.55C194.221 106.77 194.551 107.71 195.201 108.43C195.851 109.15 196.731 109.51 197.831 109.51C198.931 109.51 199.791 109.15 200.441 108.42ZM200.081 96.04L195.401 98V95.71L200.081 93.46V96.04Z" stroke="#1B1B1B" stroke-miterlimit="10"/>
<path d="M215.51 99.63C216.58 100.2 217.41 101 218 102.03C218.59 103.06 218.88 104.24 218.88 105.59C218.88 106.94 218.59 108.11 218 109.14C217.41 110.18 216.58 110.98 215.5 111.55C214.42 112.12 213.17 112.4 211.75 112.4H206.65V98.78H211.75C213.19 98.78 214.44 99.06 215.51 99.63ZM214.46 108.5C215.16 107.81 215.51 106.84 215.51 105.59C215.51 104.34 215.16 103.36 214.46 102.66C213.76 101.96 212.78 101.61 211.53 101.61H209.96V109.53H211.53C212.78 109.53 213.76 109.19 214.46 108.5Z" stroke="#1B1B1B" stroke-miterlimit="10"/>
<path d="M224.061 98.78V112.4H220.741V98.78H224.061Z" stroke="#1B1B1B" stroke-miterlimit="10"/>
<path d="M235.511 103.08C235.261 102.63 234.911 102.28 234.451 102.04C233.991 101.8 233.451 101.68 232.831 101.68C231.761 101.68 230.901 102.03 230.251 102.74C229.601 103.45 229.281 104.39 229.281 105.56C229.281 106.81 229.621 107.79 230.301 108.5C230.981 109.21 231.911 109.56 233.101 109.56C233.911 109.56 234.601 109.35 235.171 108.94C235.741 108.53 236.141 107.93 236.401 107.16H232.191V104.72H239.411V107.8C239.161 108.63 238.751 109.4 238.161 110.11C237.571 110.82 236.821 111.4 235.921 111.84C235.011 112.28 233.991 112.5 232.861 112.5C231.511 112.5 230.321 112.21 229.261 111.62C228.211 111.03 227.381 110.21 226.801 109.17C226.211 108.12 225.921 106.93 225.921 105.58C225.921 104.23 226.211 103.04 226.801 101.98C227.391 100.93 228.211 100.1 229.251 99.52C230.301 98.93 231.491 98.64 232.841 98.64C234.471 98.64 235.841 99.03 236.961 99.82C238.081 100.61 238.821 101.7 239.181 103.1H235.511V103.08Z" stroke="#1B1B1B" stroke-miterlimit="10"/>
<path d="M244.17 111.64C243.1 111.05 242.26 110.21 241.63 109.15C241 108.09 240.69 106.88 240.69 105.55C240.69 104.22 241 103.02 241.63 101.96C242.26 100.9 243.1 100.07 244.17 99.48C245.24 98.89 246.41 98.59 247.69 98.59C248.97 98.59 250.14 98.89 251.21 99.48C252.28 100.08 253.12 100.9 253.73 101.96C254.34 103.02 254.65 104.22 254.65 105.55C254.65 106.88 254.34 108.08 253.72 109.15C253.1 110.22 252.26 111.05 251.2 111.64C250.14 112.24 248.97 112.53 247.69 112.53C246.41 112.53 245.24 112.23 244.17 111.64ZM250.3 108.42C250.95 107.7 251.28 106.74 251.28 105.55C251.28 104.36 250.95 103.39 250.3 102.67C249.65 101.95 248.78 101.59 247.69 101.59C246.6 101.59 245.71 101.95 245.06 102.66C244.41 103.37 244.08 104.33 244.08 105.55C244.08 106.77 244.41 107.71 245.06 108.43C245.71 109.15 246.59 109.51 247.69 109.51C248.79 109.51 249.65 109.15 250.3 108.42Z" stroke="#1B1B1B" stroke-miterlimit="10"/>
<path d="M258.75 112.05C257.96 111.73 257.33 111.25 256.86 110.61C256.39 109.97 256.14 109.21 256.11 108.32H259.64C259.69 108.82 259.87 109.21 260.16 109.47C260.46 109.74 260.85 109.87 261.32 109.87C261.79 109.87 262.2 109.76 262.48 109.53C262.76 109.3 262.91 108.99 262.91 108.59C262.91 108.25 262.8 107.98 262.57 107.76C262.34 107.54 262.07 107.36 261.74 107.22C261.41 107.08 260.94 106.92 260.33 106.73C259.45 106.46 258.73 106.19 258.18 105.92C257.62 105.65 257.15 105.25 256.74 104.72C256.34 104.19 256.14 103.5 256.14 102.64C256.14 101.37 256.6 100.38 257.52 99.66C258.44 98.94 259.63 98.58 261.11 98.58C262.59 98.58 263.82 98.94 264.74 99.66C265.66 100.38 266.15 101.38 266.21 102.66H262.62C262.59 102.22 262.43 101.87 262.14 101.62C261.84 101.37 261.46 101.24 261 101.24C260.6 101.24 260.28 101.35 260.03 101.56C259.78 101.77 259.66 102.08 259.66 102.48C259.66 102.92 259.87 103.26 260.28 103.51C260.69 103.76 261.34 104.02 262.22 104.31C263.1 104.61 263.81 104.89 264.36 105.16C264.91 105.43 265.38 105.83 265.79 106.34C266.19 106.86 266.39 107.52 266.39 108.34C266.39 109.16 266.19 109.82 265.8 110.45C265.41 111.08 264.83 111.59 264.08 111.96C263.33 112.33 262.44 112.52 261.42 112.52C260.4 112.52 259.53 112.36 258.74 112.04L258.75 112.05Z" stroke="#1B1B1B" stroke-miterlimit="10"/>
<path d="M282.24 114.72L280.49 112.37C279.97 112.47 279.47 112.53 278.98 112.53C277.7 112.53 276.53 112.23 275.46 111.64C274.39 111.05 273.55 110.21 272.92 109.15C272.29 108.09 271.98 106.88 271.98 105.55C271.98 104.22 272.29 103.02 272.92 101.96C273.55 100.9 274.39 100.07 275.46 99.48C276.53 98.89 277.7 98.59 278.98 98.59C280.26 98.59 281.43 98.89 282.5 99.48C283.57 100.08 284.41 100.9 285.02 101.96C285.63 103.02 285.94 104.22 285.94 105.55C285.94 106.71 285.7 107.78 285.23 108.74C284.76 109.7 284.1 110.5 283.26 111.14L286.25 114.73H282.23L282.24 114.72ZM276.35 108.42C277 109.14 277.88 109.5 278.98 109.5C280.08 109.5 280.94 109.14 281.59 108.41C282.24 107.69 282.57 106.73 282.57 105.54C282.57 104.35 282.24 103.38 281.59 102.66C280.94 101.94 280.07 101.58 278.98 101.58C277.89 101.58 277 101.94 276.35 102.65C275.7 103.36 275.37 104.32 275.37 105.54C275.37 106.76 275.7 107.7 276.35 108.42Z" stroke="#1B1B1B" stroke-miterlimit="10"/>
<path d="M291.091 98.78V106.93C291.091 107.74 291.291 108.37 291.691 108.81C292.091 109.25 292.681 109.47 293.461 109.47C294.241 109.47 294.831 109.25 295.251 108.81C295.661 108.37 295.871 107.74 295.871 106.93V98.78H299.191V106.91C299.191 108.13 298.931 109.15 298.411 109.99C297.891 110.83 297.201 111.46 296.321 111.89C295.441 112.32 294.471 112.53 293.401 112.53C292.331 112.53 291.371 112.32 290.521 111.9C289.671 111.48 289.001 110.85 288.511 110C288.021 109.15 287.771 108.12 287.771 106.91V98.78H291.091Z" stroke="#1B1B1B" stroke-miterlimit="10"/>
<path d="M304.821 101.43V104.18H309.261V106.74H304.821V109.73H309.841V112.39H301.501V98.77H309.841V101.43H304.821Z" stroke="#1B1B1B" stroke-miterlimit="10"/>
<path d="M175.5 184.71H161.41" stroke="#333333" stroke-width="0.25" stroke-miterlimit="10"/>
<path d="M173.99 183.5C174.24 183.7 174.49 183.9 174.74 184.1C174.99 184.3 175.24 184.5 175.49 184.7C174.99 185.12 174.5 185.53 174 185.95" stroke="#333333" stroke-width="0.25" stroke-miterlimit="10"/>
<path d="M162.97 185.94C162.73 185.73 162.48 185.53 162.24 185.32C162 185.11 161.75 184.91 161.51 184.7C162.02 184.3 162.52 183.89 163.03 183.49" stroke="#333333" stroke-width="0.25" stroke-miterlimit="10"/>
<path d="M168.86 193.29L170.34 188.54H171.5L168.95 195.86C168.56 196.91 167.93 197.44 167.07 197.44L166.86 197.42L166.46 197.34V196.46L166.75 196.48C167.12 196.48 167.4 196.41 167.61 196.26C167.82 196.11 167.98 195.84 168.12 195.45L168.36 194.81L166.1 188.54H167.28L168.86 193.29Z" fill="black"/>
<path d="M406.94 0.25V135.93" stroke="#333333" stroke-width="0.25" stroke-miterlimit="10"/>
<path d="M404.6 78.08C404.99 77.59 405.39 77.1 405.78 76.61C406.17 76.12 406.57 75.63 406.96 75.14C407.78 76.12 408.59 77.09 409.41 78.07" stroke="#333333" stroke-width="0.25" stroke-miterlimit="10"/>
<path d="M404.49 133.25C404.9 133.73 405.3 134.21 405.71 134.69C406.12 135.17 406.52 135.65 406.93 136.13C407.72 135.13 408.51 134.14 409.31 133.15" stroke="#333333" stroke-width="0.25" stroke-miterlimit="10"/>
<path d="M415.91 106.4L417.32 104.09H418.59L416.52 107.22L418.66 110.43H417.41L415.95 108.06L414.49 110.43H413.23L415.37 107.22L413.3 104.09H414.55L415.94 106.4H415.91Z" fill="#1B1B1B"/>
<path d="M415.49 36.79H416.3C416.81 36.79 417.21 36.65 417.51 36.39C417.81 36.13 417.95 35.77 417.95 35.33C417.95 34.33 417.45 33.83 416.46 33.83C415.99 33.83 415.62 33.96 415.34 34.23C415.06 34.5 414.92 34.85 414.92 35.29H413.84C413.84 34.61 414.09 34.05 414.58 33.61C415.07 33.17 415.7 32.94 416.46 32.94C417.26 32.94 417.9 33.15 418.35 33.58C418.8 34.01 419.04 34.6 419.04 35.36C419.04 35.73 418.92 36.09 418.68 36.44C418.44 36.79 418.11 37.05 417.7 37.22C418.17 37.37 418.53 37.61 418.79 37.96C419.05 38.31 419.17 38.72 419.17 39.22C419.17 39.99 418.92 40.59 418.42 41.04C417.92 41.49 417.27 41.71 416.47 41.71C415.67 41.71 415.02 41.49 414.52 41.06C414.02 40.63 413.77 40.05 413.77 39.34H414.86C414.86 39.79 415.01 40.15 415.3 40.42C415.59 40.69 415.99 40.82 416.48 40.82C417 40.82 417.4 40.68 417.68 40.41C417.96 40.14 418.1 39.74 418.1 39.23C418.1 38.72 417.95 38.35 417.64 38.09C417.33 37.83 416.9 37.69 416.32 37.68H415.51V36.8L415.49 36.79Z" fill="#1B1B1B"/>
<path d="M422.89 37.56L424.3 35.25H425.57L423.5 38.38L425.64 41.59H424.39L422.93 39.22L421.47 41.59H420.21L422.35 38.38L420.28 35.25H421.53L422.92 37.56H422.89Z" fill="#1B1B1B"/>
<path d="M426.93 42.31H426L429.56 33.05H430.49L426.93 42.31Z" fill="#1B1B1B"/>
<path d="M437.13 41.58H431.54V40.8L434.49 37.52C434.93 37.02 435.23 36.62 435.4 36.31C435.57 36 435.65 35.68 435.65 35.35C435.65 34.9 435.52 34.54 435.25 34.25C434.98 33.96 434.62 33.82 434.17 33.82C433.63 33.82 433.21 33.97 432.91 34.28C432.61 34.59 432.46 35.01 432.46 35.56H431.38C431.38 34.77 431.63 34.14 432.14 33.66C432.65 33.18 433.32 32.93 434.17 32.93C434.96 32.93 435.59 33.14 436.05 33.55C436.51 33.96 436.74 34.52 436.74 35.21C436.74 36.05 436.2 37.05 435.13 38.21L432.84 40.69H437.12V41.57L437.13 41.58Z" fill="#1B1B1B"/>
<path d="M404.59 3.19C404.98 2.7 405.38 2.21 405.77 1.72C406.16 1.23 406.56 0.74 406.95 0.25C407.77 1.23 408.58 2.2 409.4 3.18" stroke="#333333" stroke-width="0.25" stroke-miterlimit="10"/>
<path d="M404.54 72.2C404.95 72.68 405.35 73.16 405.76 73.64C406.17 74.12 406.57 74.6 406.98 75.08C407.77 74.08 408.56 73.09 409.36 72.1" stroke="#333333" stroke-width="0.25" stroke-miterlimit="10"/>
</g>
<defs>
<clipPath id="clip0_310_983">
<rect width="437.13" height="197.44" fill="white"/>
</clipPath>
</defs>
</svg>
