<svg width="374" height="345" viewBox="0 0 374 345" fill="none" xmlns="http://www.w3.org/2000/svg">
<g clip-path="url(#clip0_310_646)">
<path d="M32.8001 7.96002H0.120117V38.53H32.8001V7.96002Z" fill="#FBFBFB" stroke="#333333" stroke-width="0.25" stroke-miterlimit="10"/>
<path d="M32.8001 38.53H0.120117V69.1H32.8001V38.53Z" fill="#FBFBFB" stroke="#333333" stroke-width="0.25" stroke-miterlimit="10"/>
<path d="M32.8001 69.1H0.120117V99.67H32.8001V69.1Z" fill="#FBFBFB" stroke="#333333" stroke-width="0.25" stroke-miterlimit="10"/>
<path d="M32.8001 99.67H0.120117V130.24H32.8001V99.67Z" fill="#FBFBFB" stroke="#333333" stroke-width="0.25" stroke-miterlimit="10"/>
<path d="M131.22 7.96002H98.54V38.53H131.22V7.96002Z" fill="#FBFBFB" stroke="#333333" stroke-width="0.25" stroke-miterlimit="10"/>
<path d="M164.031 7.96002H131.351V38.53H164.031V7.96002Z" fill="#FBFBFB" stroke="#333333" stroke-width="0.25" stroke-miterlimit="10"/>
<path d="M131.22 38.53H98.54V69.1H131.22V38.53Z" fill="#FBFBFB" stroke="#333333" stroke-width="0.25" stroke-miterlimit="10"/>
<path d="M164.031 38.53H131.351V69.1H164.031V38.53Z" fill="#FBFBFB" stroke="#333333" stroke-width="0.25" stroke-miterlimit="10"/>
<path d="M65.6097 7.96002H32.9297V38.53H65.6097V7.96002Z" fill="#FBFBFB" stroke="#333333" stroke-width="0.25" stroke-miterlimit="10"/>
<path d="M98.4202 7.96002H65.7402V38.53H98.4202V7.96002Z" fill="#FBFBFB" stroke="#333333" stroke-width="0.25" stroke-miterlimit="10"/>
<path d="M65.6097 38.53H32.9297V69.1H65.6097V38.53Z" fill="#FBFBFB" stroke="#333333" stroke-width="0.25" stroke-miterlimit="10"/>
<path d="M98.4202 38.53H65.7402V69.1H98.4202V38.53Z" fill="#FBFBFB" stroke="#333333" stroke-width="0.25" stroke-miterlimit="10"/>
<path d="M131.22 69.1H98.54V99.67H131.22V69.1Z" fill="#FBFBFB" stroke="#333333" stroke-width="0.25" stroke-miterlimit="10"/>
<path d="M164.031 69.1H131.351V99.67H164.031V69.1Z" fill="#FBFBFB" stroke="#333333" stroke-width="0.25" stroke-miterlimit="10"/>
<path d="M131.22 99.67H98.54V130.24H131.22V99.67Z" fill="#FBFBFB" stroke="#333333" stroke-width="0.25" stroke-miterlimit="10"/>
<path d="M164.031 99.67H131.351V130.24H164.031V99.67Z" fill="#FBFBFB" stroke="#333333" stroke-width="0.25" stroke-miterlimit="10"/>
<path d="M65.6097 69.1H32.9297V99.67H65.6097V69.1Z" fill="#FBFBFB" stroke="#333333" stroke-width="0.25" stroke-miterlimit="10"/>
<path d="M98.4202 69.1H65.7402V99.67H98.4202V69.1Z" fill="#FBFBFB" stroke="#333333" stroke-width="0.25" stroke-miterlimit="10"/>
<path d="M65.6097 99.67H32.9297V130.24H65.6097V99.67Z" fill="#FBFBFB" stroke="#333333" stroke-width="0.25" stroke-miterlimit="10"/>
<path d="M98.4202 99.67H65.7402V130.24H98.4202V99.67Z" fill="#FBFBFB" stroke="#333333" stroke-width="0.25" stroke-miterlimit="10"/>
<path d="M262.44 7.96002H229.76V38.53H262.44V7.96002Z" fill="#FBFBFB" stroke="#333333" stroke-width="0.25" stroke-miterlimit="10"/>
<path d="M295.25 7.96002H262.57V38.53H295.25V7.96002Z" fill="#FBFBFB" stroke="#333333" stroke-width="0.25" stroke-miterlimit="10"/>
<path d="M262.44 38.53H229.76V69.1H262.44V38.53Z" fill="#FBFBFB" stroke="#333333" stroke-width="0.25" stroke-miterlimit="10"/>
<path d="M295.25 38.53H262.57V69.1H295.25V38.53Z" fill="#FBFBFB" stroke="#333333" stroke-width="0.25" stroke-miterlimit="10"/>
<path d="M196.83 7.96002H164.15V38.53H196.83V7.96002Z" fill="#FBFBFB" stroke="#333333" stroke-width="0.25" stroke-miterlimit="10"/>
<path d="M229.64 7.96002H196.96V38.53H229.64V7.96002Z" fill="#FBFBFB" stroke="#333333" stroke-width="0.25" stroke-miterlimit="10"/>
<path d="M196.83 38.53H164.15V69.1H196.83V38.53Z" fill="#FBFBFB" stroke="#333333" stroke-width="0.25" stroke-miterlimit="10"/>
<path d="M229.64 38.53H196.96V69.1H229.64V38.53Z" fill="#FBFBFB" stroke="#333333" stroke-width="0.25" stroke-miterlimit="10"/>
<path d="M262.44 69.1H229.76V99.67H262.44V69.1Z" fill="#FBFBFB" stroke="#333333" stroke-width="0.25" stroke-miterlimit="10"/>
<path d="M295.25 69.1H262.57V99.67H295.25V69.1Z" fill="#FBFBFB" stroke="#333333" stroke-width="0.25" stroke-miterlimit="10"/>
<path d="M262.44 99.67H229.76V130.24H262.44V99.67Z" fill="#FBFBFB" stroke="#333333" stroke-width="0.25" stroke-miterlimit="10"/>
<path d="M295.25 99.67H262.57V130.24H295.25V99.67Z" fill="#FBFBFB" stroke="#333333" stroke-width="0.25" stroke-miterlimit="10"/>
<path d="M196.83 69.1H164.15V99.67H196.83V69.1Z" fill="#FBFBFB" stroke="#333333" stroke-width="0.25" stroke-miterlimit="10"/>
<path d="M229.64 69.1H196.96V99.67H229.64V69.1Z" fill="#FBFBFB" stroke="#333333" stroke-width="0.25" stroke-miterlimit="10"/>
<path d="M196.83 99.67H164.15V130.24H196.83V99.67Z" fill="#FBFBFB" stroke="#333333" stroke-width="0.25" stroke-miterlimit="10"/>
<path d="M229.64 99.67H196.96V130.24H229.64V99.67Z" fill="#FBFBFB" stroke="#333333" stroke-width="0.25" stroke-miterlimit="10"/>
<path d="M328.06 7.96002H295.38V38.53H328.06V7.96002Z" fill="#FBFBFB" stroke="#333333" stroke-width="0.25" stroke-miterlimit="10"/>
<path d="M328.06 38.53H295.38V69.1H328.06V38.53Z" fill="#FBFBFB" stroke="#333333" stroke-width="0.25" stroke-miterlimit="10"/>
<path d="M328.06 69.1H295.38V99.67H328.06V69.1Z" fill="#FBFBFB" stroke="#333333" stroke-width="0.25" stroke-miterlimit="10"/>
<path d="M328.06 99.67H295.38V130.24H328.06V99.67Z" fill="#FBFBFB" stroke="#333333" stroke-width="0.25" stroke-miterlimit="10"/>
<path d="M32.8001 130.25H0.120117V160.82H32.8001V130.25Z" fill="#FBFBFB" stroke="#333333" stroke-width="0.25" stroke-miterlimit="10"/>
<path d="M32.8001 160.82H0.120117V191.39H32.8001V160.82Z" fill="#FBFBFB" stroke="#333333" stroke-width="0.25" stroke-miterlimit="10"/>
<path d="M32.8001 191.38H0.120117V221.95H32.8001V191.38Z" fill="#FBFBFB" stroke="#333333" stroke-width="0.25" stroke-miterlimit="10"/>
<path d="M32.8001 221.95H0.120117V252.52H32.8001V221.95Z" fill="#FBFBFB" stroke="#333333" stroke-width="0.25" stroke-miterlimit="10"/>
<path d="M131.22 130.25H98.54V160.82H131.22V130.25Z" fill="#FBFBFB" stroke="#333333" stroke-width="0.25" stroke-miterlimit="10"/>
<path d="M164.031 130.25H131.351V160.82H164.031V130.25Z" fill="#FBFBFB" stroke="#333333" stroke-width="0.25" stroke-miterlimit="10"/>
<path d="M131.22 160.82H98.54V191.39H131.22V160.82Z" fill="#FBFBFB" stroke="#333333" stroke-width="0.25" stroke-miterlimit="10"/>
<path d="M164.031 160.82H131.351V191.39H164.031V160.82Z" fill="#FBFBFB" stroke="#333333" stroke-width="0.25" stroke-miterlimit="10"/>
<path d="M65.6097 130.25H32.9297V160.82H65.6097V130.25Z" fill="#FBFBFB" stroke="#333333" stroke-width="0.25" stroke-miterlimit="10"/>
<path d="M98.4202 130.25H65.7402V160.82H98.4202V130.25Z" fill="#FBFBFB" stroke="#333333" stroke-width="0.25" stroke-miterlimit="10"/>
<path d="M65.6097 160.82H32.9297V191.39H65.6097V160.82Z" fill="#FBFBFB" stroke="#333333" stroke-width="0.25" stroke-miterlimit="10"/>
<path d="M98.4202 160.82H65.7402V191.39H98.4202V160.82Z" fill="#FBFBFB" stroke="#333333" stroke-width="0.25" stroke-miterlimit="10"/>
<path d="M131.22 191.38H98.54V221.95H131.22V191.38Z" fill="#FBFBFB" stroke="#333333" stroke-width="0.25" stroke-miterlimit="10"/>
<path d="M164.031 191.38H131.351V221.95H164.031V191.38Z" fill="#FBFBFB" stroke="#333333" stroke-width="0.25" stroke-miterlimit="10"/>
<path d="M131.22 221.95H98.54V252.52H131.22V221.95Z" fill="#FBFBFB" stroke="#333333" stroke-width="0.25" stroke-miterlimit="10"/>
<path d="M164.031 221.95H131.351V252.52H164.031V221.95Z" fill="#FBFBFB" stroke="#333333" stroke-width="0.25" stroke-miterlimit="10"/>
<path d="M65.6097 191.38H32.9297V221.95H65.6097V191.38Z" fill="#FBFBFB" stroke="#333333" stroke-width="0.25" stroke-miterlimit="10"/>
<path d="M98.4202 191.38H65.7402V221.95H98.4202V191.38Z" fill="#FBFBFB" stroke="#333333" stroke-width="0.25" stroke-miterlimit="10"/>
<path d="M65.6097 221.95H32.9297V252.52H65.6097V221.95Z" fill="#FBFBFB" stroke="#333333" stroke-width="0.25" stroke-miterlimit="10"/>
<path d="M98.4202 221.95H65.7402V252.52H98.4202V221.95Z" fill="#FBFBFB" stroke="#333333" stroke-width="0.25" stroke-miterlimit="10"/>
<path d="M262.44 130.25H229.76V160.82H262.44V130.25Z" fill="#FBFBFB" stroke="#333333" stroke-width="0.25" stroke-miterlimit="10"/>
<path d="M295.25 130.25H262.57V160.82H295.25V130.25Z" fill="#FBFBFB" stroke="#333333" stroke-width="0.25" stroke-miterlimit="10"/>
<path d="M262.44 160.82H229.76V191.39H262.44V160.82Z" fill="#FBFBFB" stroke="#333333" stroke-width="0.25" stroke-miterlimit="10"/>
<path d="M295.25 160.82H262.57V191.39H295.25V160.82Z" fill="#FBFBFB" stroke="#333333" stroke-width="0.25" stroke-miterlimit="10"/>
<path d="M196.83 130.25H164.15V160.82H196.83V130.25Z" fill="#FBFBFB" stroke="#333333" stroke-width="0.25" stroke-miterlimit="10"/>
<path d="M229.64 130.25H196.96V160.82H229.64V130.25Z" fill="#FBFBFB" stroke="#333333" stroke-width="0.25" stroke-miterlimit="10"/>
<path d="M196.83 160.82H164.15V191.39H196.83V160.82Z" fill="#FBFBFB" stroke="#333333" stroke-width="0.25" stroke-miterlimit="10"/>
<path d="M229.64 160.82H196.96V191.39H229.64V160.82Z" fill="#FBFBFB" stroke="#333333" stroke-width="0.25" stroke-miterlimit="10"/>
<path d="M262.44 191.38H229.76V221.95H262.44V191.38Z" fill="#FBFBFB" stroke="#333333" stroke-width="0.25" stroke-miterlimit="10"/>
<path d="M295.25 191.38H262.57V221.95H295.25V191.38Z" fill="#FBFBFB" stroke="#333333" stroke-width="0.25" stroke-miterlimit="10"/>
<path d="M262.44 221.95H229.76V252.52H262.44V221.95Z" fill="#FBFBFB" stroke="#333333" stroke-width="0.25" stroke-miterlimit="10"/>
<path d="M295.25 221.95H262.57V252.52H295.25V221.95Z" fill="#FBFBFB" stroke="#333333" stroke-width="0.25" stroke-miterlimit="10"/>
<path d="M196.83 191.38H164.15V221.95H196.83V191.38Z" fill="#FBFBFB" stroke="#333333" stroke-width="0.25" stroke-miterlimit="10"/>
<path d="M229.64 191.38H196.96V221.95H229.64V191.38Z" fill="#FBFBFB" stroke="#333333" stroke-width="0.25" stroke-miterlimit="10"/>
<path d="M196.83 221.95H164.15V252.52H196.83V221.95Z" fill="#FBFBFB" stroke="#333333" stroke-width="0.25" stroke-miterlimit="10"/>
<path d="M229.64 221.95H196.96V252.52H229.64V221.95Z" fill="#FBFBFB" stroke="#333333" stroke-width="0.25" stroke-miterlimit="10"/>
<path d="M328.06 130.25H295.38V160.82H328.06V130.25Z" fill="#FBFBFB" stroke="#333333" stroke-width="0.25" stroke-miterlimit="10"/>
<path d="M328.06 160.82H295.38V191.39H328.06V160.82Z" fill="#FBFBFB" stroke="#333333" stroke-width="0.25" stroke-miterlimit="10"/>
<path d="M328.06 191.38H295.38V221.95H328.06V191.38Z" fill="#FBFBFB" stroke="#333333" stroke-width="0.25" stroke-miterlimit="10"/>
<path d="M328.06 221.95H295.38V252.52H328.06V221.95Z" fill="#FBFBFB" stroke="#333333" stroke-width="0.25" stroke-miterlimit="10"/>
<path d="M32.8001 252.52H0.120117V283.09H32.8001V252.52Z" fill="#FBFBFB" stroke="#333333" stroke-width="0.25" stroke-miterlimit="10"/>
<path d="M32.8001 283.09H0.120117V313.66H32.8001V283.09Z" fill="#FBFBFB" stroke="#333333" stroke-width="0.25" stroke-miterlimit="10"/>
<path d="M32.8001 313.65H0.120117V344.22H32.8001V313.65Z" fill="#FBFBFB" stroke="#333333" stroke-width="0.25" stroke-miterlimit="10"/>
<path d="M131.22 252.52H98.54V283.09H131.22V252.52Z" fill="#FBFBFB" stroke="#333333" stroke-width="0.25" stroke-miterlimit="10"/>
<path d="M164.031 252.52H131.351V283.09H164.031V252.52Z" fill="#FBFBFB" stroke="#333333" stroke-width="0.25" stroke-miterlimit="10"/>
<path d="M131.22 283.09H98.54V313.66H131.22V283.09Z" fill="#FBFBFB" stroke="#333333" stroke-width="0.25" stroke-miterlimit="10"/>
<path d="M164.031 283.09H131.351V313.66H164.031V283.09Z" fill="#FBFBFB" stroke="#333333" stroke-width="0.25" stroke-miterlimit="10"/>
<path d="M65.6097 252.52H32.9297V283.09H65.6097V252.52Z" fill="#FBFBFB" stroke="#333333" stroke-width="0.25" stroke-miterlimit="10"/>
<path d="M98.4202 252.52H65.7402V283.09H98.4202V252.52Z" fill="#FBFBFB" stroke="#333333" stroke-width="0.25" stroke-miterlimit="10"/>
<path d="M65.6097 283.09H32.9297V313.66H65.6097V283.09Z" fill="#FBFBFB" stroke="#333333" stroke-width="0.25" stroke-miterlimit="10"/>
<path d="M98.4202 283.09H65.7402V313.66H98.4202V283.09Z" fill="#FBFBFB" stroke="#333333" stroke-width="0.25" stroke-miterlimit="10"/>
<path d="M131.22 313.65H98.54V344.22H131.22V313.65Z" fill="#FBFBFB" stroke="#333333" stroke-width="0.25" stroke-miterlimit="10"/>
<path d="M164.031 313.65H131.351V344.22H164.031V313.65Z" fill="#FBFBFB" stroke="#333333" stroke-width="0.25" stroke-miterlimit="10"/>
<path d="M65.6097 313.65H32.9297V344.22H65.6097V313.65Z" fill="#FBFBFB" stroke="#333333" stroke-width="0.25" stroke-miterlimit="10"/>
<path d="M98.4202 313.65H65.7402V344.22H98.4202V313.65Z" fill="#FBFBFB" stroke="#333333" stroke-width="0.25" stroke-miterlimit="10"/>
<path d="M262.44 252.52H229.76V283.09H262.44V252.52Z" fill="#FBFBFB" stroke="#333333" stroke-width="0.25" stroke-miterlimit="10"/>
<path d="M295.25 252.52H262.57V283.09H295.25V252.52Z" fill="#FBFBFB" stroke="#333333" stroke-width="0.25" stroke-miterlimit="10"/>
<path d="M262.44 283.09H229.76V313.66H262.44V283.09Z" fill="#FBFBFB" stroke="#333333" stroke-width="0.25" stroke-miterlimit="10"/>
<path d="M295.25 283.09H262.57V313.66H295.25V283.09Z" fill="#FBFBFB" stroke="#333333" stroke-width="0.25" stroke-miterlimit="10"/>
<path d="M196.83 252.52H164.15V283.09H196.83V252.52Z" fill="#FBFBFB" stroke="#333333" stroke-width="0.25" stroke-miterlimit="10"/>
<path d="M229.64 252.52H196.96V283.09H229.64V252.52Z" fill="#FBFBFB" stroke="#333333" stroke-width="0.25" stroke-miterlimit="10"/>
<path d="M196.83 283.09H164.15V313.66H196.83V283.09Z" fill="#FBFBFB" stroke="#333333" stroke-width="0.25" stroke-miterlimit="10"/>
<path d="M229.64 283.09H196.96V313.66H229.64V283.09Z" fill="#FBFBFB" stroke="#333333" stroke-width="0.25" stroke-miterlimit="10"/>
<path d="M262.44 313.65H229.76V344.22H262.44V313.65Z" fill="#FBFBFB" stroke="#333333" stroke-width="0.25" stroke-miterlimit="10"/>
<path d="M295.25 313.65H262.57V344.22H295.25V313.65Z" fill="#FBFBFB" stroke="#333333" stroke-width="0.25" stroke-miterlimit="10"/>
<path d="M196.83 313.65H164.15V344.22H196.83V313.65Z" fill="#FBFBFB" stroke="#333333" stroke-width="0.25" stroke-miterlimit="10"/>
<path d="M229.64 313.65H196.96V344.22H229.64V313.65Z" fill="#FBFBFB" stroke="#333333" stroke-width="0.25" stroke-miterlimit="10"/>
<path d="M328.06 252.52H295.38V283.09H328.06V252.52Z" fill="#FBFBFB" stroke="#333333" stroke-width="0.25" stroke-miterlimit="10"/>
<path d="M328.06 283.09H295.38V313.66H328.06V283.09Z" fill="#FBFBFB" stroke="#333333" stroke-width="0.25" stroke-miterlimit="10"/>
<path d="M328.06 313.65H295.38V344.22H328.06V313.65Z" fill="#FBFBFB" stroke="#333333" stroke-width="0.25" stroke-miterlimit="10"/>
<path d="M125.28 187.49L118.52 201.43C114.87 198.33 111.19 196.78 107.47 196.78C105.09 196.78 103.23 197.47 101.9 198.85C100.79 200.03 100.23 201.36 100.23 202.84C100.23 204.15 100.74 205.26 101.75 206.17C102.73 207.01 103.73 207.65 104.73 208.09C105.73 208.53 108.14 209.34 111.94 210.51C117.27 212.19 121.23 214.48 123.8 217.38C126.53 220.51 127.9 224.67 127.9 229.85C127.9 237.76 125.68 243.75 121.23 247.83C116.47 252.14 110.21 254.29 102.47 254.29C94.7304 254.29 86.9904 251.68 79.9404 246.46L87.1804 232.02C92.2304 236.7 97.2004 239.04 102.09 239.04C105.07 239.04 107.25 238.22 108.61 236.57C109.69 235.26 110.23 233.83 110.23 232.28C110.23 230.43 109.52 228.96 108.11 227.86C106.7 226.77 104.01 225.6 100.04 224.35C93.8204 222.43 89.7104 220.58 87.7004 218.8C84.2404 215.8 82.5104 211.24 82.5104 205.12C82.5104 197.95 84.7504 192.19 89.2204 187.85C93.2804 183.88 98.4304 181.89 104.65 181.89C111.7 181.89 118.57 183.76 125.27 187.49H125.28Z" stroke="#1B1B1B" stroke-width="0.75" stroke-miterlimit="10"/>
<path d="M145.901 178.3C148.341 178.3 150.421 179.21 152.141 181.03C153.851 182.85 154.711 185.04 154.711 187.59C154.711 190.14 153.851 192.39 152.141 194.21C150.431 196.03 148.361 196.94 145.951 196.94C143.541 196.94 141.391 196.03 139.711 194.21C138.001 192.36 137.141 190.12 137.141 187.49C137.141 185 138.001 182.84 139.741 181.03C141.471 179.21 143.531 178.3 145.911 178.3H145.901ZM153.711 205.62V252.48H138.091V205.62H153.711Z" stroke="#1B1B1B" stroke-width="0.75" stroke-miterlimit="10"/>
<path d="M181.861 219.4V252.47H166.241V219.4H161.101V205.62H166.241V191.53H181.861V205.62H190.771V219.4H181.861Z" stroke="#1B1B1B" stroke-width="0.75" stroke-miterlimit="10"/>
<path d="M222.201 203.9C230.961 203.9 237.811 206.73 242.731 212.38C246.791 217.03 248.831 222.58 248.831 229.04C248.831 236.65 246.161 242.88 240.831 247.72C236.071 252.06 229.781 254.23 221.971 254.23C217.021 254.23 212.381 253.1 208.061 250.85C204.031 248.73 200.871 245.5 198.581 241.16C196.611 237.49 195.631 233.32 195.631 228.64C195.631 221.4 198.301 215.33 203.631 210.41C206.301 207.99 209.601 206.22 213.541 205.11C216.461 204.3 219.351 203.9 222.211 203.9H222.201ZM222.201 218.19C219.411 218.19 217.041 219.23 215.101 221.32C213.131 223.44 212.151 225.93 212.151 228.79C212.151 231.85 213.131 234.45 215.101 236.57C217.041 238.66 219.421 239.7 222.241 239.7C225.061 239.7 227.371 238.66 229.341 236.57C231.311 234.45 232.291 231.91 232.291 228.95C232.291 225.99 231.311 223.38 229.341 221.33C227.341 219.24 224.961 218.2 222.201 218.2V218.19Z" stroke="#1B1B1B" stroke-width="0.75" stroke-miterlimit="10"/>
<path d="M178.061 85.59L192.121 71.72L164.091 43.68L136.061 71.72L191.831 127.67C182.581 137 173.331 146.32 164.091 155.65C154.761 146.32 145.431 137 136.101 127.67C140.701 123.11 145.291 118.55 149.891 113.99" stroke="#1B1B1B" stroke-width="7" stroke-miterlimit="10"/>
<path d="M199.03 78.53L219.83 99.64L199.03 120.74" stroke="#1B1B1B" stroke-width="7" stroke-miterlimit="10"/>
<path d="M129.271 120.53C122.341 113.57 115.411 106.62 108.471 99.67C115.401 92.55 122.331 85.44 129.271 78.32" stroke="#1B1B1B" stroke-width="7" stroke-miterlimit="10"/>
<path d="M98.1405 279.85C98.7205 278.8 99.5305 277.97 100.571 277.39C101.611 276.8 102.791 276.51 104.111 276.51C105.731 276.51 107.111 276.94 108.261 277.79C109.411 278.64 110.181 279.81 110.571 281.28H106.921C106.651 280.71 106.261 280.28 105.771 279.98C105.271 279.68 104.711 279.53 104.071 279.53C103.051 279.53 102.221 279.89 101.591 280.6C100.961 281.31 100.641 282.26 100.641 283.45C100.641 284.64 100.961 285.59 101.591 286.3C102.221 287.01 103.051 287.37 104.071 287.37C104.701 287.37 105.271 287.22 105.771 286.92C106.271 286.62 106.651 286.19 106.921 285.62H110.571C110.181 287.09 109.411 288.26 108.261 289.1C107.111 289.95 105.721 290.37 104.111 290.37C102.791 290.37 101.611 290.08 100.571 289.49C99.5305 288.9 98.7205 288.08 98.1405 287.04C97.5605 285.99 97.2705 284.8 97.2705 283.45C97.2705 282.1 97.5605 280.91 98.1405 279.85Z" stroke="#1B1B1B" stroke-width="0.75" stroke-miterlimit="10"/>
<path d="M115.541 289.52C114.471 288.93 113.631 288.09 113.001 287.03C112.371 285.97 112.061 284.76 112.061 283.43C112.061 282.1 112.371 280.9 113.001 279.84C113.631 278.78 114.471 277.95 115.541 277.36C116.611 276.77 117.781 276.47 119.061 276.47C120.341 276.47 121.511 276.77 122.581 277.36C123.651 277.96 124.491 278.78 125.101 279.84C125.711 280.9 126.021 282.1 126.021 283.43C126.021 284.76 125.711 285.96 125.091 287.03C124.471 288.1 123.631 288.93 122.571 289.52C121.511 290.12 120.341 290.41 119.061 290.41C117.781 290.41 116.611 290.11 115.541 289.52ZM121.671 286.3C122.321 285.58 122.651 284.62 122.651 283.43C122.651 282.24 122.321 281.27 121.671 280.55C121.021 279.83 120.151 279.47 119.061 279.47C117.971 279.47 117.081 279.83 116.431 280.54C115.781 281.25 115.451 282.21 115.451 283.43C115.451 284.65 115.781 285.59 116.431 286.31C117.081 287.03 117.961 287.39 119.061 287.39C120.161 287.39 121.021 287.03 121.671 286.3ZM121.311 273.92L116.641 275.88V273.59L121.311 271.34V273.92Z" stroke="#1B1B1B" stroke-width="0.75" stroke-miterlimit="10"/>
<path d="M136.73 277.52C137.8 278.09 138.63 278.89 139.22 279.92C139.81 280.95 140.1 282.13 140.1 283.48C140.1 284.83 139.81 286 139.22 287.03C138.63 288.07 137.8 288.87 136.72 289.44C135.64 290.01 134.39 290.29 132.97 290.29H127.87V276.67H132.97C134.41 276.67 135.66 276.95 136.73 277.52ZM135.68 286.39C136.38 285.7 136.73 284.73 136.73 283.48C136.73 282.23 136.38 281.25 135.68 280.55C134.98 279.85 134 279.5 132.75 279.5H131.18V287.42H132.75C134 287.42 134.98 287.08 135.68 286.39Z" stroke="#1B1B1B" stroke-width="0.75" stroke-miterlimit="10"/>
<path d="M145.291 276.66V290.28H141.971V276.66H145.291Z" stroke="#1B1B1B" stroke-width="0.75" stroke-miterlimit="10"/>
<path d="M156.73 280.97C156.48 280.52 156.13 280.17 155.67 279.93C155.21 279.69 154.67 279.57 154.05 279.57C152.98 279.57 152.12 279.92 151.47 280.63C150.82 281.34 150.5 282.28 150.5 283.45C150.5 284.7 150.84 285.68 151.52 286.39C152.2 287.1 153.13 287.45 154.32 287.45C155.13 287.45 155.82 287.24 156.39 286.83C156.96 286.42 157.36 285.82 157.62 285.05H153.41V282.61H160.63V285.69C160.38 286.52 159.97 287.29 159.38 288C158.79 288.71 158.04 289.29 157.14 289.73C156.23 290.17 155.21 290.39 154.07 290.39C152.73 290.39 151.53 290.1 150.47 289.51C149.42 288.92 148.59 288.1 148.01 287.06C147.42 286.01 147.13 284.82 147.13 283.47C147.13 282.12 147.42 280.93 148.01 279.87C148.6 278.82 149.42 277.99 150.46 277.41C151.51 276.82 152.7 276.53 154.05 276.53C155.68 276.53 157.05 276.92 158.17 277.71C159.29 278.5 160.03 279.59 160.39 280.99H156.72L156.73 280.97Z" stroke="#1B1B1B" stroke-width="0.75" stroke-miterlimit="10"/>
<path d="M165.39 289.52C164.32 288.93 163.48 288.09 162.85 287.03C162.22 285.97 161.91 284.76 161.91 283.43C161.91 282.1 162.22 280.9 162.85 279.84C163.48 278.78 164.32 277.95 165.39 277.36C166.46 276.77 167.63 276.47 168.91 276.47C170.19 276.47 171.36 276.77 172.43 277.36C173.5 277.96 174.34 278.78 174.95 279.84C175.56 280.9 175.87 282.1 175.87 283.43C175.87 284.76 175.56 285.96 174.94 287.03C174.32 288.1 173.48 288.93 172.42 289.52C171.36 290.12 170.19 290.41 168.91 290.41C167.63 290.41 166.46 290.11 165.39 289.52ZM171.52 286.3C172.17 285.58 172.5 284.62 172.5 283.43C172.5 282.24 172.17 281.27 171.52 280.55C170.87 279.83 170 279.47 168.91 279.47C167.82 279.47 166.93 279.83 166.28 280.54C165.63 281.25 165.3 282.21 165.3 283.43C165.3 284.65 165.63 285.59 166.28 286.31C166.93 287.03 167.81 287.39 168.91 287.39C170.01 287.39 170.87 287.03 171.52 286.3Z" stroke="#1B1B1B" stroke-width="0.75" stroke-miterlimit="10"/>
<path d="M179.97 289.93C179.18 289.61 178.55 289.13 178.08 288.49C177.61 287.85 177.36 287.09 177.33 286.2H180.86C180.91 286.7 181.09 287.09 181.38 287.35C181.68 287.62 182.07 287.75 182.54 287.75C183.01 287.75 183.42 287.64 183.7 287.41C183.98 287.18 184.13 286.87 184.13 286.47C184.13 286.13 184.02 285.86 183.79 285.64C183.56 285.42 183.29 285.24 182.96 285.1C182.63 284.96 182.16 284.8 181.55 284.61C180.67 284.34 179.95 284.07 179.4 283.8C178.84 283.53 178.36 283.13 177.96 282.6C177.56 282.07 177.36 281.38 177.36 280.52C177.36 279.25 177.82 278.26 178.74 277.54C179.66 276.82 180.85 276.46 182.33 276.46C183.81 276.46 185.04 276.82 185.96 277.54C186.88 278.26 187.37 279.26 187.43 280.54H183.84C183.81 280.1 183.65 279.75 183.36 279.5C183.06 279.25 182.68 279.12 182.21 279.12C181.81 279.12 181.49 279.23 181.24 279.44C180.99 279.65 180.87 279.96 180.87 280.36C180.87 280.8 181.08 281.14 181.49 281.39C181.9 281.64 182.55 281.9 183.43 282.19C184.31 282.49 185.02 282.77 185.57 283.04C186.12 283.31 186.6 283.71 187 284.22C187.4 284.74 187.6 285.4 187.6 286.22C187.6 287.04 187.4 287.7 187.01 288.33C186.62 288.96 186.04 289.47 185.29 289.84C184.54 290.21 183.65 290.4 182.63 290.4C181.61 290.4 180.74 290.24 179.95 289.92L179.97 289.93Z" stroke="#1B1B1B" stroke-width="0.75" stroke-miterlimit="10"/>
<path d="M203.47 292.61L201.72 290.26C201.2 290.36 200.7 290.42 200.21 290.42C198.93 290.42 197.76 290.12 196.69 289.53C195.62 288.94 194.78 288.1 194.15 287.04C193.52 285.98 193.21 284.77 193.21 283.44C193.21 282.11 193.52 280.91 194.15 279.85C194.78 278.79 195.62 277.96 196.69 277.37C197.76 276.78 198.93 276.48 200.21 276.48C201.49 276.48 202.66 276.78 203.73 277.37C204.8 277.97 205.64 278.79 206.25 279.85C206.86 280.91 207.17 282.11 207.17 283.44C207.17 284.6 206.93 285.67 206.46 286.63C205.99 287.59 205.33 288.39 204.49 289.03L207.48 292.62H203.46L203.47 292.61ZM197.58 286.31C198.23 287.03 199.11 287.39 200.21 287.39C201.31 287.39 202.17 287.03 202.82 286.3C203.47 285.58 203.8 284.62 203.8 283.43C203.8 282.24 203.47 281.27 202.82 280.55C202.17 279.83 201.3 279.47 200.21 279.47C199.12 279.47 198.23 279.83 197.58 280.54C196.93 281.25 196.6 282.21 196.6 283.43C196.6 284.65 196.93 285.59 197.58 286.31Z" stroke="#1B1B1B" stroke-width="0.75" stroke-miterlimit="10"/>
<path d="M212.31 276.66V284.81C212.31 285.62 212.51 286.25 212.91 286.69C213.31 287.13 213.9 287.35 214.68 287.35C215.46 287.35 216.05 287.13 216.46 286.69C216.87 286.25 217.08 285.62 217.08 284.81V276.66H220.4V284.79C220.4 286.01 220.14 287.03 219.62 287.87C219.1 288.71 218.41 289.34 217.54 289.77C216.67 290.2 215.69 290.41 214.62 290.41C213.55 290.41 212.59 290.2 211.74 289.78C210.89 289.36 210.22 288.73 209.73 287.88C209.24 287.03 208.99 286 208.99 284.79V276.66H212.31Z" stroke="#1B1B1B" stroke-width="0.75" stroke-miterlimit="10"/>
<path d="M226.05 279.32V282.07H230.49V284.63H226.05V287.62H231.07V290.28H222.73V276.66H231.07V279.32H226.05Z" stroke="#1B1B1B" stroke-width="0.75" stroke-miterlimit="10"/>
<path d="M66.6903 303.13C67.2703 302.08 68.0803 301.25 69.1203 300.67C70.1603 300.08 71.3403 299.79 72.6603 299.79C74.2803 299.79 75.6603 300.22 76.8103 301.07C77.9603 301.92 78.7303 303.09 79.1203 304.56H75.4703C75.2003 303.99 74.8103 303.56 74.3203 303.26C73.8203 302.96 73.2603 302.81 72.6203 302.81C71.6003 302.81 70.7703 303.17 70.1403 303.88C69.5103 304.59 69.1903 305.54 69.1903 306.73C69.1903 307.92 69.5103 308.87 70.1403 309.58C70.7703 310.29 71.6003 310.65 72.6203 310.65C73.2503 310.65 73.8203 310.5 74.3203 310.2C74.8203 309.9 75.2003 309.47 75.4703 308.9H79.1203C78.7303 310.37 77.9603 311.54 76.8103 312.38C75.6603 313.23 74.2703 313.65 72.6603 313.65C71.3403 313.65 70.1603 313.36 69.1203 312.77C68.0803 312.18 67.2703 311.36 66.6903 310.32C66.1103 309.27 65.8203 308.08 65.8203 306.73C65.8203 305.38 66.1103 304.19 66.6903 303.13Z" stroke="#1B1B1B" stroke-width="0.75" stroke-miterlimit="10"/>
<path d="M84.0806 312.8C83.0106 312.21 82.1706 311.37 81.5406 310.31C80.9106 309.25 80.6006 308.04 80.6006 306.71C80.6006 305.38 80.9106 304.18 81.5406 303.12C82.1706 302.06 83.0106 301.23 84.0806 300.64C85.1506 300.05 86.3206 299.75 87.6006 299.75C88.8806 299.75 90.0506 300.05 91.1206 300.64C92.1906 301.24 93.0306 302.06 93.6406 303.12C94.2506 304.18 94.5606 305.38 94.5606 306.71C94.5606 308.04 94.2506 309.24 93.6306 310.31C93.0106 311.38 92.1706 312.21 91.1106 312.8C90.0506 313.4 88.8806 313.69 87.6006 313.69C86.3206 313.69 85.1506 313.39 84.0806 312.8ZM90.2106 309.58C90.8606 308.86 91.1906 307.9 91.1906 306.71C91.1906 305.52 90.8606 304.55 90.2106 303.83C89.5606 303.11 88.6906 302.75 87.6006 302.75C86.5106 302.75 85.6206 303.11 84.9706 303.82C84.3206 304.53 83.9906 305.49 83.9906 306.71C83.9906 307.93 84.3206 308.87 84.9706 309.59C85.6206 310.31 86.5006 310.67 87.6006 310.67C88.7006 310.67 89.5606 310.31 90.2106 309.58Z" stroke="#1B1B1B" stroke-width="0.75" stroke-miterlimit="10"/>
<path d="M108.59 313.56H105.27L99.7204 305.16V313.56H96.4004V299.94H99.7204L105.27 308.38V299.94H108.59V313.56Z" stroke="#1B1B1B" stroke-width="0.75" stroke-miterlimit="10"/>
<path d="M114.31 302.6V305.35H118.75V307.91H114.31V310.9H119.33V313.56H110.99V299.94H119.33V302.6H114.31Z" stroke="#1B1B1B" stroke-width="0.75" stroke-miterlimit="10"/>
<path d="M121.801 303.13C122.381 302.08 123.191 301.25 124.231 300.67C125.271 300.08 126.451 299.79 127.771 299.79C129.391 299.79 130.771 300.22 131.921 301.07C133.071 301.92 133.841 303.09 134.231 304.56H130.581C130.311 303.99 129.921 303.56 129.431 303.26C128.931 302.96 128.371 302.81 127.731 302.81C126.711 302.81 125.881 303.17 125.251 303.88C124.621 304.59 124.301 305.54 124.301 306.73C124.301 307.92 124.621 308.87 125.251 309.58C125.881 310.29 126.711 310.65 127.731 310.65C128.361 310.65 128.931 310.5 129.431 310.2C129.931 309.9 130.311 309.47 130.581 308.9H134.231C133.841 310.37 133.071 311.54 131.921 312.38C130.771 313.23 129.381 313.65 127.771 313.65C126.451 313.65 125.271 313.36 124.231 312.77C123.191 312.18 122.381 311.36 121.801 310.32C121.221 309.27 120.931 308.08 120.931 306.73C120.931 305.38 121.221 304.19 121.801 303.13Z" stroke="#1B1B1B" stroke-width="0.75" stroke-miterlimit="10"/>
<path d="M146.07 299.94V302.6H142.46V313.56H139.14V302.6H135.53V299.94H146.06H146.07Z" stroke="#1B1B1B" stroke-width="0.75" stroke-miterlimit="10"/>
<path d="M156.22 311.16H151.14L150.33 313.57H146.86L151.79 299.95H155.63L160.56 313.57H157.05L156.24 311.16H156.22ZM155.37 308.6L153.68 303.61L152.01 308.6H155.37Z" stroke="#1B1B1B" stroke-width="0.75" stroke-miterlimit="10"/>
<path d="M174.22 313.56H170.9L165.35 305.16V313.56H162.03V299.94H165.35L170.9 308.38V299.94H174.22V313.56Z" stroke="#1B1B1B" stroke-width="0.75" stroke-miterlimit="10"/>
<path d="M192.421 299.94L187.711 309.06V313.56H184.391V309.06L179.681 299.94H183.441L186.081 305.64L188.701 299.94H192.421Z" stroke="#1B1B1B" stroke-width="0.75" stroke-miterlimit="10"/>
<path d="M198.181 303.13C198.761 302.08 199.571 301.25 200.611 300.67C201.651 300.08 202.831 299.79 204.151 299.79C205.771 299.79 207.151 300.22 208.301 301.07C209.451 301.92 210.221 303.09 210.611 304.56H206.961C206.691 303.99 206.301 303.56 205.811 303.26C205.311 302.96 204.751 302.81 204.111 302.81C203.091 302.81 202.261 303.17 201.631 303.88C201.001 304.59 200.681 305.54 200.681 306.73C200.681 307.92 201.001 308.87 201.631 309.58C202.261 310.29 203.091 310.65 204.111 310.65C204.741 310.65 205.311 310.5 205.811 310.2C206.311 309.9 206.691 309.47 206.961 308.9H210.611C210.221 310.37 209.451 311.54 208.301 312.38C207.151 313.23 205.761 313.65 204.151 313.65C202.831 313.65 201.651 313.36 200.611 312.77C199.571 312.18 198.761 311.36 198.181 310.32C197.601 309.27 197.311 308.08 197.311 306.73C197.311 305.38 197.601 304.19 198.181 303.13Z" stroke="#1B1B1B" stroke-width="0.75" stroke-miterlimit="10"/>
<path d="M219.6 313.56L216.77 308.42H215.98V313.56H212.66V299.94H218.23C219.3 299.94 220.22 300.13 220.98 300.5C221.74 300.87 222.3 301.39 222.68 302.04C223.06 302.69 223.24 303.42 223.24 304.22C223.24 305.13 222.99 305.93 222.47 306.65C221.96 307.36 221.21 307.87 220.21 308.16L223.35 313.55H219.61L219.6 313.56ZM215.97 306.07H218.03C218.64 306.07 219.09 305.92 219.4 305.62C219.7 305.32 219.86 304.9 219.86 304.36C219.86 303.82 219.71 303.44 219.4 303.14C219.1 302.84 218.64 302.69 218.03 302.69H215.97V306.07Z" stroke="#1B1B1B" stroke-width="0.75" stroke-miterlimit="10"/>
<path d="M228.621 302.6V305.35H233.061V307.91H228.621V310.9H233.641V313.56H225.301V299.94H233.641V302.6H228.621Z" stroke="#1B1B1B" stroke-width="0.75" stroke-miterlimit="10"/>
<path d="M244.27 311.16H239.19L238.38 313.57H234.91L239.84 299.95H243.68L248.61 313.57H245.1L244.29 311.16H244.27ZM243.42 308.6L241.73 303.61L240.06 308.6H243.42Z" stroke="#1B1B1B" stroke-width="0.75" stroke-miterlimit="10"/>
<path d="M262.28 313.56H258.96L253.41 305.16V313.56H250.09V299.94H253.41L258.96 308.38V299.94H262.28V313.56Z" stroke="#1B1B1B" stroke-width="0.75" stroke-miterlimit="10"/>
<path d="M331.15 7.96002H357.84" stroke="#333333" stroke-width="0.25" stroke-miterlimit="10"/>
<path d="M331.2 38.53L357.84 38.42" stroke="#333333" stroke-width="0.25" stroke-miterlimit="10"/>
<path d="M353.07 7.96002V38.53" stroke="#333333" stroke-width="0.25" stroke-miterlimit="10"/>
<path d="M351.84 9.58002C352.04 9.33002 352.24 9.08002 352.44 8.83002C352.64 8.58002 352.84 8.33002 353.04 8.08002C353.46 8.58002 353.87 9.07002 354.29 9.57002" stroke="#333333" stroke-width="0.25" stroke-miterlimit="10"/>
<path d="M354.3 36.95C354.09 37.19 353.89 37.44 353.68 37.68C353.47 37.92 353.27 38.17 353.06 38.41C352.66 37.9 352.25 37.4 351.85 36.89" stroke="#333333" stroke-width="0.25" stroke-miterlimit="10"/>
<path d="M358.83 23.08L360.24 20.77H361.51L359.44 23.9L361.58 27.11H360.33L358.87 24.74L357.41 27.11H356.15L358.29 23.9L356.22 20.77H357.47L358.86 23.08H358.83Z" fill="#1B1B1B"/>
<path d="M362.861 27.84H361.931L365.491 18.58H366.421L362.861 27.84Z" fill="#1B1B1B"/>
<path d="M373.07 27.11H367.48V26.33L370.43 23.05C370.87 22.55 371.17 22.15 371.34 21.84C371.51 21.53 371.59 21.21 371.59 20.88C371.59 20.43 371.46 20.07 371.19 19.78C370.92 19.49 370.56 19.35 370.11 19.35C369.57 19.35 369.15 19.5 368.85 19.81C368.55 20.12 368.4 20.54 368.4 21.09H367.32C367.32 20.3 367.57 19.67 368.08 19.19C368.59 18.71 369.26 18.46 370.11 18.46C370.9 18.46 371.53 18.67 371.99 19.08C372.45 19.49 372.68 20.05 372.68 20.74C372.68 21.58 372.14 22.58 371.07 23.74L368.78 26.22H373.06V27.1L373.07 27.11Z" fill="#1B1B1B"/>
</g>
<defs>
<clipPath id="clip0_310_646">
<rect width="373.07" height="344.35" fill="white"/>
</clipPath>
</defs>
</svg>
