<svg width="471" height="184" viewBox="0 0 471 184" fill="none" xmlns="http://www.w3.org/2000/svg">
<g clip-path="url(#clip0_310_858)">
<path d="M429.05 0.119995H455.74" stroke="#333333" stroke-width="0.25" stroke-miterlimit="10"/>
<path d="M429.1 30.69L455.74 30.58" stroke="#333333" stroke-width="0.25" stroke-miterlimit="10"/>
<path d="M450.97 0.119995L450.98 30.69" stroke="#333333" stroke-width="0.25" stroke-miterlimit="10"/>
<path d="M449.75 1.73999C449.95 1.48999 450.15 1.23999 450.35 0.98999C450.55 0.73999 450.75 0.48999 450.95 0.23999C451.37 0.73999 451.78 1.22999 452.2 1.72999" stroke="#333333" stroke-width="0.25" stroke-miterlimit="10"/>
<path d="M452.2 29.1101C451.99 29.3501 451.79 29.6 451.58 29.84C451.37 30.08 451.17 30.33 450.96 30.57C450.56 30.06 450.15 29.56 449.75 29.05" stroke="#333333" stroke-width="0.25" stroke-miterlimit="10"/>
<path d="M456.73 15.2401L458.14 12.9301H459.41L457.34 16.0601L459.48 19.2701H458.23L456.77 16.9001L455.31 19.2701H454.05L456.19 16.0601L454.12 12.9301H455.37L456.76 15.2401H456.73Z" fill="#1B1B1B"/>
<path d="M460.77 20H459.84L463.4 10.74H464.33L460.77 20Z" fill="#1B1B1B"/>
<path d="M470.979 19.27H465.389V18.49L468.339 15.21C468.779 14.71 469.079 14.31 469.249 14C469.419 13.69 469.499 13.37 469.499 13.04C469.499 12.59 469.369 12.23 469.099 11.94C468.829 11.65 468.469 11.51 468.019 11.51C467.479 11.51 467.059 11.66 466.759 11.97C466.459 12.28 466.309 12.7 466.309 13.25H465.229C465.229 12.46 465.479 11.83 465.989 11.35C466.499 10.87 467.169 10.62 468.019 10.62C468.809 10.62 469.439 10.83 469.899 11.24C470.359 11.65 470.589 12.21 470.589 12.9C470.589 13.74 470.049 14.74 468.979 15.9L466.689 18.38H470.969V19.26L470.979 19.27Z" fill="#1B1B1B"/>
<path d="M65.6097 0.119995H32.9297V30.69H65.6097V0.119995Z" fill="white" stroke="#333333" stroke-width="0.25" stroke-miterlimit="10"/>
<path d="M98.4202 0.119995H65.7402V30.69H98.4202V0.119995Z" fill="white" stroke="#333333" stroke-width="0.25" stroke-miterlimit="10"/>
<path d="M32.8001 0.119995H0.120117V30.69H32.8001V0.119995Z" fill="white" stroke="#333333" stroke-width="0.25" stroke-miterlimit="10"/>
<path d="M65.6097 30.6899H32.9297V61.2599H65.6097V30.6899Z" fill="white" stroke="#333333" stroke-width="0.25" stroke-miterlimit="10"/>
<path d="M98.4202 30.6899H65.7402V61.2599H98.4202V30.6899Z" fill="white" stroke="#333333" stroke-width="0.25" stroke-miterlimit="10"/>
<path d="M65.6097 61.26H32.9297V91.83H65.6097V61.26Z" fill="white" stroke="#333333" stroke-width="0.25" stroke-miterlimit="10"/>
<path d="M98.4202 61.26H65.7402V91.83H98.4202V61.26Z" fill="white" stroke="#333333" stroke-width="0.25" stroke-miterlimit="10"/>
<path d="M32.8001 30.6899H0.120117V61.2599H32.8001V30.6899Z" fill="white" stroke="#333333" stroke-width="0.25" stroke-miterlimit="10"/>
<path d="M32.8001 61.26H0.120117V91.83H32.8001V61.26Z" fill="white" stroke="#333333" stroke-width="0.25" stroke-miterlimit="10"/>
<path d="M196.83 0.130005H164.15V30.7H196.83V0.130005Z" fill="white" stroke="#333333" stroke-width="0.25" stroke-miterlimit="10"/>
<path d="M229.64 0.130005H196.96V30.7H229.64V0.130005Z" fill="white" stroke="#333333" stroke-width="0.25" stroke-miterlimit="10"/>
<path d="M131.22 0.130005H98.54V30.7H131.22V0.130005Z" fill="white" stroke="#333333" stroke-width="0.25" stroke-miterlimit="10"/>
<path d="M164.031 0.130005H131.351V30.7H164.031V0.130005Z" fill="white" stroke="#333333" stroke-width="0.25" stroke-miterlimit="10"/>
<path d="M196.83 30.6899H164.15V61.2599H196.83V30.6899Z" fill="white" stroke="#333333" stroke-width="0.25" stroke-miterlimit="10"/>
<path d="M229.64 30.6899H196.96V61.2599H229.64V30.6899Z" fill="white" stroke="#333333" stroke-width="0.25" stroke-miterlimit="10"/>
<path d="M196.83 61.26H164.15V91.83H196.83V61.26Z" fill="white" stroke="#333333" stroke-width="0.25" stroke-miterlimit="10"/>
<path d="M229.64 61.26H196.96V91.83H229.64V61.26Z" fill="white" stroke="#333333" stroke-width="0.25" stroke-miterlimit="10"/>
<path d="M131.22 30.6899H98.54V61.2599H131.22V30.6899Z" fill="white" stroke="#333333" stroke-width="0.25" stroke-miterlimit="10"/>
<path d="M164.031 30.6899H131.351V61.2599H164.031V30.6899Z" fill="white" stroke="#333333" stroke-width="0.25" stroke-miterlimit="10"/>
<path d="M131.22 61.26H98.54V91.83H131.22V61.26Z" fill="white" stroke="#333333" stroke-width="0.25" stroke-miterlimit="10"/>
<path d="M164.031 61.26H131.351V91.83H164.031V61.26Z" fill="white" stroke="#333333" stroke-width="0.25" stroke-miterlimit="10"/>
<path d="M328.06 0.119995H295.38V30.69H328.06V0.119995Z" fill="white" stroke="#333333" stroke-width="0.25" stroke-miterlimit="10"/>
<path d="M360.86 0.119995H328.18V30.69H360.86V0.119995Z" fill="white" stroke="#333333" stroke-width="0.25" stroke-miterlimit="10"/>
<path d="M262.44 0.119995H229.76V30.69H262.44V0.119995Z" fill="white" stroke="#333333" stroke-width="0.25" stroke-miterlimit="10"/>
<path d="M295.25 0.119995H262.57V30.69H295.25V0.119995Z" fill="white" stroke="#333333" stroke-width="0.25" stroke-miterlimit="10"/>
<path d="M328.06 30.6899H295.38V61.2599H328.06V30.6899Z" fill="white" stroke="#333333" stroke-width="0.25" stroke-miterlimit="10"/>
<path d="M360.86 30.6899H328.18V61.2599H360.86V30.6899Z" fill="white" stroke="#333333" stroke-width="0.25" stroke-miterlimit="10"/>
<path d="M328.06 61.26H295.38V91.83H328.06V61.26Z" fill="white" stroke="#333333" stroke-width="0.25" stroke-miterlimit="10"/>
<path d="M360.86 61.26H328.18V91.83H360.86V61.26Z" fill="white" stroke="#333333" stroke-width="0.25" stroke-miterlimit="10"/>
<path d="M262.44 30.6899H229.76V61.2599H262.44V30.6899Z" fill="white" stroke="#333333" stroke-width="0.25" stroke-miterlimit="10"/>
<path d="M295.25 30.6899H262.57V61.2599H295.25V30.6899Z" fill="white" stroke="#333333" stroke-width="0.25" stroke-miterlimit="10"/>
<path d="M262.44 61.26H229.76V91.83H262.44V61.26Z" fill="white" stroke="#333333" stroke-width="0.25" stroke-miterlimit="10"/>
<path d="M295.25 61.26H262.57V91.83H295.25V61.26Z" fill="white" stroke="#333333" stroke-width="0.25" stroke-miterlimit="10"/>
<path d="M393.67 0.130005H360.99V30.7H393.67V0.130005Z" fill="white" stroke="#333333" stroke-width="0.25" stroke-miterlimit="10"/>
<path d="M426.47 0.130005H393.79V30.7H426.47V0.130005Z" fill="white" stroke="#333333" stroke-width="0.25" stroke-miterlimit="10"/>
<path d="M393.67 30.6899H360.99V61.2599H393.67V30.6899Z" fill="white" stroke="#333333" stroke-width="0.25" stroke-miterlimit="10"/>
<path d="M426.47 30.6899H393.79V61.2599H426.47V30.6899Z" fill="white" stroke="#333333" stroke-width="0.25" stroke-miterlimit="10"/>
<path d="M393.67 61.26H360.99V91.83H393.67V61.26Z" fill="white" stroke="#333333" stroke-width="0.25" stroke-miterlimit="10"/>
<path d="M426.47 61.26H393.79V91.83H426.47V61.26Z" fill="white" stroke="#333333" stroke-width="0.25" stroke-miterlimit="10"/>
<path d="M65.6097 91.84H32.9297V122.41H65.6097V91.84Z" fill="white" stroke="#333333" stroke-width="0.25" stroke-miterlimit="10"/>
<path d="M98.4202 91.84H65.7402V122.41H98.4202V91.84Z" fill="white" stroke="#333333" stroke-width="0.25" stroke-miterlimit="10"/>
<path d="M65.6097 122.41H32.9297V152.98H65.6097V122.41Z" fill="white" stroke="#333333" stroke-width="0.25" stroke-miterlimit="10"/>
<path d="M98.4202 122.41H65.7402V152.98H98.4202V122.41Z" fill="white" stroke="#333333" stroke-width="0.25" stroke-miterlimit="10"/>
<path d="M32.8001 91.84H0.120117V122.41H32.8001V91.84Z" fill="white" stroke="#333333" stroke-width="0.25" stroke-miterlimit="10"/>
<path d="M32.8001 122.41H0.120117V152.98H32.8001V122.41Z" fill="white" stroke="#333333" stroke-width="0.25" stroke-miterlimit="10"/>
<path d="M65.6097 152.98H32.9297V183.55H65.6097V152.98Z" fill="white" stroke="#333333" stroke-width="0.25" stroke-miterlimit="10"/>
<path d="M98.4202 152.98H65.7402V183.55H98.4202V152.98Z" fill="white" stroke="#333333" stroke-width="0.25" stroke-miterlimit="10"/>
<path d="M32.8001 152.98H0.120117V183.55H32.8001V152.98Z" fill="white" stroke="#333333" stroke-width="0.25" stroke-miterlimit="10"/>
<path d="M196.83 91.84H164.15V122.41H196.83V91.84Z" fill="white" stroke="#333333" stroke-width="0.25" stroke-miterlimit="10"/>
<path d="M229.64 91.84H196.96V122.41H229.64V91.84Z" fill="white" stroke="#333333" stroke-width="0.25" stroke-miterlimit="10"/>
<path d="M196.83 122.41H164.15V152.98H196.83V122.41Z" fill="white" stroke="#333333" stroke-width="0.25" stroke-miterlimit="10"/>
<path d="M229.64 122.41H196.96V152.98H229.64V122.41Z" fill="white" stroke="#333333" stroke-width="0.25" stroke-miterlimit="10"/>
<path d="M131.22 91.84H98.54V122.41H131.22V91.84Z" fill="white" stroke="#333333" stroke-width="0.25" stroke-miterlimit="10"/>
<path d="M164.031 91.84H131.351V122.41H164.031V91.84Z" fill="white" stroke="#333333" stroke-width="0.25" stroke-miterlimit="10"/>
<path d="M131.22 122.41H98.54V152.98H131.22V122.41Z" fill="white" stroke="#333333" stroke-width="0.25" stroke-miterlimit="10"/>
<path d="M164.031 122.41H131.351V152.98H164.031V122.41Z" fill="white" stroke="#333333" stroke-width="0.25" stroke-miterlimit="10"/>
<path d="M196.83 152.98H164.15V183.55H196.83V152.98Z" fill="white" stroke="#333333" stroke-width="0.25" stroke-miterlimit="10"/>
<path d="M229.64 152.98H196.96V183.55H229.64V152.98Z" fill="white" stroke="#333333" stroke-width="0.25" stroke-miterlimit="10"/>
<path d="M131.22 152.98H98.54V183.55H131.22V152.98Z" fill="white" stroke="#333333" stroke-width="0.25" stroke-miterlimit="10"/>
<path d="M164.031 152.98H131.351V183.55H164.031V152.98Z" fill="white" stroke="#333333" stroke-width="0.25" stroke-miterlimit="10"/>
<path d="M328.06 91.84H295.38V122.41H328.06V91.84Z" fill="white" stroke="#333333" stroke-width="0.25" stroke-miterlimit="10"/>
<path d="M360.86 91.84H328.18V122.41H360.86V91.84Z" fill="white" stroke="#333333" stroke-width="0.25" stroke-miterlimit="10"/>
<path d="M328.06 122.41H295.38V152.98H328.06V122.41Z" fill="white" stroke="#333333" stroke-width="0.25" stroke-miterlimit="10"/>
<path d="M360.86 122.41H328.18V152.98H360.86V122.41Z" fill="white" stroke="#333333" stroke-width="0.25" stroke-miterlimit="10"/>
<path d="M262.44 91.84H229.76V122.41H262.44V91.84Z" fill="white" stroke="#333333" stroke-width="0.25" stroke-miterlimit="10"/>
<path d="M295.25 91.84H262.57V122.41H295.25V91.84Z" fill="white" stroke="#333333" stroke-width="0.25" stroke-miterlimit="10"/>
<path d="M262.44 122.41H229.76V152.98H262.44V122.41Z" fill="white" stroke="#333333" stroke-width="0.25" stroke-miterlimit="10"/>
<path d="M295.25 122.41H262.57V152.98H295.25V122.41Z" fill="white" stroke="#333333" stroke-width="0.25" stroke-miterlimit="10"/>
<path d="M328.06 152.98H295.38V183.55H328.06V152.98Z" fill="white" stroke="#333333" stroke-width="0.25" stroke-miterlimit="10"/>
<path d="M360.86 152.98H328.18V183.55H360.86V152.98Z" fill="white" stroke="#333333" stroke-width="0.25" stroke-miterlimit="10"/>
<path d="M262.44 152.98H229.76V183.55H262.44V152.98Z" fill="white" stroke="#333333" stroke-width="0.25" stroke-miterlimit="10"/>
<path d="M295.25 152.98H262.57V183.55H295.25V152.98Z" fill="white" stroke="#333333" stroke-width="0.25" stroke-miterlimit="10"/>
<path d="M393.67 91.84H360.99V122.41H393.67V91.84Z" fill="white" stroke="#333333" stroke-width="0.25" stroke-miterlimit="10"/>
<path d="M426.47 91.84H393.79V122.41H426.47V91.84Z" fill="white" stroke="#333333" stroke-width="0.25" stroke-miterlimit="10"/>
<path d="M393.67 122.41H360.99V152.98H393.67V122.41Z" fill="white" stroke="#333333" stroke-width="0.25" stroke-miterlimit="10"/>
<path d="M426.47 122.41H393.79V152.98H426.47V122.41Z" fill="white" stroke="#333333" stroke-width="0.25" stroke-miterlimit="10"/>
<path d="M393.67 152.98H360.99V183.55H393.67V152.98Z" fill="white" stroke="#333333" stroke-width="0.25" stroke-miterlimit="10"/>
<path d="M426.47 152.98H393.79V183.55H426.47V152.98Z" fill="white" stroke="#333333" stroke-width="0.25" stroke-miterlimit="10"/>
<path d="M114.95 77.75L129.01 63.88L100.98 35.84L72.9502 63.88L128.72 119.83C119.47 129.16 110.22 138.48 100.98 147.81C91.6502 138.48 82.3202 129.16 72.9902 119.83C77.5902 115.27 82.1802 110.71 86.7802 106.15" stroke="#1B1B1B" stroke-width="7" stroke-miterlimit="10"/>
<path d="M135.92 70.6899L156.72 91.7999L135.92 112.91" stroke="#1B1B1B" stroke-width="7" stroke-miterlimit="10"/>
<path d="M66.1604 112.69C59.2304 105.73 52.3004 98.78 45.3604 91.83C52.2904 84.71 59.2204 77.6 66.1604 70.48" stroke="#1B1B1B" stroke-width="7" stroke-miterlimit="10"/>
<path d="M221.53 26.71L214.77 40.65C211.12 37.55 207.44 36 203.72 36C201.34 36 199.48 36.69 198.15 38.07C197.04 39.25 196.48 40.58 196.48 42.06C196.48 43.37 196.99 44.48 198 45.39C198.98 46.23 199.98 46.87 200.98 47.31C201.98 47.75 204.39 48.56 208.19 49.73C213.52 51.41 217.48 53.7 220.05 56.6C222.78 59.73 224.15 63.89 224.15 69.07C224.15 76.98 221.93 82.97 217.48 87.05C212.72 91.36 206.46 93.51 198.72 93.51C190.98 93.51 183.24 90.9 176.19 85.68L183.43 71.24C188.48 75.92 193.45 78.26 198.34 78.26C201.32 78.26 203.5 77.44 204.86 75.79C205.94 74.48 206.48 73.05 206.48 71.5C206.48 69.65 205.77 68.18 204.36 67.08C202.95 65.99 200.26 64.82 196.29 63.57C190.07 61.65 185.96 59.8 183.95 58.02C180.49 55.02 178.76 50.46 178.76 44.34C178.76 37.17 181 31.41 185.47 27.07C189.53 23.1 194.68 21.11 200.9 21.11C207.95 21.11 214.82 22.98 221.52 26.71H221.53Z" stroke="#1B1B1B" stroke-miterlimit="10"/>
<path d="M242.151 17.52C244.591 17.52 246.671 18.43 248.391 20.25C250.101 22.07 250.961 24.26 250.961 26.81C250.961 29.36 250.101 31.61 248.391 33.42C246.681 35.24 244.611 36.15 242.201 36.15C239.791 36.15 237.641 35.24 235.961 33.42C234.251 31.57 233.391 29.33 233.391 26.7C233.391 24.21 234.251 22.05 235.991 20.24C237.721 18.42 239.781 17.51 242.161 17.51L242.151 17.52ZM249.961 44.84V91.7H234.341V44.84H249.961Z" stroke="#1B1B1B" stroke-miterlimit="10"/>
<path d="M278.111 58.62V91.69H262.491V58.62H257.351V44.84H262.491V30.75H278.111V44.84H287.021V58.62H278.111Z" stroke="#1B1B1B" stroke-miterlimit="10"/>
<path d="M318.451 43.12C327.211 43.12 334.061 45.95 338.981 51.6C343.041 56.25 345.081 61.8 345.081 68.26C345.081 75.87 342.411 82.09 337.081 86.94C332.321 91.28 326.031 93.45 318.221 93.45C313.271 93.45 308.631 92.32 304.311 90.07C300.281 87.95 297.121 84.72 294.831 80.38C292.861 76.71 291.881 72.54 291.881 67.86C291.881 60.62 294.551 54.55 299.881 49.63C302.551 47.21 305.851 45.44 309.791 44.33C312.711 43.52 315.601 43.12 318.461 43.12H318.451ZM318.451 57.41C315.661 57.41 313.291 58.45 311.351 60.54C309.381 62.66 308.401 65.15 308.401 68.01C308.401 71.07 309.381 73.67 311.351 75.79C313.291 77.88 315.671 78.92 318.491 78.92C321.311 78.92 323.621 77.88 325.591 75.79C327.561 73.67 328.541 71.13 328.541 68.17C328.541 65.21 327.561 62.6 325.591 60.55C323.591 58.46 321.211 57.42 318.451 57.42V57.41Z" stroke="#1B1B1B" stroke-miterlimit="10"/>
<path d="M176.881 142.39C177.461 141.34 178.271 140.51 179.311 139.93C180.351 139.34 181.531 139.05 182.851 139.05C184.471 139.05 185.851 139.48 187.001 140.33C188.151 141.18 188.921 142.35 189.311 143.82H185.661C185.391 143.25 185.001 142.82 184.511 142.52C184.011 142.22 183.451 142.07 182.811 142.07C181.791 142.07 180.961 142.43 180.331 143.14C179.701 143.85 179.381 144.8 179.381 145.99C179.381 147.18 179.701 148.13 180.331 148.84C180.961 149.55 181.791 149.91 182.811 149.91C183.441 149.91 184.011 149.76 184.511 149.46C185.011 149.16 185.391 148.73 185.661 148.16H189.311C188.921 149.63 188.151 150.8 187.001 151.64C185.851 152.48 184.461 152.91 182.851 152.91C181.531 152.91 180.351 152.62 179.311 152.03C178.271 151.44 177.461 150.62 176.881 149.58C176.301 148.53 176.011 147.34 176.011 145.99C176.011 144.64 176.301 143.45 176.881 142.39Z" stroke="#1B1B1B" stroke-width="0.75" stroke-miterlimit="10"/>
<path d="M194.271 152.06C193.201 151.47 192.361 150.63 191.731 149.57C191.101 148.5 190.791 147.3 190.791 145.97C190.791 144.64 191.101 143.44 191.731 142.38C192.361 141.32 193.201 140.49 194.271 139.9C195.341 139.31 196.511 139.01 197.791 139.01C199.071 139.01 200.241 139.31 201.311 139.9C202.381 140.5 203.221 141.32 203.831 142.38C204.441 143.44 204.751 144.64 204.751 145.97C204.751 147.3 204.441 148.5 203.821 149.57C203.201 150.64 202.361 151.47 201.301 152.06C200.241 152.65 199.071 152.95 197.791 152.95C196.511 152.95 195.341 152.65 194.271 152.06ZM200.401 148.84C201.051 148.12 201.381 147.16 201.381 145.97C201.381 144.78 201.051 143.81 200.401 143.09C199.751 142.37 198.881 142.01 197.791 142.01C196.701 142.01 195.811 142.37 195.161 143.08C194.511 143.79 194.181 144.75 194.181 145.97C194.181 147.19 194.511 148.13 195.161 148.85C195.811 149.57 196.691 149.93 197.791 149.93C198.891 149.93 199.751 149.57 200.401 148.84Z" stroke="#1B1B1B" stroke-width="0.75" stroke-miterlimit="10"/>
<path d="M218.781 152.82H215.461L209.911 144.42V152.82H206.591V139.2H209.911L215.461 147.64V139.2H218.781V152.82Z" stroke="#1B1B1B" stroke-width="0.75" stroke-miterlimit="10"/>
<path d="M224.51 141.86V144.61H228.95V147.17H224.51V150.16H229.53V152.82H221.19V139.2H229.53V141.86H224.51Z" stroke="#1B1B1B" stroke-width="0.75" stroke-miterlimit="10"/>
<path d="M232.001 142.39C232.581 141.34 233.391 140.51 234.431 139.93C235.471 139.34 236.651 139.05 237.971 139.05C239.591 139.05 240.971 139.48 242.121 140.33C243.271 141.18 244.041 142.35 244.431 143.82H240.781C240.511 143.25 240.121 142.82 239.631 142.52C239.131 142.22 238.571 142.07 237.931 142.07C236.911 142.07 236.081 142.43 235.451 143.14C234.821 143.85 234.501 144.8 234.501 145.99C234.501 147.18 234.821 148.13 235.451 148.84C236.081 149.55 236.911 149.91 237.931 149.91C238.561 149.91 239.131 149.76 239.631 149.46C240.131 149.16 240.511 148.73 240.781 148.16H244.431C244.041 149.63 243.271 150.8 242.121 151.64C240.971 152.48 239.581 152.91 237.971 152.91C236.651 152.91 235.471 152.62 234.431 152.03C233.391 151.44 232.581 150.62 232.001 149.58C231.421 148.53 231.131 147.34 231.131 145.99C231.131 144.64 231.421 143.45 232.001 142.39Z" stroke="#1B1B1B" stroke-width="0.75" stroke-miterlimit="10"/>
<path d="M256.261 139.2V141.86H252.651V152.82H249.331V141.86H245.721V139.2H256.251H256.261Z" stroke="#1B1B1B" stroke-width="0.75" stroke-miterlimit="10"/>
<path d="M266.411 150.41H261.331L260.521 152.82H257.051L261.981 139.2H265.821L270.751 152.82H267.241L266.431 150.41H266.411ZM265.561 147.85L263.871 142.86L262.201 147.85H265.561Z" stroke="#1B1B1B" stroke-width="0.75" stroke-miterlimit="10"/>
<path d="M284.411 152.82H281.091L275.541 144.42V152.82H272.221V139.2H275.541L281.091 147.64V139.2H284.411V152.82Z" stroke="#1B1B1B" stroke-width="0.75" stroke-miterlimit="10"/>
<path d="M302.611 139.2L297.901 148.32V152.82H294.581V148.32L289.871 139.2H293.631L296.271 144.9L298.891 139.2H302.611Z" stroke="#1B1B1B" stroke-width="0.75" stroke-miterlimit="10"/>
<path d="M308.371 142.39C308.951 141.34 309.761 140.51 310.801 139.93C311.841 139.34 313.021 139.05 314.341 139.05C315.961 139.05 317.341 139.48 318.491 140.33C319.641 141.18 320.411 142.35 320.801 143.82H317.151C316.881 143.25 316.491 142.82 316.001 142.52C315.501 142.22 314.941 142.07 314.301 142.07C313.281 142.07 312.451 142.43 311.821 143.14C311.191 143.85 310.871 144.8 310.871 145.99C310.871 147.18 311.191 148.13 311.821 148.84C312.451 149.55 313.281 149.91 314.301 149.91C314.931 149.91 315.501 149.76 316.001 149.46C316.501 149.16 316.881 148.73 317.151 148.16H320.801C320.411 149.63 319.641 150.8 318.491 151.64C317.341 152.48 315.951 152.91 314.341 152.91C313.021 152.91 311.841 152.62 310.801 152.03C309.761 151.44 308.951 150.62 308.371 149.58C307.791 148.53 307.501 147.34 307.501 145.99C307.501 144.64 307.791 143.45 308.371 142.39Z" stroke="#1B1B1B" stroke-width="0.75" stroke-miterlimit="10"/>
<path d="M329.791 152.82L326.961 147.68H326.171V152.82H322.851V139.2H328.421C329.491 139.2 330.411 139.39 331.171 139.76C331.931 140.13 332.491 140.65 332.871 141.3C333.251 141.95 333.431 142.68 333.431 143.48C333.431 144.39 333.181 145.19 332.661 145.91C332.151 146.62 331.401 147.13 330.401 147.42L333.541 152.81H329.801L329.791 152.82ZM326.161 145.33H328.221C328.831 145.33 329.281 145.18 329.591 144.88C329.901 144.58 330.051 144.16 330.051 143.62C330.051 143.08 329.901 142.7 329.591 142.4C329.281 142.1 328.831 141.95 328.221 141.95H326.161V145.33Z" stroke="#1B1B1B" stroke-width="0.75" stroke-miterlimit="10"/>
<path d="M338.811 141.86V144.61H343.251V147.17H338.811V150.16H343.831V152.82H335.491V139.2H343.831V141.86H338.811Z" stroke="#1B1B1B" stroke-width="0.75" stroke-miterlimit="10"/>
<path d="M354.47 150.41H349.39L348.58 152.82H345.11L350.04 139.2H353.88L358.81 152.82H355.3L354.49 150.41H354.47ZM353.62 147.85L351.93 142.86L350.26 147.85H353.62Z" stroke="#1B1B1B" stroke-width="0.75" stroke-miterlimit="10"/>
<path d="M372.47 152.82H369.15L363.6 144.42V152.82H360.28V139.2H363.6L369.15 147.64V139.2H372.47V152.82Z" stroke="#1B1B1B" stroke-width="0.75" stroke-miterlimit="10"/>
<path d="M176.961 119.11C177.541 118.06 178.351 117.23 179.391 116.65C180.431 116.07 181.611 115.77 182.931 115.77C184.551 115.77 185.931 116.2 187.081 117.05C188.231 117.9 189.001 119.07 189.391 120.54H185.741C185.471 119.97 185.081 119.54 184.591 119.24C184.101 118.94 183.531 118.79 182.891 118.79C181.871 118.79 181.041 119.15 180.411 119.86C179.781 120.57 179.461 121.52 179.461 122.71C179.461 123.9 179.781 124.85 180.411 125.56C181.041 126.27 181.871 126.63 182.891 126.63C183.521 126.63 184.091 126.48 184.591 126.18C185.091 125.88 185.471 125.45 185.741 124.88H189.391C189.001 126.35 188.231 127.52 187.081 128.36C185.931 129.21 184.541 129.63 182.931 129.63C181.611 129.63 180.431 129.34 179.391 128.75C178.351 128.16 177.541 127.34 176.961 126.3C176.381 125.25 176.091 124.06 176.091 122.71C176.091 121.36 176.381 120.17 176.961 119.11Z" stroke="#1B1B1B" stroke-width="0.75" stroke-miterlimit="10"/>
<path d="M194.351 128.78C193.281 128.19 192.441 127.35 191.811 126.29C191.181 125.23 190.871 124.02 190.871 122.69C190.871 121.36 191.181 120.16 191.811 119.1C192.441 118.04 193.281 117.21 194.351 116.62C195.421 116.03 196.591 115.73 197.871 115.73C199.151 115.73 200.321 116.03 201.391 116.62C202.461 117.22 203.301 118.04 203.911 119.1C204.521 120.16 204.831 121.36 204.831 122.69C204.831 124.02 204.521 125.22 203.901 126.29C203.281 127.36 202.441 128.19 201.381 128.78C200.321 129.38 199.151 129.67 197.871 129.67C196.591 129.67 195.421 129.37 194.351 128.78ZM200.481 125.56C201.131 124.84 201.461 123.88 201.461 122.69C201.461 121.5 201.131 120.53 200.481 119.81C199.831 119.09 198.961 118.73 197.871 118.73C196.781 118.73 195.891 119.09 195.241 119.8C194.591 120.51 194.261 121.47 194.261 122.69C194.261 123.91 194.591 124.85 195.241 125.57C195.891 126.29 196.771 126.65 197.871 126.65C198.971 126.65 199.831 126.29 200.481 125.56ZM200.121 113.18L195.441 115.14V112.85L200.121 110.6V113.18Z" stroke="#1B1B1B" stroke-width="0.75" stroke-miterlimit="10"/>
<path d="M215.55 116.77C216.62 117.34 217.45 118.14 218.04 119.17C218.63 120.2 218.92 121.38 218.92 122.73C218.92 124.08 218.63 125.25 218.04 126.28C217.45 127.32 216.62 128.12 215.54 128.69C214.46 129.26 213.21 129.54 211.79 129.54H206.69V115.92H211.79C213.23 115.92 214.48 116.2 215.55 116.77ZM214.5 125.64C215.2 124.95 215.55 123.98 215.55 122.73C215.55 121.48 215.2 120.5 214.5 119.8C213.8 119.1 212.82 118.75 211.57 118.75H210V126.67H211.57C212.82 126.67 213.8 126.33 214.5 125.64Z" stroke="#1B1B1B" stroke-width="0.75" stroke-miterlimit="10"/>
<path d="M224.101 115.92V129.54H220.781V115.92H224.101Z" stroke="#1B1B1B" stroke-width="0.75" stroke-miterlimit="10"/>
<path d="M235.551 120.23C235.301 119.78 234.951 119.43 234.491 119.19C234.031 118.95 233.491 118.83 232.871 118.83C231.801 118.83 230.941 119.18 230.291 119.89C229.641 120.6 229.321 121.54 229.321 122.71C229.321 123.96 229.661 124.94 230.341 125.65C231.021 126.36 231.951 126.71 233.141 126.71C233.951 126.71 234.641 126.5 235.211 126.09C235.781 125.68 236.181 125.08 236.441 124.31H232.231V121.87H239.451V124.95C239.201 125.78 238.791 126.55 238.201 127.26C237.611 127.97 236.861 128.55 235.961 128.99C235.051 129.43 234.031 129.65 232.901 129.65C231.551 129.65 230.361 129.36 229.301 128.77C228.251 128.18 227.421 127.36 226.841 126.32C226.251 125.27 225.961 124.08 225.961 122.73C225.961 121.38 226.251 120.19 226.841 119.13C227.431 118.08 228.251 117.25 229.291 116.67C230.341 116.08 231.531 115.79 232.881 115.79C234.511 115.79 235.881 116.18 237.001 116.97C238.121 117.76 238.861 118.85 239.221 120.25H235.551V120.23Z" stroke="#1B1B1B" stroke-width="0.75" stroke-miterlimit="10"/>
<path d="M244.21 128.78C243.14 128.19 242.3 127.35 241.67 126.29C241.04 125.23 240.73 124.02 240.73 122.69C240.73 121.36 241.04 120.16 241.67 119.1C242.3 118.04 243.14 117.21 244.21 116.62C245.28 116.03 246.45 115.73 247.73 115.73C249.01 115.73 250.18 116.03 251.25 116.62C252.32 117.22 253.16 118.04 253.77 119.1C254.38 120.16 254.69 121.36 254.69 122.69C254.69 124.02 254.38 125.22 253.76 126.29C253.14 127.36 252.3 128.19 251.24 128.78C250.18 129.38 249.01 129.67 247.73 129.67C246.45 129.67 245.28 129.37 244.21 128.78ZM250.34 125.56C250.99 124.84 251.32 123.88 251.32 122.69C251.32 121.5 250.99 120.53 250.34 119.81C249.69 119.09 248.82 118.73 247.73 118.73C246.64 118.73 245.75 119.09 245.1 119.8C244.45 120.51 244.12 121.47 244.12 122.69C244.12 123.91 244.45 124.85 245.1 125.57C245.75 126.29 246.63 126.65 247.73 126.65C248.83 126.65 249.69 126.29 250.34 125.56Z" stroke="#1B1B1B" stroke-width="0.75" stroke-miterlimit="10"/>
<path d="M258.79 129.19C258 128.87 257.37 128.39 256.9 127.75C256.43 127.11 256.18 126.35 256.15 125.46H259.68C259.73 125.96 259.91 126.35 260.2 126.61C260.5 126.88 260.89 127.01 261.36 127.01C261.83 127.01 262.24 126.9 262.52 126.67C262.8 126.44 262.95 126.13 262.95 125.73C262.95 125.39 262.84 125.12 262.61 124.9C262.38 124.68 262.11 124.5 261.78 124.36C261.45 124.22 260.98 124.06 260.37 123.87C259.49 123.6 258.77 123.33 258.22 123.06C257.66 122.79 257.19 122.39 256.78 121.86C256.38 121.33 256.18 120.64 256.18 119.78C256.18 118.51 256.64 117.52 257.56 116.8C258.48 116.08 259.67 115.72 261.15 115.72C262.63 115.72 263.86 116.08 264.78 116.8C265.7 117.52 266.19 118.52 266.25 119.8H262.66C262.63 119.36 262.47 119.01 262.18 118.76C261.88 118.51 261.5 118.38 261.04 118.38C260.64 118.38 260.32 118.49 260.07 118.7C259.82 118.91 259.7 119.22 259.7 119.62C259.7 120.06 259.91 120.4 260.32 120.65C260.73 120.9 261.38 121.16 262.26 121.45C263.14 121.75 263.85 122.03 264.4 122.3C264.95 122.57 265.42 122.97 265.83 123.48C266.23 124 266.43 124.66 266.43 125.48C266.43 126.3 266.23 126.96 265.84 127.59C265.45 128.22 264.87 128.73 264.12 129.1C263.37 129.47 262.48 129.66 261.46 129.66C260.44 129.66 259.57 129.5 258.78 129.18L258.79 129.19Z" stroke="#1B1B1B" stroke-width="0.75" stroke-miterlimit="10"/>
<path d="M282.281 131.87L280.531 129.52C280.011 129.62 279.511 129.68 279.021 129.68C277.741 129.68 276.571 129.38 275.501 128.79C274.431 128.2 273.591 127.36 272.961 126.3C272.331 125.24 272.021 124.03 272.021 122.7C272.021 121.37 272.331 120.17 272.961 119.11C273.591 118.05 274.431 117.22 275.501 116.63C276.571 116.04 277.741 115.74 279.021 115.74C280.301 115.74 281.471 116.04 282.541 116.63C283.611 117.23 284.451 118.05 285.061 119.11C285.671 120.17 285.981 121.37 285.981 122.7C285.981 123.86 285.741 124.93 285.271 125.89C284.801 126.85 284.141 127.65 283.301 128.29L286.291 131.88H282.271L282.281 131.87ZM276.391 125.57C277.041 126.29 277.921 126.65 279.021 126.65C280.121 126.65 280.981 126.29 281.631 125.56C282.281 124.84 282.611 123.88 282.611 122.69C282.611 121.5 282.281 120.53 281.631 119.81C280.981 119.09 280.111 118.73 279.021 118.73C277.931 118.73 277.041 119.09 276.391 119.8C275.741 120.51 275.411 121.47 275.411 122.69C275.411 123.91 275.741 124.85 276.391 125.57Z" stroke="#1B1B1B" stroke-width="0.75" stroke-miterlimit="10"/>
<path d="M291.131 115.92V124.07C291.131 124.88 291.331 125.51 291.731 125.95C292.131 126.39 292.721 126.61 293.501 126.61C294.281 126.61 294.871 126.39 295.291 125.95C295.701 125.51 295.911 124.88 295.911 124.07V115.92H299.231V124.05C299.231 125.27 298.971 126.29 298.451 127.13C297.931 127.97 297.241 128.6 296.361 129.03C295.481 129.46 294.511 129.67 293.441 129.67C292.371 129.67 291.411 129.46 290.561 129.04C289.711 128.62 289.041 127.99 288.551 127.14C288.061 126.29 287.811 125.26 287.811 124.05V115.92H291.131Z" stroke="#1B1B1B" stroke-width="0.75" stroke-miterlimit="10"/>
<path d="M304.861 118.58V121.33H309.301V123.89H304.861V126.88H309.881V129.54H301.541V115.92H309.881V118.58H304.861Z" stroke="#1B1B1B" stroke-width="0.75" stroke-miterlimit="10"/>
</g>
<defs>
<clipPath id="clip0_310_858">
<rect width="470.98" height="183.67" fill="white"/>
</clipPath>
</defs>
</svg>
