<svg width="329" height="277" viewBox="0 0 329 277" fill="none" xmlns="http://www.w3.org/2000/svg">
<g clip-path="url(#clip0_310_802)">
<path d="M125.151 149.08L118.391 163.02C114.741 159.92 111.061 158.37 107.341 158.37C104.961 158.37 103.101 159.06 101.771 160.44C100.661 161.62 100.101 162.95 100.101 164.43C100.101 165.74 100.611 166.85 101.621 167.76C102.601 168.6 103.601 169.24 104.601 169.68C105.601 170.12 108.011 170.93 111.811 172.1C117.141 173.78 121.101 176.07 123.671 178.97C126.401 182.1 127.771 186.26 127.771 191.44C127.771 199.35 125.551 205.34 121.101 209.42C116.341 213.73 110.081 215.88 102.341 215.88C94.6005 215.88 86.8605 213.27 79.8105 208.05L87.0506 193.61C92.1006 198.29 97.0705 200.63 101.961 200.63C104.941 200.63 107.121 199.81 108.481 198.16C109.561 196.85 110.101 195.42 110.101 193.87C110.101 192.02 109.391 190.55 107.981 189.45C106.571 188.36 103.881 187.19 99.9106 185.94C93.6906 184.02 89.5805 182.17 87.5705 180.39C84.1105 177.39 82.3805 172.83 82.3805 166.71C82.3805 159.54 84.6205 153.78 89.0905 149.44C93.1505 145.47 98.3005 143.48 104.521 143.48C111.571 143.48 118.441 145.35 125.141 149.08H125.151Z" stroke="#1B1B1B" stroke-width="0.75" stroke-miterlimit="10"/>
<path d="M145.771 139.89C148.211 139.89 150.291 140.8 152.011 142.62C153.721 144.44 154.581 146.63 154.581 149.18C154.581 151.73 153.721 153.98 152.011 155.8C150.301 157.62 148.231 158.53 145.821 158.53C143.411 158.53 141.261 157.62 139.581 155.8C137.871 153.95 137.011 151.71 137.011 149.08C137.011 146.59 137.871 144.43 139.611 142.62C141.341 140.8 143.401 139.89 145.781 139.89H145.771ZM153.581 167.21V214.07H137.961V167.21H153.581Z" stroke="#1B1B1B" stroke-width="0.75" stroke-miterlimit="10"/>
<path d="M181.731 180.99V214.06H166.111V180.99H160.971V167.21H166.111V153.12H181.731V167.21H190.641V180.99H181.731Z" stroke="#1B1B1B" stroke-width="0.75" stroke-miterlimit="10"/>
<path d="M222.071 165.49C230.831 165.49 237.681 168.32 242.601 173.97C246.661 178.62 248.701 184.17 248.701 190.63C248.701 198.24 246.031 204.47 240.701 209.31C235.941 213.65 229.651 215.82 221.841 215.82C216.891 215.82 212.251 214.69 207.931 212.44C203.901 210.32 200.741 207.09 198.451 202.75C196.481 199.08 195.501 194.91 195.501 190.23C195.501 182.99 198.171 176.92 203.501 172C206.171 169.58 209.471 167.81 213.411 166.7C216.331 165.89 219.221 165.49 222.081 165.49H222.071ZM222.071 179.78C219.281 179.78 216.911 180.82 214.971 182.91C213.001 185.03 212.021 187.52 212.021 190.38C212.021 193.44 213.001 196.04 214.971 198.16C216.911 200.25 219.291 201.29 222.111 201.29C224.931 201.29 227.241 200.25 229.211 198.16C231.181 196.04 232.161 193.5 232.161 190.54C232.161 187.58 231.181 184.97 229.211 182.92C227.211 180.83 224.831 179.79 222.071 179.79V179.78Z" stroke="#1B1B1B" stroke-width="0.75" stroke-miterlimit="10"/>
<path d="M177.94 47.19L192 33.32L163.97 5.27002L135.94 33.32L191.71 89.27L164.04 117.25L135.98 89.27L149.76 75.59" stroke="#1B1B1B" stroke-width="7" stroke-miterlimit="10"/>
<path d="M198.91 40.13L219.71 61.24L198.91 82.34" stroke="#1B1B1B" stroke-width="7" stroke-miterlimit="10"/>
<path d="M129.151 82.12L108.351 61.01L129.151 39.91" stroke="#1B1B1B" stroke-width="7" stroke-miterlimit="10"/>
<path d="M98.0204 241.92C98.6004 240.87 99.4104 240.04 100.45 239.46C101.49 238.87 102.67 238.58 103.99 238.58C105.61 238.58 106.99 239.01 108.14 239.86C109.29 240.71 110.06 241.88 110.45 243.35H106.8C106.53 242.78 106.14 242.35 105.65 242.05C105.15 241.75 104.59 241.6 103.95 241.6C102.93 241.6 102.1 241.96 101.47 242.67C100.84 243.38 100.52 244.33 100.52 245.52C100.52 246.71 100.84 247.66 101.47 248.37C102.1 249.08 102.93 249.44 103.95 249.44C104.58 249.44 105.15 249.29 105.65 248.99C106.15 248.69 106.53 248.26 106.8 247.69H110.45C110.06 249.16 109.29 250.33 108.14 251.17C106.99 252.02 105.6 252.44 103.99 252.44C102.67 252.44 101.49 252.15 100.45 251.56C99.4104 250.97 98.6004 250.15 98.0204 249.11C97.4404 248.06 97.1504 246.87 97.1504 245.52C97.1504 244.17 97.4404 242.98 98.0204 241.92Z" stroke="#1B1B1B" stroke-width="0.75" stroke-miterlimit="10"/>
<path d="M115.411 251.59C114.341 251 113.501 250.16 112.871 249.1C112.241 248.04 111.931 246.83 111.931 245.5C111.931 244.17 112.241 242.97 112.871 241.91C113.501 240.85 114.341 240.02 115.411 239.43C116.481 238.84 117.651 238.54 118.931 238.54C120.211 238.54 121.381 238.84 122.451 239.43C123.521 240.03 124.361 240.85 124.971 241.91C125.581 242.97 125.891 244.17 125.891 245.5C125.891 246.83 125.581 248.03 124.961 249.1C124.341 250.17 123.501 251 122.441 251.59C121.381 252.19 120.211 252.48 118.931 252.48C117.651 252.48 116.481 252.18 115.411 251.59ZM121.541 248.37C122.191 247.65 122.521 246.69 122.521 245.5C122.521 244.31 122.191 243.34 121.541 242.62C120.891 241.9 120.021 241.54 118.931 241.54C117.841 241.54 116.951 241.9 116.301 242.61C115.651 243.32 115.321 244.28 115.321 245.5C115.321 246.72 115.651 247.66 116.301 248.38C116.951 249.1 117.831 249.46 118.931 249.46C120.031 249.46 120.891 249.1 121.541 248.37ZM121.181 235.99L116.511 237.95V235.66L121.181 233.41V235.99Z" stroke="#1B1B1B" stroke-width="0.75" stroke-miterlimit="10"/>
<path d="M136.61 239.58C137.68 240.15 138.51 240.95 139.1 241.98C139.69 243.01 139.98 244.19 139.98 245.54C139.98 246.89 139.69 248.06 139.1 249.09C138.51 250.13 137.68 250.93 136.6 251.5C135.52 252.07 134.27 252.35 132.85 252.35H127.75V238.73H132.85C134.29 238.73 135.54 239.01 136.61 239.58ZM135.56 248.45C136.26 247.76 136.61 246.79 136.61 245.54C136.61 244.29 136.26 243.31 135.56 242.61C134.86 241.91 133.88 241.56 132.63 241.56H131.06V249.48H132.63C133.88 249.48 134.86 249.14 135.56 248.45Z" stroke="#1B1B1B" stroke-width="0.75" stroke-miterlimit="10"/>
<path d="M145.161 238.72V252.34H141.841V238.72H145.161Z" stroke="#1B1B1B" stroke-width="0.75" stroke-miterlimit="10"/>
<path d="M156.611 243.03C156.361 242.58 156.011 242.23 155.551 241.99C155.091 241.75 154.551 241.63 153.931 241.63C152.861 241.63 152.001 241.98 151.351 242.69C150.701 243.4 150.381 244.34 150.381 245.51C150.381 246.76 150.721 247.74 151.401 248.45C152.081 249.16 153.011 249.51 154.201 249.51C155.011 249.51 155.701 249.3 156.271 248.89C156.841 248.48 157.241 247.88 157.501 247.11H153.291V244.67H160.511V247.75C160.261 248.58 159.851 249.35 159.261 250.06C158.671 250.77 157.921 251.35 157.021 251.79C156.111 252.23 155.091 252.45 153.951 252.45C152.611 252.45 151.411 252.16 150.351 251.57C149.301 250.98 148.471 250.16 147.891 249.12C147.301 248.07 147.011 246.88 147.011 245.53C147.011 244.18 147.301 242.99 147.891 241.93C148.481 240.88 149.301 240.05 150.341 239.47C151.391 238.88 152.581 238.59 153.931 238.59C155.561 238.59 156.931 238.98 158.051 239.77C159.171 240.56 159.911 241.65 160.271 243.05H156.601L156.611 243.03Z" stroke="#1B1B1B" stroke-width="0.75" stroke-miterlimit="10"/>
<path d="M165.27 251.59C164.2 251 163.36 250.16 162.73 249.1C162.1 248.04 161.79 246.83 161.79 245.5C161.79 244.17 162.1 242.97 162.73 241.91C163.36 240.85 164.2 240.02 165.27 239.43C166.34 238.84 167.51 238.54 168.79 238.54C170.07 238.54 171.24 238.84 172.31 239.43C173.38 240.03 174.22 240.85 174.83 241.91C175.44 242.97 175.75 244.17 175.75 245.5C175.75 246.83 175.44 248.03 174.82 249.1C174.2 250.17 173.36 251 172.3 251.59C171.24 252.19 170.07 252.48 168.79 252.48C167.51 252.48 166.34 252.18 165.27 251.59ZM171.4 248.37C172.05 247.65 172.38 246.69 172.38 245.5C172.38 244.31 172.05 243.34 171.4 242.62C170.75 241.9 169.88 241.54 168.79 241.54C167.7 241.54 166.81 241.9 166.16 242.61C165.51 243.32 165.18 244.28 165.18 245.5C165.18 246.72 165.51 247.66 166.16 248.38C166.81 249.1 167.69 249.46 168.79 249.46C169.89 249.46 170.75 249.1 171.4 248.37Z" stroke="#1B1B1B" stroke-width="0.75" stroke-miterlimit="10"/>
<path d="M179.85 251.99C179.06 251.67 178.43 251.19 177.96 250.55C177.49 249.91 177.24 249.15 177.21 248.26H180.74C180.79 248.76 180.97 249.15 181.26 249.41C181.56 249.68 181.95 249.81 182.42 249.81C182.89 249.81 183.3 249.7 183.58 249.47C183.86 249.24 184.01 248.93 184.01 248.53C184.01 248.19 183.9 247.92 183.67 247.7C183.44 247.48 183.17 247.3 182.84 247.16C182.51 247.02 182.04 246.86 181.43 246.67C180.55 246.4 179.83 246.13 179.28 245.86C178.72 245.59 178.24 245.19 177.84 244.66C177.44 244.13 177.24 243.44 177.24 242.58C177.24 241.31 177.7 240.32 178.62 239.6C179.54 238.88 180.73 238.52 182.21 238.52C183.69 238.52 184.92 238.88 185.84 239.6C186.76 240.32 187.25 241.32 187.31 242.6H183.72C183.69 242.16 183.53 241.81 183.24 241.56C182.94 241.31 182.56 241.18 182.09 241.18C181.69 241.18 181.37 241.29 181.12 241.5C180.87 241.71 180.75 242.02 180.75 242.42C180.75 242.86 180.96 243.2 181.37 243.45C181.78 243.7 182.43 243.96 183.31 244.25C184.19 244.55 184.9 244.83 185.45 245.1C186 245.37 186.48 245.77 186.88 246.28C187.28 246.8 187.48 247.46 187.48 248.28C187.48 249.1 187.28 249.76 186.89 250.39C186.5 251.02 185.92 251.53 185.17 251.9C184.42 252.27 183.53 252.46 182.51 252.46C181.49 252.46 180.62 252.3 179.83 251.98L179.85 251.99Z" stroke="#1B1B1B" stroke-width="0.75" stroke-miterlimit="10"/>
<path d="M203.34 254.67L201.59 252.32C201.07 252.42 200.57 252.48 200.08 252.48C198.8 252.48 197.63 252.18 196.56 251.59C195.49 251 194.65 250.16 194.02 249.1C193.39 248.04 193.08 246.83 193.08 245.5C193.08 244.17 193.39 242.97 194.02 241.91C194.65 240.85 195.49 240.02 196.56 239.43C197.63 238.84 198.8 238.54 200.08 238.54C201.36 238.54 202.53 238.84 203.6 239.43C204.67 240.03 205.51 240.85 206.12 241.91C206.73 242.97 207.04 244.17 207.04 245.5C207.04 246.66 206.8 247.73 206.33 248.69C205.86 249.65 205.2 250.45 204.36 251.09L207.35 254.68H203.33L203.34 254.67ZM197.45 248.37C198.1 249.09 198.98 249.45 200.08 249.45C201.18 249.45 202.04 249.09 202.69 248.36C203.34 247.64 203.67 246.68 203.67 245.49C203.67 244.3 203.34 243.33 202.69 242.61C202.04 241.89 201.17 241.53 200.08 241.53C198.99 241.53 198.1 241.89 197.45 242.6C196.8 243.31 196.47 244.27 196.47 245.49C196.47 246.71 196.8 247.65 197.45 248.37Z" stroke="#1B1B1B" stroke-width="0.75" stroke-miterlimit="10"/>
<path d="M212.19 238.72V246.87C212.19 247.68 212.39 248.31 212.79 248.75C213.19 249.19 213.78 249.41 214.56 249.41C215.34 249.41 215.93 249.19 216.34 248.75C216.75 248.31 216.96 247.68 216.96 246.87V238.72H220.28V246.85C220.28 248.07 220.02 249.09 219.5 249.93C218.98 250.77 218.29 251.4 217.42 251.83C216.55 252.26 215.57 252.47 214.5 252.47C213.43 252.47 212.47 252.26 211.62 251.84C210.77 251.42 210.1 250.79 209.61 249.94C209.12 249.09 208.87 248.06 208.87 246.85V238.72H212.19Z" stroke="#1B1B1B" stroke-width="0.75" stroke-miterlimit="10"/>
<path d="M225.921 241.38V244.13H230.361V246.69H225.921V249.68H230.941V252.34H222.601V238.72H230.941V241.38H225.921Z" stroke="#1B1B1B" stroke-width="0.75" stroke-miterlimit="10"/>
<path d="M66.5604 265.19C67.1404 264.14 67.9504 263.31 68.9904 262.73C70.0304 262.14 71.2104 261.85 72.5304 261.85C74.1504 261.85 75.5304 262.28 76.6804 263.13C77.8304 263.98 78.6004 265.15 78.9904 266.62H75.3404C75.0704 266.05 74.6804 265.62 74.1904 265.32C73.6904 265.02 73.1304 264.87 72.4904 264.87C71.4704 264.87 70.6404 265.23 70.0104 265.94C69.3804 266.65 69.0604 267.6 69.0604 268.79C69.0604 269.98 69.3804 270.93 70.0104 271.64C70.6404 272.35 71.4704 272.71 72.4904 272.71C73.1204 272.71 73.6904 272.56 74.1904 272.26C74.6904 271.96 75.0704 271.53 75.3404 270.96H78.9904C78.6004 272.43 77.8304 273.6 76.6804 274.44C75.5304 275.29 74.1404 275.71 72.5304 275.71C71.2104 275.71 70.0304 275.42 68.9904 274.83C67.9504 274.24 67.1404 273.42 66.5604 272.38C65.9804 271.33 65.6904 270.14 65.6904 268.79C65.6904 267.44 65.9804 266.25 66.5604 265.19Z" stroke="#1B1B1B" stroke-width="0.75" stroke-miterlimit="10"/>
<path d="M83.9507 274.87C82.8807 274.28 82.0407 273.44 81.4107 272.38C80.7807 271.32 80.4707 270.11 80.4707 268.78C80.4707 267.45 80.7807 266.25 81.4107 265.19C82.0407 264.13 82.8807 263.3 83.9507 262.71C85.0207 262.12 86.1907 261.82 87.4707 261.82C88.7507 261.82 89.9207 262.12 90.9907 262.71C92.0607 263.31 92.9007 264.13 93.5107 265.19C94.1207 266.25 94.4307 267.45 94.4307 268.78C94.4307 270.11 94.1207 271.31 93.5007 272.38C92.8807 273.45 92.0407 274.28 90.9807 274.87C89.9207 275.47 88.7507 275.76 87.4707 275.76C86.1907 275.76 85.0207 275.46 83.9507 274.87ZM90.0807 271.65C90.7307 270.93 91.0607 269.97 91.0607 268.78C91.0607 267.59 90.7307 266.62 90.0807 265.9C89.4307 265.18 88.5607 264.82 87.4707 264.82C86.3807 264.82 85.4907 265.18 84.8407 265.89C84.1907 266.6 83.8607 267.56 83.8607 268.78C83.8607 270 84.1907 270.94 84.8407 271.66C85.4907 272.38 86.3707 272.74 87.4707 272.74C88.5707 272.74 89.4307 272.38 90.0807 271.65Z" stroke="#1B1B1B" stroke-width="0.75" stroke-miterlimit="10"/>
<path d="M108.47 275.62H105.15L99.6003 267.22V275.62H96.2803V262H99.6003L105.15 270.44V262H108.47V275.62Z" stroke="#1B1B1B" stroke-width="0.75" stroke-miterlimit="10"/>
<path d="M114.19 264.66V267.41H118.63V269.97H114.19V272.96H119.21V275.62H110.87V262H119.21V264.66H114.19Z" stroke="#1B1B1B" stroke-width="0.75" stroke-miterlimit="10"/>
<path d="M121.681 265.19C122.261 264.14 123.071 263.31 124.111 262.73C125.151 262.14 126.331 261.85 127.651 261.85C129.271 261.85 130.651 262.28 131.801 263.13C132.951 263.98 133.721 265.15 134.111 266.62H130.461C130.191 266.05 129.801 265.62 129.311 265.32C128.811 265.02 128.251 264.87 127.611 264.87C126.591 264.87 125.761 265.23 125.131 265.94C124.501 266.65 124.181 267.6 124.181 268.79C124.181 269.98 124.501 270.93 125.131 271.64C125.761 272.35 126.591 272.71 127.611 272.71C128.241 272.71 128.811 272.56 129.311 272.26C129.811 271.96 130.191 271.53 130.461 270.96H134.111C133.721 272.43 132.951 273.6 131.801 274.44C130.651 275.29 129.261 275.71 127.651 275.71C126.331 275.71 125.151 275.42 124.111 274.83C123.071 274.24 122.261 273.42 121.681 272.38C121.101 271.33 120.811 270.14 120.811 268.79C120.811 267.44 121.101 266.25 121.681 265.19Z" stroke="#1B1B1B" stroke-width="0.75" stroke-miterlimit="10"/>
<path d="M145.95 262V264.66H142.34V275.62H139.02V264.66H135.41V262H145.94H145.95Z" stroke="#1B1B1B" stroke-width="0.75" stroke-miterlimit="10"/>
<path d="M156.09 273.22H151.01L150.2 275.63H146.73L151.66 262.01H155.5L160.43 275.63H156.92L156.11 273.22H156.09ZM155.24 270.66L153.55 265.67L151.88 270.66H155.24Z" stroke="#1B1B1B" stroke-width="0.75" stroke-miterlimit="10"/>
<path d="M174.1 275.62H170.78L165.23 267.22V275.62H161.91V262H165.23L170.78 270.44V262H174.1V275.62Z" stroke="#1B1B1B" stroke-width="0.75" stroke-miterlimit="10"/>
<path d="M192.291 262L187.581 271.12V275.62H184.261V271.12L179.551 262H183.311L185.951 267.7L188.571 262H192.291Z" stroke="#1B1B1B" stroke-width="0.75" stroke-miterlimit="10"/>
<path d="M198.051 265.19C198.631 264.14 199.441 263.31 200.481 262.73C201.521 262.14 202.701 261.85 204.021 261.85C205.641 261.85 207.021 262.28 208.171 263.13C209.321 263.98 210.091 265.15 210.481 266.62H206.831C206.561 266.05 206.171 265.62 205.681 265.32C205.181 265.02 204.621 264.87 203.981 264.87C202.961 264.87 202.131 265.23 201.501 265.94C200.871 266.65 200.551 267.6 200.551 268.79C200.551 269.98 200.871 270.93 201.501 271.64C202.131 272.35 202.961 272.71 203.981 272.71C204.611 272.71 205.181 272.56 205.681 272.26C206.181 271.96 206.561 271.53 206.831 270.96H210.481C210.091 272.43 209.321 273.6 208.171 274.44C207.021 275.29 205.631 275.71 204.021 275.71C202.701 275.71 201.521 275.42 200.481 274.83C199.441 274.24 198.631 273.42 198.051 272.38C197.471 271.33 197.181 270.14 197.181 268.79C197.181 267.44 197.471 266.25 198.051 265.19Z" stroke="#1B1B1B" stroke-width="0.75" stroke-miterlimit="10"/>
<path d="M219.47 275.62L216.64 270.48H215.85V275.62H212.53V262H218.1C219.17 262 220.09 262.19 220.85 262.56C221.61 262.93 222.17 263.45 222.55 264.1C222.93 264.75 223.11 265.48 223.11 266.28C223.11 267.19 222.86 267.99 222.34 268.71C221.83 269.42 221.08 269.93 220.08 270.22L223.22 275.61H219.48L219.47 275.62ZM215.84 268.13H217.9C218.51 268.13 218.96 267.98 219.27 267.68C219.57 267.38 219.73 266.96 219.73 266.42C219.73 265.88 219.58 265.5 219.27 265.2C218.97 264.9 218.51 264.75 217.9 264.75H215.84V268.13Z" stroke="#1B1B1B" stroke-width="0.75" stroke-miterlimit="10"/>
<path d="M228.491 264.66V267.41H232.931V269.97H228.491V272.96H233.511V275.62H225.171V262H233.511V264.66H228.491Z" stroke="#1B1B1B" stroke-width="0.75" stroke-miterlimit="10"/>
<path d="M244.15 273.22H239.07L238.26 275.63H234.79L239.72 262.01H243.56L248.49 275.63H244.98L244.17 273.22H244.15ZM243.3 270.66L241.61 265.67L239.94 270.66H243.3Z" stroke="#1B1B1B" stroke-width="0.75" stroke-miterlimit="10"/>
<path d="M262.15 275.62H258.83L253.28 267.22V275.62H249.96V262H253.28L258.83 270.44V262H262.15V275.62Z" stroke="#1B1B1B" stroke-width="0.75" stroke-miterlimit="10"/>
<path d="M0 0.119995H327.93" stroke="#333333" stroke-width="0.25" stroke-miterlimit="10"/>
<path d="M0.160156 122.41H328.09" stroke="#333333" stroke-width="0.25" stroke-miterlimit="10"/>
<path d="M0 214.11H327.94" stroke="#333333" stroke-width="0.25" stroke-miterlimit="10"/>
<path d="M0.160156 275.76H328.09" stroke="#333333" stroke-width="0.25" stroke-miterlimit="10"/>
<path d="M32.7695 0.570007V275.69" stroke="#333333" stroke-width="0.25" stroke-miterlimit="10"/>
<path d="M30.4902 3.44C30.8802 2.95 31.2802 2.46 31.6702 1.97C32.0602 1.48 32.4602 0.99 32.8502 0.5C33.6702 1.48 34.4802 2.45 35.3002 3.43" stroke="#333333" stroke-width="0.25" stroke-miterlimit="10"/>
<path d="M30.3203 119.73C30.7303 120.21 31.1303 120.69 31.5403 121.17C31.9503 121.65 32.3503 122.13 32.7603 122.61C33.5503 121.61 34.3403 120.62 35.1403 119.63" stroke="#333333" stroke-width="0.25" stroke-miterlimit="10"/>
<path d="M30.3604 217.84C30.7504 217.35 31.1504 216.86 31.5404 216.37C31.9304 215.88 32.3304 215.39 32.7204 214.9C33.5404 215.88 34.3503 216.85 35.1703 217.83" stroke="#333333" stroke-width="0.25" stroke-miterlimit="10"/>
<path d="M30.4902 273.01C30.9002 273.49 31.3002 273.97 31.7102 274.45C32.1202 274.93 32.5202 275.41 32.9302 275.89C33.7202 274.89 34.5102 273.9 35.3102 272.91" stroke="#333333" stroke-width="0.25" stroke-miterlimit="10"/>
<path d="M30.4004 211.19C30.8104 211.67 31.2104 212.15 31.6204 212.63C32.0304 213.11 32.4304 213.59 32.8404 214.07C33.6304 213.07 34.4204 212.08 35.2204 211.09" stroke="#333333" stroke-width="0.25" stroke-miterlimit="10"/>
<path d="M30.4004 125.61C30.7904 125.12 31.1904 124.63 31.5804 124.14C31.9704 123.65 32.3704 123.16 32.7604 122.67C33.5804 123.65 34.3904 124.62 35.2104 125.6" stroke="#333333" stroke-width="0.25" stroke-miterlimit="10"/>
<path d="M15.39 248.32L16.8 246.01H18.07L16 249.14L18.14 252.35H16.89L15.43 249.98L13.97 252.35H12.71L14.85 249.14L12.78 246.01H14.03L15.42 248.32H15.39Z" fill="#1B1B1B"/>
<path d="M13.6104 65.12H8.02035V64.34L10.9704 61.06C11.4104 60.56 11.7104 60.16 11.8804 59.85C12.0504 59.54 12.1304 59.22 12.1304 58.89C12.1304 58.44 12.0004 58.08 11.7304 57.79C11.4604 57.5 11.1004 57.36 10.6504 57.36C10.1104 57.36 9.69035 57.51 9.39035 57.82C9.09035 58.13 8.94035 58.55 8.94035 59.1H7.86035C7.86035 58.31 8.11035 57.68 8.62035 57.2C9.13035 56.72 9.80035 56.47 10.6504 56.47C11.4404 56.47 12.0704 56.68 12.5304 57.09C12.9904 57.5 13.2204 58.06 13.2204 58.75C13.2204 59.59 12.6804 60.59 11.6104 61.75L9.32035 64.23H13.6004V65.11L13.6104 65.12Z" fill="#1B1B1B"/>
<path d="M16.9905 61.1L18.4005 58.79H19.6705L17.6005 61.92L19.7405 65.13H18.4905L17.0305 62.76L15.5705 65.13H14.3105L16.4505 61.92L14.3805 58.79H15.6305L17.0205 61.1H16.9905Z" fill="#1B1B1B"/>
<path d="M2.57961 170.64H3.38961C3.89961 170.64 4.29961 170.5 4.59961 170.24C4.89961 169.98 5.03961 169.62 5.03961 169.18C5.03961 168.18 4.53961 167.68 3.54961 167.68C3.07961 167.68 2.70961 167.81 2.42961 168.08C2.14961 168.35 2.00961 168.7 2.00961 169.14H0.919609C0.919609 168.46 1.16961 167.9 1.65961 167.46C2.14961 167.02 2.77961 166.79 3.53961 166.79C4.33961 166.79 4.97961 167 5.42961 167.43C5.87961 167.86 6.11961 168.45 6.11961 169.21C6.11961 169.58 5.99961 169.94 5.75961 170.29C5.51961 170.64 5.18961 170.9 4.77961 171.07C5.24961 171.22 5.60961 171.46 5.86961 171.81C6.12961 172.16 6.24961 172.57 6.24961 173.07C6.24961 173.84 5.99961 174.44 5.49961 174.89C4.99961 175.34 4.34961 175.56 3.54961 175.56C2.74961 175.56 2.09961 175.34 1.59961 174.91C1.09961 174.48 0.849609 173.9 0.849609 173.19H1.93961C1.93961 173.64 2.08961 174 2.37961 174.27C2.66961 174.54 3.06961 174.67 3.55961 174.67C4.07961 174.67 4.47961 174.53 4.75961 174.26C5.03961 173.99 5.17961 173.59 5.17961 173.08C5.17961 172.57 5.02961 172.2 4.71961 171.94C4.40961 171.68 3.97961 171.54 3.39961 171.53H2.58961V170.65L2.57961 170.64Z" fill="#1B1B1B"/>
<path d="M9.9798 171.41L11.3898 169.1H12.6598L10.5898 172.23L12.7298 175.44H11.4798L10.0198 173.07L8.5598 175.44H7.2998L9.4398 172.23L7.3698 169.1H8.6198L10.0098 171.41H9.9798Z" fill="#1B1B1B"/>
<path d="M14.0198 176.16H13.0898L16.6498 166.9H17.5798L14.0198 176.16Z" fill="#1B1B1B"/>
<path d="M24.2295 175.43H18.6395V174.65L21.5895 171.37C22.0295 170.87 22.3295 170.47 22.4995 170.16C22.6695 169.85 22.7495 169.53 22.7495 169.2C22.7495 168.75 22.6195 168.39 22.3495 168.1C22.0795 167.81 21.7195 167.67 21.2695 167.67C20.7295 167.67 20.3095 167.82 20.0095 168.13C19.7095 168.44 19.5595 168.86 19.5595 169.41H18.4795C18.4795 168.62 18.7295 167.99 19.2395 167.51C19.7495 167.03 20.4195 166.78 21.2695 166.78C22.0595 166.78 22.6895 166.99 23.1495 167.4C23.6095 167.81 23.8395 168.37 23.8395 169.06C23.8395 169.9 23.2995 170.9 22.2295 172.06L19.9395 174.54H24.2195V175.42L24.2295 175.43Z" fill="#1B1B1B"/>
</g>
<defs>
<clipPath id="clip0_310_802">
<rect width="328.09" height="276.13" fill="white"/>
</clipPath>
</defs>
</svg>
