<svg width="126" height="91" viewBox="0 0 126 91" fill="none" xmlns="http://www.w3.org/2000/svg">
<g clip-path="url(#clip0_315_651)">
<path d="M28.3603 22.35L33.5803 17.2L23.1803 6.79999L12.7803 17.2L33.4703 37.96C30.0403 41.42 26.6103 44.88 23.1803 48.34C19.7203 44.88 16.2603 41.42 12.7903 37.96C14.5003 36.27 16.2003 34.58 17.9103 32.88" stroke="#CD212A" stroke-width="2.6" stroke-miterlimit="10"/>
<path d="M36.1406 19.73L43.8506 27.56L36.1406 35.39" stroke="#CD212A" stroke-width="2.6" stroke-miterlimit="10"/>
<path d="M10.2503 35.31C7.68027 32.73 5.11027 30.15 2.53027 27.57C5.10027 24.93 7.67027 22.29 10.2503 19.65" stroke="#CD212A" stroke-width="2.6" stroke-miterlimit="10"/>
<path d="M67.9001 3.40997L65.3901 8.57997C64.0401 7.42997 62.6701 6.85997 61.2901 6.85997C60.4101 6.85997 59.7201 7.11997 59.2201 7.62997C58.8101 8.06997 58.6001 8.55997 58.6001 9.10997C58.6001 9.59997 58.7901 10.01 59.1701 10.35C59.5401 10.66 59.9001 10.9 60.2701 11.06C60.6401 11.22 61.5301 11.52 62.9501 11.96C64.9301 12.58 66.4001 13.43 67.3501 14.51C68.3601 15.67 68.8701 17.21 68.8701 19.14C68.8701 22.07 68.0501 24.3 66.4001 25.81C64.6301 27.41 62.3101 28.21 59.4401 28.21C56.5701 28.21 53.7001 27.24 51.0801 25.31L53.7701 19.95C55.6401 21.69 57.4901 22.55 59.3001 22.55C60.4101 22.55 61.2101 22.24 61.7201 21.63C62.1201 21.14 62.3201 20.61 62.3201 20.04C62.3201 19.35 62.0601 18.81 61.5301 18.4C61.0101 17.99 60.0101 17.56 58.5301 17.1C56.2201 16.39 54.7001 15.7 53.9501 15.04C52.6701 13.93 52.0201 12.24 52.0201 9.95997C52.0201 7.29997 52.8501 5.15997 54.5101 3.54997C56.0201 2.07997 57.9301 1.33997 60.2401 1.33997C62.8601 1.33997 65.4101 2.02997 67.8901 3.41997L67.9001 3.40997Z" fill="#041E42"/>
<path d="M75.5498 -9.76585e-06C76.4598 -9.76585e-06 77.2298 0.33999 77.8598 1.00999C78.4998 1.67999 78.8098 2.49999 78.8098 3.43999C78.8098 4.37999 78.4898 5.21999 77.8598 5.88999C77.2198 6.55999 76.4598 6.89999 75.5598 6.89999C74.6598 6.89999 73.8698 6.55999 73.2498 5.88999C72.6098 5.19999 72.2998 4.36999 72.2998 3.39999C72.2998 2.42999 72.6198 1.67999 73.2598 0.99999C73.8998 0.32999 74.6598 -0.0100098 75.5498 -0.0100098V-9.76585e-06ZM78.4498 10.14V27.53H72.6498V10.14H78.4498Z" fill="#041E42"/>
<path d="M88.8897 15.25V27.52H83.0897V15.25H81.1797V10.14H83.0897V4.90997H88.8897V10.14H92.1897V15.25H88.8897Z" fill="#041E42"/>
<path d="M103.86 9.49999C107.11 9.49999 109.65 10.55 111.48 12.65C112.99 14.37 113.74 16.43 113.74 18.83C113.74 21.65 112.75 23.96 110.77 25.76C109 27.37 106.67 28.18 103.77 28.18C101.93 28.18 100.21 27.76 98.6102 26.92C97.1102 26.13 95.9402 24.93 95.0902 23.32C94.3602 21.96 93.9902 20.41 93.9902 18.67C93.9902 15.98 94.9802 13.73 96.9602 11.91C97.9502 11.01 99.1702 10.35 100.64 9.93999C101.72 9.63999 102.8 9.48999 103.86 9.48999V9.49999ZM103.86 14.8C102.82 14.8 101.95 15.19 101.23 15.96C100.5 16.75 100.13 17.67 100.13 18.73C100.13 19.87 100.49 20.83 101.23 21.61C101.95 22.38 102.83 22.77 103.88 22.77C104.93 22.77 105.78 22.38 106.51 21.61C107.24 20.82 107.61 19.88 107.61 18.78C107.61 17.68 107.24 16.71 106.51 15.95C105.77 15.18 104.88 14.79 103.86 14.79V14.8Z" fill="#041E42"/>
<path d="M51.3307 46.33C51.5507 45.94 51.8507 45.63 52.2307 45.42C52.6207 45.2 53.0507 45.09 53.5407 45.09C54.1407 45.09 54.6507 45.25 55.0807 45.56C55.5107 45.87 55.7907 46.31 55.9407 46.86H54.5907C54.4907 46.65 54.3507 46.49 54.1607 46.38C53.9807 46.27 53.7707 46.21 53.5307 46.21C53.1507 46.21 52.8407 46.34 52.6107 46.61C52.3707 46.87 52.2607 47.23 52.2607 47.67C52.2607 48.11 52.3807 48.46 52.6107 48.73C52.8407 48.99 53.1507 49.13 53.5307 49.13C53.7707 49.13 53.9807 49.07 54.1607 48.96C54.3407 48.85 54.4907 48.69 54.5907 48.48H55.9407C55.8007 49.03 55.5107 49.46 55.0807 49.77C54.6507 50.08 54.1407 50.24 53.5407 50.24C53.0507 50.24 52.6107 50.13 52.2307 49.91C51.8407 49.69 51.5407 49.39 51.3307 49C51.1107 48.61 51.0107 48.17 51.0107 47.67C51.0107 47.17 51.1207 46.73 51.3307 46.33Z" fill="#1B1B1B"/>
<path d="M57.791 49.92C57.391 49.7 57.081 49.39 56.851 48.99C56.621 48.59 56.501 48.15 56.501 47.66C56.501 47.17 56.621 46.72 56.851 46.33C57.081 45.94 57.401 45.63 57.791 45.41C58.191 45.19 58.621 45.08 59.101 45.08C59.581 45.08 60.011 45.19 60.411 45.41C60.811 45.63 61.121 45.94 61.351 46.33C61.581 46.72 61.691 47.17 61.691 47.66C61.691 48.15 61.571 48.6 61.341 48.99C61.111 49.39 60.801 49.69 60.401 49.92C60.011 50.14 59.571 50.25 59.101 50.25C58.631 50.25 58.191 50.14 57.791 49.92ZM60.061 48.73C60.301 48.46 60.421 48.11 60.421 47.66C60.421 47.21 60.301 46.86 60.061 46.59C59.821 46.32 59.501 46.19 59.091 46.19C58.681 46.19 58.361 46.32 58.111 46.59C57.861 46.86 57.751 47.21 57.751 47.66C57.751 48.11 57.871 48.46 58.111 48.73C58.351 49 58.681 49.13 59.091 49.13C59.501 49.13 59.821 49 60.061 48.73Z" fill="#1B1B1B"/>
<path d="M66.8803 50.2H65.6504L63.5904 47.08V50.2H62.3604V45.15H63.5904L65.6504 48.28V45.15H66.8803V50.2Z" fill="#1B1B1B"/>
<path d="M69.0007 46.13V47.15H70.6507V48.1H69.0007V49.21H70.8607V50.2H67.7607V45.15H70.8607V46.14H69.0007V46.13Z" fill="#1B1B1B"/>
<path d="M71.7809 46.33C72.0009 45.94 72.3009 45.63 72.6809 45.42C73.0709 45.2 73.5009 45.09 73.9909 45.09C74.5909 45.09 75.1009 45.25 75.5309 45.56C75.9609 45.87 76.2409 46.31 76.3909 46.86H75.0409C74.9409 46.65 74.8009 46.49 74.6109 46.38C74.4309 46.27 74.2209 46.21 73.9809 46.21C73.6009 46.21 73.2909 46.34 73.0609 46.61C72.8209 46.87 72.7109 47.23 72.7109 47.67C72.7109 48.11 72.8309 48.46 73.0609 48.73C73.2909 48.99 73.6009 49.13 73.9809 49.13C74.2209 49.13 74.4309 49.07 74.6109 48.96C74.7909 48.85 74.9409 48.69 75.0409 48.48H76.3909C76.2509 49.03 75.9609 49.46 75.5309 49.77C75.1009 50.08 74.5909 50.24 73.9909 50.24C73.5009 50.24 73.0609 50.13 72.6809 49.91C72.2909 49.69 71.9909 49.39 71.7809 49C71.5609 48.61 71.4609 48.17 71.4609 47.67C71.4609 47.17 71.5709 46.73 71.7809 46.33Z" fill="#1B1B1B"/>
<path d="M80.7909 45.14V46.13H79.4509V50.2H78.2209V46.13H76.8809V45.14H80.7909Z" fill="#1B1B1B"/>
<path d="M84.5503 49.3H82.6603L82.3603 50.19H81.0703L82.9003 45.14H84.3303L86.1603 50.19H84.8603L84.5603 49.3H84.5503ZM84.2303 48.35L83.6003 46.5L82.9803 48.35H84.2303Z" fill="#1B1B1B"/>
<path d="M91.2309 50.2H90.0009L87.9409 47.08V50.2H86.7109V45.15H87.9409L90.0009 48.28V45.15H91.2309V50.2Z" fill="#1B1B1B"/>
<path d="M97.981 45.14L96.231 48.52V50.19H95.001V48.52L93.251 45.14H94.651L95.631 47.26L96.601 45.14H97.981Z" fill="#1B1B1B"/>
<path d="M100.121 46.33C100.341 45.94 100.641 45.63 101.021 45.42C101.411 45.2 101.841 45.09 102.331 45.09C102.931 45.09 103.441 45.25 103.871 45.56C104.301 45.87 104.581 46.31 104.731 46.86H103.381C103.281 46.65 103.141 46.49 102.951 46.38C102.771 46.27 102.561 46.21 102.321 46.21C101.941 46.21 101.631 46.34 101.401 46.61C101.161 46.87 101.051 47.23 101.051 47.67C101.051 48.11 101.171 48.46 101.401 48.73C101.631 48.99 101.941 49.13 102.321 49.13C102.561 49.13 102.771 49.07 102.951 48.96C103.131 48.85 103.281 48.69 103.381 48.48H104.731C104.591 49.03 104.301 49.46 103.871 49.77C103.441 50.08 102.931 50.24 102.331 50.24C101.841 50.24 101.401 50.13 101.021 49.91C100.631 49.69 100.331 49.39 100.121 49C99.9008 48.61 99.8008 48.17 99.8008 47.67C99.8008 47.17 99.9108 46.73 100.121 46.33Z" fill="#1B1B1B"/>
<path d="M108.071 50.2L107.021 48.29H106.731V50.2H105.501V45.15H107.571C107.971 45.15 108.311 45.22 108.591 45.36C108.871 45.5 109.081 45.69 109.221 45.93C109.361 46.17 109.431 46.44 109.431 46.74C109.431 47.08 109.341 47.38 109.151 47.64C108.961 47.9 108.681 48.09 108.311 48.2L109.481 50.2H108.091H108.071ZM106.721 47.42H107.481C107.711 47.42 107.871 47.36 107.991 47.25C108.101 47.14 108.161 46.98 108.161 46.78C108.161 46.58 108.101 46.44 107.991 46.33C107.881 46.22 107.711 46.16 107.481 46.16H106.721V47.41V47.42Z" fill="#1B1B1B"/>
<path d="M111.411 46.13V47.15H113.061V48.1H111.411V49.21H113.271V50.2H110.171V45.15H113.271V46.14H111.411V46.13Z" fill="#1B1B1B"/>
<path d="M117.221 49.3H115.331L115.031 50.19H113.741L115.571 45.14H117.001L118.831 50.19H117.531L117.231 49.3H117.221ZM116.901 48.35L116.271 46.5L115.651 48.35H116.901Z" fill="#1B1B1B"/>
<path d="M123.901 50.2H122.671L120.611 47.08V50.2H119.381V45.15H120.611L122.671 48.28V45.15H123.901V50.2Z" fill="#1B1B1B"/>
<path d="M51.36 37.69C51.58 37.3 51.88 36.99 52.26 36.78C52.65 36.56 53.08 36.45 53.57 36.45C54.17 36.45 54.68 36.61 55.11 36.92C55.54 37.23 55.82 37.67 55.97 38.22H54.62C54.52 38.01 54.38 37.85 54.19 37.74C54.01 37.63 53.8 37.57 53.56 37.57C53.18 37.57 52.87 37.7 52.64 37.97C52.4 38.23 52.29 38.59 52.29 39.03C52.29 39.47 52.41 39.82 52.64 40.09C52.87 40.35 53.18 40.49 53.56 40.49C53.8 40.49 54.01 40.43 54.19 40.32C54.37 40.21 54.52 40.05 54.62 39.84H55.97C55.83 40.39 55.54 40.82 55.11 41.13C54.68 41.44 54.17 41.6 53.57 41.6C53.08 41.6 52.64 41.49 52.26 41.27C51.87 41.05 51.57 40.75 51.36 40.36C51.14 39.97 51.04 39.53 51.04 39.03C51.04 38.53 51.15 38.09 51.36 37.69Z" fill="#1B1B1B"/>
<path d="M57.8203 41.28C57.4203 41.06 57.1103 40.75 56.8803 40.35C56.6503 39.95 56.5303 39.51 56.5303 39.02C56.5303 38.53 56.6503 38.08 56.8803 37.69C57.1103 37.3 57.4303 36.99 57.8203 36.77C58.2203 36.55 58.6503 36.44 59.1303 36.44C59.6103 36.44 60.0403 36.55 60.4403 36.77C60.8403 36.99 61.1503 37.3 61.3803 37.69C61.6103 38.08 61.7203 38.53 61.7203 39.02C61.7203 39.51 61.6003 39.96 61.3703 40.35C61.1403 40.75 60.8303 41.05 60.4303 41.28C60.0403 41.5 59.6003 41.61 59.1303 41.61C58.6603 41.61 58.2203 41.5 57.8203 41.28ZM60.0903 40.09C60.3303 39.82 60.4503 39.47 60.4503 39.02C60.4503 38.57 60.3303 38.22 60.0903 37.95C59.8503 37.68 59.5303 37.55 59.1203 37.55C58.7103 37.55 58.3903 37.68 58.1403 37.95C57.8903 38.22 57.7803 38.57 57.7803 39.02C57.7803 39.47 57.9003 39.82 58.1403 40.09C58.3803 40.36 58.7103 40.49 59.1203 40.49C59.5303 40.49 59.8503 40.36 60.0903 40.09ZM59.9603 35.5L58.2303 36.23V35.38L59.9603 34.55V35.51V35.5Z" fill="#1B1B1B"/>
<path d="M65.6804 36.82C66.0804 37.03 66.3904 37.33 66.6104 37.71C66.8304 38.09 66.9404 38.53 66.9404 39.03C66.9404 39.53 66.8304 39.96 66.6104 40.35C66.3904 40.73 66.0804 41.03 65.6804 41.24C65.2804 41.45 64.8204 41.56 64.2904 41.56H62.4004V36.51H64.2904C64.8204 36.51 65.2904 36.62 65.6904 36.83L65.6804 36.82ZM65.2904 40.11C65.5504 39.86 65.6804 39.5 65.6804 39.03C65.6804 38.56 65.5504 38.2 65.2904 37.94C65.0304 37.68 64.6704 37.55 64.2004 37.55H63.6204V40.49H64.2004C64.6704 40.49 65.0304 40.36 65.2904 40.11Z" fill="#1B1B1B"/>
<path d="M68.8501 36.51V41.56H67.6201V36.51H68.8501Z" fill="#1B1B1B"/>
<path d="M73.0998 38.1C73.0098 37.93 72.8798 37.8 72.7098 37.72C72.5398 37.63 72.3398 37.59 72.1098 37.59C71.7098 37.59 71.3898 37.72 71.1498 37.98C70.9098 38.24 70.7898 38.59 70.7898 39.03C70.7898 39.5 70.9198 39.86 71.1698 40.12C71.4198 40.38 71.7698 40.51 72.2098 40.51C72.5098 40.51 72.7698 40.43 72.9798 40.28C73.1898 40.13 73.3398 39.91 73.4398 39.62H71.8798V38.71H74.5598V39.85C74.4698 40.16 74.3098 40.44 74.0998 40.71C73.8798 40.97 73.5998 41.19 73.2698 41.35C72.9398 41.51 72.5598 41.59 72.1298 41.59C71.6298 41.59 71.1898 41.48 70.7898 41.26C70.3998 41.04 70.0898 40.74 69.8798 40.35C69.6598 39.96 69.5498 39.52 69.5498 39.02C69.5498 38.52 69.6598 38.08 69.8798 37.68C70.0998 37.29 70.3998 36.98 70.7898 36.77C71.1798 36.55 71.6198 36.44 72.1198 36.44C72.7198 36.44 73.2298 36.59 73.6498 36.88C74.0598 37.17 74.3398 37.58 74.4698 38.1H73.1098H73.0998Z" fill="#1B1B1B"/>
<path d="M76.3105 41.28C75.9105 41.06 75.6005 40.75 75.3705 40.35C75.1405 39.95 75.0205 39.51 75.0205 39.02C75.0205 38.53 75.1405 38.08 75.3705 37.69C75.6005 37.3 75.9205 36.99 76.3105 36.77C76.7105 36.55 77.1405 36.44 77.6205 36.44C78.1005 36.44 78.5305 36.55 78.9305 36.77C79.3305 36.99 79.6405 37.3 79.8705 37.69C80.1005 38.08 80.2105 38.53 80.2105 39.02C80.2105 39.51 80.0905 39.96 79.8605 40.35C79.6305 40.75 79.3205 41.05 78.9205 41.28C78.5305 41.5 78.0905 41.61 77.6205 41.61C77.1505 41.61 76.7105 41.5 76.3105 41.28ZM78.5805 40.09C78.8205 39.82 78.9405 39.47 78.9405 39.02C78.9405 38.57 78.8205 38.22 78.5805 37.95C78.3405 37.68 78.0205 37.55 77.6105 37.55C77.2005 37.55 76.8805 37.68 76.6305 37.95C76.3805 38.22 76.2705 38.57 76.2705 39.02C76.2705 39.47 76.3905 39.82 76.6305 40.09C76.8705 40.36 77.2005 40.49 77.6105 40.49C78.0205 40.49 78.3405 40.36 78.5805 40.09Z" fill="#1B1B1B"/>
<path d="M81.7202 41.43C81.4302 41.31 81.1902 41.13 81.0202 40.9C80.8402 40.67 80.7502 40.38 80.7402 40.05H82.0502C82.0702 40.24 82.1302 40.38 82.2402 40.48C82.3502 40.58 82.4902 40.63 82.6702 40.63C82.8502 40.63 83.0002 40.59 83.1002 40.5C83.2002 40.41 83.2602 40.3 83.2602 40.15C83.2602 40.03 83.2202 39.92 83.1302 39.84C83.0502 39.76 82.9402 39.69 82.8202 39.64C82.7002 39.59 82.5202 39.53 82.3002 39.46C81.9702 39.36 81.7102 39.26 81.5002 39.16C81.2902 39.06 81.1202 38.91 80.9702 38.71C80.8202 38.51 80.7502 38.26 80.7502 37.94C80.7502 37.47 80.9202 37.1 81.2602 36.83C81.6002 36.56 82.0402 36.43 82.5902 36.43C83.1402 36.43 83.6002 36.56 83.9402 36.83C84.2802 37.1 84.4602 37.47 84.4902 37.94H83.1602C83.1602 37.78 83.0902 37.65 82.9802 37.55C82.8702 37.46 82.7302 37.41 82.5502 37.41C82.4002 37.41 82.2802 37.45 82.1902 37.53C82.1002 37.61 82.0502 37.72 82.0502 37.87C82.0502 38.03 82.1302 38.16 82.2802 38.25C82.4302 38.34 82.6702 38.44 83.0002 38.54C83.3302 38.65 83.5902 38.76 83.8002 38.86C84.0102 38.96 84.1802 39.11 84.3302 39.3C84.4802 39.49 84.5502 39.74 84.5502 40.04C84.5502 40.34 84.4802 40.59 84.3302 40.82C84.1802 41.05 83.9702 41.24 83.6902 41.38C83.4102 41.52 83.0802 41.59 82.7002 41.59C82.3202 41.59 82.0002 41.53 81.7102 41.41L81.7202 41.43Z" fill="#1B1B1B"/>
<path d="M90.4399 42.42L89.7899 41.55C89.5999 41.59 89.4099 41.61 89.2299 41.61C88.7499 41.61 88.3199 41.5 87.9199 41.28C87.5199 41.06 87.2099 40.75 86.9799 40.35C86.7499 39.95 86.6299 39.51 86.6299 39.02C86.6299 38.53 86.7499 38.08 86.9799 37.69C87.2099 37.3 87.5299 36.99 87.9199 36.77C88.3199 36.55 88.7499 36.44 89.2299 36.44C89.7099 36.44 90.1399 36.55 90.5399 36.77C90.9399 36.99 91.2499 37.3 91.4799 37.69C91.7099 38.08 91.8199 38.53 91.8199 39.02C91.8199 39.45 91.7299 39.85 91.5599 40.2C91.3799 40.56 91.1399 40.85 90.8299 41.09L91.9399 42.42H90.4499H90.4399ZM88.2599 40.08C88.4999 40.35 88.8299 40.48 89.2399 40.48C89.6499 40.48 89.9699 40.35 90.2099 40.08C90.4499 39.81 90.5699 39.46 90.5699 39.01C90.5699 38.56 90.4499 38.21 90.2099 37.94C89.9699 37.67 89.6499 37.54 89.2399 37.54C88.8299 37.54 88.5099 37.67 88.2599 37.94C88.0099 38.21 87.8999 38.56 87.8999 39.01C87.8999 39.46 88.0199 39.81 88.2599 40.08Z" fill="#1B1B1B"/>
<path d="M93.72 36.51V39.53C93.72 39.83 93.79 40.06 93.94 40.23C94.09 40.39 94.31 40.47 94.6 40.47C94.89 40.47 95.11 40.39 95.26 40.23C95.41 40.07 95.49 39.83 95.49 39.53V36.51H96.72V39.53C96.72 39.98 96.62 40.36 96.43 40.67C96.24 40.98 95.98 41.22 95.66 41.38C95.34 41.54 94.97 41.62 94.58 41.62C94.19 41.62 93.83 41.54 93.51 41.39C93.2 41.23 92.95 41 92.77 40.68C92.59 40.37 92.5 39.98 92.5 39.53V36.51H93.73H93.72Z" fill="#1B1B1B"/>
<path d="M98.8201 37.49V38.51H100.47V39.46H98.8201V40.57H100.68V41.56H97.5801V36.51H100.68V37.5H98.8201V37.49Z" fill="#1B1B1B"/>
<path d="M57.8703 80.8C57.8703 81.3 57.7403 81.74 57.4803 82.13C57.2203 82.52 56.8603 82.82 56.4203 83.04C56.9403 83.26 57.3503 83.59 57.6503 84.02C57.9503 84.45 58.1003 84.93 58.1003 85.48C58.1003 86.34 57.8103 87.03 57.2303 87.54C56.6503 88.05 55.8803 88.31 54.9403 88.31C54.0003 88.31 53.2203 88.05 52.6403 87.54C52.0603 87.03 51.7803 86.34 51.7803 85.49C51.7803 84.95 51.9303 84.47 52.2203 84.03C52.5103 83.6 52.9203 83.27 53.4403 83.05C53.0003 82.83 52.6503 82.53 52.3903 82.14C52.1303 81.75 52.0103 81.31 52.0103 80.82C52.0103 79.98 52.2803 79.32 52.8203 78.82C53.3603 78.32 54.0703 78.08 54.9503 78.08C55.8303 78.08 56.5303 78.33 57.0703 78.82C57.6103 79.31 57.8803 79.98 57.8803 80.82L57.8703 80.8ZM56.8403 85.44C56.8403 84.88 56.6603 84.43 56.3103 84.08C55.9603 83.73 55.5003 83.55 54.9303 83.55C54.3603 83.55 53.9003 83.72 53.5603 84.07C53.2203 84.42 53.0403 84.87 53.0403 85.44C53.0403 86.01 53.2103 86.45 53.5403 86.77C53.8803 87.09 54.3403 87.26 54.9403 87.26C55.5403 87.26 56.0003 87.1 56.3303 86.77C56.6703 86.44 56.8403 86 56.8403 85.44ZM54.9403 79.1C54.4403 79.1 54.0403 79.25 53.7303 79.56C53.4203 79.87 53.2703 80.29 53.2703 80.81C53.2703 81.33 53.4203 81.73 53.7303 82.04C54.0303 82.35 54.4403 82.51 54.9403 82.51C55.4403 82.51 55.8503 82.35 56.1503 82.04C56.4503 81.73 56.6103 81.32 56.6103 80.81C56.6103 80.3 56.4503 79.89 56.1403 79.57C55.8303 79.25 55.4303 79.09 54.9403 79.09V79.1Z" fill="#1B1B1B"/>
<path d="M66.2205 88.16H59.7005V87.25L63.1505 83.42C63.6605 82.84 64.0105 82.37 64.2105 82.01C64.4005 81.65 64.5005 81.27 64.5005 80.89C64.5005 80.37 64.3405 79.94 64.0305 79.61C63.7205 79.28 63.3005 79.11 62.7705 79.11C62.1405 79.11 61.6505 79.29 61.3005 79.65C60.9505 80.01 60.7805 80.51 60.7805 81.14H59.5205C59.5205 80.22 59.8105 79.48 60.4005 78.92C60.9905 78.35 61.7805 78.07 62.7705 78.07C63.7005 78.07 64.4305 78.31 64.9605 78.8C65.5005 79.28 65.7705 79.93 65.7705 80.74C65.7705 81.72 65.1505 82.89 63.9005 84.24L61.2305 87.13H66.2305V88.16H66.2205Z" fill="#1B1B1B"/>
<path d="M77.4002 84.54C77.4002 85.67 77.1401 86.57 76.6301 87.26C76.1201 87.95 75.4202 88.29 74.5402 88.29C73.6602 88.29 72.9402 88 72.4202 87.44V91H71.1602V80.76H72.3202L72.3801 81.58C72.9001 80.94 73.6102 80.62 74.5302 80.62C75.4502 80.62 76.1202 80.95 76.6402 81.62C77.1602 82.29 77.4202 83.22 77.4202 84.42V84.54H77.4002ZM76.1402 84.4C76.1402 83.57 75.9602 82.91 75.6102 82.42C75.2602 81.93 74.7702 81.7 74.1502 81.7C73.3802 81.7 72.8102 82.04 72.4302 82.72V86.25C72.8102 86.92 73.3902 87.26 74.1702 87.26C74.7802 87.26 75.2602 87.02 75.6202 86.54C75.9802 86.06 76.1602 85.35 76.1602 84.4H76.1402Z" fill="#1B1B1B"/>
<path d="M81.3902 83.46L83.0302 80.76H84.5102L82.0902 84.42L84.5902 88.16H83.1302L81.4202 85.39L79.7102 88.16H78.2402L80.7402 84.42L78.3202 80.76H79.7802L81.4002 83.46H81.3902Z" fill="#1B1B1B"/>
<path d="M0.349609 55.77L0.479609 71.26H125.53L125.4 55.75" stroke="#333333" stroke-width="0.7" stroke-miterlimit="10"/>
</g>
<defs>
<clipPath id="clip0_315_651">
<rect width="125.88" height="91" fill="white"/>
</clipPath>
</defs>
</svg>
