<svg width="112" height="226" viewBox="0 0 112 226" fill="none" xmlns="http://www.w3.org/2000/svg">
<path d="M111.67 105.91C97.2404 91.48 82.8104 77.06 68.3804 62.63C82.8104 47.97 97.2404 33.32 111.67 18.66C111.67 12.66 111.67 6.66999 111.67 0.679993C91.4804 21.37 71.3004 42.05 51.1104 62.74C71.3004 82.91 91.4904 103.09 111.68 123.26C111.68 117.48 111.68 111.69 111.68 105.91H111.67Z" fill="#00997B"/>
<path d="M111.69 208.51C97.3001 194.24 82.9201 179.97 68.5301 165.71L89.6101 144.87L80.9701 136.13L51.0801 165.67C71.2801 185.74 91.4701 205.81 111.67 225.88C111.67 220.09 111.68 214.3 111.69 208.51Z" fill="#00997B"/>
<path d="M42.8396 156.89L0.0996094 114.18L42.7896 70.54L51.5696 79.13L17.3796 114.08L51.5196 148.2L42.8396 156.89Z" fill="#00997B"/>
</svg>
