<svg width="112" height="226" viewBox="0 0 112 226" fill="none" xmlns="http://www.w3.org/2000/svg">
<g clip-path="url(#clip0_292_45)">
<path d="M0.01 119.92C14.5 134.34 28.99 148.77 43.49 163.19C29.06 177.85 14.63 192.5 0.2 207.16C0.2 213.16 0.2 219.15 0.2 225.14C20.39 204.45 40.57 183.77 60.76 163.08C40.51 142.91 20.25 122.72 0 102.53C0 108.33 0 114.12 0 119.92H0.01Z" fill="#D7942E"/>
<path d="M0 17.34C14.45 31.6 28.89 45.86 43.34 60.13L22.26 80.97L30.9 89.71L60.79 60.17C40.53 40.1 20.28 20.05 0.02 0C0.02 5.78 0 11.56 0 17.34Z" fill="#D7942E"/>
<path d="M69.02 68.95L111.77 111.65L69.07 155.3L60.29 146.71L94.48 111.75L60.34 77.64L69.02 68.95Z" fill="#D7942E"/>
</g>
<defs>
<clipPath id="clip0_292_45">
<rect width="111.77" height="225.15" fill="white"/>
</clipPath>
</defs>
</svg>
