<svg width="263" height="337" viewBox="0 0 263 337" fill="none" xmlns="http://www.w3.org/2000/svg">
<g clip-path="url(#clip0_313_1114)">
<path d="M92.5998 179.77L85.8398 193.71C82.1898 190.61 78.5098 189.06 74.7898 189.06C72.4098 189.06 70.5498 189.75 69.2198 191.13C68.1098 192.31 67.5498 193.64 67.5498 195.12C67.5498 196.43 68.0598 197.54 69.0698 198.45C70.0498 199.29 71.0498 199.93 72.0498 200.37C73.0498 200.81 75.4598 201.62 79.2598 202.79C84.5898 204.47 88.5498 206.76 91.1198 209.66C93.8498 212.79 95.2198 216.95 95.2198 222.13C95.2198 230.04 92.9998 236.03 88.5498 240.11C83.7898 244.42 77.5298 246.57 69.7898 246.57C62.0498 246.57 54.3098 243.96 47.2598 238.74L54.4998 224.3C59.5498 228.98 64.5198 231.32 69.4098 231.32C72.3898 231.32 74.5698 230.5 75.9298 228.85C77.0098 227.54 77.5498 226.11 77.5498 224.56C77.5498 222.71 76.8398 221.24 75.4298 220.14C74.0198 219.05 71.3298 217.88 67.3598 216.63C61.1398 214.71 57.0298 212.86 55.0198 211.08C51.5598 208.08 49.8298 203.52 49.8298 197.4C49.8298 190.23 52.0698 184.47 56.5398 180.13C60.5998 176.16 65.7498 174.17 71.9698 174.17C79.0198 174.17 85.8898 176.04 92.5898 179.77H92.5998Z" fill="#041E42"/>
<path d="M113.22 170.58C115.66 170.58 117.74 171.49 119.46 173.31C121.17 175.13 122.03 177.32 122.03 179.87C122.03 182.42 121.17 184.67 119.46 186.48C117.75 188.3 115.68 189.21 113.27 189.21C110.86 189.21 108.71 188.3 107.03 186.48C105.32 184.63 104.46 182.39 104.46 179.76C104.46 177.27 105.32 175.11 107.06 173.3C108.79 171.48 110.85 170.57 113.23 170.57L113.22 170.58ZM121.03 197.9V244.76H105.41V197.9H121.03Z" fill="#041E42"/>
<path d="M149.18 211.68V244.75H133.56V211.68H128.42V197.9H133.56V183.81H149.18V197.9H158.09V211.68H149.18Z" fill="#041E42"/>
<path d="M189.52 196.18C198.28 196.18 205.13 199.01 210.05 204.66C214.11 209.31 216.15 214.86 216.15 221.32C216.15 228.93 213.48 235.15 208.15 240C203.39 244.34 197.1 246.51 189.29 246.51C184.34 246.51 179.7 245.38 175.38 243.13C171.35 241.01 168.19 237.78 165.9 233.44C163.93 229.77 162.95 225.6 162.95 220.92C162.95 213.68 165.62 207.61 170.95 202.69C173.62 200.27 176.92 198.5 180.86 197.39C183.78 196.58 186.67 196.18 189.53 196.18H189.52ZM189.52 210.47C186.73 210.47 184.36 211.51 182.42 213.6C180.45 215.72 179.47 218.21 179.47 221.07C179.47 224.13 180.45 226.73 182.42 228.85C184.36 230.94 186.74 231.98 189.56 231.98C192.38 231.98 194.69 230.94 196.66 228.85C198.63 226.73 199.61 224.19 199.61 221.23C199.61 218.27 198.63 215.66 196.66 213.61C194.66 211.52 192.28 210.48 189.52 210.48V210.47Z" fill="#041E42"/>
<path d="M145.38 77.88L159.44 64.01L131.41 35.97L103.38 64.01L159.15 119.96C149.9 129.29 140.65 138.61 131.41 147.94C122.08 138.61 112.75 129.29 103.42 119.96C108.02 115.4 112.61 110.84 117.21 106.28" stroke="#CD212A" stroke-width="7" stroke-miterlimit="10"/>
<path d="M166.35 70.8199L187.15 91.9299L166.35 113.03" stroke="#CD212A" stroke-width="7" stroke-miterlimit="10"/>
<path d="M96.59 112.82C89.66 105.86 82.73 98.91 75.79 91.96C82.72 84.84 89.65 77.73 96.59 70.61" stroke="#CD212A" stroke-width="7" stroke-miterlimit="10"/>
<path d="M65.4598 272.14C66.0398 271.09 66.8498 270.26 67.8898 269.68C68.9298 269.09 70.1098 268.8 71.4298 268.8C73.0498 268.8 74.4298 269.23 75.5798 270.08C76.7298 270.93 77.4998 272.1 77.8898 273.57H74.2398C73.9698 273 73.5798 272.57 73.0898 272.27C72.5898 271.97 72.0298 271.82 71.3898 271.82C70.3698 271.82 69.5399 272.18 68.9099 272.89C68.2799 273.6 67.9598 274.55 67.9598 275.74C67.9598 276.93 68.2799 277.88 68.9099 278.59C69.5399 279.3 70.3698 279.66 71.3898 279.66C72.0198 279.66 72.5898 279.51 73.0898 279.21C73.5898 278.91 73.9698 278.48 74.2398 277.91H77.8898C77.4998 279.38 76.7298 280.55 75.5798 281.39C74.4298 282.24 73.0398 282.66 71.4298 282.66C70.1098 282.66 68.9298 282.37 67.8898 281.78C66.8498 281.19 66.0398 280.37 65.4598 279.33C64.8798 278.28 64.5898 277.09 64.5898 275.74C64.5898 274.39 64.8798 273.2 65.4598 272.14Z" fill="#1B1B1B"/>
<path d="M82.8599 281.81C81.7899 281.22 80.9499 280.38 80.3199 279.32C79.6899 278.26 79.3799 277.05 79.3799 275.72C79.3799 274.39 79.6899 273.19 80.3199 272.13C80.9499 271.07 81.7899 270.24 82.8599 269.65C83.9299 269.06 85.0999 268.76 86.3799 268.76C87.6599 268.76 88.8299 269.06 89.8999 269.65C90.9699 270.25 91.8099 271.07 92.4199 272.13C93.0299 273.19 93.3399 274.39 93.3399 275.72C93.3399 277.05 93.0299 278.25 92.4099 279.32C91.7899 280.39 90.9499 281.22 89.8899 281.81C88.8299 282.41 87.6599 282.7 86.3799 282.7C85.0999 282.7 83.9299 282.4 82.8599 281.81ZM88.9899 278.59C89.6399 277.87 89.9699 276.91 89.9699 275.72C89.9699 274.53 89.6399 273.56 88.9899 272.84C88.3399 272.12 87.4699 271.76 86.3799 271.76C85.2899 271.76 84.3999 272.12 83.7499 272.83C83.0999 273.54 82.7699 274.5 82.7699 275.72C82.7699 276.94 83.0999 277.88 83.7499 278.6C84.3999 279.32 85.2799 279.68 86.3799 279.68C87.4799 279.68 88.3399 279.32 88.9899 278.59ZM88.6299 266.21L83.9599 268.17V265.88L88.6299 263.63V266.21Z" fill="#1B1B1B"/>
<path d="M104.049 269.8C105.119 270.37 105.949 271.17 106.539 272.2C107.129 273.23 107.419 274.41 107.419 275.76C107.419 277.11 107.129 278.28 106.539 279.31C105.949 280.35 105.119 281.15 104.039 281.72C102.959 282.29 101.709 282.57 100.289 282.57H95.1895V268.95H100.289C101.729 268.95 102.979 269.23 104.049 269.8ZM102.999 278.67C103.699 277.98 104.049 277.01 104.049 275.76C104.049 274.51 103.699 273.53 102.999 272.83C102.299 272.13 101.319 271.78 100.069 271.78H98.4995V279.7H100.069C101.319 279.7 102.299 279.36 102.999 278.67Z" fill="#1B1B1B"/>
<path d="M112.61 268.95V282.57H109.29V268.95H112.61Z" fill="#1B1B1B"/>
<path d="M124.049 273.26C123.799 272.81 123.449 272.46 122.989 272.22C122.529 271.98 121.989 271.86 121.369 271.86C120.299 271.86 119.439 272.21 118.789 272.92C118.139 273.63 117.819 274.57 117.819 275.74C117.819 276.99 118.159 277.97 118.839 278.68C119.519 279.39 120.449 279.74 121.639 279.74C122.449 279.74 123.139 279.53 123.709 279.12C124.279 278.71 124.679 278.11 124.939 277.34H120.729V274.9H127.949V277.98C127.699 278.81 127.289 279.58 126.699 280.29C126.109 281 125.359 281.58 124.459 282.02C123.549 282.46 122.529 282.68 121.389 282.68C120.049 282.68 118.849 282.39 117.789 281.8C116.739 281.21 115.909 280.39 115.329 279.35C114.739 278.3 114.449 277.11 114.449 275.76C114.449 274.41 114.739 273.22 115.329 272.16C115.919 271.11 116.739 270.28 117.779 269.7C118.829 269.11 120.019 268.82 121.369 268.82C122.999 268.82 124.369 269.21 125.489 270C126.609 270.79 127.349 271.88 127.709 273.28H124.039L124.049 273.26Z" fill="#1B1B1B"/>
<path d="M132.71 281.81C131.64 281.22 130.799 280.38 130.169 279.32C129.539 278.26 129.229 277.05 129.229 275.72C129.229 274.39 129.539 273.19 130.169 272.13C130.799 271.07 131.64 270.24 132.71 269.65C133.78 269.06 134.949 268.76 136.229 268.76C137.509 268.76 138.679 269.06 139.749 269.65C140.819 270.25 141.66 271.07 142.27 272.13C142.88 273.19 143.189 274.39 143.189 275.72C143.189 277.05 142.879 278.25 142.259 279.32C141.639 280.39 140.8 281.22 139.74 281.81C138.68 282.41 137.509 282.7 136.229 282.7C134.949 282.7 133.78 282.4 132.71 281.81ZM138.839 278.59C139.489 277.87 139.82 276.91 139.82 275.72C139.82 274.53 139.489 273.56 138.839 272.84C138.189 272.12 137.319 271.76 136.229 271.76C135.139 271.76 134.25 272.12 133.6 272.83C132.95 273.54 132.619 274.5 132.619 275.72C132.619 276.94 132.95 277.88 133.6 278.6C134.25 279.32 135.129 279.68 136.229 279.68C137.329 279.68 138.189 279.32 138.839 278.59Z" fill="#1B1B1B"/>
<path d="M147.289 282.22C146.499 281.9 145.869 281.42 145.399 280.78C144.929 280.14 144.679 279.38 144.649 278.49H148.179C148.229 278.99 148.409 279.38 148.699 279.64C148.999 279.91 149.389 280.04 149.859 280.04C150.329 280.04 150.739 279.93 151.019 279.7C151.299 279.47 151.449 279.16 151.449 278.76C151.449 278.42 151.339 278.15 151.109 277.93C150.879 277.71 150.609 277.53 150.279 277.39C149.949 277.25 149.479 277.09 148.869 276.9C147.989 276.63 147.269 276.36 146.719 276.09C146.159 275.82 145.679 275.42 145.279 274.89C144.879 274.36 144.679 273.67 144.679 272.81C144.679 271.54 145.139 270.55 146.059 269.83C146.979 269.11 148.169 268.75 149.649 268.75C151.129 268.75 152.359 269.11 153.279 269.83C154.199 270.55 154.689 271.55 154.749 272.83H151.159C151.129 272.39 150.969 272.04 150.679 271.79C150.379 271.54 149.999 271.41 149.529 271.41C149.129 271.41 148.809 271.52 148.559 271.73C148.309 271.94 148.189 272.25 148.189 272.65C148.189 273.09 148.399 273.43 148.809 273.68C149.219 273.93 149.869 274.19 150.749 274.48C151.629 274.78 152.339 275.06 152.889 275.33C153.439 275.6 153.919 276 154.319 276.51C154.719 277.03 154.919 277.69 154.919 278.51C154.919 279.33 154.719 279.99 154.329 280.62C153.939 281.25 153.359 281.76 152.609 282.13C151.859 282.5 150.969 282.69 149.949 282.69C148.929 282.69 148.059 282.53 147.269 282.21L147.289 282.22Z" fill="#1B1B1B"/>
<path d="M170.78 284.9L169.03 282.55C168.51 282.65 168.01 282.71 167.52 282.71C166.24 282.71 165.07 282.41 164 281.82C162.93 281.23 162.09 280.39 161.46 279.33C160.83 278.27 160.52 277.06 160.52 275.73C160.52 274.4 160.83 273.2 161.46 272.14C162.09 271.08 162.93 270.25 164 269.66C165.07 269.07 166.24 268.77 167.52 268.77C168.8 268.77 169.97 269.07 171.04 269.66C172.11 270.26 172.95 271.08 173.56 272.14C174.17 273.2 174.48 274.4 174.48 275.73C174.48 276.89 174.24 277.96 173.77 278.92C173.3 279.88 172.64 280.68 171.8 281.32L174.79 284.91H170.77L170.78 284.9ZM164.89 278.6C165.54 279.32 166.42 279.68 167.52 279.68C168.62 279.68 169.48 279.32 170.13 278.59C170.78 277.87 171.11 276.91 171.11 275.72C171.11 274.53 170.78 273.56 170.13 272.84C169.48 272.12 168.61 271.76 167.52 271.76C166.43 271.76 165.54 272.12 164.89 272.83C164.24 273.54 163.91 274.5 163.91 275.72C163.91 276.94 164.24 277.88 164.89 278.6Z" fill="#1B1B1B"/>
<path d="M179.63 268.95V277.1C179.63 277.91 179.83 278.54 180.23 278.98C180.63 279.42 181.22 279.64 182 279.64C182.78 279.64 183.37 279.42 183.78 278.98C184.19 278.54 184.4 277.91 184.4 277.1V268.95H187.72V277.08C187.72 278.3 187.46 279.32 186.94 280.16C186.42 281 185.73 281.63 184.86 282.06C183.99 282.49 183.01 282.7 181.94 282.7C180.87 282.7 179.91 282.49 179.06 282.07C178.21 281.65 177.54 281.02 177.05 280.17C176.56 279.32 176.31 278.29 176.31 277.08V268.95H179.63Z" fill="#1B1B1B"/>
<path d="M193.36 271.61V274.36H197.8V276.92H193.36V279.91H198.38V282.57H190.04V268.95H198.38V271.61H193.36Z" fill="#1B1B1B"/>
<path d="M34.0096 295.42C34.5896 294.37 35.3996 293.54 36.4396 292.96C37.4796 292.37 38.6596 292.08 39.9796 292.08C41.5996 292.08 42.9797 292.51 44.1297 293.36C45.2797 294.21 46.0496 295.38 46.4396 296.85H42.7896C42.5196 296.28 42.1296 295.85 41.6396 295.55C41.1396 295.25 40.5796 295.1 39.9396 295.1C38.9196 295.1 38.0896 295.46 37.4596 296.17C36.8296 296.88 36.5096 297.83 36.5096 299.02C36.5096 300.21 36.8296 301.16 37.4596 301.87C38.0896 302.58 38.9196 302.94 39.9396 302.94C40.5696 302.94 41.1396 302.79 41.6396 302.49C42.1396 302.19 42.5196 301.76 42.7896 301.19H46.4396C46.0496 302.66 45.2797 303.83 44.1297 304.67C42.9797 305.52 41.5896 305.94 39.9796 305.94C38.6596 305.94 37.4796 305.65 36.4396 305.06C35.3996 304.47 34.5896 303.65 34.0096 302.61C33.4296 301.56 33.1396 300.37 33.1396 299.02C33.1396 297.67 33.4296 296.48 34.0096 295.42Z" fill="#1B1B1B"/>
<path d="M51.3999 305.09C50.3299 304.5 49.4899 303.66 48.8599 302.6C48.2299 301.54 47.9199 300.33 47.9199 299C47.9199 297.67 48.2299 296.47 48.8599 295.41C49.4899 294.35 50.3299 293.52 51.3999 292.93C52.4699 292.34 53.6399 292.04 54.9199 292.04C56.1999 292.04 57.3699 292.34 58.4399 292.93C59.5099 293.53 60.3499 294.35 60.9599 295.41C61.5699 296.47 61.8799 297.67 61.8799 299C61.8799 300.33 61.5699 301.53 60.9499 302.6C60.3299 303.67 59.4899 304.5 58.4299 305.09C57.3699 305.69 56.1999 305.98 54.9199 305.98C53.6399 305.98 52.4699 305.68 51.3999 305.09ZM57.5299 301.87C58.1799 301.15 58.5099 300.19 58.5099 299C58.5099 297.81 58.1799 296.84 57.5299 296.12C56.8799 295.4 56.0099 295.04 54.9199 295.04C53.8299 295.04 52.9399 295.4 52.2899 296.11C51.6399 296.82 51.3099 297.78 51.3099 299C51.3099 300.22 51.6399 301.16 52.2899 301.88C52.9399 302.6 53.8199 302.96 54.9199 302.96C56.0199 302.96 56.8799 302.6 57.5299 301.87Z" fill="#1B1B1B"/>
<path d="M75.9097 305.85H72.5897L67.0397 297.45V305.85H63.7197V292.23H67.0397L72.5897 300.67V292.23H75.9097V305.85Z" fill="#1B1B1B"/>
<path d="M81.6296 294.89V297.64H86.0696V300.2H81.6296V303.19H86.6496V305.85H78.3096V292.23H86.6496V294.89H81.6296Z" fill="#1B1B1B"/>
<path d="M89.12 295.42C89.7 294.37 90.51 293.54 91.55 292.96C92.59 292.37 93.77 292.08 95.09 292.08C96.71 292.08 98.09 292.51 99.24 293.36C100.39 294.21 101.16 295.38 101.55 296.85H97.9C97.63 296.28 97.24 295.85 96.75 295.55C96.25 295.25 95.69 295.1 95.05 295.1C94.03 295.1 93.2 295.46 92.57 296.17C91.94 296.88 91.62 297.83 91.62 299.02C91.62 300.21 91.94 301.16 92.57 301.87C93.2 302.58 94.03 302.94 95.05 302.94C95.68 302.94 96.25 302.79 96.75 302.49C97.25 302.19 97.63 301.76 97.9 301.19H101.55C101.16 302.66 100.39 303.83 99.24 304.67C98.09 305.52 96.7 305.94 95.09 305.94C93.77 305.94 92.59 305.65 91.55 305.06C90.51 304.47 89.7 303.65 89.12 302.61C88.54 301.56 88.25 300.37 88.25 299.02C88.25 297.67 88.54 296.48 89.12 295.42Z" fill="#1B1B1B"/>
<path d="M113.39 292.23V294.89H109.78V305.85H106.46V294.89H102.85V292.23H113.38H113.39Z" fill="#1B1B1B"/>
<path d="M123.54 303.44H118.46L117.65 305.85H114.18L119.11 292.23H122.95L127.88 305.85H124.37L123.56 303.44H123.54ZM122.69 300.88L121 295.89L119.33 300.88H122.69Z" fill="#1B1B1B"/>
<path d="M141.54 305.85H138.22L132.67 297.45V305.85H129.35V292.23H132.67L138.22 300.67V292.23H141.54V305.85Z" fill="#1B1B1B"/>
<path d="M159.74 292.23L155.03 301.35V305.85H151.71V301.35L147 292.23H150.76L153.4 297.93L156.02 292.23H159.74Z" fill="#1B1B1B"/>
<path d="M165.5 295.42C166.08 294.37 166.89 293.54 167.93 292.96C168.97 292.37 170.15 292.08 171.47 292.08C173.09 292.08 174.47 292.51 175.62 293.36C176.77 294.21 177.54 295.38 177.93 296.85H174.28C174.01 296.28 173.62 295.85 173.13 295.55C172.63 295.25 172.07 295.1 171.43 295.1C170.41 295.1 169.58 295.46 168.95 296.17C168.32 296.88 168 297.83 168 299.02C168 300.21 168.32 301.16 168.95 301.87C169.58 302.58 170.41 302.94 171.43 302.94C172.06 302.94 172.63 302.79 173.13 302.49C173.63 302.19 174.01 301.76 174.28 301.19H177.93C177.54 302.66 176.77 303.83 175.62 304.67C174.47 305.52 173.08 305.94 171.47 305.94C170.15 305.94 168.97 305.65 167.93 305.06C166.89 304.47 166.08 303.65 165.5 302.61C164.92 301.56 164.63 300.37 164.63 299.02C164.63 297.67 164.92 296.48 165.5 295.42Z" fill="#1B1B1B"/>
<path d="M186.91 305.85L184.08 300.71H183.29V305.85H179.97V292.23H185.54C186.61 292.23 187.53 292.42 188.29 292.79C189.05 293.16 189.61 293.68 189.99 294.33C190.37 294.98 190.55 295.71 190.55 296.51C190.55 297.42 190.3 298.22 189.78 298.94C189.27 299.65 188.52 300.16 187.52 300.45L190.66 305.84H186.92L186.91 305.85ZM183.28 298.36H185.34C185.95 298.36 186.4 298.21 186.71 297.91C187.01 297.61 187.17 297.19 187.17 296.65C187.17 296.11 187.02 295.73 186.71 295.43C186.41 295.13 185.95 294.98 185.34 294.98H183.28V298.36Z" fill="#1B1B1B"/>
<path d="M195.94 294.89V297.64H200.38V300.2H195.94V303.19H200.96V305.85H192.62V292.23H200.96V294.89H195.94Z" fill="#1B1B1B"/>
<path d="M211.589 303.44H206.509L205.699 305.85H202.229L207.16 292.23H210.999L215.929 305.85H212.419L211.609 303.44H211.589ZM210.74 300.88L209.049 295.89L207.38 300.88H210.74Z" fill="#1B1B1B"/>
<path d="M229.589 305.85H226.269L220.719 297.45V305.85H217.399V292.23H220.719L226.269 300.67V292.23H229.589V305.85Z" fill="#1B1B1B"/>
<path d="M262.57 0.25H0.25V336.51H262.57V0.25Z" stroke="#1B1B1B" stroke-width="0.5" stroke-miterlimit="10"/>
</g>
<defs>
<clipPath id="clip0_313_1114">
<rect width="262.82" height="336.76" fill="white"/>
</clipPath>
</defs>
</svg>
