<svg width="312" height="338" viewBox="0 0 312 338" fill="none" xmlns="http://www.w3.org/2000/svg">
<g clip-path="url(#clip0_312_1055)">
<path d="M33.18 0.5H0.5V31.07H33.18V0.5Z" fill="#FBFBFB" stroke="#333333" stroke-width="0.25" stroke-miterlimit="10"/>
<path d="M65.9896 0.5H33.3096V31.07H65.9896V0.5Z" fill="#FBFBFB" stroke="#333333" stroke-width="0.25" stroke-miterlimit="10"/>
<path d="M33.18 31.07H0.5V61.64H33.18V31.07Z" fill="#FBFBFB" stroke="#333333" stroke-width="0.25" stroke-miterlimit="10"/>
<path d="M230.01 0.5H197.33V31.07H230.01V0.5Z" fill="#FBFBFB" stroke="#333333" stroke-width="0.25" stroke-miterlimit="10"/>
<path d="M262.82 0.5H230.14V31.07H262.82V0.5Z" fill="#FBFBFB" stroke="#333333" stroke-width="0.25" stroke-miterlimit="10"/>
<path d="M262.82 31.07H230.14V61.64H262.82V31.07Z" fill="#FBFBFB" stroke="#333333" stroke-width="0.25" stroke-miterlimit="10"/>
<path d="M33.18 275.62H0.5V306.19H33.18V275.62Z" fill="#FBFBFB" stroke="#333333" stroke-width="0.25" stroke-miterlimit="10"/>
<path d="M33.18 306.19H0.5V336.76H33.18V306.19Z" fill="#FBFBFB" stroke="#333333" stroke-width="0.25" stroke-miterlimit="10"/>
<path d="M65.9896 306.19H33.3096V336.76H65.9896V306.19Z" fill="#FBFBFB" stroke="#333333" stroke-width="0.25" stroke-miterlimit="10"/>
<path d="M262.82 275.62H230.14V306.19H262.82V275.62Z" fill="#FBFBFB" stroke="#333333" stroke-width="0.25" stroke-miterlimit="10"/>
<path d="M230.01 306.19H197.33V336.76H230.01V306.19Z" fill="#FBFBFB" stroke="#333333" stroke-width="0.25" stroke-miterlimit="10"/>
<path d="M262.82 306.19H230.14V336.76H262.82V306.19Z" fill="#FBFBFB" stroke="#333333" stroke-width="0.25" stroke-miterlimit="10"/>
<path d="M270.09 31.2L296.73 31.09" stroke="#333333" stroke-width="0.25" stroke-miterlimit="10"/>
<path d="M291.96 0.630005V31.2" stroke="#333333" stroke-width="0.25" stroke-miterlimit="10"/>
<path d="M92.8498 180.02L86.0898 193.96C82.4398 190.86 78.7598 189.31 75.0398 189.31C72.6598 189.31 70.7998 190 69.4698 191.38C68.3598 192.56 67.7998 193.89 67.7998 195.37C67.7998 196.68 68.3098 197.79 69.3198 198.7C70.2998 199.54 71.2998 200.18 72.2998 200.62C73.2998 201.06 75.7098 201.87 79.5098 203.04C84.8398 204.72 88.7998 207.01 91.3698 209.91C94.0998 213.04 95.4698 217.2 95.4698 222.38C95.4698 230.29 93.2498 236.28 88.7998 240.36C84.0398 244.67 77.7798 246.82 70.0398 246.82C62.2998 246.82 54.5598 244.21 47.5098 238.99L54.7498 224.55C59.7998 229.23 64.7698 231.57 69.6598 231.57C72.6398 231.57 74.8198 230.75 76.1798 229.1C77.2598 227.79 77.7998 226.36 77.7998 224.81C77.7998 222.96 77.0898 221.49 75.6798 220.39C74.2698 219.3 71.5798 218.13 67.6098 216.88C61.3898 214.96 57.2798 213.11 55.2698 211.33C51.8098 208.33 50.0798 203.77 50.0798 197.65C50.0798 190.48 52.3198 184.72 56.7898 180.38C60.8498 176.41 65.9998 174.42 72.2198 174.42C79.2698 174.42 86.1398 176.29 92.8398 180.02H92.8498Z" stroke="#1B1B1B" stroke-width="0.75" stroke-miterlimit="10"/>
<path d="M113.47 170.83C115.91 170.83 117.99 171.74 119.71 173.56C121.42 175.38 122.28 177.57 122.28 180.12C122.28 182.67 121.42 184.92 119.71 186.73C118 188.55 115.93 189.46 113.52 189.46C111.11 189.46 108.96 188.55 107.28 186.73C105.57 184.88 104.71 182.64 104.71 180.01C104.71 177.52 105.57 175.36 107.31 173.55C109.04 171.73 111.1 170.82 113.48 170.82L113.47 170.83ZM121.28 198.15V245.01H105.66V198.15H121.28Z" stroke="#1B1B1B" stroke-width="0.75" stroke-miterlimit="10"/>
<path d="M149.43 211.93V245H133.81V211.93H128.67V198.15H133.81V184.06H149.43V198.15H158.34V211.93H149.43Z" stroke="#1B1B1B" stroke-width="0.75" stroke-miterlimit="10"/>
<path d="M189.77 196.43C198.53 196.43 205.38 199.26 210.3 204.91C214.36 209.56 216.4 215.11 216.4 221.57C216.4 229.18 213.73 235.4 208.4 240.25C203.64 244.59 197.35 246.76 189.54 246.76C184.59 246.76 179.95 245.63 175.63 243.38C171.6 241.26 168.44 238.03 166.15 233.69C164.18 230.02 163.2 225.85 163.2 221.17C163.2 213.93 165.87 207.86 171.2 202.94C173.87 200.52 177.17 198.75 181.11 197.64C184.03 196.83 186.92 196.43 189.78 196.43H189.77ZM189.77 210.72C186.98 210.72 184.61 211.76 182.67 213.85C180.7 215.97 179.72 218.46 179.72 221.32C179.72 224.38 180.7 226.98 182.67 229.1C184.61 231.19 186.99 232.23 189.81 232.23C192.63 232.23 194.94 231.19 196.91 229.1C198.88 226.98 199.86 224.44 199.86 221.48C199.86 218.52 198.88 215.91 196.91 213.86C194.91 211.77 192.53 210.73 189.77 210.73V210.72Z" stroke="#1B1B1B" stroke-width="0.75" stroke-miterlimit="10"/>
<path d="M145.63 78.13L159.69 64.26L131.66 36.22L103.63 64.26L159.4 120.21C150.15 129.54 140.9 138.86 131.66 148.19C122.33 138.86 113 129.54 103.67 120.21C108.27 115.65 112.86 111.09 117.46 106.53" stroke="#1B1B1B" stroke-width="7" stroke-miterlimit="10"/>
<path d="M166.6 71.0699L187.4 92.1799L166.6 113.28" stroke="#1B1B1B" stroke-width="7" stroke-miterlimit="10"/>
<path d="M96.84 113.07C89.91 106.11 82.98 99.16 76.04 92.21C82.97 85.09 89.9 77.98 96.84 70.86" stroke="#1B1B1B" stroke-width="7" stroke-miterlimit="10"/>
<path d="M65.7098 272.39C66.2898 271.34 67.0998 270.51 68.1398 269.93C69.1798 269.34 70.3598 269.05 71.6798 269.05C73.2998 269.05 74.6798 269.48 75.8298 270.33C76.9798 271.18 77.7498 272.35 78.1398 273.82H74.4898C74.2198 273.25 73.8298 272.82 73.3398 272.52C72.8398 272.22 72.2798 272.07 71.6398 272.07C70.6198 272.07 69.7899 272.43 69.1599 273.14C68.5299 273.85 68.2098 274.8 68.2098 275.99C68.2098 277.18 68.5299 278.13 69.1599 278.84C69.7899 279.55 70.6198 279.91 71.6398 279.91C72.2698 279.91 72.8398 279.76 73.3398 279.46C73.8398 279.16 74.2198 278.73 74.4898 278.16H78.1398C77.7498 279.63 76.9798 280.8 75.8298 281.64C74.6798 282.48 73.2898 282.91 71.6798 282.91C70.3598 282.91 69.1798 282.62 68.1398 282.03C67.0998 281.44 66.2898 280.62 65.7098 279.58C65.1298 278.53 64.8398 277.34 64.8398 275.99C64.8398 274.64 65.1298 273.45 65.7098 272.39Z" stroke="#1B1B1B" stroke-width="0.75" stroke-miterlimit="10"/>
<path d="M83.1099 282.06C82.0399 281.47 81.1999 280.63 80.5699 279.57C79.9399 278.5 79.6299 277.3 79.6299 275.97C79.6299 274.64 79.9399 273.44 80.5699 272.38C81.1999 271.32 82.0399 270.49 83.1099 269.9C84.1799 269.31 85.3499 269.01 86.6299 269.01C87.9099 269.01 89.0799 269.31 90.1499 269.9C91.2199 270.5 92.0599 271.32 92.6699 272.38C93.2799 273.44 93.5899 274.64 93.5899 275.97C93.5899 277.3 93.2799 278.5 92.6599 279.57C92.0399 280.64 91.1999 281.47 90.1399 282.06C89.0799 282.65 87.9099 282.95 86.6299 282.95C85.3499 282.95 84.1799 282.65 83.1099 282.06ZM89.2399 278.84C89.8899 278.12 90.2199 277.16 90.2199 275.97C90.2199 274.78 89.8899 273.81 89.2399 273.09C88.5899 272.37 87.7199 272.01 86.6299 272.01C85.5399 272.01 84.6499 272.37 83.9999 273.08C83.3499 273.79 83.0199 274.75 83.0199 275.97C83.0199 277.19 83.3499 278.13 83.9999 278.85C84.6499 279.57 85.5299 279.93 86.6299 279.93C87.7299 279.93 88.5899 279.57 89.2399 278.84ZM88.8799 266.46L84.2099 268.42V266.13L88.8799 263.88V266.46Z" stroke="#1B1B1B" stroke-width="0.75" stroke-miterlimit="10"/>
<path d="M104.299 270.05C105.369 270.62 106.199 271.42 106.789 272.45C107.379 273.48 107.669 274.66 107.669 276.01C107.669 277.36 107.379 278.53 106.789 279.56C106.199 280.6 105.369 281.4 104.289 281.97C103.209 282.54 101.959 282.82 100.539 282.82H95.4395V269.2H100.539C101.979 269.2 103.229 269.49 104.299 270.05ZM103.249 278.92C103.949 278.23 104.299 277.26 104.299 276.01C104.299 274.76 103.949 273.78 103.249 273.08C102.549 272.38 101.569 272.03 100.319 272.03H98.7495V279.95H100.319C101.569 279.95 102.549 279.61 103.249 278.92Z" stroke="#1B1B1B" stroke-width="0.75" stroke-miterlimit="10"/>
<path d="M112.86 269.2V282.82H109.54V269.2H112.86Z" stroke="#1B1B1B" stroke-width="0.75" stroke-miterlimit="10"/>
<path d="M124.299 273.5C124.049 273.05 123.699 272.7 123.239 272.46C122.779 272.22 122.239 272.1 121.619 272.1C120.549 272.1 119.689 272.45 119.039 273.16C118.389 273.87 118.069 274.81 118.069 275.98C118.069 277.23 118.409 278.21 119.089 278.92C119.769 279.63 120.699 279.98 121.889 279.98C122.699 279.98 123.389 279.77 123.959 279.36C124.529 278.95 124.929 278.35 125.189 277.57H120.979V275.13H128.199V278.21C127.949 279.04 127.539 279.81 126.949 280.52C126.359 281.23 125.609 281.81 124.709 282.25C123.809 282.69 122.779 282.91 121.639 282.91C120.299 282.91 119.099 282.62 118.039 282.03C116.989 281.44 116.159 280.62 115.579 279.58C114.989 278.53 114.699 277.34 114.699 275.99C114.699 274.64 114.989 273.45 115.579 272.39C116.169 271.34 116.989 270.51 118.029 269.93C119.079 269.34 120.269 269.05 121.619 269.05C123.249 269.05 124.619 269.44 125.739 270.23C126.859 271.02 127.599 272.11 127.959 273.51H124.289L124.299 273.5Z" stroke="#1B1B1B" stroke-width="0.75" stroke-miterlimit="10"/>
<path d="M132.96 282.06C131.89 281.47 131.049 280.63 130.419 279.57C129.789 278.5 129.479 277.3 129.479 275.97C129.479 274.64 129.789 273.44 130.419 272.38C131.049 271.32 131.89 270.49 132.96 269.9C134.03 269.31 135.199 269.01 136.479 269.01C137.759 269.01 138.929 269.31 139.999 269.9C141.069 270.5 141.91 271.32 142.52 272.38C143.13 273.44 143.439 274.64 143.439 275.97C143.439 277.3 143.129 278.5 142.509 279.57C141.889 280.64 141.05 281.47 139.99 282.06C138.93 282.65 137.759 282.95 136.479 282.95C135.199 282.95 134.03 282.65 132.96 282.06ZM139.089 278.84C139.739 278.12 140.07 277.16 140.07 275.97C140.07 274.78 139.739 273.81 139.089 273.09C138.439 272.37 137.569 272.01 136.479 272.01C135.389 272.01 134.5 272.37 133.85 273.08C133.2 273.79 132.869 274.75 132.869 275.97C132.869 277.19 133.2 278.13 133.85 278.85C134.5 279.57 135.379 279.93 136.479 279.93C137.579 279.93 138.439 279.57 139.089 278.84Z" stroke="#1B1B1B" stroke-width="0.75" stroke-miterlimit="10"/>
<path d="M147.539 282.47C146.749 282.15 146.119 281.67 145.649 281.03C145.179 280.39 144.929 279.63 144.899 278.74H148.429C148.479 279.24 148.659 279.63 148.949 279.89C149.249 280.16 149.639 280.29 150.109 280.29C150.579 280.29 150.989 280.18 151.269 279.95C151.549 279.72 151.699 279.41 151.699 279.01C151.699 278.67 151.589 278.4 151.359 278.18C151.129 277.96 150.859 277.78 150.529 277.64C150.199 277.5 149.729 277.34 149.119 277.15C148.239 276.88 147.519 276.61 146.969 276.34C146.409 276.07 145.929 275.67 145.529 275.14C145.129 274.61 144.929 273.92 144.929 273.06C144.929 271.79 145.389 270.8 146.309 270.08C147.229 269.36 148.419 269 149.899 269C151.379 269 152.609 269.36 153.529 270.08C154.449 270.8 154.939 271.8 154.999 273.08H151.409C151.379 272.64 151.219 272.29 150.929 272.04C150.629 271.79 150.249 271.66 149.779 271.66C149.379 271.66 149.059 271.77 148.809 271.98C148.559 272.19 148.439 272.5 148.439 272.9C148.439 273.34 148.649 273.68 149.059 273.93C149.469 274.18 150.119 274.44 150.999 274.73C151.879 275.03 152.589 275.31 153.139 275.58C153.689 275.85 154.169 276.25 154.569 276.76C154.969 277.28 155.169 277.94 155.169 278.76C155.169 279.58 154.969 280.24 154.579 280.87C154.189 281.5 153.609 282.01 152.859 282.38C152.109 282.75 151.219 282.94 150.199 282.94C149.179 282.94 148.309 282.78 147.519 282.45L147.539 282.47Z" stroke="#1B1B1B" stroke-width="0.75" stroke-miterlimit="10"/>
<path d="M171.039 285.15L169.289 282.8C168.769 282.9 168.269 282.96 167.779 282.96C166.499 282.96 165.329 282.66 164.259 282.07C163.189 281.48 162.349 280.64 161.719 279.58C161.089 278.51 160.779 277.31 160.779 275.98C160.779 274.65 161.089 273.45 161.719 272.39C162.349 271.33 163.189 270.5 164.259 269.91C165.329 269.32 166.499 269.02 167.779 269.02C169.059 269.02 170.229 269.32 171.299 269.91C172.369 270.51 173.209 271.33 173.819 272.39C174.429 273.45 174.739 274.65 174.739 275.98C174.739 277.14 174.499 278.21 174.029 279.17C173.559 280.13 172.899 280.93 172.059 281.57L175.049 285.16H171.029L171.039 285.15ZM165.149 278.85C165.799 279.57 166.679 279.93 167.779 279.93C168.879 279.93 169.739 279.57 170.389 278.84C171.039 278.12 171.369 277.16 171.369 275.97C171.369 274.78 171.039 273.81 170.389 273.09C169.739 272.37 168.869 272.01 167.779 272.01C166.689 272.01 165.799 272.37 165.149 273.08C164.499 273.79 164.169 274.75 164.169 275.97C164.169 277.19 164.499 278.13 165.149 278.85Z" stroke="#1B1B1B" stroke-width="0.75" stroke-miterlimit="10"/>
<path d="M179.88 269.2V277.35C179.88 278.16 180.08 278.79 180.48 279.23C180.88 279.67 181.47 279.89 182.25 279.89C183.03 279.89 183.62 279.67 184.03 279.23C184.44 278.79 184.65 278.16 184.65 277.35V269.2H187.97V277.33C187.97 278.55 187.71 279.57 187.19 280.41C186.67 281.25 185.98 281.88 185.11 282.31C184.24 282.74 183.26 282.95 182.19 282.95C181.12 282.95 180.16 282.74 179.31 282.32C178.46 281.9 177.79 281.27 177.3 280.42C176.81 279.57 176.56 278.54 176.56 277.33V269.2H179.88Z" stroke="#1B1B1B" stroke-width="0.75" stroke-miterlimit="10"/>
<path d="M193.62 271.86V274.61H198.06V277.17H193.62V280.16H198.64V282.82H190.3V269.2H198.64V271.86H193.62Z" stroke="#1B1B1B" stroke-width="0.75" stroke-miterlimit="10"/>
<path d="M34.2596 295.67C34.8396 294.62 35.6496 293.79 36.6896 293.21C37.7296 292.62 38.9096 292.33 40.2296 292.33C41.8496 292.33 43.2297 292.76 44.3797 293.61C45.5297 294.46 46.2996 295.63 46.6896 297.1H43.0396C42.7696 296.53 42.3796 296.1 41.8896 295.8C41.3896 295.5 40.8296 295.35 40.1896 295.35C39.1696 295.35 38.3396 295.71 37.7096 296.42C37.0796 297.13 36.7596 298.08 36.7596 299.27C36.7596 300.46 37.0796 301.41 37.7096 302.12C38.3396 302.83 39.1696 303.19 40.1896 303.19C40.8196 303.19 41.3896 303.04 41.8896 302.74C42.3896 302.44 42.7696 302.01 43.0396 301.44H46.6896C46.2996 302.91 45.5297 304.07 44.3797 304.92C43.2297 305.77 41.8396 306.19 40.2296 306.19C38.9096 306.19 37.7296 305.9 36.6896 305.31C35.6496 304.72 34.8396 303.9 34.2596 302.86C33.6796 301.81 33.3896 300.62 33.3896 299.27C33.3896 297.92 33.6796 296.73 34.2596 295.67Z" stroke="#1B1B1B" stroke-width="0.75" stroke-miterlimit="10"/>
<path d="M51.6499 305.34C50.5799 304.75 49.7399 303.91 49.1099 302.85C48.4799 301.78 48.1699 300.58 48.1699 299.25C48.1699 297.92 48.4799 296.72 49.1099 295.66C49.7399 294.6 50.5799 293.77 51.6499 293.18C52.7199 292.59 53.8899 292.29 55.1699 292.29C56.4499 292.29 57.6199 292.59 58.6899 293.18C59.7599 293.77 60.5999 294.6 61.2099 295.66C61.8199 296.72 62.1299 297.92 62.1299 299.25C62.1299 300.58 61.8199 301.78 61.1999 302.85C60.5799 303.92 59.7399 304.75 58.6799 305.34C57.6199 305.94 56.4499 306.23 55.1699 306.23C53.8899 306.23 52.7199 305.93 51.6499 305.34ZM57.7799 302.12C58.4299 301.4 58.7599 300.44 58.7599 299.25C58.7599 298.06 58.4299 297.09 57.7799 296.37C57.1299 295.65 56.2599 295.29 55.1699 295.29C54.0799 295.29 53.1899 295.65 52.5399 296.36C51.8899 297.07 51.5599 298.03 51.5599 299.25C51.5599 300.47 51.8899 301.41 52.5399 302.13C53.1899 302.85 54.0699 303.21 55.1699 303.21C56.2699 303.21 57.1299 302.85 57.7799 302.12Z" stroke="#1B1B1B" stroke-width="0.75" stroke-miterlimit="10"/>
<path d="M76.1597 306.1H72.8397L67.2897 297.7V306.1H63.9697V292.48H67.2897L72.8397 300.92V292.48H76.1597V306.1Z" stroke="#1B1B1B" stroke-width="0.75" stroke-miterlimit="10"/>
<path d="M81.8796 295.14V297.89H86.3196V300.45H81.8796V303.44H86.8996V306.1H78.5596V292.48H86.8996V295.14H81.8796Z" stroke="#1B1B1B" stroke-width="0.75" stroke-miterlimit="10"/>
<path d="M89.37 295.67C89.95 294.62 90.76 293.79 91.8 293.21C92.84 292.62 94.02 292.33 95.34 292.33C96.96 292.33 98.34 292.76 99.49 293.61C100.64 294.46 101.41 295.63 101.8 297.1H98.15C97.88 296.53 97.49 296.1 97 295.8C96.5 295.5 95.94 295.35 95.3 295.35C94.28 295.35 93.45 295.71 92.82 296.42C92.19 297.13 91.87 298.08 91.87 299.27C91.87 300.46 92.19 301.41 92.82 302.12C93.45 302.83 94.28 303.19 95.3 303.19C95.93 303.19 96.5 303.04 97 302.74C97.5 302.44 97.88 302.01 98.15 301.44H101.8C101.41 302.91 100.64 304.07 99.49 304.92C98.34 305.77 96.95 306.19 95.34 306.19C94.02 306.19 92.84 305.9 91.8 305.31C90.76 304.72 89.95 303.9 89.37 302.86C88.79 301.81 88.5 300.62 88.5 299.27C88.5 297.92 88.79 296.73 89.37 295.67Z" stroke="#1B1B1B" stroke-width="0.75" stroke-miterlimit="10"/>
<path d="M113.64 292.48V295.14H110.03V306.1H106.71V295.14H103.1V292.48H113.63H113.64Z" stroke="#1B1B1B" stroke-width="0.75" stroke-miterlimit="10"/>
<path d="M123.79 303.69H118.71L117.9 306.1H114.43L119.36 292.48H123.2L128.13 306.1H124.62L123.81 303.69H123.79ZM122.94 301.13L121.25 296.14L119.58 301.13H122.94Z" stroke="#1B1B1B" stroke-width="0.75" stroke-miterlimit="10"/>
<path d="M141.79 306.1H138.47L132.92 297.7V306.1H129.6V292.48H132.92L138.47 300.92V292.48H141.79V306.1Z" stroke="#1B1B1B" stroke-width="0.75" stroke-miterlimit="10"/>
<path d="M159.99 292.48L155.28 301.6V306.1H151.96V301.6L147.25 292.48H151.01L153.65 298.18L156.27 292.48H159.99Z" stroke="#1B1B1B" stroke-width="0.75" stroke-miterlimit="10"/>
<path d="M165.75 295.67C166.33 294.62 167.14 293.79 168.18 293.21C169.22 292.62 170.4 292.33 171.72 292.33C173.34 292.33 174.72 292.76 175.87 293.61C177.02 294.46 177.79 295.63 178.18 297.1H174.53C174.26 296.53 173.87 296.1 173.38 295.8C172.88 295.5 172.32 295.35 171.68 295.35C170.66 295.35 169.83 295.71 169.2 296.42C168.57 297.13 168.25 298.08 168.25 299.27C168.25 300.46 168.57 301.41 169.2 302.12C169.83 302.83 170.66 303.19 171.68 303.19C172.31 303.19 172.88 303.04 173.38 302.74C173.88 302.44 174.26 302.01 174.53 301.44H178.18C177.79 302.91 177.02 304.07 175.87 304.92C174.72 305.77 173.33 306.19 171.72 306.19C170.4 306.19 169.22 305.9 168.18 305.31C167.14 304.72 166.33 303.9 165.75 302.86C165.17 301.81 164.88 300.62 164.88 299.27C164.88 297.92 165.17 296.73 165.75 295.67Z" stroke="#1B1B1B" stroke-width="0.75" stroke-miterlimit="10"/>
<path d="M187.169 306.1L184.339 300.96H183.549V306.1H180.229V292.48H185.799C186.869 292.48 187.789 292.67 188.549 293.04C189.309 293.41 189.869 293.93 190.249 294.58C190.629 295.23 190.809 295.96 190.809 296.76C190.809 297.67 190.559 298.47 190.039 299.18C189.529 299.89 188.779 300.4 187.779 300.69L190.919 306.08H187.179L187.169 306.1ZM183.539 298.61H185.6C186.21 298.61 186.659 298.46 186.969 298.16C187.269 297.86 187.429 297.44 187.429 296.9C187.429 296.36 187.279 295.98 186.969 295.68C186.669 295.38 186.21 295.23 185.6 295.23H183.539V298.61Z" stroke="#1B1B1B" stroke-width="0.75" stroke-miterlimit="10"/>
<path d="M196.19 295.14V297.89H200.63V300.45H196.19V303.44H201.21V306.1H192.87V292.48H201.21V295.14H196.19Z" stroke="#1B1B1B" stroke-width="0.75" stroke-miterlimit="10"/>
<path d="M211.839 303.69H206.759L205.949 306.1H202.479L207.41 292.48H211.249L216.179 306.1H212.669L211.859 303.69H211.839ZM210.99 301.13L209.299 296.14L207.63 301.13H210.99Z" stroke="#1B1B1B" stroke-width="0.75" stroke-miterlimit="10"/>
<path d="M229.849 306.1H226.529L220.979 297.7V306.1H217.659V292.48H220.979L226.529 300.92V292.48H229.849V306.1Z" stroke="#1B1B1B" stroke-width="0.75" stroke-miterlimit="10"/>
<path d="M293.19 29.62C292.98 29.86 292.78 30.11 292.57 30.35C292.36 30.59 292.16 30.84 291.95 31.08C291.55 30.57 291.14 30.07 290.74 29.56" stroke="#333333" stroke-width="0.25" stroke-miterlimit="10"/>
<path d="M297.72 15.75L299.13 13.44H300.4L298.33 16.57L300.47 19.78H299.22L297.76 17.41L296.3 19.78H295.04L297.18 16.57L295.11 13.44H296.36L297.75 15.75H297.72Z" fill="#1B1B1B"/>
<path d="M301.76 20.51H300.83L304.39 11.25H305.32L301.76 20.51Z" fill="#1B1B1B"/>
<path d="M311.96 19.78H306.37V19L309.32 15.72C309.76 15.22 310.06 14.82 310.23 14.51C310.4 14.2 310.48 13.88 310.48 13.55C310.48 13.1 310.35 12.74 310.08 12.45C309.81 12.16 309.45 12.02 309 12.02C308.46 12.02 308.04 12.17 307.74 12.48C307.44 12.79 307.29 13.21 307.29 13.76H306.21C306.21 12.97 306.46 12.34 306.97 11.86C307.48 11.38 308.15 11.13 309 11.13C309.79 11.13 310.42 11.34 310.88 11.75C311.34 12.16 311.57 12.72 311.57 13.41C311.57 14.25 311.03 15.25 309.96 16.41L307.67 18.89H311.95V19.77L311.96 19.78Z" fill="#1B1B1B"/>
<path d="M262.82 0.5H0.5V336.76H262.82V0.5Z" stroke="#1B1B1B" stroke-miterlimit="10"/>
<path d="M269.96 0.570022L296.6 0.460022" stroke="#333333" stroke-width="0.25" stroke-miterlimit="10"/>
<path d="M290.73 2.14001C290.93 1.89001 291.13 1.64001 291.33 1.39001C291.53 1.14001 291.73 0.890015 291.93 0.640015C292.35 1.14001 292.76 1.63001 293.18 2.13001" stroke="#333333" stroke-width="0.25" stroke-miterlimit="10"/>
</g>
<defs>
<clipPath id="clip0_312_1055">
<rect width="311.96" height="337.26" fill="white"/>
</clipPath>
</defs>
</svg>
