<svg width="428" height="185" viewBox="0 0 428 185" fill="none" xmlns="http://www.w3.org/2000/svg">
<g clip-path="url(#clip0_313_1209)">
<path d="M115.33 78.13L129.39 64.26L101.36 36.22L73.3301 64.26L129.1 120.21C119.85 129.54 110.6 138.86 101.36 148.19C92.0301 138.86 82.7001 129.54 73.3701 120.21C77.9701 115.65 82.5601 111.09 87.1601 106.53" stroke="#CD212A" stroke-width="7" stroke-miterlimit="10"/>
<path d="M136.3 71.0699L157.09 92.1799L136.3 113.28" stroke="#CD212A" stroke-width="7" stroke-miterlimit="10"/>
<path d="M66.5402 113.07C59.6102 106.11 52.6802 99.16 45.7402 92.21C52.6702 85.09 59.6002 77.98 66.5402 70.86" stroke="#CD212A" stroke-width="7" stroke-miterlimit="10"/>
<path d="M221.9 27.09L215.14 41.03C211.49 37.93 207.81 36.38 204.09 36.38C201.71 36.38 199.85 37.07 198.52 38.45C197.41 39.63 196.85 40.96 196.85 42.44C196.85 43.75 197.36 44.86 198.37 45.77C199.35 46.61 200.35 47.25 201.35 47.69C202.35 48.13 204.76 48.94 208.56 50.11C213.89 51.79 217.85 54.08 220.42 56.98C223.15 60.11 224.52 64.27 224.52 69.45C224.52 77.36 222.3 83.35 217.85 87.43C213.09 91.74 206.83 93.89 199.09 93.89C191.35 93.89 183.61 91.28 176.56 86.06L183.8 71.62C188.85 76.3 193.82 78.64 198.71 78.64C201.69 78.64 203.87 77.82 205.23 76.17C206.31 74.86 206.85 73.43 206.85 71.88C206.85 70.03 206.14 68.56 204.73 67.46C203.32 66.37 200.63 65.2 196.66 63.95C190.44 62.03 186.33 60.18 184.32 58.4C180.86 55.4 179.13 50.84 179.13 44.72C179.13 37.55 181.37 31.79 185.84 27.45C189.9 23.48 195.05 21.49 201.27 21.49C208.32 21.49 215.19 23.36 221.89 27.09H221.9Z" fill="#041E42"/>
<path d="M242.53 17.9C244.97 17.9 247.05 18.81 248.77 20.63C250.48 22.45 251.34 24.64 251.34 27.19C251.34 29.74 250.48 31.99 248.77 33.8C247.06 35.62 244.99 36.53 242.58 36.53C240.17 36.53 238.02 35.62 236.34 33.8C234.63 31.95 233.77 29.71 233.77 27.08C233.77 24.59 234.63 22.43 236.37 20.62C238.1 18.8 240.16 17.89 242.54 17.89L242.53 17.9ZM250.34 45.22V92.08H234.72V45.22H250.34Z" fill="#041E42"/>
<path d="M278.48 59V92.07H262.86V59H257.72V45.22H262.86V31.13H278.48V45.22H287.39V59H278.48Z" fill="#041E42"/>
<path d="M318.82 43.5C327.58 43.5 334.43 46.33 339.35 51.98C343.41 56.63 345.45 62.18 345.45 68.64C345.45 76.25 342.78 82.47 337.45 87.32C332.69 91.66 326.4 93.83 318.59 93.83C313.64 93.83 309 92.7 304.68 90.45C300.65 88.33 297.49 85.1 295.2 80.76C293.23 77.09 292.25 72.92 292.25 68.24C292.25 61 294.92 54.93 300.25 50.01C302.92 47.59 306.22 45.82 310.16 44.71C313.08 43.9 315.97 43.5 318.83 43.5H318.82ZM318.82 57.79C316.03 57.79 313.66 58.83 311.72 60.92C309.75 63.04 308.77 65.53 308.77 68.39C308.77 71.45 309.75 74.05 311.72 76.17C313.66 78.26 316.04 79.3 318.86 79.3C321.68 79.3 323.99 78.26 325.96 76.17C327.93 74.05 328.91 71.51 328.91 68.55C328.91 65.59 327.93 62.98 325.96 60.93C323.96 58.84 321.58 57.8 318.82 57.8V57.79Z" fill="#041E42"/>
<path d="M177.26 142.76C177.84 141.71 178.65 140.88 179.69 140.3C180.73 139.71 181.91 139.42 183.23 139.42C184.85 139.42 186.23 139.85 187.38 140.7C188.53 141.55 189.3 142.72 189.69 144.19H186.04C185.77 143.62 185.38 143.19 184.89 142.89C184.39 142.59 183.83 142.44 183.19 142.44C182.17 142.44 181.34 142.8 180.71 143.51C180.08 144.22 179.76 145.17 179.76 146.36C179.76 147.55 180.08 148.5 180.71 149.21C181.34 149.92 182.17 150.28 183.19 150.28C183.82 150.28 184.39 150.13 184.89 149.83C185.39 149.53 185.77 149.1 186.04 148.53H189.69C189.3 150 188.53 151.17 187.38 152.01C186.23 152.86 184.84 153.28 183.23 153.28C181.91 153.28 180.73 152.99 179.69 152.4C178.65 151.81 177.84 150.99 177.26 149.95C176.68 148.9 176.39 147.71 176.39 146.36C176.39 145.01 176.68 143.82 177.26 142.76Z" fill="#1B1B1B"/>
<path d="M194.65 152.44C193.58 151.85 192.74 151.01 192.11 149.95C191.48 148.89 191.17 147.68 191.17 146.35C191.17 145.02 191.48 143.82 192.11 142.76C192.74 141.7 193.58 140.87 194.65 140.28C195.72 139.69 196.89 139.39 198.17 139.39C199.45 139.39 200.62 139.69 201.69 140.28C202.76 140.88 203.6 141.7 204.21 142.76C204.82 143.82 205.13 145.02 205.13 146.35C205.13 147.68 204.82 148.88 204.2 149.95C203.58 151.02 202.74 151.85 201.68 152.44C200.62 153.04 199.45 153.33 198.17 153.33C196.89 153.33 195.72 153.03 194.65 152.44ZM200.78 149.22C201.43 148.5 201.76 147.54 201.76 146.35C201.76 145.16 201.43 144.19 200.78 143.47C200.13 142.75 199.26 142.39 198.17 142.39C197.08 142.39 196.19 142.75 195.54 143.46C194.89 144.17 194.56 145.13 194.56 146.35C194.56 147.57 194.89 148.51 195.54 149.23C196.19 149.95 197.07 150.31 198.17 150.31C199.27 150.31 200.13 149.95 200.78 149.22Z" fill="#1B1B1B"/>
<path d="M219.16 153.19H215.84L210.29 144.79V153.19H206.97V139.57H210.29L215.84 148.01V139.57H219.16V153.19Z" fill="#1B1B1B"/>
<path d="M224.88 142.23V144.98H229.32V147.54H224.88V150.53H229.9V153.19H221.56V139.57H229.9V142.23H224.88Z" fill="#1B1B1B"/>
<path d="M232.37 142.76C232.95 141.71 233.76 140.88 234.8 140.3C235.84 139.71 237.02 139.42 238.34 139.42C239.96 139.42 241.34 139.85 242.49 140.7C243.64 141.55 244.41 142.72 244.8 144.19H241.15C240.88 143.62 240.49 143.19 240 142.89C239.5 142.59 238.94 142.44 238.3 142.44C237.28 142.44 236.45 142.8 235.82 143.51C235.19 144.22 234.87 145.17 234.87 146.36C234.87 147.55 235.19 148.5 235.82 149.21C236.45 149.92 237.28 150.28 238.3 150.28C238.93 150.28 239.5 150.13 240 149.83C240.5 149.53 240.88 149.1 241.15 148.53H244.8C244.41 150 243.64 151.17 242.49 152.01C241.34 152.86 239.95 153.28 238.34 153.28C237.02 153.28 235.84 152.99 234.8 152.4C233.76 151.81 232.95 150.99 232.37 149.95C231.79 148.9 231.5 147.71 231.5 146.36C231.5 145.01 231.79 143.82 232.37 142.76Z" fill="#1B1B1B"/>
<path d="M256.64 139.57V142.23H253.03V153.19H249.71V142.23H246.1V139.57H256.63H256.64Z" fill="#1B1B1B"/>
<path d="M266.78 150.79H261.7L260.89 153.2H257.42L262.35 139.58H266.19L271.12 153.2H267.61L266.8 150.79H266.78ZM265.93 148.23L264.24 143.24L262.57 148.23H265.93Z" fill="#1B1B1B"/>
<path d="M284.79 153.19H281.47L275.92 144.79V153.19H272.6V139.57H275.92L281.47 148.01V139.57H284.79V153.19Z" fill="#1B1B1B"/>
<path d="M302.979 139.57L298.269 148.69V153.19H294.949V148.69L290.239 139.57H293.999L296.639 145.27L299.259 139.57H302.979Z" fill="#1B1B1B"/>
<path d="M308.75 142.76C309.33 141.71 310.14 140.88 311.18 140.3C312.22 139.71 313.4 139.42 314.72 139.42C316.34 139.42 317.72 139.85 318.87 140.7C320.02 141.55 320.79 142.72 321.18 144.19H317.53C317.26 143.62 316.87 143.19 316.38 142.89C315.88 142.59 315.32 142.44 314.68 142.44C313.66 142.44 312.83 142.8 312.2 143.51C311.57 144.22 311.25 145.17 311.25 146.36C311.25 147.55 311.57 148.5 312.2 149.21C312.83 149.92 313.66 150.28 314.68 150.28C315.31 150.28 315.88 150.13 316.38 149.83C316.88 149.53 317.26 149.1 317.53 148.53H321.18C320.79 150 320.02 151.17 318.87 152.01C317.72 152.86 316.33 153.28 314.72 153.28C313.4 153.28 312.22 152.99 311.18 152.4C310.14 151.81 309.33 150.99 308.75 149.95C308.17 148.9 307.88 147.71 307.88 146.36C307.88 145.01 308.17 143.82 308.75 142.76Z" fill="#1B1B1B"/>
<path d="M330.16 153.19L327.33 148.05H326.54V153.19H323.22V139.57H328.79C329.86 139.57 330.78 139.76 331.54 140.13C332.3 140.5 332.86 141.02 333.24 141.67C333.62 142.32 333.8 143.05 333.8 143.85C333.8 144.76 333.55 145.56 333.03 146.28C332.52 146.99 331.77 147.5 330.77 147.79L333.91 153.18H330.17L330.16 153.19ZM326.53 145.7H328.59C329.2 145.7 329.65 145.55 329.96 145.25C330.26 144.95 330.42 144.53 330.42 143.99C330.42 143.45 330.27 143.07 329.96 142.77C329.66 142.47 329.2 142.32 328.59 142.32H326.53V145.7Z" fill="#1B1B1B"/>
<path d="M339.179 142.23V144.98H343.619V147.54H339.179V150.53H344.199V153.19H335.859V139.57H344.199V142.23H339.179Z" fill="#1B1B1B"/>
<path d="M354.839 150.79H349.759L348.949 153.2H345.479L350.409 139.58H354.249L359.179 153.2H355.669L354.859 150.79H354.839ZM353.989 148.23L352.299 143.24L350.629 148.23H353.989Z" fill="#1B1B1B"/>
<path d="M372.839 153.19H369.519L363.969 144.79V153.19H360.649V139.57H363.969L369.519 148.01V139.57H372.839V153.19Z" fill="#1B1B1B"/>
<path d="M177.34 119.48C177.92 118.43 178.73 117.6 179.77 117.02C180.81 116.44 181.99 116.14 183.31 116.14C184.93 116.14 186.31 116.57 187.46 117.42C188.61 118.27 189.38 119.44 189.77 120.91H186.12C185.85 120.34 185.46 119.91 184.97 119.61C184.48 119.31 183.91 119.16 183.27 119.16C182.25 119.16 181.42 119.52 180.79 120.23C180.16 120.94 179.84 121.89 179.84 123.08C179.84 124.27 180.16 125.22 180.79 125.93C181.42 126.64 182.25 127 183.27 127C183.9 127 184.47 126.85 184.97 126.55C185.47 126.25 185.85 125.82 186.12 125.25H189.77C189.38 126.72 188.61 127.89 187.46 128.73C186.31 129.58 184.92 130 183.31 130C181.99 130 180.81 129.71 179.77 129.12C178.73 128.53 177.92 127.71 177.34 126.67C176.76 125.62 176.47 124.43 176.47 123.08C176.47 121.73 176.76 120.54 177.34 119.48Z" fill="#1B1B1B"/>
<path d="M194.73 129.16C193.66 128.57 192.82 127.73 192.19 126.67C191.56 125.6 191.25 124.4 191.25 123.07C191.25 121.74 191.56 120.54 192.19 119.48C192.82 118.42 193.66 117.59 194.73 117C195.8 116.41 196.97 116.11 198.25 116.11C199.53 116.11 200.7 116.41 201.77 117C202.84 117.6 203.68 118.42 204.29 119.48C204.9 120.54 205.21 121.74 205.21 123.07C205.21 124.4 204.9 125.6 204.28 126.67C203.66 127.74 202.82 128.57 201.76 129.16C200.7 129.76 199.53 130.05 198.25 130.05C196.97 130.05 195.8 129.75 194.73 129.16ZM200.86 125.94C201.51 125.22 201.84 124.26 201.84 123.07C201.84 121.88 201.51 120.91 200.86 120.19C200.21 119.47 199.34 119.11 198.25 119.11C197.16 119.11 196.27 119.47 195.62 120.18C194.97 120.89 194.64 121.85 194.64 123.07C194.64 124.29 194.97 125.23 195.62 125.95C196.27 126.67 197.15 127.03 198.25 127.03C199.35 127.03 200.21 126.67 200.86 125.94ZM200.5 113.56L195.82 115.52V113.23L200.5 110.98V113.56Z" fill="#1B1B1B"/>
<path d="M215.92 117.15C216.99 117.72 217.82 118.52 218.41 119.55C219 120.58 219.29 121.76 219.29 123.11C219.29 124.46 219 125.63 218.41 126.66C217.82 127.7 216.99 128.5 215.91 129.07C214.83 129.64 213.58 129.92 212.16 129.92H207.06V116.3H212.16C213.6 116.3 214.85 116.58 215.92 117.15ZM214.87 126.02C215.57 125.33 215.92 124.36 215.92 123.11C215.92 121.86 215.57 120.88 214.87 120.18C214.17 119.48 213.2 119.13 211.94 119.13H210.37V127.05H211.94C213.19 127.05 214.17 126.71 214.87 126.02Z" fill="#1B1B1B"/>
<path d="M224.48 116.29V129.91H221.16V116.29H224.48Z" fill="#1B1B1B"/>
<path d="M235.92 120.6C235.67 120.15 235.32 119.8 234.86 119.56C234.4 119.32 233.86 119.2 233.24 119.2C232.17 119.2 231.31 119.55 230.66 120.26C230.01 120.97 229.69 121.91 229.69 123.08C229.69 124.33 230.03 125.31 230.71 126.02C231.39 126.73 232.32 127.08 233.51 127.08C234.32 127.08 235.01 126.87 235.58 126.46C236.15 126.05 236.55 125.45 236.81 124.68H232.6V122.24H239.82V125.32C239.57 126.15 239.16 126.92 238.57 127.63C237.98 128.34 237.23 128.92 236.33 129.36C235.42 129.8 234.4 130.02 233.27 130.02C231.92 130.02 230.73 129.73 229.67 129.14C228.62 128.55 227.79 127.73 227.21 126.69C226.62 125.64 226.33 124.45 226.33 123.1C226.33 121.75 226.62 120.56 227.21 119.5C227.8 118.45 228.62 117.62 229.66 117.04C230.71 116.45 231.9 116.16 233.25 116.16C234.88 116.16 236.25 116.55 237.37 117.34C238.49 118.13 239.23 119.22 239.59 120.62H235.92V120.6Z" fill="#1B1B1B"/>
<path d="M244.589 129.16C243.519 128.57 242.679 127.73 242.049 126.67C241.419 125.6 241.109 124.4 241.109 123.07C241.109 121.74 241.419 120.54 242.049 119.48C242.679 118.42 243.519 117.59 244.589 117C245.659 116.41 246.829 116.11 248.109 116.11C249.389 116.11 250.559 116.41 251.629 117C252.699 117.6 253.539 118.42 254.149 119.48C254.759 120.54 255.069 121.74 255.069 123.07C255.069 124.4 254.759 125.6 254.139 126.67C253.519 127.74 252.679 128.57 251.619 129.16C250.559 129.76 249.389 130.05 248.109 130.05C246.829 130.05 245.659 129.75 244.589 129.16ZM250.719 125.94C251.369 125.22 251.699 124.26 251.699 123.07C251.699 121.88 251.369 120.91 250.719 120.19C250.069 119.47 249.199 119.11 248.109 119.11C247.019 119.11 246.129 119.47 245.479 120.18C244.829 120.89 244.499 121.85 244.499 123.07C244.499 124.29 244.829 125.23 245.479 125.95C246.129 126.67 247.009 127.03 248.109 127.03C249.209 127.03 250.069 126.67 250.719 125.94Z" fill="#1B1B1B"/>
<path d="M259.16 129.56C258.37 129.24 257.74 128.76 257.27 128.12C256.8 127.49 256.55 126.72 256.52 125.83H260.05C260.1 126.33 260.28 126.72 260.57 126.98C260.87 127.25 261.25 127.38 261.73 127.38C262.21 127.38 262.61 127.27 262.89 127.04C263.18 126.81 263.32 126.5 263.32 126.1C263.32 125.76 263.21 125.49 262.98 125.27C262.75 125.05 262.48 124.87 262.15 124.73C261.82 124.59 261.35 124.43 260.74 124.24C259.86 123.97 259.14 123.7 258.59 123.43C258.04 123.16 257.56 122.76 257.15 122.23C256.75 121.7 256.55 121.01 256.55 120.15C256.55 118.88 257.01 117.89 257.93 117.17C258.85 116.45 260.04 116.09 261.52 116.09C263 116.09 264.23 116.45 265.15 117.17C266.07 117.89 266.56 118.89 266.62 120.17H263.03C263 119.73 262.84 119.38 262.55 119.13C262.25 118.88 261.87 118.75 261.41 118.75C261.01 118.75 260.69 118.86 260.44 119.07C260.19 119.28 260.07 119.59 260.07 119.99C260.07 120.43 260.28 120.77 260.69 121.02C261.1 121.27 261.75 121.53 262.63 121.82C263.51 122.12 264.22 122.4 264.77 122.67C265.32 122.94 265.8 123.34 266.2 123.85C266.6 124.37 266.8 125.03 266.8 125.85C266.8 126.67 266.6 127.33 266.21 127.96C265.82 128.59 265.24 129.1 264.49 129.47C263.74 129.84 262.85 130.03 261.83 130.03C260.81 130.03 259.94 129.87 259.15 129.55L259.16 129.56Z" fill="#1B1B1B"/>
<path d="M282.659 132.24L280.909 129.89C280.389 129.99 279.889 130.05 279.399 130.05C278.119 130.05 276.949 129.75 275.879 129.16C274.809 128.57 273.969 127.73 273.339 126.67C272.709 125.6 272.399 124.4 272.399 123.07C272.399 121.74 272.709 120.54 273.339 119.48C273.969 118.42 274.809 117.59 275.879 117C276.949 116.41 278.119 116.11 279.399 116.11C280.679 116.11 281.849 116.41 282.919 117C283.989 117.6 284.829 118.42 285.439 119.48C286.049 120.54 286.359 121.74 286.359 123.07C286.359 124.23 286.119 125.3 285.649 126.26C285.179 127.22 284.519 128.02 283.679 128.66L286.669 132.25H282.649L282.659 132.24ZM276.769 125.94C277.419 126.66 278.299 127.02 279.399 127.02C280.499 127.02 281.359 126.66 282.009 125.93C282.659 125.21 282.989 124.25 282.989 123.06C282.989 121.87 282.659 120.9 282.009 120.18C281.359 119.46 280.489 119.1 279.399 119.1C278.309 119.1 277.419 119.46 276.769 120.17C276.119 120.88 275.789 121.84 275.789 123.06C275.789 124.28 276.119 125.22 276.769 125.94Z" fill="#1B1B1B"/>
<path d="M291.5 116.29V124.44C291.5 125.25 291.7 125.88 292.1 126.32C292.5 126.76 293.09 126.98 293.86 126.98C294.63 126.98 295.23 126.76 295.65 126.32C296.06 125.88 296.27 125.25 296.27 124.44V116.29H299.59V124.42C299.59 125.64 299.33 126.66 298.81 127.5C298.29 128.34 297.6 128.97 296.73 129.4C295.86 129.83 294.88 130.04 293.81 130.04C292.74 130.04 291.78 129.83 290.93 129.41C290.08 128.99 289.41 128.36 288.92 127.51C288.43 126.66 288.18 125.63 288.18 124.42V116.29H291.5Z" fill="#1B1B1B"/>
<path d="M305.24 118.95V121.7H309.68V124.26H305.24V127.25H310.27V129.91H301.93V116.29H310.27V118.95H305.24Z" fill="#1B1B1B"/>
<path d="M426.85 0.5H0.5V183.92H426.85V0.5Z" stroke="#1B1B1B" stroke-miterlimit="10"/>
</g>
<defs>
<clipPath id="clip0_313_1209">
<rect width="427.35" height="184.42" fill="white"/>
</clipPath>
</defs>
</svg>
