<svg width="73" height="133" viewBox="0 0 73 133" fill="none" xmlns="http://www.w3.org/2000/svg">
<g clip-path="url(#clip0_310_1040)">
<path d="M20.76 27.97V61.04H5.14V27.97H0V14.19H5.14V0.0900269H20.76V14.18H29.67V27.96H20.76V27.97Z" fill="#1B1B1B"/>
<path d="M37.7695 0.130005H68.8995" stroke="#333333" stroke-width="0.25" stroke-miterlimit="10"/>
<path d="M37.9102 61.04H68.9402" stroke="#333333" stroke-width="0.25" stroke-miterlimit="10"/>
<path d="M62.3398 0.0900269V61.05" stroke="#333333" stroke-width="0.25" stroke-miterlimit="10"/>
<path d="M61.1201 1.69C61.3201 1.44 61.5201 1.19 61.7201 0.940002C61.9201 0.690002 62.1201 0.440002 62.3201 0.190002C62.7401 0.690002 63.1501 1.18 63.5701 1.68" stroke="#333333" stroke-width="0.25" stroke-miterlimit="10"/>
<path d="M63.5701 59.45C63.3601 59.69 63.1601 59.94 62.9501 60.18C62.7401 60.42 62.5401 60.67 62.3301 60.91C61.9301 60.4 61.5201 59.9 61.1201 59.39" stroke="#333333" stroke-width="0.25" stroke-miterlimit="10"/>
<path d="M70.14 29.28L71.55 26.97H72.82L70.75 30.1L72.89 33.31H71.64L70.18 30.94L68.72 33.31H67.46L69.6 30.1L67.53 26.97H68.78L70.17 29.28H70.14Z" fill="#1B1B1B"/>
<path d="M10.3804 131.81C9.31039 131.22 8.47039 130.38 7.84039 129.32C7.21039 128.25 6.90039 127.05 6.90039 125.72C6.90039 124.39 7.21039 123.19 7.84039 122.13C8.47039 121.07 9.31039 120.24 10.3804 119.65C11.4504 119.06 12.6204 118.76 13.9004 118.76C15.1804 118.76 16.3504 119.06 17.4204 119.65C18.4904 120.25 19.3304 121.07 19.9404 122.13C20.5504 123.19 20.8604 124.39 20.8604 125.72C20.8604 127.05 20.5504 128.25 19.9304 129.32C19.3104 130.39 18.4704 131.22 17.4104 131.81C16.3504 132.41 15.1804 132.7 13.9004 132.7C12.6204 132.7 11.4504 132.4 10.3804 131.81ZM16.5104 128.59C17.1604 127.87 17.4904 126.91 17.4904 125.72C17.4904 124.53 17.1604 123.56 16.5104 122.84C15.8604 122.12 14.9904 121.76 13.9004 121.76C12.8104 121.76 11.9204 122.12 11.2704 122.83C10.6204 123.54 10.2904 124.5 10.2904 125.72C10.2904 126.94 10.6204 127.88 11.2704 128.6C11.9204 129.32 12.8004 129.68 13.9004 129.68C15.0004 129.68 15.8604 129.32 16.5104 128.59Z" fill="#1B1B1B"/>
<path d="M6.89008 103.85L6.83008 118.73" stroke="#333333" stroke-width="0.25" stroke-miterlimit="10"/>
<path d="M20.9904 107.3L6.90039 107.31" stroke="#333333" stroke-width="0.25" stroke-miterlimit="10"/>
<path d="M19.2998 106.09C19.5498 106.29 19.7998 106.49 20.0498 106.69C20.2998 106.89 20.5498 107.09 20.7998 107.29C20.2998 107.71 19.8098 108.12 19.3098 108.54" stroke="#333333" stroke-width="0.25" stroke-miterlimit="10"/>
<path d="M8.46 108.53C8.22 108.32 7.97 108.12 7.73 107.91C7.49 107.7 7.24 107.5 7 107.29C7.51 106.89 8.01 106.48 8.52 106.08" stroke="#333333" stroke-width="0.25" stroke-miterlimit="10"/>
<path d="M20.9504 103.85L20.9004 118.75" stroke="#333333" stroke-width="0.25" stroke-miterlimit="10"/>
<path d="M14.1897 100.53L15.6697 95.78H16.8297L14.2797 103.1C13.8897 104.15 13.2597 104.68 12.3997 104.68L12.1897 104.66L11.7897 104.58V103.7L12.0797 103.72C12.4497 103.72 12.7297 103.65 12.9397 103.5C13.1497 103.35 13.3097 103.08 13.4497 102.69L13.6897 102.05L11.4297 95.78H12.6097L14.1897 100.53Z" fill="#1B1B1B"/>
</g>
<defs>
<clipPath id="clip0_310_1040">
<rect width="72.87" height="132.7" fill="white"/>
</clipPath>
</defs>
</svg>
