<svg width="66" height="130" viewBox="0 0 66 130" fill="none" xmlns="http://www.w3.org/2000/svg">
<g clip-path="url(#clip0_315_609)">
<path d="M20.3295 47.83L18.1595 52.31C16.9895 51.31 15.7995 50.82 14.6095 50.82C13.8395 50.82 13.2495 51.04 12.8195 51.49C12.4595 51.87 12.2795 52.3 12.2795 52.77C12.2795 53.19 12.4395 53.55 12.7695 53.84C13.0895 54.11 13.4095 54.32 13.7295 54.46C14.0495 54.6 14.8195 54.86 16.0495 55.24C17.7595 55.78 19.0395 56.52 19.8595 57.45C20.7395 58.46 21.1795 59.79 21.1795 61.46C21.1795 64 20.4695 65.93 19.0395 67.24C17.5095 68.63 15.4995 69.32 13.0095 69.32C10.5195 69.32 8.02953 68.48 5.76953 66.8L8.09953 62.16C9.71953 63.66 11.3195 64.42 12.8895 64.42C13.8495 64.42 14.5495 64.15 14.9895 63.62C15.3395 63.2 15.5095 62.74 15.5095 62.24C15.5095 61.64 15.2795 61.17 14.8295 60.82C14.3795 60.47 13.5095 60.09 12.2295 59.69C10.2295 59.07 8.90953 58.48 8.25953 57.9C7.14953 56.94 6.58953 55.47 6.58953 53.5C6.58953 51.19 7.30953 49.34 8.74953 47.95C10.0595 46.67 11.7095 46.03 13.7095 46.03C15.9795 46.03 18.1895 46.63 20.3395 47.83H20.3295Z" fill="#041E42"/>
<path d="M26.9596 44.87C27.7496 44.87 28.4096 45.16 28.9696 45.75C29.5196 46.33 29.7996 47.04 29.7996 47.86C29.7996 48.68 29.5196 49.4 28.9696 49.99C28.4196 50.57 27.7496 50.87 26.9796 50.87C26.2096 50.87 25.5096 50.58 24.9696 49.99C24.4196 49.4 24.1396 48.68 24.1396 47.83C24.1396 47.03 24.4196 46.34 24.9696 45.75C25.5296 45.17 26.1896 44.87 26.9496 44.87H26.9596ZM29.4696 53.65V68.72H24.4496V53.65H29.4696Z" fill="#041E42"/>
<path d="M38.5196 58.09V68.72H33.4996V58.09H31.8496V53.66H33.4996V49.13H38.5196V53.66H41.3796V58.09H38.5196Z" fill="#041E42"/>
<path d="M51.4892 53.1C54.3092 53.1 56.5092 54.01 58.0892 55.83C59.3992 57.32 60.0492 59.11 60.0492 61.19C60.0492 63.64 59.1892 65.64 57.4792 67.2C55.9492 68.6 53.9292 69.29 51.4192 69.29C49.8292 69.29 48.3392 68.93 46.9492 68.2C45.6492 67.52 44.6392 66.48 43.8992 65.08C43.2692 63.9 42.9492 62.56 42.9492 61.05C42.9492 58.72 43.8092 56.77 45.5192 55.19C46.3792 54.41 47.4392 53.84 48.7092 53.49C49.6492 53.23 50.5792 53.1 51.4992 53.1H51.4892ZM51.4892 57.69C50.5892 57.69 49.8292 58.03 49.2092 58.7C48.5792 59.38 48.2592 60.18 48.2592 61.1C48.2592 62.09 48.5792 62.92 49.2092 63.6C49.8292 64.27 50.5992 64.61 51.5092 64.61C52.4192 64.61 53.1592 64.27 53.7892 63.6C54.4192 62.92 54.7392 62.1 54.7392 61.15C54.7392 60.2 54.4192 59.36 53.7892 58.7C53.1492 58.03 52.3792 57.69 51.4892 57.69Z" fill="#041E42"/>
<path d="M37.2998 15.07L41.8198 10.61L32.8098 1.59003L23.7998 10.61L41.7298 28.6C38.7598 31.6 35.7798 34.6 32.8098 37.6C29.8098 34.6 26.8098 31.6 23.8098 28.6C25.2898 27.13 26.7698 25.67 28.2398 24.2" stroke="#CD212A" stroke-width="2.25" stroke-miterlimit="10"/>
<path d="M44.04 12.8L50.73 19.59L44.04 26.37" stroke="#CD212A" stroke-width="2.25" stroke-miterlimit="10"/>
<path d="M21.6099 26.3C19.3799 24.06 17.1499 21.83 14.9199 19.59C17.1499 17.3 19.3799 15.01 21.6099 12.73" stroke="#CD212A" stroke-width="2.25" stroke-miterlimit="10"/>
<path d="M11.6003 77.53C11.7903 77.19 12.0503 76.93 12.3803 76.74C12.7103 76.55 13.0903 76.46 13.5203 76.46C14.0403 76.46 14.4803 76.6 14.8503 76.87C15.2203 77.14 15.4703 77.52 15.5903 77.99H14.4203C14.3303 77.81 14.2103 77.67 14.0503 77.57C13.8903 77.47 13.7103 77.43 13.5003 77.43C13.1703 77.43 12.9103 77.54 12.7003 77.77C12.5003 78 12.3903 78.3 12.3903 78.69C12.3903 79.08 12.4903 79.38 12.7003 79.61C12.9003 79.84 13.1703 79.95 13.5003 79.95C13.7003 79.95 13.8903 79.9 14.0503 79.81C14.2103 79.71 14.3303 79.57 14.4203 79.39H15.5903C15.4703 79.86 15.2203 80.24 14.8503 80.51C14.4803 80.78 14.0303 80.92 13.5203 80.92C13.1003 80.92 12.7203 80.83 12.3803 80.64C12.0503 80.45 11.7803 80.19 11.6003 79.85C11.4203 79.51 11.3203 79.13 11.3203 78.7C11.3203 78.27 11.4103 77.88 11.6003 77.54V77.53Z" fill="#1B1B1B"/>
<path d="M17.1903 80.63C16.8503 80.44 16.5703 80.17 16.3703 79.83C16.1703 79.49 16.0703 79.1 16.0703 78.67C16.0703 78.24 16.1703 77.86 16.3703 77.52C16.5703 77.18 16.8403 76.91 17.1903 76.72C17.5303 76.53 17.9103 76.43 18.3203 76.43C18.7303 76.43 19.1103 76.53 19.4503 76.72C19.7903 76.91 20.0603 77.18 20.2603 77.52C20.4603 77.86 20.5603 78.25 20.5603 78.67C20.5603 79.09 20.4603 79.48 20.2603 79.83C20.0603 80.17 19.7903 80.44 19.4503 80.63C19.1103 80.82 18.7303 80.92 18.3203 80.92C17.9103 80.92 17.5303 80.82 17.1903 80.63ZM19.1603 79.59C19.3703 79.36 19.4703 79.05 19.4703 78.67C19.4703 78.29 19.3703 77.97 19.1603 77.74C18.9503 77.51 18.6703 77.39 18.3203 77.39C17.9703 77.39 17.6803 77.5 17.4703 77.73C17.2603 77.96 17.1503 78.27 17.1503 78.66C17.1503 79.05 17.2603 79.36 17.4703 79.59C17.6803 79.82 17.9603 79.94 18.3203 79.94C18.6803 79.94 18.9503 79.82 19.1603 79.59ZM19.0403 75.61L17.5403 76.24V75.5L19.0403 74.78V75.61Z" fill="#1B1B1B"/>
<path d="M24.0102 76.77C24.3602 76.95 24.6202 77.21 24.8102 77.54C25.0002 77.87 25.0902 78.25 25.0902 78.68C25.0902 79.11 25.0002 79.49 24.8102 79.82C24.6202 80.15 24.3502 80.41 24.0102 80.59C23.6602 80.77 23.2602 80.86 22.8002 80.86H21.1602V76.48H22.8002C23.2602 76.48 23.6602 76.57 24.0102 76.75V76.77ZM23.6702 79.62C23.8902 79.4 24.0102 79.09 24.0102 78.68C24.0102 78.27 23.9002 77.96 23.6702 77.74C23.4502 77.52 23.1302 77.4 22.7302 77.4H22.2202V79.95H22.7302C23.1302 79.95 23.4502 79.84 23.6702 79.62Z" fill="#1B1B1B"/>
<path d="M26.7604 76.5V80.88H25.6904V76.5H26.7604Z" fill="#1B1B1B"/>
<path d="M30.4404 77.88C30.3604 77.73 30.2504 77.62 30.1004 77.55C29.9504 77.47 29.7804 77.43 29.5804 77.43C29.2304 77.43 28.9604 77.54 28.7504 77.77C28.5404 78 28.4404 78.3 28.4404 78.68C28.4404 79.08 28.5504 79.4 28.7704 79.63C28.9904 79.86 29.2904 79.97 29.6704 79.97C29.9304 79.97 30.1504 79.9 30.3304 79.77C30.5104 79.64 30.6404 79.45 30.7304 79.2H29.3804V78.41H31.7004V79.4C31.6204 79.67 31.4904 79.91 31.3004 80.14C31.1104 80.37 30.8704 80.55 30.5804 80.7C30.2904 80.84 29.9604 80.91 29.5904 80.91C29.1604 80.91 28.7704 80.82 28.4304 80.63C28.0904 80.44 27.8304 80.18 27.6404 79.84C27.4504 79.5 27.3604 79.12 27.3604 78.69C27.3604 78.26 27.4504 77.87 27.6404 77.53C27.8304 77.19 28.0904 76.93 28.4304 76.74C28.7704 76.55 29.1504 76.46 29.5804 76.46C30.1004 76.46 30.5504 76.59 30.9104 76.84C31.2704 77.09 31.5104 77.44 31.6204 77.89H30.4404V77.88Z" fill="#1B1B1B"/>
<path d="M33.2196 80.6301C32.8796 80.4401 32.5996 80.1701 32.3996 79.8301C32.1996 79.4901 32.0996 79.1001 32.0996 78.6701C32.0996 78.2401 32.1996 77.8601 32.3996 77.5201C32.5996 77.1801 32.8696 76.9101 33.2196 76.7201C33.5596 76.5301 33.9396 76.4301 34.3496 76.4301C34.7596 76.4301 35.1396 76.5301 35.4796 76.7201C35.8196 76.9101 36.0896 77.1801 36.2896 77.5201C36.4896 77.8601 36.5896 78.2501 36.5896 78.6701C36.5896 79.0901 36.4896 79.4801 36.2896 79.8301C36.0896 80.1701 35.8196 80.4401 35.4796 80.6301C35.1396 80.8201 34.7596 80.9201 34.3496 80.9201C33.9396 80.9201 33.5596 80.8201 33.2196 80.6301ZM35.1896 79.59C35.3996 79.36 35.4996 79.0501 35.4996 78.6701C35.4996 78.2901 35.3996 77.9701 35.1896 77.7401C34.9796 77.5101 34.6996 77.3901 34.3496 77.3901C33.9996 77.3901 33.7096 77.5001 33.4996 77.7301C33.2896 77.9601 33.1796 78.2701 33.1796 78.6601C33.1796 79.0501 33.2896 79.36 33.4996 79.59C33.7096 79.82 33.9896 79.9401 34.3496 79.9401C34.7096 79.9401 34.9796 79.82 35.1896 79.59Z" fill="#1B1B1B"/>
<path d="M37.9096 80.77C37.6596 80.67 37.4496 80.51 37.2996 80.31C37.1496 80.11 37.0696 79.86 37.0596 79.57H38.1996C38.2196 79.73 38.2696 79.86 38.3696 79.94C38.4696 80.03 38.5896 80.07 38.7396 80.07C38.8896 80.07 39.0196 80.03 39.1096 79.96C39.1996 79.89 39.2496 79.79 39.2496 79.66C39.2496 79.55 39.2096 79.46 39.1396 79.39C39.0696 79.32 38.9796 79.26 38.8696 79.21C38.7596 79.16 38.6096 79.11 38.4196 79.05C38.1396 78.96 37.9096 78.88 37.7296 78.79C37.5496 78.7 37.3996 78.57 37.2696 78.4C37.1396 78.23 37.0796 78.01 37.0796 77.73C37.0796 77.32 37.2296 77 37.5196 76.77C37.8196 76.54 38.1996 76.42 38.6696 76.42C39.1396 76.42 39.5396 76.53 39.8396 76.77C40.1396 77 40.2896 77.32 40.3096 77.73H39.1596C39.1596 77.59 39.0996 77.48 38.9996 77.4C38.8996 77.32 38.7796 77.28 38.6296 77.28C38.4996 77.28 38.3996 77.31 38.3196 77.38C38.2396 77.45 38.1996 77.55 38.1996 77.68C38.1996 77.82 38.2696 77.93 38.3996 78.01C38.5296 78.09 38.7396 78.17 39.0196 78.27C39.2996 78.37 39.5296 78.46 39.7096 78.54C39.8896 78.63 40.0396 78.75 40.1696 78.92C40.2996 79.09 40.3596 79.3 40.3596 79.56C40.3596 79.82 40.2996 80.04 40.1696 80.24C40.0396 80.44 39.8596 80.61 39.6196 80.73C39.3796 80.85 39.0896 80.91 38.7696 80.91C38.4496 80.91 38.1596 80.86 37.9096 80.75V80.77Z" fill="#1B1B1B"/>
<path d="M45.4699 81.6301L44.9099 80.8701C44.7399 80.9001 44.5799 80.9201 44.4199 80.9201C44.0099 80.9201 43.6299 80.8201 43.2899 80.6301C42.9499 80.4401 42.6699 80.1701 42.4699 79.8301C42.2699 79.4901 42.1699 79.1001 42.1699 78.6701C42.1699 78.2401 42.2699 77.8601 42.4699 77.5201C42.6699 77.1801 42.9399 76.9101 43.2899 76.7201C43.6299 76.5301 44.0099 76.4301 44.4199 76.4301C44.8299 76.4301 45.2099 76.5301 45.5499 76.7201C45.8899 76.9101 46.1599 77.1801 46.3599 77.5201C46.5599 77.8601 46.6599 78.2501 46.6599 78.6701C46.6599 79.0401 46.5799 79.3901 46.4299 79.7001C46.2799 80.0101 46.0699 80.2701 45.7999 80.4701L46.7599 81.6201H45.4699V81.6301ZM43.5799 79.6101C43.7899 79.8401 44.0699 79.9601 44.4299 79.9601C44.7899 79.9601 45.0599 79.8401 45.2699 79.6101C45.4799 79.3801 45.5799 79.0701 45.5799 78.6901C45.5799 78.3101 45.4799 77.9901 45.2699 77.7601C45.0599 77.5301 44.7799 77.4101 44.4299 77.4101C44.0799 77.4101 43.7899 77.5201 43.5799 77.7501C43.3699 77.9801 43.2599 78.2901 43.2599 78.6801C43.2599 79.0701 43.3699 79.3801 43.5799 79.6101Z" fill="#1B1B1B"/>
<path d="M48.3095 76.5V79.12C48.3095 79.38 48.3695 79.58 48.4995 79.73C48.6295 79.87 48.8195 79.94 49.0695 79.94C49.3195 79.94 49.5095 79.87 49.6395 79.73C49.7695 79.59 49.8395 79.39 49.8395 79.12V76.5H50.9095V79.11C50.9095 79.5 50.8295 79.83 50.6595 80.1C50.4895 80.37 50.2695 80.57 49.9895 80.71C49.7095 80.85 49.3995 80.92 49.0495 80.92C48.6995 80.92 48.3995 80.85 48.1195 80.72C47.8495 80.58 47.6295 80.38 47.4695 80.11C47.3095 79.84 47.2295 79.51 47.2295 79.12V76.51H48.2995L48.3095 76.5Z" fill="#1B1B1B"/>
<path d="M52.7299 77.3501V78.2401H54.1599V79.0601H52.7299V80.0201H54.3499V80.8701H51.6699V76.4901H54.3499V77.34H52.7299V77.3501Z" fill="#1B1B1B"/>
<path d="M1.48996 85.0101C1.67996 84.6701 1.93996 84.4101 2.26996 84.2201C2.59996 84.0301 2.97996 83.9401 3.40996 83.9401C3.92996 83.9401 4.36996 84.0801 4.73996 84.3501C5.10996 84.6201 5.35996 85.0001 5.47996 85.4701H4.30996C4.21996 85.2901 4.09996 85.1501 3.93996 85.0501C3.77996 84.9501 3.59996 84.9101 3.38996 84.9101C3.05996 84.9101 2.79996 85.0201 2.58996 85.2501C2.38996 85.4801 2.27996 85.7801 2.27996 86.1701C2.27996 86.5601 2.37996 86.8601 2.58996 87.0901C2.78996 87.3201 3.05996 87.4301 3.38996 87.4301C3.58996 87.4301 3.77996 87.3801 3.93996 87.2901C4.09996 87.1901 4.21996 87.0501 4.30996 86.8701H5.47996C5.35996 87.3401 5.10996 87.7201 4.73996 87.9901C4.36996 88.2601 3.91996 88.4001 3.40996 88.4001C2.98996 88.4001 2.60996 88.3101 2.26996 88.1201C1.93996 87.9301 1.66996 87.6701 1.48996 87.3301C1.30996 86.9901 1.20996 86.6101 1.20996 86.1801C1.20996 85.7501 1.29996 85.3601 1.48996 85.0201V85.0101Z" fill="#1B1B1B"/>
<path d="M7.07996 88.12C6.73996 87.93 6.45996 87.66 6.25996 87.32C6.05996 86.98 5.95996 86.59 5.95996 86.16C5.95996 85.73 6.05996 85.35 6.25996 85.01C6.45996 84.67 6.72996 84.4 7.07996 84.21C7.41996 84.02 7.79996 83.92 8.20996 83.92C8.61996 83.92 8.99996 84.02 9.33996 84.21C9.67996 84.4 9.94996 84.67 10.15 85.01C10.35 85.35 10.45 85.74 10.45 86.16C10.45 86.58 10.35 86.97 10.15 87.32C9.94996 87.66 9.67996 87.93 9.33996 88.12C8.99996 88.31 8.61996 88.41 8.20996 88.41C7.79996 88.41 7.41996 88.31 7.07996 88.12ZM9.04996 87.08C9.25996 86.85 9.35996 86.54 9.35996 86.16C9.35996 85.78 9.25996 85.46 9.04996 85.23C8.83996 85 8.55996 84.88 8.20996 84.88C7.85996 84.88 7.56996 84.99 7.35996 85.22C7.14996 85.45 7.03996 85.76 7.03996 86.15C7.03996 86.54 7.14996 86.85 7.35996 87.08C7.56996 87.31 7.84996 87.43 8.20996 87.43C8.56996 87.43 8.83996 87.31 9.04996 87.08Z" fill="#1B1B1B"/>
<path d="M14.96 88.36H13.89L12.11 85.66V88.36H11.04V83.98H12.11L13.89 86.69V83.98H14.96V88.36Z" fill="#1B1B1B"/>
<path d="M16.8002 84.84V85.73H18.2302V86.55H16.8002V87.51H18.4202V88.36H15.7402V83.98H18.4202V84.83H16.8002V84.84Z" fill="#1B1B1B"/>
<path d="M19.2097 85.0101C19.3997 84.6701 19.6597 84.4101 19.9897 84.2201C20.3197 84.0301 20.6997 83.9401 21.1297 83.9401C21.6497 83.9401 22.0897 84.0801 22.4597 84.3501C22.8297 84.6201 23.0797 85.0001 23.1997 85.4701H22.0297C21.9397 85.2901 21.8197 85.1501 21.6597 85.0501C21.4997 84.9501 21.3197 84.9101 21.1097 84.9101C20.7797 84.9101 20.5197 85.0201 20.3097 85.2501C20.1097 85.4801 19.9997 85.7801 19.9997 86.1701C19.9997 86.5601 20.0997 86.8601 20.3097 87.0901C20.5097 87.3201 20.7797 87.4301 21.1097 87.4301C21.3097 87.4301 21.4997 87.3801 21.6597 87.2901C21.8197 87.1901 21.9397 87.0501 22.0297 86.8701H23.1997C23.0797 87.3401 22.8297 87.7201 22.4597 87.9901C22.0897 88.2601 21.6397 88.4001 21.1297 88.4001C20.7097 88.4001 20.3297 88.3101 19.9897 88.1201C19.6597 87.9301 19.3897 87.6701 19.2097 87.3301C19.0297 86.9901 18.9297 86.6101 18.9297 86.1801C18.9297 85.7501 19.0197 85.3601 19.2097 85.0201V85.0101Z" fill="#1B1B1B"/>
<path d="M27.0101 83.98V84.83H25.8501V88.35H24.7801V84.83H23.6201V83.98H27.0101Z" fill="#1B1B1B"/>
<path d="M30.2698 87.59H28.6398L28.3798 88.36H27.2598L28.8398 83.98H30.0798L31.6598 88.36H30.5298L30.2698 87.59ZM29.9998 86.77L29.4598 85.17L28.9198 86.77H29.9998Z" fill="#1B1B1B"/>
<path d="M36.0597 88.36H34.9897L33.2096 85.66V88.36H32.1396V83.98H33.2096L34.9897 86.69V83.98H36.0597V88.36Z" fill="#1B1B1B"/>
<path d="M41.9098 83.98L40.3898 86.91V88.36H39.3198V86.91L37.7998 83.98H39.0098L39.8598 85.81L40.6998 83.98H41.8998H41.9098Z" fill="#1B1B1B"/>
<path d="M43.7702 85.0101C43.9602 84.6701 44.2202 84.4101 44.5502 84.2201C44.8802 84.0301 45.2602 83.9401 45.6902 83.9401C46.2102 83.9401 46.6502 84.0801 47.0202 84.3501C47.3902 84.6201 47.6402 85.0001 47.7602 85.4701H46.5902C46.5002 85.2901 46.3802 85.1501 46.2202 85.0501C46.0602 84.9501 45.8802 84.9101 45.6702 84.9101C45.3402 84.9101 45.0802 85.0201 44.8702 85.2501C44.6702 85.4801 44.5602 85.7801 44.5602 86.1701C44.5602 86.5601 44.6602 86.8601 44.8702 87.0901C45.0702 87.3201 45.3402 87.4301 45.6702 87.4301C45.8702 87.4301 46.0602 87.3801 46.2202 87.2901C46.3802 87.1901 46.5002 87.0501 46.5902 86.8701H47.7602C47.6402 87.3401 47.3902 87.7201 47.0202 87.9901C46.6502 88.2601 46.2002 88.4001 45.6902 88.4001C45.2702 88.4001 44.8902 88.3101 44.5502 88.1201C44.2202 87.9301 43.9502 87.6701 43.7702 87.3301C43.5902 86.9901 43.4902 86.6101 43.4902 86.1801C43.4902 85.7501 43.5802 85.3601 43.7702 85.0201V85.0101Z" fill="#1B1B1B"/>
<path d="M50.6502 88.36L49.7402 86.71H49.4802V88.36H48.4102V83.98H50.2002C50.5402 83.98 50.8402 84.04 51.0802 84.16C51.3202 84.28 51.5002 84.45 51.6302 84.66C51.7502 84.87 51.8102 85.1 51.8102 85.36C51.8102 85.65 51.7302 85.91 51.5602 86.14C51.4002 86.37 51.1502 86.53 50.8302 86.63L51.8402 88.36H50.6402H50.6502ZM49.4802 85.95H50.1402C50.3402 85.95 50.4802 85.9 50.5802 85.81C50.6802 85.71 50.7302 85.58 50.7302 85.4C50.7302 85.22 50.6802 85.1 50.5802 85.01C50.4802 84.91 50.3402 84.87 50.1402 84.87H49.4802V85.96V85.95Z" fill="#1B1B1B"/>
<path d="M53.5502 84.84V85.73H54.9802V86.55H53.5502V87.51H55.1702V88.36H52.4902V83.98H55.1702V84.83H53.5502V84.84Z" fill="#1B1B1B"/>
<path d="M58.5901 87.59H56.9601L56.7001 88.36H55.5801L57.1601 83.98H58.4001L59.9801 88.36H58.8501L58.5901 87.59ZM58.3201 86.77L57.7801 85.17L57.2401 86.77H58.3201Z" fill="#1B1B1B"/>
<path d="M64.3702 88.36H63.3002L61.5202 85.66V88.36H60.4502V83.98H61.5202L63.3002 86.69V83.98H64.3702V88.36Z" fill="#1B1B1B"/>
<path d="M0.25 92.91L0.32 108.4H64.89L64.83 92.9" stroke="#333333" stroke-width="0.5" stroke-miterlimit="10"/>
<path d="M21.1301 123.36H22.5101V124.39H21.1301V126.7H19.8601V124.39H15.3301V123.64L19.7901 116.74H21.1401V123.35L21.1301 123.36ZM16.7601 123.36H19.8601V118.48L19.7101 118.75L16.7601 123.36Z" fill="#1B1B1B"/>
<path d="M30.1697 126.7H23.6497V125.79L27.0997 121.96C27.6097 121.38 27.9597 120.91 28.1597 120.55C28.3497 120.19 28.4497 119.81 28.4497 119.43C28.4497 118.91 28.2897 118.48 27.9797 118.15C27.6697 117.82 27.2497 117.65 26.7197 117.65C26.0897 117.65 25.5997 117.83 25.2497 118.19C24.8997 118.55 24.7297 119.05 24.7297 119.68H23.4697C23.4697 118.76 23.7597 118.02 24.3497 117.46C24.9397 116.9 25.7297 116.61 26.7197 116.61C27.6397 116.61 28.3797 116.85 28.9097 117.34C29.4497 117.82 29.7197 118.47 29.7197 119.28C29.7197 120.26 29.0997 121.43 27.8497 122.78L25.1797 125.67H30.1797V126.7H30.1697Z" fill="#1B1B1B"/>
<path d="M41.3601 123.09C41.3601 124.22 41.1001 125.12 40.5901 125.81C40.0801 126.5 39.3801 126.84 38.5001 126.84C37.6201 126.84 36.9001 126.55 36.3801 125.99V129.55H35.1201V119.31H36.2701L36.3301 120.13C36.8401 119.49 37.5601 119.17 38.4801 119.17C39.4001 119.17 40.0701 119.5 40.5901 120.17C41.1101 120.84 41.3701 121.77 41.3701 122.97V123.09H41.3601ZM40.0901 122.95C40.0901 122.12 39.9101 121.46 39.5601 120.97C39.2101 120.48 38.7201 120.25 38.1001 120.25C37.3301 120.25 36.7601 120.59 36.3801 121.27V124.8C36.7601 125.47 37.3401 125.81 38.1201 125.81C38.7301 125.81 39.2101 125.57 39.5701 125.09C39.9301 124.61 40.1101 123.9 40.1101 122.95H40.0901Z" fill="#1B1B1B"/>
<path d="M45.3404 122.01L46.9804 119.31H48.4604L46.0404 122.97L48.5404 126.71H47.0804L45.3704 123.94L43.6604 126.71H42.1904L44.6904 122.97L42.2704 119.31H43.7304L45.3504 122.01H45.3404Z" fill="#1B1B1B"/>
</g>
<defs>
<clipPath id="clip0_315_609">
<rect width="65.15" height="129.55" fill="white"/>
</clipPath>
</defs>
</svg>
